<?xml version="1.0" encoding="UTF-8"?>
<svg width="179px" height="179px" viewBox="0 0 179 179" version="1.1" xmlns="http://www.w3.org/2000/svg" xmlns:xlink="http://www.w3.org/1999/xlink">
    <!-- Generator: Sketch 61.2 (89653) - https://sketch.com -->
    <title>Old Navy Logo</title>
    <desc>Created with Sketch.</desc>
    <g id="Welcome" stroke="none" stroke-width="1" fill="none" fill-rule="evenodd">
        <g id="About" transform="translate(-752.000000, -3233.000000)" fill-rule="nonzero">
            <g id="Old-Navy-Logo" transform="translate(752.000000, 3233.000000)">
                <polygon id="Path" fill="#FFFFFF" points="0 0 179 0 179 179 0 179"></polygon>
                <path d="M89.5,62.9967524 C44.4324068,62.9967524 7.89711345,74.8628525 7.89711345,89.5 C7.89711345,104.138076 44.4324068,116.003248 89.5,116.003248 C134.566665,116.003248 171.102887,104.138076 171.102887,89.5 C171.102887,74.8628525 134.566665,62.9967524 89.5,62.9967524 Z" id="Path" fill="#000000"></path>
                <path d="M43.8455093,89.5083577 C43.8455093,95.5677022 40.7262238,100.044652 35.3187813,100.044652 C29.9122673,100.044652 26.7929818,95.5686308 26.7929818,89.5083577 C26.7929818,83.1397778 29.8862655,78.8485546 35.3187813,78.8485546 C40.7522256,78.8485546 43.8455093,83.1388491 43.8455093,89.5083577 Z" id="Path" fill="#FFFFFF"></path>
                <path d="M32.2867874,89.5520036 C32.2867874,91.7630839 32.4929444,96.016233 35.3289962,96.016233 C38.165048,96.016233 38.371205,91.7630839 38.371205,89.5520036 C38.371205,87.308421 38.0758991,82.8212559 35.3289962,82.8212559 C32.5820934,82.8212559 32.2867874,87.308421 32.2867874,89.5520036 Z" id="Path" fill="#000000"></path>
                <path d="M57.2689307,99.7335595 L46.8793604,99.7335595 L46.8793604,79.1596474 L52.111291,79.1596474 L52.111291,96.1787441 L57.2689307,96.1787441 L57.2689307,99.7335595 Z M60.6751645,79.1596474 L67.2731173,79.1596474 C69.8556517,79.1596474 71.9153645,79.1930783 73.845997,81.3995154 C75.7236973,83.5121605 76.5845421,86.432718 76.5845421,89.4777128 C76.5845421,92.2747619 75.7496991,95.1943908 74.1069435,97.2132437 C72.3332503,99.4206095 70.1165982,99.7344882 67.6389996,99.7344882 L60.6751645,99.7344882 L60.6751645,79.1596474 Z" id="Shape" fill="#FFFFFF"></path>
                <path d="M66.9601673,95.944728 C67.6910031,95.944728 68.1599639,96.0153043 68.8378676,95.5240563 C69.3328301,95.1377441 69.7247141,94.6121366 70.0116624,93.9444479 C70.6375625,92.5422088 70.8455768,90.9282409 70.8455768,89.3152016 C70.8455768,87.7012337 70.506625,85.5969464 69.7497873,84.2643549 C68.8898711,82.8258991 68.0550281,82.8964753 66.8032279,82.8964753 L66.1773278,82.8964753 L66.1773278,95.9456567 L66.9601673,95.9456567 L66.9601673,95.944728 L66.9601673,95.944728 Z" id="Path" fill="#000000"></path>
                <path d="M95.522199,99.7335595 L89.2669126,87.2657038 L89.2669126,99.7335595 L84.23371,99.7335595 L84.23371,79.1596474 L89.3291311,79.1596474 L95.5463436,91.5522837 L95.5463436,79.1596474 L100.568403,79.1596474 L100.568403,99.7335595 L95.522199,99.7335595 L95.522199,99.7335595 Z M113.768951,95.9085113 L109.900257,95.9085113 L108.8639,99.7335595 L103.25773,99.7335595 L108.514734,79.1596474 L115.194406,79.1596474 L120.499699,99.7335595 L114.731946,99.7335595 L113.768951,95.9085113 L113.768951,95.9085113 Z" id="Shape" fill="#FFFFFF"></path>
                <polygon id="Path" fill="#000000" points="113.249844 92.0342454 111.868035 84.4185084 110.488083 92.0342454"></polygon>
                <path d="M131.242151,99.7335595 L125.69077,99.7335595 L120.731858,79.1596474 L126.183875,79.1596474 L128.418171,90.7648011 L130.380377,79.1596474 L136.252137,79.1596474 L131.242151,99.7335595 Z M149.00787,89.736802 L149.00787,99.7335595 L143.605071,99.7335595 L143.605071,89.736802 L138.088978,79.1596474 L143.481562,79.1596474 L146.258181,85.0713389 L149.403469,79.1596474 L154.313163,79.1596474 L149.00787,89.736802 Z" id="Shape" fill="#FFFFFF"></path>
            </g>
        </g>
    </g>
</svg>