<?xml version="1.0" encoding="UTF-8"?>
<svg width="130px" height="103px" viewBox="0 0 130 103" version="1.1" xmlns="http://www.w3.org/2000/svg" xmlns:xlink="http://www.w3.org/1999/xlink">
    <!-- Generator: Sketch 61.2 (89653) - https://sketch.com -->
    <title>MetLife Stadium Logo</title>
    <desc>Created with Sketch.</desc>
    <g id="Welcome" stroke="none" stroke-width="1" fill="none" fill-rule="evenodd">
        <g id="About" transform="translate(-295.000000, -3448.000000)" fill="#434343" fill-rule="nonzero">
            <g id="MetLife-Stadium-Logo" transform="translate(295.000000, 3448.000000)">
                <path d="M32.2847011,102.785191 C31.9149702,102.618997 31.156837,101.417372 31.3417025,101.232506 C31.3786755,101.195533 31.637672,101.103101 31.8962988,101.02897 C32.2847011,100.936537 32.3954355,100.992181 32.580301,101.380214 C32.7281933,101.712972 32.9315453,101.860864 33.2643032,101.860864 C33.6340341,101.860864 33.7264668,101.768431 33.7264668,101.361912 C33.7264668,101.010668 33.4121955,100.548504 32.6172741,99.7166097 C31.6005141,98.6628767 31.5080814,98.4964977 31.5080814,97.7385494 C31.5080814,97.0545472 31.6005141,96.8328935 31.9887315,96.5184374 C32.4695666,96.1300351 33.3938938,96.0193007 34.003765,96.2411392 C34.2995497,96.3520585 34.8356595,97.2392278 34.8356595,97.6089587 C34.8356595,97.9419014 33.8926608,97.8124956 33.5785744,97.4056067 C33.1718704,96.9249565 32.6172741,97.109822 32.6172741,97.719878 C32.6172741,97.9971762 32.987005,98.5331011 33.7264668,99.2542612 C34.7432268,100.271021 34.8356595,100.418914 34.8356595,101.176862 C34.8356595,101.694485 34.7062537,102.156649 34.5213882,102.396974 C34.1333556,102.840836 32.9132437,103.044003 32.2847011,102.785191 Z M82.9008619,102.729732 C82.1057556,102.323028 81.9765347,101.786918 81.9765347,98.8662287 L81.9765347,96.1300351 L83.2705928,96.1300351 L83.2705928,101.879351 L83.7882161,101.823891 L84.2873528,101.768247 L84.3428124,98.9584765 L84.3982721,96.1300351 L85.6738437,96.1300351 L85.6738437,98.7181514 C85.6738437,100.566806 85.5998975,101.509805 85.3965455,101.953297 C85.0083281,102.896111 83.8991354,103.228868 82.9008619,102.729732 L82.9008619,102.729732 Z M42.2304625,100.01221 L42.2304625,97.2392278 L41.6758661,97.2392278 C41.1767294,97.2392278 41.1212697,97.1837682 41.1212697,96.6846315 L41.1212697,96.1300351 L44.4488479,96.1300351 L44.4488479,96.6846315 C44.4488479,97.1837682 44.3933882,97.2392278 43.8942515,97.2392278 L43.3396552,97.2392278 L43.3396552,102.785191 L42.2304625,102.785191 L42.2304625,100.01221 Z M50.8082194,102.471105 C50.8638639,102.28624 51.1224907,100.936537 51.3814872,99.4576132 C52.0285163,95.9083814 51.9360836,96.1300351 52.7493067,96.1300351 L53.4333088,96.1300351 L54.0248783,99.3283923 C54.3576361,101.065943 54.6164477,102.563538 54.6164477,102.65597 C54.6164477,102.729732 54.3759378,102.785191 54.0618514,102.785191 C53.636476,102.785191 53.507255,102.692759 53.507255,102.434132 C53.507255,101.731643 53.3037182,101.491133 52.6753605,101.491133 C52.1020927,101.491133 52.046818,101.546778 51.9913583,102.101374 C51.9358987,102.618997 51.8619525,102.692759 51.3258427,102.748403 C50.7897329,102.803678 50.7157867,102.766705 50.8082194,102.471105 L50.8082194,102.471105 Z M53.0266049,99.420825 C52.8417394,97.92323 52.6568739,97.8494687 52.4720085,99.1620134 C52.287143,100.363639 52.287143,100.382125 52.7125185,100.382125 C53.1375241,100.38194 53.1375241,100.345152 53.0266049,99.420825 Z M62.0110658,99.4576132 L62.0110658,96.1300351 L63.0091544,96.1300351 C65.098134,96.1300351 65.5235094,96.7033029 65.5235094,99.5132577 C65.5235094,101.3987 65.3016709,102.323028 64.7840476,102.600326 C64.5991822,102.71143 63.8965086,102.785191 63.2311778,102.785191 L62.0110658,102.785191 L62.0110658,99.4576132 Z M64.1924782,99.5315594 C64.2479378,97.3316605 64.2294513,97.2762009 63.8227473,97.1652816 C63.5824222,97.109822 63.3419122,97.0541775 63.2681509,97.0541775 C63.1757182,97.0541775 63.1202585,98.1448837 63.1202585,99.4760998 L63.1202585,101.879351 L63.6378818,101.823891 L64.1370185,101.768247 L64.1924782,99.5315594 Z M73.102993,99.4576132 L73.102993,96.1300351 L74.2121857,96.1300351 L74.2121857,102.785191 L73.102993,102.785191 L73.102993,99.4576132 Z M93.10525,99.5132577 L93.1608945,96.2224678 L93.9188429,96.1670082 L94.6767912,96.1115486 L94.9910625,97.6459318 C95.5086857,100.067854 95.5086857,100.067854 95.9153897,98.0711223 L96.3037921,96.2224678 L97.0987135,96.1670082 L97.8751484,96.1115486 L97.8751484,102.785191 L96.7659557,102.785191 L96.7472843,100.62245 L96.7287977,98.4408532 L96.4699861,99.6424787 C96.3220937,100.308179 96.1189266,101.287781 96.0078225,101.824076 C95.8599301,102.544866 95.7305243,102.785191 95.4901992,102.785191 C95.2313876,102.785191 95.0834952,102.378672 94.7137643,100.530018 L94.2700872,98.2559878 L94.2144427,100.530018 L94.1591679,102.785191 L93.0684618,102.785191 L93.10525,99.5132577 Z M103.420927,89.8261232 C100.111836,89.4748788 97.9304232,87.6077378 97.3203672,84.5759443 C96.8766901,82.4315051 97.5237192,79.8805467 98.8547504,78.4385962 C99.2614544,77.9949191 100.130137,77.3848631 100.814324,77.0334339 C101.978977,76.460351 102.108382,76.4418644 104.253006,76.4418644 C106.305013,76.4418644 106.563825,76.4788375 107.580585,76.9596726 C109.022535,77.6251882 109.928191,78.5310289 110.538432,79.8988484 C111.019082,80.971068 111.462759,83.2264265 111.29638,83.6885902 C111.222434,83.8734556 110.150214,83.9289153 106.471392,83.9289153 L101.757138,83.9289153 L101.757138,84.3542907 C101.757138,85.5559161 103.032525,86.701897 104.400714,86.701897 C105.251095,86.701897 106.341801,86.2767065 106.489694,85.8700025 C106.582126,85.6483488 106.98883,85.5927043 108.818998,85.5927043 L111.037384,85.5927043 L110.926464,86.0735394 C110.852518,86.3321661 110.593707,86.8684608 110.353382,87.2564934 C109.151756,89.142121 106.489694,90.1403944 103.420927,89.8261232 L103.420927,89.8261232 Z M106.933371,80.9156084 C106.933371,79.7326544 104.437687,78.8636019 103.069683,79.5660906 C102.552059,79.8433888 101.942003,80.6013371 101.942003,80.971068 C101.942003,81.0821722 102.847659,81.1559335 104.437687,81.1559335 C106.341801,81.1559335 106.933371,81.1004738 106.933371,80.9156084 Z M45.8168522,89.4194192 C43.1178166,88.3841727 41.7498123,86.5726761 41.5464603,83.7255633 C41.3800814,81.377772 41.8607315,79.8803619 43.265709,78.3829517 C44.4860058,77.070407 45.946258,76.4788375 48.1646435,76.3864048 C51.0670311,76.256999 53.1375241,77.1258666 54.3761227,78.9931926 C55.1155845,80.1023853 55.3560944,80.8786353 55.4853154,82.5980689 L55.5962346,83.9289153 L46.1126369,83.9289153 L46.1126369,84.4467234 C46.1126369,85.2046717 46.7781526,86.128999 47.5361009,86.461572 C48.5341895,86.8682759 49.8654056,86.701897 50.5124347,86.091841 C50.9745983,85.6483488 51.1409772,85.6111909 53.1929838,85.5559161 C54.5425016,85.518943 55.3559096,85.5744026 55.3559096,85.6851371 C55.3372381,86.1659721 54.5977763,87.4413588 53.9694187,88.0515997 C53.5810163,88.4213306 52.8047663,88.9572556 52.2316834,89.2345537 C51.3260276,89.6782308 50.9376252,89.752177 49.0704842,89.7891501 C47.2218297,89.8446097 46.7966391,89.7891501 45.8168522,89.4194192 Z M51.2888696,80.9342798 C51.2888696,80.8231757 50.9745983,80.4164717 50.5678943,80.0284391 C49.9208653,79.3629235 49.7729729,79.3074638 48.8486456,79.3074638 C47.7024798,79.3074638 46.759666,79.8066005 46.352962,80.601522 L46.1311235,81.0636856 L48.4789147,81.1561183 C50.9561118,81.2483662 51.2888696,81.2298797 51.2888696,80.9342798 L51.2888696,80.9342798 Z M7.47575745,89.1051479 C5.79329697,88.8093632 4.09271968,88.4767902 3.68601569,88.3843575 C2.81714806,88.162519 3.85220973,88.2179786 8.67738289,88.7171153 C11.2100396,88.975927 11.6352301,89.0683597 11.6906898,89.3456579 C11.7831225,89.7891501 11.191553,89.752177 7.47575745,89.1051479 Z M18.0130882,89.3639595 C18.0130882,89.0681748 20.6566642,73.3915845 20.8969893,72.2452338 L21.0080934,71.7276106 L25.5557835,71.7276106 L26.0734068,73.0771284 C26.350705,73.7981036 27.1456264,75.9057546 27.8296286,77.7174361 C28.5321173,79.547604 29.1052002,81.0819873 29.1052002,81.1374469 C29.1236868,81.4517182 29.6411252,80.2685793 31.268126,76.2015394 L33.061136,71.7093089 L35.3904407,71.7647685 L37.7012589,71.8202281 L38.9213709,79.8618753 C39.5870714,84.2801596 40.1969425,88.2919248 40.2708887,88.7910615 L40.4002945,89.6597443 L38.0894763,89.6597443 C35.8341178,89.6597443 35.7601716,89.6412577 35.6862254,89.2532251 C35.6307658,89.0127152 35.335166,86.7575415 35.0207098,84.2062134 C34.687952,81.6737416 34.4106538,79.5660906 34.3921673,79.5477889 C34.3736807,79.5108158 33.6157324,81.2670376 32.7283782,83.4299634 C31.8227224,85.5744026 30.8797237,87.8667343 30.6024255,88.5137633 L30.1217753,89.6784157 L29.1235019,89.622956 L28.143715,89.5673115 L26.1656547,84.6315888 C25.093435,81.9138818 24.1691078,79.6770099 24.0951616,79.6770099 C24.039702,79.6770099 23.8548365,80.7307429 23.6699711,82.0434725 C23.503777,83.3375307 23.1708343,85.5744026 22.9674823,87.0348397 L22.5792649,89.6597443 L20.2869333,89.6597443 C18.3088729,89.6597443 18.0130882,89.622956 18.0130882,89.3639595 L18.0130882,89.3639595 Z M59.0162455,85.1861852 L58.9607859,80.6937698 L57.8515932,80.6013371 L56.760887,80.5089044 L56.7793735,78.8451153 C56.8163466,77.9394595 56.835018,77.1258666 56.835018,77.0521053 C56.835018,76.9596726 57.3339699,76.9040281 57.9442107,76.9040281 L59.0534035,76.9040281 L59.0534035,73.0218536 L63.4715029,73.0218536 L63.5269625,74.9259677 L63.582607,76.8115954 L64.7472594,76.8672399 L65.8934252,76.9226995 L65.8934252,80.5828506 L64.7472594,80.6383102 L63.582607,80.6937698 L63.5456339,84.7608098 C63.5269625,86.9978666 63.4901743,89.0127152 63.4901743,89.2532251 C63.4899894,89.6597443 63.4530164,89.6597443 61.271604,89.6597443 L59.0532186,89.6597443 L59.0162455,85.1861852 Z M67.7418948,80.6013371 L67.7418948,71.54293 L72.5483966,71.54293 L72.5483966,85.5927043 L78.0943602,85.5927043 L78.0943602,89.6597443 L67.7418948,89.6597443 L67.7418948,80.6013371 Z M79.7949375,82.875367 L79.850582,76.0721335 L82.124427,76.0166739 L84.3797855,75.9612143 L84.3797855,89.6597443 L79.7581492,89.6597443 L79.7949375,82.875367 Z M88.9644487,85.3710506 L88.9089891,81.0635008 L87.7441519,81.0080411 L86.5794995,80.9525815 L86.6349592,79.1593866 L86.6906037,77.3661917 L87.855256,77.3107321 L89.0014218,77.2552724 L89.0014218,75.9057546 C89.0014218,74.2232942 89.3896393,73.0771284 90.2768086,72.0603684 C91.4599475,70.7108506 93.6598464,69.8976274 95.342122,70.1379525 C96.6175087,70.3413045 96.6731532,70.4522238 96.6175087,72.6149647 C96.5624188,74.3898579 96.5439323,74.4822907 96.2111745,74.3159117 C96.026309,74.2049925 95.4901992,74.1310463 95.0280356,74.1310463 C94.3255469,74.1310463 94.1406814,74.2049925 93.8633832,74.6118813 C93.6970043,74.8891795 93.5121389,75.5916682 93.4749809,76.1832377 L93.4012196,77.273759 L96.2111745,77.273759 L96.2111745,80.9525815 L94.8801432,81.0080411 L93.5306254,81.0635008 L93.4749809,85.3710506 L93.4381927,89.6597443 L89.0014218,89.6597443 L88.9644487,85.3710506 Z M117.285836,89.3824461 C117.285836,89.0313866 117.378269,89.0127152 121.81504,88.5505516 C125.678543,88.1623341 126.085432,88.125361 125.955841,88.2547668 C125.844922,88.3841727 118.283925,89.6597443 117.729328,89.6597443 C117.452215,89.6597443 117.285836,89.548825 117.285836,89.3824461 Z M7.93792108,84.021348 C6.10775311,83.8734556 4.27758513,83.7627212 3.88936768,83.7627212 C3.48266369,83.7440498 3.20536551,83.688775 3.27931169,83.6333154 C3.40871751,83.5039096 12.0789072,83.3929903 12.4301516,83.5223961 C12.5410708,83.5591844 12.6519901,83.7627212 12.6519901,83.9475867 C12.6519901,84.3542907 12.7813959,84.3542907 7.93792108,84.021348 Z M116.435455,84.0398345 C116.361694,83.8734556 116.379995,83.6701036 116.435455,83.5961574 C116.583347,83.4482651 124.865504,83.4299634 125.789832,83.5591844 C126.140891,83.6148289 124.699126,83.7810229 122.554686,83.892127 C120.428734,84.021348 118.191677,84.1694252 117.618779,84.2431865 C116.73124,84.3356193 116.527888,84.2986462 116.435455,84.0398345 Z M2.29952479,78.9375481 C3.22385206,78.8083271 7.66062291,78.4199248 11.9862896,78.087167 L13.6132905,77.9577612 L13.4838846,78.4014382 C13.4099385,78.6417633 13.3359923,78.8636019 13.3175057,78.8636019 C13.3175057,78.8820884 10.5999836,78.9373632 7.290892,78.9745211 C3.98180041,79.0299808 1.74492844,79.0114942 2.29952479,78.9375481 Z M119.855466,78.9931926 L115.65902,78.9375481 L115.566587,78.4568979 L115.474155,77.9762477 L117.174917,78.087167 C120.095791,78.3090055 125.456889,78.7711691 126.806592,78.9190615 C128.266844,79.0856253 128.377763,79.0856253 119.855466,78.9931926 L119.855466,78.9931926 Z M81.0522074,74.1125598 C79.7581492,73.5949365 79.0186874,72.1528011 79.3884183,70.8219547 C80.0722356,68.2523249 83.6216523,68.0119998 84.6384123,70.4707103 C85.0636028,71.5059569 84.9343819,72.393311 84.2501948,73.2252056 C83.4369717,74.1865059 82.1614001,74.5377503 81.0522074,74.1125598 Z M1.26427826,73.9831539 C1.31992276,73.8907212 1.67098226,73.7613154 2.05938457,73.7058558 C2.44760202,73.6503961 3.92652564,73.3915845 5.34998962,73.1327729 C7.56837505,72.7443705 14.075639,71.7276106 14.4083968,71.7276106 C14.4821581,71.7276106 14.5008295,71.9494491 14.4638564,72.2452338 C14.4083968,72.7443705 14.3899102,72.7443705 12.652175,72.8737764 C10.1010317,73.0771284 1.89300567,73.945996 1.48630167,74.0754018 C1.28276481,74.1310463 1.19033208,74.0940732 1.26427826,73.9831539 Z M125.88208,73.8537481 C124.86532,73.7243423 121.999905,73.4285576 119.504221,73.1882325 C117.008538,72.9663939 114.863914,72.6890958 114.753179,72.596663 C114.623773,72.5042303 114.512854,72.2639052 114.512854,72.0605532 C114.512854,71.7464668 114.605287,71.7094937 115.215343,71.8019265 C115.585074,71.8573861 117.063997,72.0792246 118.487461,72.2825766 C121.556228,72.7447403 128.433223,73.9463657 128.543957,74.0574698 C128.673548,74.1680194 127.897113,74.1125598 125.88208,73.8537481 L125.88208,73.8537481 Z" id="Shape"></path>
                <path d="M0.302977912,68.8623809 C0.432383729,68.7329751 7.17997273,67.2170784 10.0638738,66.662482 C21.2667202,64.5365293 33.0426495,63.2609577 48.7007533,62.4660363 C54.3391496,62.1700667 73.7685086,62.1700667 79.5732838,62.4473649 C98.9285117,63.4086652 114.863914,65.4052121 127.212926,68.4187038 C128.950661,68.8438944 129.505258,69.0842195 128.28533,68.8808675 C112.904525,66.4036704 98.4663481,65.1096122 79.2035529,64.4995562 C71.5316366,64.2592312 49.0889707,64.3701504 42.7850588,64.6844217 C26.1656547,65.5163162 10.7293894,67.0506995 2.13314589,68.6775155 C0.672708816,68.9733002 0.136599005,69.0102733 0.302977912,68.8623809 L0.302977912,68.8623809 Z" id="Path"></path>
                <path d="M0.0256797339,64.4995562 C0.358437548,64.1667984 7.40162641,62.2996574 13.1141537,61.0425723 L14.5930774,60.7098145 L14.648537,58.3065636 L14.7039966,55.9033127 L15.665297,55.404176 C16.1829202,55.1453644 17.4030322,54.4985201 18.3643326,53.980712 L20.1020678,53.0378982 L21.9322358,53.8697927 C22.9303244,54.3319564 23.7808903,54.7201738 23.83635,54.7201738 C23.8918096,54.7201738 23.9287827,50.5052415 23.9287827,45.3290089 L23.9287827,35.9563304 L25.5739004,35.0689763 L27.2009012,34.2001086 L33.1165957,34.2001086 L34.7064385,35.0874628 L36.314768,35.9563304 L36.314768,48.5456677 L37.0355584,48.9523717 C37.6088261,49.2851295 37.8489664,49.3221026 38.2371838,49.1740254 C38.6993474,49.0078314 38.7180189,48.9337003 38.7180189,47.6951018 C38.7180189,46.4380167 38.7365054,46.3642554 39.2726152,46.0682858 L39.8272116,45.7540145 L39.8272116,41.5021091 C39.8272116,38.174531 39.8826712,37.157771 40.0858383,36.8804728 C40.2339156,36.6771208 40.3631365,35.8823843 40.4001096,35.0872779 C40.4555692,34.0891894 40.5664885,33.5715661 40.8068136,33.3310561 C41.0101656,33.0907311 41.1210849,32.6655405 41.1210849,32.0002098 C41.1210849,31.4824016 41.2504907,30.7429398 41.3983831,30.3732089 C41.5462754,30.0221494 41.6756812,29.3196607 41.6756812,28.8388257 C41.6756812,28.0808773 41.7494425,27.8775253 42.2116062,27.5077944 C42.7107429,27.1012753 42.747716,26.9718695 43.431903,22.2206425 C43.838607,19.55858 44.2083379,17.4326273 44.2822841,17.5065734 C44.3377437,17.5990062 44.7074746,19.761932 45.0956921,22.3500483 C45.7796943,26.9347115 45.7981808,27.0641173 46.3158041,27.5076095 C46.7594812,27.8773404 46.8519139,28.0808773 46.8519139,28.8016677 C46.8519139,29.2825027 46.9813197,30.0032931 47.1292121,30.4099971 C47.2771044,30.8167011 47.3878388,31.5561629 47.4065102,32.0368131 C47.4065102,32.5359498 47.5174295,33.1092176 47.6283488,33.3308713 C47.7575697,33.5527098 47.905647,34.3663027 47.9794083,35.1240662 C48.0533545,35.8821994 48.2382199,36.8433149 48.3861123,37.2500189 C48.6264374,37.8415883 48.681897,38.7844021 48.7003835,41.8903266 L48.7003835,45.809659 L49.1625472,46.1056286 C49.5692512,46.3829268 49.6247108,46.5308192 49.6247108,47.6030388 C49.6247108,48.6754433 49.6801704,48.8233356 50.0868744,49.1006338 C50.3455012,49.2668279 50.5490381,49.5258244 50.5490381,49.6552302 C50.5490381,49.9695014 50.6414708,49.9695014 51.122121,49.7106898 C51.4180906,49.5627974 51.6953887,49.6367436 52.4901253,50.0989073 L53.5068853,50.672175 L53.5068853,52.0399945 C53.5068853,53.2231334 53.5623449,53.4451568 53.8766162,53.6113508 C54.2276757,53.7962163 54.2463471,53.7594281 54.2463471,53.0199663 C54.2648337,52.261833 54.3018067,52.2065583 55.2444357,51.6334754 C55.799032,51.3005327 56.3536284,51.0232345 56.5015208,51.0232345 C56.6309266,51.0232345 57.1855229,51.2820461 57.7401193,51.5778309 C58.2762291,51.8738005 58.7938524,52.095639 58.8679834,52.0399945 C58.9417447,51.9845349 59.0158758,47.7696026 59.0341775,42.6673161 L59.0532186,33.3682141 L59.5153822,32.9984832 L59.9775459,32.6102658 L59.9775459,25.1417015 L60.7170077,24.6795379 C61.4377981,24.2360456 61.4564695,24.1804011 61.4564695,23.2192857 C61.4564695,22.3687197 61.5119291,22.1838543 61.8262004,22.0914215 C62.1402868,21.9989888 62.1959313,21.8141233 62.1959313,20.7973634 C62.1959313,19.6696841 62.2144178,19.5957379 62.7505276,19.3184397 C63.064614,19.1522457 63.305124,18.9673803 63.305124,18.8932492 C63.305124,18.8191182 63.5637508,14.7707496 63.8597203,9.89030169 C64.1738068,5.01003862 64.4143167,0.794921444 64.4143167,0.517623266 C64.4143167,0.221838543 64.5067494,0 64.5991822,0 C64.7101014,0 64.7840476,0.480835041 64.8025342,1.07221962 C64.8025342,1.64548739 65.0798323,5.95266756 65.3941036,10.6114618 C65.8375958,16.7674814 66.0596192,19.1337592 66.2259981,19.1890339 C66.7805945,19.3738994 67.002433,19.836063 67.002433,20.852823 C67.002433,21.7033889 67.0761943,21.9620157 67.3721639,22.1468812 C67.6679487,22.3317466 67.7418948,22.5722566 67.7418948,23.3485066 C67.7418948,24.309807 67.7603814,24.34678 68.4813567,24.7536689 L69.2208185,25.1603729 L69.2208185,33.0356412 L69.6829821,33.2389932 L70.1451457,33.4608317 L70.1451457,48.0467159 L72.6408293,49.3962337 L75.1365129,50.7457515 L75.1365129,52.465185 C75.1365129,53.5187333 75.2102742,54.1657623 75.3213784,54.1657623 C75.4322976,54.1657623 75.7648706,54.0365414 76.0608402,53.8884642 C76.5967651,53.611166 76.6154365,53.5557063 76.6154365,52.2246751 L76.6154365,50.8379993 L77.4658176,50.4314802 L78.2977122,50.0061048 L79.0186874,50.4314802 C79.4252065,50.6531339 79.7766358,50.8379993 79.8320954,50.8379993 C79.9060416,50.8379993 79.9431995,49.063291 79.9431995,46.9003652 C79.9431995,42.5930002 79.9245281,42.6669463 81.1078519,42.0014307 L81.8103406,41.5947267 L82.9010468,42.1493231 L83.9915681,42.7039194 L84.0470277,44.7744125 L84.1026722,46.8633921 L85.2118649,47.4549616 L86.3210576,48.046531 L86.4133055,42.2972154 L86.5057382,36.5478999 L88.8533446,35.3277879 L91.2011358,34.107491 L92.5876267,34.8469529 L93.992789,35.5864147 L93.992789,36.5294133 C93.992789,37.4722271 93.992789,37.4722271 94.9171163,37.9713639 L95.8414436,38.4705006 L95.8414436,48.8969121 L96.8212305,49.4147202 C97.3571554,49.6920184 97.8379904,49.9136721 97.8934501,49.9136721 C97.9858828,49.9136721 98.1337752,48.656587 98.2816675,46.4198999 C98.3003389,46.2904941 98.5776371,45.9947094 98.9286966,45.7728708 C99.4648064,45.4399281 99.6313702,45.1071703 100.259728,43.1660831 C100.666432,41.9459711 101.017861,40.7073726 101.054649,40.3931013 C101.091622,39.9309377 101.202727,39.8385049 101.572457,39.8385049 C101.978977,39.8385049 102.053108,39.9309377 102.127054,40.5779667 C102.182513,40.9846707 102.533573,42.2417558 102.940277,43.3696199 C103.513545,45.0518955 103.735198,45.4769012 104.178875,45.7358977 C104.622553,45.9948942 104.714985,46.1795748 104.714985,46.7711442 C104.714985,47.1595466 104.807418,47.5475791 104.899851,47.6030388 C105.01077,47.676985 105.084716,49.3592606 105.084716,52.058481 C105.084716,55.7742766 105.121504,56.3841478 105.362014,56.3841478 C105.842665,56.3841478 105.897939,56.3103864 105.842665,55.7001456 C105.824178,55.3673878 105.842665,54.9421972 105.916611,54.7390301 C106.02753,54.3506278 108.171784,53.0565696 108.689592,53.0565696 C108.855787,53.0565696 110.242277,53.7035987 111.758359,54.498705 L114.512854,55.9217993 L114.512854,60.8022472 L115.585074,61.0055992 C119.411789,61.7637324 129.338879,64.3146908 129.653335,64.6291469 C129.801227,64.7770393 129.376037,64.7029082 126.954299,64.1483119 C121.315903,62.8912268 111.129632,61.3015688 103.328494,60.4696743 C91.2382938,59.1939178 81.9950212,58.657808 68.4813567,58.4729425 C44.0051708,58.1586712 20.0281217,60.1921912 2.24406516,64.1298253 C0.950006994,64.4071235 -0.0482664469,64.5735024 0.0256797339,64.4995562 L0.0256797339,64.4995562 Z M113.588527,58.5468887 L113.588527,56.4579091 L111.314497,55.3117433 C110.057412,54.6833856 108.966891,54.1655775 108.911246,54.1655775 C108.837485,54.1655775 108.782025,55.404176 108.782025,56.9385592 C108.782025,59.6560814 108.782025,59.711541 109.207216,59.8039738 C109.576947,59.8964065 113.126363,60.5804087 113.459121,60.6173817 C113.532882,60.6358683 113.588527,59.6930545 113.588527,58.5468887 Z M22.4498591,59.3418101 C23.1153747,59.2493774 23.7069441,59.1569447 23.7993769,59.1569447 C23.8733231,59.1569447 23.9287827,58.4174829 23.9287827,57.4931556 L23.9287827,55.8293665 L22.0801282,54.9050393 L20.2314736,53.980712 L20.2314736,59.7485141 L20.7490969,59.6375949 C21.0263951,59.5821352 21.7843434,59.4527294 22.4498591,59.3418101 L22.4498591,59.3418101 Z M104.345254,53.6109811 L104.345254,48.249883 L103.051196,47.6028539 C102.348523,47.2517944 101.720165,46.9558248 101.664705,46.9558248 C101.609061,46.9558248 101.572273,49.6178873 101.572273,52.8530328 L101.572273,58.7687272 L102.367194,58.8424885 C102.792385,58.8794616 103.420927,58.9164347 103.753685,58.9349213 L104.345254,58.9718944 L104.345254,53.6109811 Z M30.0848022,58.3065636 L31.3234008,58.1771578 L31.3234008,50.690107 L31.8779971,50.4682684 L32.4325935,50.2466147 L32.4325935,37.3245196 L29.8999368,37.3799793 C27.9958226,37.4169524 27.3487936,37.4908986 27.3672801,37.675764 C27.3859515,37.7868681 27.4042532,42.5746985 27.4227397,48.2687393 L27.4412263,58.657808 L28.143715,58.5468887 C28.5134459,58.4729425 29.3823135,58.3805098 30.0848022,58.3065636 L30.0848022,58.3065636 Z M37.2021222,57.4931556 L37.6088261,57.4931556 L37.6088261,50.3203761 L36.9431257,49.9321586 C36.5920662,49.7103201 36.2223353,49.5439412 36.111416,49.5439412 C36.0189833,49.5439412 35.9452219,51.1892437 35.9452219,53.6296525 L35.9452219,57.715179 L36.3704125,57.6042597 C36.5920662,57.5486152 36.9617971,57.4931556 37.2021222,57.4931556 Z M86.4133055,53.0563848 L86.4133055,48.9893448 L85.3041128,48.4347485 C84.6938719,48.1389637 84.157947,47.8801521 84.1024874,47.8801521 C84.0468429,47.8801521 84.0100546,49.9136721 84.0100546,52.3908691 L84.0100546,56.9200727 L84.8049761,56.993834 C85.2301666,57.0308071 85.7662764,57.0677802 86.0066015,57.0862667 L86.4133055,57.1232398 L86.4133055,53.0563848 Z M49.2183765,56.6427745 C49.6250805,56.5688283 49.6250805,56.5316704 49.6250805,53.1857906 C49.6250805,50.0245913 49.6064091,49.8027528 49.2553496,49.5809143 C48.9410784,49.3960488 48.8856187,49.1557237 48.8856187,48.1574503 C48.8856187,47.0482576 48.8486456,46.9558248 48.3310224,46.6600401 L47.7949126,46.3272823 L47.7394529,41.8165653 L47.6839933,37.3058482 L47.16637,36.862356 C46.4453948,36.2523 45.668775,36.2890882 44.9847728,36.9547887 L44.4488479,37.4907137 L44.4488479,56.9385592 L46.6302602,56.82764 C47.8133991,56.7721803 48.9780515,56.6982342 49.2183765,56.6427745 Z M83.2336197,50.3573492 C83.2521063,46.8079325 83.2336197,43.739166 83.1966466,43.535814 C83.141187,43.3139754 82.8084292,42.999889 82.4386983,42.8333253 L81.7916692,42.519054 L81.7916692,56.7352073 L82.3092925,56.8089686 C82.5865906,56.8459417 82.9008619,56.8646131 82.9932946,56.8459417 C83.1042139,56.82764 83.1966466,54.4798487 83.2336197,50.3573492 Z M79.7211761,54.221222 L79.7766358,51.7992997 L79.1111201,51.4110822 C78.7413892,51.2077302 78.4084466,51.0228648 78.3531718,51.0228648 C78.3161987,51.0228648 78.2794105,52.2614633 78.2794105,53.77736 L78.2794105,56.5503418 L78.7970337,56.6241031 C79.0743319,56.6610762 79.3886032,56.6797476 79.4810359,56.6610762 C79.5917703,56.6427745 79.684203,55.6445011 79.7211761,54.221222 L79.7211761,54.221222 Z M53.6551474,55.5335818 C53.710607,54.6832007 53.6551474,54.5168218 53.1375241,54.0176851 C52.6383874,53.5000618 52.5829278,53.3521695 52.5829278,52.2614633 C52.5829278,51.170942 52.5459547,51.0598379 52.1207641,50.8749724 C51.8619525,50.7455666 51.6031409,50.6531339 51.5661678,50.6531339 C51.5107081,50.6531339 51.4737351,51.9841651 51.4737351,53.6109811 L51.4737351,56.5873149 L52.5459547,56.5316704 L53.5996878,56.4762108 L53.6551474,55.5335818 L53.6551474,55.5335818 Z M58.8683531,54.7758183 L58.8683531,53.1488175 L57.777647,52.5574329 C57.167591,52.2244902 56.6314812,51.947192 56.5760215,51.947192 C56.5205619,51.947192 56.4651023,52.9454655 56.4651023,54.1655775 L56.4651023,56.3839629 L58.8683531,56.3839629 L58.8683531,54.7758183 Z M69.4056839,45.199603 L69.4056839,33.9967566 L68.8510876,33.6824854 L68.2964912,33.3682141 L68.2964912,25.566892 L67.6494621,25.2158325 C67.0209196,24.8830747 67.002433,24.8274302 67.002433,23.8293416 C67.002433,22.9050144 66.9467885,22.7756086 66.5402694,22.5907431 C66.114894,22.3873911 66.0781058,22.2764718 66.0781058,21.2042522 L66.0781058,20.0395999 L65.338644,19.6144093 L64.5991822,19.2077053 L64.5991822,56.3839629 L69.4056839,56.3839629 L69.4056839,45.199603 Z M74.3970511,53.8328197 L74.3970511,51.2633747 L72.3820177,50.2279433 C71.272825,49.6363739 70.3300112,49.1742103 70.256065,49.1742103 C70.2006054,49.1742103 70.1451457,50.8012111 70.1451457,52.7790866 L70.1451457,56.3839629 L74.3970511,56.3839629 L74.3970511,53.8328197 Z M98.059829,53.2412502 L98.059829,51.0228648 L96.9506363,50.4682684 L95.8414436,49.9136721 L95.8414436,55.2562836 L96.7287977,55.330045 C97.2094479,55.367018 97.7085846,55.4039911 97.8379904,55.4224777 C98.0041845,55.4596356 98.059829,54.9050393 98.059829,53.2412502 Z M95.0650087,43.9610045 L95.1019818,39.0066104 L93.8079236,38.3595813 C93.10525,38.0085218 92.4768923,37.7125522 92.4214327,37.7125522 C92.3657882,37.7125522 92.329,40.5409936 92.329,43.9979776 L92.329,50.3018895 L93.6785178,49.5994008 L95.009549,48.8967272 L95.0650087,43.9610045 Z M34.5770327,48.9708583 L35.5753062,48.4162619 L35.5753062,38.655366 L34.5770327,38.1007697 C34.0411078,37.7864984 33.5417862,37.5275019 33.46784,37.5275019 C33.4123804,37.5275019 33.3569207,40.2267224 33.3569207,43.5356291 C33.3569207,46.8447207 33.4123804,49.5437564 33.46784,49.5437564 C33.5417862,49.5439412 34.0409229,49.2851295 34.5770327,48.9708583 Z M103.975523,46.7341712 C103.975523,46.6047653 103.476387,46.216363 102.866331,45.8836052 C101.830899,45.3105223 101.757138,45.3105223 101.757138,45.6432801 C101.757138,45.9020918 102.034436,46.1609034 102.644492,46.4751747 C103.624279,46.9927979 103.975523,47.0667441 103.975523,46.7341712 Z M102.145355,43.5173274 L101.794111,42.4266213 L101.775625,43.3879216 C101.757138,44.1273834 101.831084,44.3861951 102.071409,44.5340874 C102.256275,44.6265201 102.422654,44.6819798 102.44114,44.6634932 C102.478113,44.6265201 102.348523,44.1273834 102.145355,43.5173274 L102.145355,43.5173274 Z M26.0547354,37.8604446 C27.1639281,37.3058482 27.2563608,37.2134155 27.2563608,36.6588192 C27.2563608,36.3260613 27.2009012,36.0487632 27.1452567,36.0487632 C27.0897971,36.0487632 26.4982276,36.3447328 25.8511985,36.7144637 C24.815952,37.2875466 24.6682445,37.4352541 24.6682445,37.9160891 C24.6682445,38.2118738 24.7052176,38.452014 24.7606772,38.452014 C24.7976503,38.452014 25.3892198,38.1932024 26.0547354,37.8604446 Z M35.5753062,36.788225 C35.5753062,36.4739537 34.7803847,35.9193573 33.5048131,35.3462744 C33.4123804,35.3093014 33.3569207,35.4387072 33.3569207,35.6420592 C33.3569207,35.9008708 33.671192,36.1966555 34.3367076,36.5850578 C35.4828734,37.2503886 35.5753062,37.2688751 35.5753062,36.788225 L35.5753062,36.788225 Z M93.2533272,36.6033595 C93.2533272,36.381521 92.9760291,36.0674346 92.495194,35.771465 C91.3490282,35.0320032 91.2198073,35.0135166 91.2198073,35.568113 C91.2198073,35.9378439 91.3860013,36.1411959 92.1071614,36.4924402 C93.1793811,37.0655231 93.2533272,37.0655231 93.2533272,36.6033595 Z M32.4325935,35.3832475 L32.4325935,34.9395704 L29.973883,34.9395704 C28.6058786,34.9395704 27.459528,34.9765435 27.4042532,35.0320032 C27.3489784,35.0874628 27.3487936,35.3093014 27.3857666,35.5496264 C27.459528,35.9563304 27.5149876,35.9563304 29.9552116,35.9008708 L32.4324086,35.8454112 L32.4324086,35.3832475 L32.4325935,35.3832475 Z M46.5193409,35.568113 C47.2031582,35.6790323 47.2218297,35.6605457 47.2218297,35.161409 C47.2218297,34.2925414 46.8705853,33.534593 46.3712637,33.2942679 C45.7242346,32.9982983 45.502581,33.0354563 44.9293132,33.4791334 C44.5041226,33.8118912 44.448663,33.9967566 44.448663,34.9393856 L44.448663,36.0300918 L45.1326652,35.7527936 C45.5765271,35.568113 46.0756639,35.4941668 46.5193409,35.568113 L46.5193409,35.568113 Z M45.9832311,32.2959945 C46.4453948,32.3329676 46.4823678,32.2959945 46.4823678,31.6119923 C46.4823678,31.1128556 46.352962,30.7431247 46.1126369,30.5027996 C45.6689599,30.0593074 45.4101482,30.040636 44.8555519,30.4290383 C44.5226092,30.650692 44.4488479,30.8912019 44.4488479,31.6306637 C44.4488479,32.5363196 44.4488479,32.5363196 44.9664711,32.4069138 C45.2437693,32.3329676 45.6874464,32.2775079 45.9832311,32.2959945 L45.9832311,32.2959945 Z M46.1126369,28.9499298 C46.1126369,28.2842293 45.705933,27.8775253 45.095877,27.9516564 C44.5967402,28.007116 44.5412806,28.0810622 44.485821,28.7465778 L44.4301765,29.4860396 L45.2807424,29.43058 C46.0017177,29.3566338 46.1126369,29.3011742 46.1126369,28.9499298 Z M44.8000922,26.2139211 C44.8000922,25.8811633 44.689173,24.9385344 44.5414655,24.1249415 L44.3011404,22.6460179 L44.282469,24.6055917 C44.282469,25.6778113 44.3194421,26.6204402 44.3935731,26.6758999 C44.6521999,26.9533829 44.8185788,26.7685175 44.8000922,26.2139211 Z M65.0243727,16.8782158 C64.9689131,16.0832943 64.8764803,14.9001554 64.7840476,14.2346398 C64.6729435,13.2178798 64.6359704,13.4214167 64.6176687,15.6765903 C64.5991822,17.7657548 64.6546418,18.3016798 64.8395072,18.3016798 C65.0428592,18.3016798 65.0798323,17.9874085 65.0243727,16.8782158 Z" id="Shape"></path>
                <path d="M102.422654,51.7255384 C101.868057,50.9304321 102.237788,49.3590757 102.97725,49.3590757 C103.365467,49.3590757 103.827631,50.5422146 103.679739,51.170942 C103.439414,52.187702 102.903119,52.4278422 102.422654,51.7255384 Z M82.1614001,30.5952323 C82.1614001,30.3366056 82.1427287,30.1330687 82.1057556,30.1330687 C81.7175382,30.1330687 79.40672,29.633932 77.7614175,29.1717683 C75.8390016,28.6541451 75.6541362,28.6356585 75.3398649,28.9129567 C75.0071071,29.2087414 72.9181275,29.3566338 72.9181275,29.0793356 C72.9181275,28.9869029 73.0843215,28.7282761 73.2878584,28.4692796 C73.7868103,27.840922 73.750022,27.7484892 72.9735871,27.4155465 L72.2710984,27.1197618 L72.9549157,26.8239771 C73.7130489,26.5097058 73.8237834,26.2507093 73.3802911,25.8809784 C72.7887217,25.3818417 73.102993,25.2709224 74.7852686,25.3633552 C76.0793267,25.4373013 76.7078693,25.3818417 77.5952234,25.1230301 C80.0354474,24.4020548 82.0133229,24.1432432 85.0453012,24.1432432 C87.9846618,24.1245718 88.0216349,24.1245718 89.0938546,24.6791681 C90.7576436,25.5297341 91.3860013,26.7681477 90.8685629,28.1546386 C90.4618589,29.2083717 88.5022851,30.3175644 87.041848,30.3175644 C86.5427113,30.3175644 86.3578459,30.4099971 86.2838997,30.6872953 C86.191467,31.0200531 86.0250881,31.0570262 84.1764335,31.0570262 L82.1614001,31.0570262 L82.1614001,30.5952323 Z M74.9516475,28.3953334 C74.9516475,28.2289545 74.3970511,28.1365218 74.3046184,28.2842293 C74.2306722,28.3953334 74.360078,28.4690954 74.5632452,28.4690954 C74.7852686,28.4692796 74.9516475,28.4323065 74.9516475,28.3953334 Z M89.6114778,27.8777102 C90.4433724,27.4894927 90.5171337,26.9165947 89.8333164,26.0847002 C89.0014218,25.1047284 87.9846618,24.8644033 84.7495164,24.8830747 C81.6622634,24.9015613 79.3327738,25.2712922 76.6522248,26.1771329 C75.0808684,26.6947562 75.0623819,26.6947562 75.2102742,26.3433269 C75.2842204,26.1584615 75.1917877,26.0660287 74.9516475,26.0660287 C74.5632452,26.0660287 74.4525108,26.3433269 74.7852686,26.5281924 C74.8961878,26.6206251 74.8592147,26.7500309 74.6558628,26.8979233 C74.360078,27.1014601 74.5079704,27.1752215 75.7095958,27.4525196 C78.3346852,28.0625756 80.8303689,28.2659276 84.9343819,28.2106529 C88.1695273,28.1919814 89.0382101,28.1180353 89.6114778,27.8777102 Z" id="Shape"></path>
            </g>
        </g>
    </g>
</svg>