<?xml version="1.0" encoding="UTF-8"?>
<svg width="183px" height="41px" viewBox="0 0 183 41" version="1.1" xmlns="http://www.w3.org/2000/svg" xmlns:xlink="http://www.w3.org/1999/xlink">
    <!-- Generator: Sketch 61.2 (89653) - https://sketch.com -->
    <title>Jose Cuervo Logo</title>
    <desc>Created with Sketch.</desc>
    <defs>
        <polygon id="path-1" points="0.06 0.17705372 177.790137 0.17705372 177.790137 40.94 0.06 40.94"></polygon>
    </defs>
    <g id="Welcome" stroke="none" stroke-width="1" fill="none" fill-rule="evenodd">
        <g id="About" transform="translate(-508.000000, -3479.000000)">
            <g id="Jose-Cuervo-Logo" transform="translate(508.000000, 3479.000000)">
                <path d="M180.347,10.892 L180.314,10.892 C179.777,10.859 179.074,10.591 178.773,10.289 C178.238,9.787 178.136,9.318 178.136,8.715 C178.136,8.213 178.238,7.61 178.773,7.208 C179.074,6.84 179.777,6.639 180.314,6.639 L180.347,6.606 C180.984,6.606 181.519,6.806 181.853,7.208 C182.357,7.61 182.49,8.213 182.49,8.715 C182.49,9.987 181.519,10.892 180.347,10.892 Z M182.156,6.906 C181.619,6.438 180.984,6.337 180.347,6.337 L180.314,6.337 C178.941,6.337 177.835,7.442 177.835,8.715 C177.835,9.318 177.935,9.987 178.472,10.39 C178.974,10.892 179.578,11.16 180.314,11.193 L180.347,11.193 C180.984,11.193 181.619,10.892 182.156,10.39 C182.691,9.987 182.892,9.318 182.892,8.715 C182.892,8.012 182.691,7.409 182.156,6.906 L182.156,6.906 Z" id="Fill-1" fill="#0A0B09"></path>
                <path d="M180.482,8.514 L179.845,8.514 L179.845,7.711 L180.482,7.711 C180.783,7.711 180.984,7.911 180.984,8.012 C180.984,8.414 180.783,8.514 180.482,8.514 Z M180.783,8.715 C181.218,8.514 181.318,8.414 181.318,8.012 C181.318,7.61 180.783,7.409 180.482,7.409 L179.509,7.409 L179.509,9.987 L179.845,9.987 L179.845,8.816 L180.414,8.816 C180.515,8.816 180.681,8.849 180.783,9.017 C180.783,9.017 180.783,9.318 180.984,9.485 C180.984,9.586 180.984,9.787 180.984,9.987 L181.519,9.987 C181.318,9.787 181.318,9.485 181.318,9.218 C181.218,8.816 181.218,8.715 180.783,8.715 L180.783,8.715 Z" id="Fill-2" fill="#0A0B09"></path>
                <path d="M114.941,12.667 C114.941,12.466 113.232,10.791 112.394,10.39 L109.011,12.969 C109.011,12.969 110.72,14.275 110.72,14.576 C110.72,16.351 110.72,27.772 110.72,27.772 C110.72,27.772 109.212,28.777 108.376,29.077 C107.839,29.278 105.832,27.47 105.832,26.867 C105.832,22.915 105.832,12.969 105.832,12.969 C105.832,12.667 103.72,10.892 102.884,10.591 L99.703,13.169 C99.703,12.969 101.376,14.776 101.376,14.776 C101.376,14.776 101.376,27.972 101.376,28.777 C101.376,29.747 104.558,32.259 105.63,32.46 C106.265,31.757 108.476,30.149 110.72,28.777 C112.294,30.853 114.404,31.757 116.113,32.46 L116.648,31.757 C116.648,31.757 114.941,28.777 114.941,27.772 C114.941,27.772 114.941,16.351 114.941,12.667" id="Fill-3" fill="#0A0B09"></path>
                <path d="M48.06,12.667 C49.131,12.969 51.04,14.877 52.312,14.877 C52.715,14.877 53.149,14.776 53.887,14.476 C54.724,13.773 55.595,12.969 56.432,12.098 L55.896,11.596 C55.896,11.596 54.724,12.466 54.222,12.198 C53.149,11.596 51.877,10.39 51.141,9.586 C49.768,10.088 47.557,11.395 46.05,12.667 C45.413,13.169 44.141,13.974 43.505,14.776 C42.366,23.318 52.514,22.111 52.715,28.072 C52.715,28.575 52.715,29.379 52.312,29.747 C51.676,29.848 51.141,29.747 50.504,29.379 C49.667,28.977 48.495,28.274 47.121,27.972 C46.284,27.772 45.012,28.072 44.141,28.575 C43.002,29.58 41.629,31.355 41.629,31.355 L42.366,31.656 C43.002,30.853 43.839,30.149 44.375,30.149 C45.748,30.551 47.423,31.757 48.595,32.729 C49.131,32.729 52.212,31.153 54.423,29.077 C55.059,28.274 56.131,26.968 56.131,26.499 C56.532,18.227 47.121,20.136 47.121,13.471 C47.121,12.969 47.423,12.466 48.06,12.667" id="Fill-4" fill="#0A0B09"></path>
                <path d="M36.438,29.379 C36.438,29.747 36.438,29.848 36.203,30.049 C35.635,29.914 34.965,29.613 34.227,29.145 C33.859,28.943 33.524,28.709 33.156,28.475 C32.519,27.972 31.783,27.47 31.783,27.168 C31.783,25.092 31.783,17.657 31.983,14.576 C31.983,14.073 32.185,13.672 32.285,13.27 C32.821,13.471 33.524,13.705 34.227,14.007 C34.897,14.308 35.567,14.677 36.003,15.078 C36.203,15.246 36.438,15.547 36.438,15.547 C36.739,18.829 36.739,26.197 36.438,29.379 Z M37.912,11.395 C37.074,10.892 37.074,10.088 37.275,9.218 C36.438,9.653 35.333,10.357 34.227,11.127 C31.983,12.6 29.673,14.308 29.137,14.776 C28.367,15.246 27.529,15.849 27.529,16.351 C27.429,19.232 27.429,25.896 27.529,29.077 C27.73,30.049 31.983,32.729 33.156,32.729 C33.223,32.795 33.658,32.594 34.227,32.326 C35.366,31.69 37.074,30.652 37.074,30.652 C38.548,29.848 40.457,28.575 40.658,28.072 C41.193,24.891 40.993,15.246 40.758,13.471 C40.658,13.169 38.95,11.897 37.912,11.395 L37.912,11.395 Z" id="Fill-5" fill="#0A0B09"></path>
                <g id="Group-12">
                    <mask id="mask-2" fill="white">
                        <use xlink:href="#path-1"></use>
                    </mask>
                    <g id="Clip-7"></g>
                    <path d="M173.146,29.379 C173.146,29.58 173.146,29.747 173.146,29.848 C172.509,29.781 171.806,29.445 171.037,29.044 C170.703,28.843 170.333,28.643 169.998,28.475 C169.261,27.972 168.625,27.269 168.625,27.168 C168.625,24.891 168.625,17.657 168.826,14.576 C168.826,14.073 168.927,13.672 168.927,13.169 C169.529,13.337 170.3,13.571 171.037,13.839 C171.773,14.141 172.443,14.476 172.845,14.877 C173.146,15.246 173.146,15.547 173.146,15.547 C173.482,18.729 173.681,26.097 173.146,29.379 Z M174.753,11.193 C173.917,10.892 173.917,9.987 174.017,9.017 C173.146,9.485 172.109,10.155 171.037,10.859 C168.927,12.332 166.783,13.974 166.08,14.576 C165.443,15.078 164.373,15.648 164.373,16.351 C164.171,19.232 164.171,25.694 164.373,28.977 C164.472,29.848 168.826,32.527 169.998,32.729 C170.031,32.729 170.468,32.527 171.037,32.193 C172.208,31.589 173.917,30.652 173.917,30.652 C175.39,29.747 177.3,28.475 177.4,27.972 C177.935,24.791 177.835,15.078 177.601,13.471 C177.4,12.969 175.691,11.897 174.753,11.193 L174.753,11.193 Z" id="Fill-6" fill="#0A0B09" mask="url(#mask-2)"></path>
                    <path d="M20.43,5.233 C18.755,7.108 19.057,12.098 19.057,15.849 C18.855,19.331 19.057,25.293 19.057,28.475 C18.855,35.407 16.311,38.488 14.602,38.488 C10.918,38.488 9.009,35.34 8.071,32.929 C6.899,30.149 5.828,27.972 4.153,27.269 C3.383,27.168 2.445,27.168 1.708,27.772 C1.072,28.274 0,29.58 0,29.58 C2.144,29.747 3.282,32.46 4.354,34.637 C5.627,38.221 8.574,41 11.454,41 C15.473,40.9 20.966,35.909 22.975,32.259 C24.683,29.077 24.146,17.959 24.146,12.198 C24.047,5.634 24.448,3.156 26.592,1.348 L26.357,1.147 C24.146,1.85 21.602,3.725 20.43,5.233" id="Fill-8" fill="#0A0B09" mask="url(#mask-2)"></path>
                    <path d="M13.665,35.609 C15.473,33.833 16.311,31.455 16.311,28.977 C16.311,23.986 16.311,12.868 16.311,11.193 C16.311,8.514 17.047,7.108 18.42,5.333 L18.42,5.233 C16.009,6.906 14.2,9.017 14.2,12.868 C14.2,14.576 14.2,27.168 14.2,30.551 C14.301,32.527 13.999,34.135 13.464,35.609 L13.665,35.609" id="Fill-9" fill="#0A0B09" mask="url(#mask-2)"></path>
                    <path d="M6.028,7.208 L6.464,6.806 C6.464,6.806 5.292,4.428 6.464,3.256 C8.071,1.95 11.555,3.256 13.363,3.725 C14.301,4.026 16.21,4.228 17.382,3.926 C19.692,3.256 22.674,1.147 22.674,1.147 L22.439,1.046 C21.602,1.348 20.563,1.548 19.057,1.548 C17.147,1.348 13.129,-0.226 10.383,0.275 C6.899,1.147 4.354,3.926 4.354,5.333 C4.354,6.806 6.028,7.208 6.028,7.208" id="Fill-10" fill="#0A0B09" mask="url(#mask-2)"></path>
                    <path d="M92.4,36.914 C90.018,36.077 88.211,34.674 86.856,32.877 C88.812,30.913 89.956,28.869 89.956,25.394 C89.956,21.308 89.956,15.246 89.956,11.897 C89.956,6.606 91.027,5.233 92.4,3.725 L92.4,36.914 Z M97.257,37.718 C95.783,37.718 94.31,37.517 93.238,37.216 L93.238,3.457 C93.874,3.256 94.611,3.457 95.248,3.658 C97.257,4.026 97.793,4.528 100.003,4.528 C101.376,4.528 103.083,3.725 103.921,3.156 C104.994,2.352 106.166,1.348 106.166,1.348 L105.931,1.046 C105.931,1.046 104.792,1.649 103.386,1.649 C101.175,1.649 97.693,-0.729 95.449,0.845 L92.4,3.256 C88.784,5.835 87.646,8.816 87.646,12.466 C87.88,16.854 87.646,25.293 87.646,26.867 C87.865,28.845 87.861,31.049 86.536,32.449 C84.278,29.176 83.425,24.693 83.425,19.834 C83.425,11.596 85.134,5.333 92.4,0.845 L92.166,0.577 C88.181,2.151 83.225,6.036 81.215,8.514 C79.205,11.193 78.033,16.151 78.033,22.111 C78.033,31.455 82.89,40.9 94.41,40.9 C102.449,40.9 106.667,34.838 106.667,34.838 L106.265,34.536 C104.457,36.211 101.912,37.718 97.257,37.718 L97.257,37.718 Z" id="Fill-11" fill="#0A0B09" mask="url(#mask-2)"></path>
                </g>
                <path d="M65.006,19.768 C64.202,20.504 63.331,21.308 62.694,21.91 L62.694,15.078 C62.694,13.27 62.895,13.27 63.532,13.27 C63.666,13.27 64.302,13.906 65.006,14.643 C66.077,15.781 67.35,17.189 67.35,17.255 C67.35,17.557 66.244,18.628 65.006,19.768 Z M66.479,9.987 C66.479,9.987 65.843,10.256 65.006,10.725 C64.302,11.093 63.432,11.596 62.694,12.198 C60.149,14.073 58.441,15.246 58.441,15.547 C58.441,16.652 58.441,23.518 58.441,23.518 L58.441,28.777 C58.643,29.714 62.46,32.158 65.006,32.828 C65.14,32.896 65.307,32.929 65.441,32.929 C65.541,32.929 68.488,30.953 68.287,31.153 C68.488,30.953 68.823,30.652 69.024,30.652 C69.861,29.848 70.833,29.077 70.833,29.077 L70.297,28.475 C69.125,29.379 67.986,30.049 67.35,29.848 C66.613,29.546 65.775,29.145 65.006,28.742 C63.732,28.039 62.694,27.369 62.694,27.168 C62.694,27.168 62.694,24.088 62.694,23.016 C63.164,22.614 64.034,21.91 65.006,21.107 C67.45,19.064 70.699,16.25 71.134,15.246 C71.134,15.246 71.134,15.246 71.168,15.246 C71,14.877 67.685,11.127 66.479,9.987 L66.479,9.987 Z" id="Fill-13" fill="#0A0B09"></path>
                <path d="M123.078,14.776 C123.078,12.969 123.312,12.969 123.849,12.969 C124.015,12.969 124.652,13.605 125.355,14.408 C126.427,15.547 127.632,17.021 127.632,17.154 C127.632,17.456 126.562,18.428 125.355,19.499 C124.585,20.236 123.714,20.973 123.078,21.61 L123.078,14.776 Z M125.355,20.839 C127.8,18.796 131.115,15.983 131.552,15.078 C131.552,14.877 128.169,10.892 126.695,9.586 C126.695,9.586 126.126,9.921 125.355,10.423 C124.685,10.825 123.849,11.361 123.078,11.897 C120.433,13.974 118.658,14.877 118.658,15.246 C118.658,16.451 118.658,23.217 118.658,23.217 L118.658,28.575 C118.859,29.513 122.978,31.958 125.355,32.494 C125.457,32.527 125.556,32.527 125.623,32.527 C125.857,32.527 128.906,30.652 128.503,30.853 C128.906,30.652 129.005,30.551 129.24,30.351 C130.279,29.58 131.25,28.777 131.25,28.777 L130.714,28.072 C129.542,29.077 128.369,29.848 127.533,29.58 C126.896,29.278 126.091,28.877 125.355,28.475 C124.15,27.805 123.078,27.135 123.078,26.867 C123.078,26.867 123.078,23.819 123.078,22.714 C123.582,22.313 124.417,21.643 125.355,20.839 L125.355,20.839 Z" id="Fill-14" fill="#0A0B09"></path>
                <path d="M142.468,9.787 C140.996,11.596 139.589,12.868 138.751,13.974 C138.55,13.27 136.843,11.193 135.705,10.289 L132.421,12.969 C132.421,12.969 134.296,14.776 134.296,15.246 L134.296,17.154 C134.296,18.829 134.296,26.097 134.296,29.58 C134.296,30.149 136.642,32.259 137.714,32.527 L140.996,30.351 C140.996,30.351 138.751,28.575 138.751,28.274 C138.751,26.968 138.751,15.246 138.751,15.246 C138.751,15.246 139.589,14.275 140.224,13.773 C140.996,13.974 143.105,16.954 143.105,16.954 C143.105,16.954 146.052,13.974 145.517,13.169 C145.015,12.365 143.507,10.892 142.468,9.787" id="Fill-15" fill="#0A0B09"></path>
                <path d="M158.98,7.711 C158.98,7.108 159.08,6.438 159.617,5.333 L159.416,5.031 C157.273,6.337 155.697,7.911 155.697,9.485 C155.498,11.395 156.769,12.198 156.871,13.672 C157.273,16.954 157.406,23.518 156.769,27.972 C156.769,28.777 156.535,29.379 156.435,29.848 C155.697,29.379 154.525,28.575 153.353,27.972 C153.154,27.772 152.851,27.671 152.316,27.47 C152.316,24.59 152.316,12.667 152.316,12.667 C152.082,12.365 149.97,10.289 149.771,10.289 L146.488,12.667 L148.062,14.275 C148.062,17.154 148.296,25.595 147.861,27.47 C147.861,28.274 147.425,28.977 146.923,29.58 L146.923,29.747 C147.861,29.747 149.134,30.149 150.607,30.953 C153.353,32.527 153.488,32.929 153.689,32.929 L156.535,30.853 C158.142,29.848 160.789,27.671 160.99,27.47 C161.525,23.986 161.525,16.954 161.291,13.974 C160.99,10.591 158.98,9.987 158.98,7.711" id="Fill-16" fill="#0A0B09"></path>
            </g>
        </g>
    </g>
</svg>