<?xml version="1.0" encoding="UTF-8"?>
<svg width="89px" height="101px" viewBox="0 0 89 101" version="1.1" xmlns="http://www.w3.org/2000/svg" xmlns:xlink="http://www.w3.org/1999/xlink">
    <!-- Generator: Sketch 61.2 (89653) - https://sketch.com -->
    <title>android logo</title>
    <desc>Created with Sketch.</desc>
    <g id="Welcome" stroke="none" stroke-width="1" fill="none" fill-rule="evenodd">
        <g id="About" transform="translate(-1037.000000, -3448.000000)">
            <g id="android-logo" transform="translate(1037.000000, 3450.000000)">
                <path d="M30.2650051,59.4478823 C33.675544,59.4478823 36.4404004,62.2127387 36.4404004,65.6232776 L36.4404004,92.1140366 C36.4404004,95.5245755 33.675544,98.2889983 30.2650051,98.2889983 C26.8548999,98.2889983 24.0900434,95.5245755 24.0900434,92.1140366 L24.0900434,65.6232776 C24.0900434,62.2131724 26.8548999,59.448316 30.2650051,59.448316 L30.2650051,59.4478823 Z" id="Path" fill="#000000" fill-rule="nonzero"></path>
                <path d="M16.1670993,27.5986963 C16.1467184,27.8328591 16.1289394,28.0696238 16.1289394,28.3089903 L16.1289394,68.4449402 C16.1289394,72.7613425 19.5455492,76.2386611 23.7869326,76.2386611 L64.6023885,76.2386611 C68.8442055,76.2386611 72.2608153,72.7609089 72.2608153,68.4449402 L72.2608153,28.3089903 C72.2608153,28.0696238 72.2521426,27.8319919 72.2321954,27.5986963 L16.1670993,27.5986963 Z" id="Path" fill="#000000" fill-rule="nonzero"></path>
                <path d="M58.1251832,59.4478823 C61.5357221,59.4478823 64.3005785,62.2127387 64.3005785,65.6232776 L64.3005785,92.1140366 C64.3005785,95.5245755 61.5357221,98.2889983 58.1251832,98.2889983 C54.715078,98.2889983 51.9502216,95.5245755 51.9502216,92.1140366 L51.9502216,65.6232776 C51.9502216,62.2131724 54.715078,59.448316 58.1251832,59.448316 L58.1251832,59.4478823 Z M6.20693816,31.1705473 C9.61704339,31.1705473 12.3818998,33.9354038 12.3818998,37.3459426 L12.3818998,63.8367016 C12.3818998,67.2472405 9.61704339,70.0120969 6.20693816,70.0120969 C2.79639929,70.0120969 0.0315428626,67.2472405 0.0315428626,63.8371353 L0.0315428626,37.3463763 C0.0311092276,33.9358374 2.79596566,31.1705473 6.20693816,31.1705473 Z M82.1836838,31.1705473 C85.593789,31.1705473 88.3586455,33.9354038 88.3586455,37.3459426 L88.3586455,63.8367016 C88.3586455,67.2472405 85.593789,70.0120969 82.1836838,70.0120969 C78.7731449,70.0120969 76.0082885,67.2472405 76.0082885,63.8371353 L76.0082885,37.3463763 C76.0082885,33.9358374 78.7731449,31.1705473 82.1836838,31.1705473 Z M16.3474914,24.9621958 C16.5192109,12.6339542 27.2794285,2.52592357 41.0915688,1.19379701 L47.2977522,1.19379701 C61.1107599,2.52635721 71.8701102,12.6348215 72.0418296,24.9621958 L16.3474914,24.9621958 Z" id="Shape" fill="#000000" fill-rule="nonzero"></path>
                <path d="M18.4952853,0.00390271453 L25.0093495,11.2870841 M69.8953366,0.00390271453 L63.3808388,11.2870841" id="Shape" stroke="#000000" stroke-width="3.28733228" stroke-linecap="round" stroke-linejoin="round"></path>
                <path d="M35.8992382,13.9140446 C35.9044276,15.6373099 34.4782022,17.0383844 32.713308,17.0431645 C30.949281,17.0474907 29.5148166,15.6546553 29.5096011,13.93139 L29.5096011,13.9140446 C29.504843,12.1903457 30.9310684,10.7897048 32.695529,10.7849226 C34.4595559,10.7801648 35.8940203,12.1725666 35.8992382,13.8966992 L35.8992382,13.9140446 Z M59.7474258,13.9140446 C59.7526152,15.6373099 58.3263899,17.0383844 56.5614956,17.0431645 C54.7974686,17.0474907 53.3630042,15.6546553 53.3577887,13.93139 L53.3577887,13.9140446 C53.3530306,12.1903457 54.779256,10.7897048 56.5437166,10.7849226 C58.3077435,10.7801648 59.742208,12.1725666 59.7474258,13.8966992 L59.7474258,13.9140446 Z" id="Shape" fill="#FFFFFF" fill-rule="nonzero"></path>
            </g>
        </g>
    </g>
</svg>