<?xml version="1.0" encoding="UTF-8"?>
<svg width="192px" height="131px" viewBox="0 0 192 131" version="1.1" xmlns="http://www.w3.org/2000/svg" xmlns:xlink="http://www.w3.org/1999/xlink">
    <!-- Generator: Sketch 61.2 (89653) - https://sketch.com -->
    <title>Group 19</title>
    <desc>Created with Sketch.</desc>
    <g id="Welcome" stroke="none" stroke-width="1" fill="none" fill-rule="evenodd">
        <g id="About" transform="translate(-984.000000, -3441.000000)">
            <g id="Group-19" transform="translate(984.000000, 3441.500000)">
                <rect id="Rectangle-Copy-24" fill="#FFFFFF" x="0" y="0" width="192" height="130"></rect>
                <g id="android-logo" transform="translate(51.500000, 15.000000)">
                    <path d="M31.4878336,61.849817 C35.036172,61.849817 37.9127398,64.7263848 37.9127398,68.2747232 L37.9127398,95.8358159 C37.9127398,99.3841543 35.036172,102.260271 31.4878336,102.260271 C27.9399463,102.260271 25.0633785,99.3841543 25.0633785,95.8358159 L25.0633785,68.2747232 C25.0633785,64.7268359 27.9399463,61.8502681 31.4878336,61.8502681 L31.4878336,61.849817 Z" id="Path" fill="#000000" fill-rule="nonzero"></path>
                    <path d="M16.8203154,28.7137951 C16.7991111,28.9574191 16.7806137,29.20375 16.7806137,29.4527879 L16.7806137,71.2103924 C16.7806137,75.7011947 20.3352683,79.3190111 24.7480208,79.3190111 L67.212586,79.3190111 C71.6257896,79.3190111 75.1804442,75.7007436 75.1804442,71.2103924 L75.1804442,29.4527879 C75.1804442,29.20375 75.1714211,28.9565168 75.1506679,28.7137951 L16.8203154,28.7137951 Z" id="Path" fill="#000000" fill-rule="nonzero"></path>
                    <path d="M60.4736755,61.849817 C64.0220139,61.849817 66.8985817,64.7263848 66.8985817,68.2747232 L66.8985817,95.8358159 C66.8985817,99.3841543 64.0220139,102.260271 60.4736755,102.260271 C56.9257882,102.260271 54.0492204,99.3841543 54.0492204,95.8358159 L54.0492204,68.2747232 C54.0492204,64.7268359 56.9257882,61.8502681 60.4736755,61.8502681 L60.4736755,61.849817 Z M6.45772354,32.4299634 C10.0056108,32.4299634 12.8821786,35.3065312 12.8821786,38.8548696 L12.8821786,66.4159623 C12.8821786,69.9643007 10.0056108,72.8408685 6.45772354,72.8408685 C2.90938512,72.8408685 0.0328173217,69.9643007 0.0328173217,66.4164135 L0.0328173217,38.8553208 C0.0323661661,35.3069824 2.90893397,32.4299634 6.45772354,32.4299634 Z M85.5042367,32.4299634 C89.0521239,32.4299634 91.9286917,35.3065312 91.9286917,38.8548696 L91.9286917,66.4159623 C91.9286917,69.9643007 89.0521239,72.8408685 85.5042367,72.8408685 C81.9558983,72.8408685 79.0793305,69.9643007 79.0793305,66.4164135 L79.0793305,38.8553208 C79.0793305,35.3069824 81.9558983,32.4299634 85.5042367,32.4299634 Z M17.0079961,25.9707694 C17.1866537,13.144417 28.3816276,2.62798109 42.7518342,1.24203124 L49.2087725,1.24203124 C63.5798815,2.62843225 74.773953,13.1453193 74.9526106,25.9707694 L17.0079961,25.9707694 Z" id="Shape" fill="#000000" fill-rule="nonzero"></path>
                    <path d="M19.2425696,0.00406039997 L26.0198283,11.7431279 M72.7193906,0.00406039997 L65.9416808,11.7431279" id="Shape" stroke="#000000" stroke-width="3.28733228" stroke-linecap="round" stroke-linejoin="round"></path>
                    <path d="M37.3497124,14.4762282 C37.3551115,16.2691204 35.8712609,17.726804 34.0350578,17.7317772 C32.199757,17.7362782 30.7073345,16.2871666 30.7019082,14.4942744 L30.7019082,14.4762282 C30.6969579,12.6828849 32.1808085,11.2256524 34.0165604,11.220677 C35.8518612,11.215727 37.3442838,12.6643875 37.3497124,14.458182 L37.3497124,14.4762282 Z M62.1614632,14.4762282 C62.1668623,16.2691204 60.6830117,17.726804 58.8468086,17.7317772 C57.0115078,17.7362782 55.5190852,16.2871666 55.5136589,14.4942744 L55.5136589,14.4762282 C55.5087086,12.6828849 56.9925592,11.2256524 58.8283112,11.220677 C60.663612,11.215727 62.1560345,12.6643875 62.1614632,14.458182 L62.1614632,14.4762282 Z" id="Shape" fill="#FFFFFF" fill-rule="nonzero"></path>
                </g>
            </g>
        </g>
    </g>
</svg>