<?xml version="1.0" encoding="UTF-8"?>
<svg width="192px" height="130px" viewBox="0 0 192 130" version="1.1" xmlns="http://www.w3.org/2000/svg" xmlns:xlink="http://www.w3.org/1999/xlink">
    <!-- Generator: Sketch 61.2 (89653) - https://sketch.com -->
    <title>Group 40</title>
    <desc>Created with Sketch.</desc>
    <defs>
        <polygon id="path-1" points="0.0414233546 0.0367091295 78.1785444 0.0367091295 78.1785444 47.2017193 0.0414233546 47.2017193"></polygon>
        <polygon id="path-3" points="0 90.9632909 119.95249 90.9632909 119.95249 0.193205945 0 0.193205945"></polygon>
    </defs>
    <g id="Welcome" stroke="none" stroke-width="1" fill="none" fill-rule="evenodd">
        <g id="About" transform="translate(-504.000000, -2884.000000)">
            <g id="Group-40" transform="translate(504.000000, 2884.000000)">
                <rect id="Rectangle-Copy-10" fill="#FFFFFF" x="0" y="0" width="192" height="130"></rect>
                <g id="Group-15" transform="translate(36.000000, 18.500000)">
                    <g id="Group-3" transform="translate(20.866242, 0.156497)">
                        <mask id="mask-2" fill="white">
                            <use xlink:href="#path-1"></use>
                        </mask>
                        <g id="Clip-2"></g>
                        <path d="M59.1156866,29.9472692 C58.0547928,30.6547894 56.9146845,31.0869911 55.657107,31.2836747 C54.3993363,31.4801652 53.1807864,31.4407512 51.9230157,31.4407512 L26.2965656,31.4407512 C25.0389881,31.4407512 23.8204382,31.4801652 22.5626675,31.2836747 C21.3048968,31.0869911 20.1651749,30.6547894 19.1038947,29.9472692 C17.0207482,28.4930081 15.7631707,26.1347363 15.7631707,23.6191949 C15.7631707,21.0644327 17.0207482,18.7061609 19.1038947,17.2911206 C20.1651749,16.5837936 21.3048968,16.1512055 22.5626675,15.9549083 C23.8204382,15.7582246 25.0389881,15.7976386 26.2965656,15.7976386 L51.9230157,15.7976386 C53.1807864,15.7976386 54.3993363,15.7582246 55.657107,15.9549083 C56.9146845,16.1512055 58.0545996,16.5837936 59.1156866,17.2911206 C61.1990263,18.7453817 62.456797,21.1038467 62.456797,23.6191949 C62.456797,26.1741503 61.1990263,28.5322289 59.1156866,29.9472692 M69.4135635,5.38209936 C66.6623108,3.18090403 63.5178841,1.64800807 60.0983321,0.822632272 C58.1332344,0.351016561 56.1679435,0.154526115 54.1634318,0.0758912951 C52.6697567,0.0366704883 51.1762747,0.0366704883 49.6827928,0.0366704883 L28.5369817,0.0366704883 C27.043693,0.0366704883 25.5500178,0.0366704883 24.0563427,0.0758912951 C22.051831,0.154526115 20.0865401,0.351016561 18.1212493,0.822632272 C14.7018904,1.64800807 11.5574637,3.18090403 8.80621104,5.38209936 C3.26429172,9.82332442 0.0414233546,16.5443796 0.0414233546,23.6191949 C0.0414233546,30.7334242 3.26429172,37.4150654 8.80621104,41.8564837 C11.5574637,44.0574858 14.7018904,45.5903817 18.1212493,46.4159507 C20.0865401,46.8873732 22.051831,47.0840569 24.0563427,47.1626917 C25.5500178,47.2017193 27.043693,47.2017193 28.5369817,47.2017193 L49.6827928,47.2017193 C51.1762747,47.2017193 52.6697567,47.2017193 54.1634318,47.1626917 C56.1679435,47.0840569 58.1332344,46.8873732 60.0983321,46.4159507 C63.5178841,45.5903817 66.6623108,44.0574858 69.4135635,41.8564837 C74.9552896,37.4150654 78.1785444,30.6940102 78.1785444,23.6191949 C78.1785444,16.5049656 74.9552896,9.82332442 69.4135635,5.38209936" id="Fill-1" fill="#000000" mask="url(#mask-2)"></path>
                    </g>
                    <path d="M15.8053089,81.6747412 C15.7328567,82.0570958 15.6254342,82.4324949 15.4820754,82.79379 C15.3462516,83.1373102 15.1773896,83.4684652 14.9758758,83.7781743 C14.7824766,84.0760979 14.5591306,84.3545076 14.3093153,84.6064482 C14.0606592,84.8576159 13.7853408,85.0823144 13.4903153,85.277066 C13.1860159,85.4781934 12.8606571,85.6470554 12.5223535,85.7830724 C12.1695594,85.9244992 11.8030478,86.0307624 11.4291943,86.1014758 C11.0454873,86.1743144 10.6546316,86.2094779 10.2639692,86.2083464 C9.8735,86.2069662 9.48322399,86.1687115 9.09951699,86.0931679 C8.72701592,86.0201361 8.36050425,85.9115544 8.00886943,85.7676159 C7.67133864,85.6292805 7.34733227,85.4581 7.04419214,85.2548473 C6.75071231,85.0581637 6.4771327,84.8313399 6.23002229,84.5788197 C5.98175265,84.3249471 5.76033864,84.0447985 5.56925796,83.7459089 C5.37006263,83.4344609 5.20351911,83.1023399 5.06943418,82.7576605 C4.92858705,82.3952062 4.82425584,82.0186478 4.75412208,81.6361 C4.68205626,81.2404142 4.64689278,80.8383527 4.64820766,80.4360979 C4.64959766,80.0340363 4.68746603,79.6321679 4.76242994,79.2370618 C4.83488217,78.8547072 4.94230467,78.4793081 5.08527707,78.1178197 C5.22168047,77.7744928 5.39034926,77.4433378 5.59147665,77.1334355 C5.7848758,76.8355119 6.00822187,76.5572953 6.25823036,76.3049684 C6.50727282,76.0539938 6.78239809,75.8294885 7.07742357,75.6345437 C7.38152972,75.4336096 7.70688854,75.2647476 8.04519214,75.1287306 C8.3979862,74.9871106 8.76488429,74.8808473 9.13835138,74.8103272 C9.52225159,74.7374885 9.91272081,74.7019386 10.3033832,74.7032539 C10.6940456,74.7048367 11.0845149,74.7428983 11.4678355,74.8184418 C11.8409161,74.8914737 12.2068482,75.0000554 12.5586762,75.144187 C12.896207,75.2823293 13.2204066,75.453703 13.5231603,75.6569556 C13.8166401,75.8536393 14.0906062,76.0800766 14.3377166,76.3329832 C14.5859862,76.5866626 14.8070138,76.8668113 14.9984809,77.1658941 C15.1976762,77.4771488 15.3642197,77.8094631 15.4979183,78.1541425 C15.6389586,78.5164036 15.7436762,78.8931552 15.8134236,79.2755098 C15.8856826,79.6710023 15.9206529,80.0732571 15.9195215,80.4755119 C15.917948,80.8777667 15.8800796,81.2794418 15.8053089,81.6747412 M10.3194193,70.0552731 C7.5822707,70.0460618 4.90598195,71.0673484 2.9575,73.0328325 C1.00631316,75.0008282 0.00956369427,77.6875501 2.85545075e-05,80.4200618 C-0.00937048832,83.1527667 0.969024416,85.8466372 2.90649363,87.8285437 C4.84125796,89.8069726 7.5107845,90.8470002 10.2481263,90.8561461 C12.9852749,90.865548 15.6617569,89.8444546 17.6102389,87.8789705 C19.5614257,85.9109747 20.5581752,83.2242529 20.5673239,80.4917412 C20.5767229,77.7588431 19.598328,75.0649726 17.6608588,73.0832592 C15.7260945,71.1044439 13.0569544,70.0646096 10.3194193,70.0552731" id="Fill-4" fill="#000000"></path>
                    <path d="M94.2504968,79.8740038 C94.2466327,80.4215495 94.2443142,80.9872565 94.2083779,81.5340293 C94.1848068,81.8866301 94.1461656,82.244834 94.0810552,82.5924115 C93.957983,83.2464136 93.7437176,83.8758786 93.3814565,84.4431312 C92.5033355,85.8191439 90.9611656,86.4951715 89.3921401,86.515265 C87.7981911,86.5353584 86.2824904,85.8817427 85.429293,84.4564624 C85.0838408,83.8795495 84.8817473,83.2454476 84.7553907,82.5933775 C84.5863355,81.7171885 84.5459554,80.7996535 84.5245096,79.9138042 C84.5107919,79.3359253 84.5065414,78.7584327 84.5042229,78.1803605 C84.4991996,77.1969423 84.4993928,76.1754624 84.4991996,75.191851 C84.4988132,73.6290081 84.4988132,72.0217278 84.4988132,70.4656471 L79.7681656,70.4656471 C79.7681656,72.0217278 79.7660403,76.9235558 79.7755074,78.5418488 C79.7801444,79.3160251 79.7867134,80.1093287 79.8108641,80.8835049 C79.8282527,81.4495983 79.8549151,82.0236132 79.9053418,82.5879677 C80.0249363,83.9272713 80.2718535,85.236628 80.8827707,86.4650314 C82.134552,88.9836641 84.5654692,90.4421758 87.2761486,90.7628977 C88.6061783,90.9203605 89.971758,90.8026981 91.2558047,90.4255601 C92.4892314,90.0632989 93.7978153,89.4156726 94.7147707,88.4679975 C94.7590149,89.1053839 94.8036454,89.7632501 94.8480828,90.3855665 L98.9772803,90.3855665 L98.9772803,70.4656471 L94.2564862,70.4656471 C94.2564862,71.7106662 94.2586115,78.6017427 94.2504968,79.8740038" id="Fill-6" fill="#000000"></path>
                    <path d="M119.647283,82.5841809 C118.95947,80.6600429 117.28051,79.4816798 115.514415,78.7890365 C114.516313,78.3979877 113.48865,78.1559006 112.448816,77.9257924 C111.99227,77.8245524 111.535725,77.7258242 111.083236,77.6060365 C110.694313,77.5034442 110.313117,77.3877138 109.942742,77.2267732 C109.548408,77.0552064 109.144221,76.8206544 108.864266,76.4732701 C108.628748,76.1811427 108.503744,75.8289282 108.548568,75.4475397 C108.601699,74.9969834 108.871028,74.6285397 109.208945,74.357665 C109.446975,74.1665843 109.703746,74.0305673 109.986793,73.9212127 C110.353111,73.7803656 110.723487,73.7005715 111.111444,73.6557478 C111.882723,73.566873 112.670423,73.629665 113.425472,73.787321 C114.569251,74.0263168 115.631304,74.48151 116.622837,75.086631 C117.411311,74.0060301 118.199784,72.9256225 118.988837,71.8448285 C117.408413,70.7058794 115.61295,69.970924 113.686107,69.680149 C112.611109,69.5184357 111.513506,69.4989219 110.434064,69.6415079 C109.591686,69.7529877 108.793939,69.952183 108.007977,70.2808263 C106.96795,70.7159261 106.051574,71.3438454 105.332655,72.2289219 C104.817181,72.8639898 104.438111,73.5937287 104.220948,74.3831682 C103.953551,75.358665 103.945243,76.3886459 104.252633,77.3614378 C104.534907,78.2555949 105.05695,79.0154739 105.760219,79.6261979 C107.235154,80.9061873 109.294729,81.371234 111.067393,81.7539749 C111.688164,81.8878667 112.309128,82.0165418 112.920625,82.1917796 C113.416391,82.3335928 113.933024,82.515786 114.380682,82.784149 C114.732897,82.9947435 115.05671,83.2679367 115.271941,83.6290386 C115.454328,83.9352701 115.54243,84.2811087 115.507459,84.6391193 C115.475001,84.9712403 115.340723,85.2761193 115.138243,85.5365609 C114.897894,85.8464633 114.575627,86.0786968 114.229402,86.2492977 C113.773822,86.4736098 113.272839,86.5951363 112.774754,86.657735 C112.082304,86.7452573 111.357396,86.7263231 110.667844,86.6416989 C109.898304,86.5474144 109.164508,86.369665 108.437667,86.0989834 C107.32654,85.6861023 106.354714,85.1064845 105.421336,84.3867924 C104.580117,85.5104781 103.738899,86.6339707 102.89826,87.7574633 C104.400436,89.0048008 106.096784,89.9190514 107.979769,90.4528794 C109.020763,90.7480981 110.059824,90.914062 111.141198,90.9540556 C112.010625,90.9859346 112.860731,90.9355079 113.718759,90.7859665 C114.814816,90.5952722 115.891553,90.2469219 116.854877,89.6694293 C117.560659,89.2466947 118.17544,88.7173104 118.678355,88.0629219 C119.324822,87.2217032 119.748523,86.2222488 119.895746,85.1706289 C120.018238,84.2984972 119.945207,83.4178645 119.647283,82.5841809" id="Fill-8" fill="#000000"></path>
                    <path d="M35.8764505,86.0316898 C34.7732446,86.2780274 33.598166,86.2463416 32.5167924,85.8931611 C31.4217011,85.5353437 30.489096,84.8683968 29.8217626,83.9220741 C29.1638964,82.9902418 28.819217,81.864624 28.7573911,80.738813 C28.6959516,79.6230486 28.9125355,78.4495157 29.4367032,77.4500614 C29.989079,76.3967025 30.8092382,75.6661909 31.8950556,75.1990189 C32.3572042,74.9994372 32.8272743,74.8647726 33.3234272,74.7815008 C33.9615864,74.6742715 34.5827435,74.6617132 35.2245737,74.739382 C36.3729898,74.8784902 37.4199728,75.294849 38.3860025,75.912142 C39.336769,74.7053777 40.2877287,73.4986134 41.2383019,72.291849 C39.5925737,70.9950507 37.7356713,70.2440592 35.6536841,70.0220656 C33.6385461,69.806641 31.5353062,70.1177025 29.6919282,70.9925391 C27.8120344,71.8847641 26.3243486,73.3025093 25.3436352,75.1383522 C24.3816628,76.9392248 23.9741915,79.0227577 24.0713741,81.0442715 C24.1687499,83.0731272 24.7765758,85.0923225 25.9560981,86.7753395 C27.150304,88.4801887 28.8253996,89.6884987 30.781803,90.3583437 C32.7045885,91.0164032 34.83082,91.1271102 36.8138858,90.7072737 C38.8203295,90.282607 40.668924,89.3196686 42.0980684,87.8219361 C41.0168879,86.7059786 39.9355142,85.590021 38.8543338,84.4740635 C38.0179452,85.2553883 36.9893168,85.783227 35.8764505,86.0316898" id="Fill-10" fill="#000000"></path>
                    <mask id="mask-4" fill="white">
                        <use xlink:href="#path-3"></use>
                    </mask>
                    <g id="Clip-13"></g>
                    <polygon id="Fill-12" fill="#000000" mask="url(#mask-4)" points="69.7197176 90.3856051 74.6996008 90.3856051 74.6996008 62.4955541 69.7197176 62.4955541"></polygon>
                    <path d="M59.4987174,79.8740038 C59.4950465,80.4215495 59.492728,80.9872565 59.4567917,81.5340293 C59.4332206,81.8866301 59.3945794,82.244834 59.329469,82.5924115 C59.2063968,83.2464136 58.9919382,83.8758786 58.6300635,84.4431312 C57.7517493,85.8191439 56.209193,86.4951715 54.6405539,86.515265 C53.0467981,86.5353584 51.5309042,85.8817427 50.6775136,84.4564624 C50.3320614,83.8795495 50.1297747,83.2454476 50.0039977,82.5933775 C49.8347493,81.7171885 49.7943692,80.7996535 49.7729234,79.9138042 C49.7593989,79.3359253 49.7549552,78.7584327 49.7526367,78.1803605 C49.7476134,77.1969423 49.748193,76.1754624 49.7476134,75.191851 C49.747227,73.6290081 49.747227,72.0217278 49.747227,70.4656471 L45.0165794,70.4656471 C45.0165794,72.0217278 45.0144541,76.9235558 45.0239212,78.5418488 C45.0285582,79.3160251 45.0351272,80.1093287 45.0588915,80.8835049 C45.0766665,81.4495983 45.1033289,82.0236132 45.1535624,82.5879677 C45.2731569,83.9272713 45.5202673,85.236628 46.1309913,86.4650314 C47.3829658,88.9836641 49.8136898,90.4421758 52.5243692,90.7628977 C53.8547854,90.9203605 55.2199786,90.8026981 56.5042185,90.4255601 C57.7376452,90.0632989 59.0462291,89.4156726 59.9629913,88.4679975 C60.0074287,89.1053839 60.051866,89.7632501 60.0964966,90.3855665 L64.1171123,90.3855665 L64.1171123,70.4656471 L59.5049,70.4656471 C59.5049,71.7106662 59.5072185,78.6017427 59.4987174,79.8740038" id="Fill-14" fill="#000000" mask="url(#mask-4)"></path>
                </g>
            </g>
        </g>
    </g>
</svg>