<?xml version="1.0" encoding="UTF-8"?>
<svg width="95px" height="116px" viewBox="0 0 95 116" version="1.1" xmlns="http://www.w3.org/2000/svg" xmlns:xlink="http://www.w3.org/1999/xlink">
    <!-- Generator: Sketch 61.2 (89653) - https://sketch.com -->
    <title>golden_state_warriors</title>
    <desc>Created with Sketch.</desc>
    <g id="Welcome" stroke="none" stroke-width="1" fill="none" fill-rule="evenodd">
        <g id="About" transform="translate(-794.000000, -2891.000000)">
            <g id="golden_state_warriors" transform="translate(794.000000, 2891.000000)">
                <path d="M15.4972324,93.303007 L12.2471901,90.4054577 L11.9612746,90.7293592 L11.9994648,90.7771479 C12.1232254,90.9393028 12.1806127,91.0820563 12.1806127,91.1966268 C12.1806127,91.2917958 12.1518169,91.3679718 12.094838,91.4157606 C12.0756408,91.4633451 11.9326831,91.5491197 11.6657606,91.6730845 L5.95684507,94.4942535 L8.23477465,88.661169 C8.3205493,88.4324366 8.40632394,88.2800845 8.49189437,88.1943099 C8.54928169,88.1085352 8.63505634,88.0703451 8.73982394,88.0703451 C8.84479577,88.0703451 8.95916197,88.1085352 9.10191549,88.1943099 L9.16890141,88.2229014 L9.45461268,87.9083944 L6.3381338,85.1254155 L6.05221831,85.4493169 L6.09980282,85.5160986 C6.23316197,85.6972465 6.29994366,85.8783944 6.29994366,86.059338 C6.29994366,86.2596831 6.22376761,86.554993 6.08060563,86.9648732 L2.8879507,95.4665704 L2.58283803,96.1525634 C2.47807042,96.2575352 2.37330282,96.3147183 2.26833099,96.3147183 C2.16356338,96.3147183 2.03959859,96.2765282 1.90623944,96.1907535 L1.82046479,96.1525634 L1.61072535,96.4098873 L1.55354225,96.476669 L4.42229577,99.0501127 L4.67961972,98.7925845 L4.71780986,98.745 L4.67961972,98.6782183 C4.55585915,98.4876761 4.48907746,98.3257254 4.48907746,98.1919577 C4.48907746,98.1063873 4.51766901,98.030007 4.57485211,97.9728239 C4.62243662,97.9158451 4.81297887,97.8108732 5.1466831,97.6679155 L11.322662,94.5704296 L8.95916197,100.898761 C8.81620423,101.318444 8.71123239,101.55657 8.6540493,101.604155 C8.56827465,101.709127 8.47290141,101.756915 8.3681338,101.756915 C8.24416901,101.756915 8.11080986,101.709127 7.95825352,101.604155 L7.89167606,101.566169 L7.61515493,101.899873 L10.5410915,104.511099 L10.8272113,104.177599 L10.7794225,104.130014 C10.6364648,103.958465 10.5696831,103.815507 10.5696831,103.691542 C10.5792817,103.605563 10.6078732,103.529592 10.6650563,103.46281 C10.750831,103.367437 10.9795634,103.224479 11.3608521,103.033732 L19.452669,98.9069507 C19.8815423,98.6974155 20.1674577,98.5830493 20.3104155,98.5734507 L20.3675986,98.5640563 C20.5105563,98.5640563 20.6821056,98.6210352 20.8916408,98.726007 L20.9490282,98.745 L21.2349437,98.4302887 L18.1562465,95.6857042 L17.870331,96.000007 L17.9181197,96.0667887 C18.0514789,96.238338 18.1182606,96.3908944 18.1182606,96.5148592 L18.0514789,96.7245986 C17.9467113,96.8293662 17.7559648,96.9437324 17.4988451,97.0676972 L12.0374507,99.9172535 L14.2581972,94.0367887 C14.3439718,93.8080563 14.4107535,93.6648944 14.4679366,93.5981127 C14.5537113,93.512338 14.6394859,93.4649577 14.7442535,93.4649577 C14.8492254,93.4649577 14.9825845,93.5029437 15.1541338,93.5887183 L15.2019225,93.6269085 L15.4306549,93.3599859 L15.4972324,93.303007" id="Fill-1" fill="#000000"></path>
                <path d="M26.5817676,100.050613 L22.7692887,98.1827676 L22.5787465,98.5640563 L22.6169366,98.6116408 C22.7788873,98.7543944 22.8550634,98.8975563 22.8550634,99.0309155 L22.8074789,99.2214577 C22.7121056,99.3834085 22.5595493,99.536169 22.3500141,99.6979155 L14.6776761,105.769331 C14.3917606,105.998063 14.1820211,106.131423 14.0580563,106.160014 L13.8485211,106.198204 L13.5434085,106.150415 L13.4670282,106.140817 L13.2670915,106.52231 L16.8506338,108.266599 L17.0507746,107.885106 L16.9841972,107.837521 C16.7934507,107.675366 16.6980775,107.532613 16.6980775,107.389655 L16.726669,107.237099 C16.8028451,107.113134 16.9174155,106.989373 17.0793662,106.865408 L18.4803521,105.750134 L23.0172183,108.028268 L23.0172183,109.772352 C23.0172183,110.03907 22.9980211,110.21062 22.9600352,110.277197 C22.8836549,110.420359 22.7596901,110.496535 22.5977394,110.506134 L22.3214225,110.458549 L22.2736338,110.439352 L22.073493,110.820437 L26.0289296,112.774669 L26.2194718,112.374183 L26.1528944,112.326394 C25.9813451,112.202634 25.8667746,112.05988 25.8095915,111.878528 C25.7430141,111.69738 25.7048239,111.40207 25.7048239,111.011183 L25.6666338,101.137092 L25.6094507,101.127697 L25.6666338,101.127697 C25.6666338,100.889366 25.6952254,100.708423 25.7526127,100.593852 C25.8191901,100.470296 25.9527535,100.412908 26.1432958,100.403514 L26.3244437,100.422303 L26.5531761,100.136592 L26.5817676,100.050613 Z M23.0741972,106.11243 L19.9481197,104.57788 L23.198162,101.947458 L23.0741972,106.11243 L23.0741972,106.11243 Z" id="Fill-2" fill="#000000"></path>
                <path d="M40.0487958,104.53969 C39.7342887,104.20619 39.3244085,103.929669 38.8193592,103.710535 C38.3333028,103.510394 37.6660986,103.319852 36.7989577,103.129106 L29.6792535,101.651944 L29.5934789,102.004437 C29.8222113,102.185585 29.9555704,102.309754 29.984162,102.366732 L30.0127535,102.548085 L30.0127535,102.710035 L28.0209437,112.23143 C27.9731549,112.39338 27.9159718,112.498148 27.8491901,112.545732 C27.7444225,112.602915 27.6110634,112.631507 27.4489085,112.631507 L27.3155493,112.974606 L27.2965563,113.06038 L30.9658732,113.832352 L31.0516479,113.479859 L30.6799577,113.127162 C30.6513662,113.079577 30.6323732,113.012796 30.6323732,112.927021 L30.6419718,112.793662 L31.4137394,109.143134 L34.3208873,109.753155 L35.8362394,113.479859 C35.9981901,113.851345 36.0745704,114.099275 36.0745704,114.213641 L36.0745704,114.232634 C36.0457746,114.318408 35.941007,114.356599 35.7408662,114.366197 L35.6740845,114.366197 L35.5311268,114.699901 L35.5121338,114.785268 L39.7532817,115.662211 L39.8486549,115.233542 L39.7628803,115.214345 C39.5245493,115.147768 39.3436056,115.023599 39.2196408,114.852458 C39.0766831,114.671106 38.8669437,114.261225 38.6002254,113.64181 L37.1134648,110.21062 L37.341993,110.21062 C39.2864225,110.220218 40.4396831,109.343275 40.7921761,107.561 C40.8493592,107.284683 40.8779507,106.998768 40.8779507,106.712852 C40.8779507,106.455528 40.8589577,106.198204 40.811169,105.94088 C40.6874085,105.397641 40.4396831,104.930782 40.0487958,104.53969 Z M37.8472465,105.730937 C38.0949718,105.931282 38.2189366,106.226592 38.2189366,106.59869 L38.1807465,106.989373 C38.0569859,107.55181 37.7804648,107.885106 37.3515915,108.00907 L36.846338,108.085246 L36.7129789,108.085246 L35.5311268,107.885106 L31.8332183,107.113134 L32.4050493,104.339549 L36.1125563,105.111521 C36.6464014,105.216493 37.0370845,105.311866 37.2754155,105.397641 C37.4849507,105.483415 37.6756972,105.588183 37.8472465,105.730937 L37.8472465,105.730937 Z" id="Fill-3" fill="#000000"></path>
                <path d="M49.1415211,103.948866 L41.9646338,104.234577 L41.8882535,104.587479 C42.1455775,104.711239 42.2981338,104.806613 42.3457183,104.854401 C42.4125,104.921183 42.4504859,105.035345 42.4504859,105.187697 L42.8319789,114.928634 C42.8319789,115.071592 42.8031831,115.176359 42.7462042,115.233542 C42.6888169,115.309718 42.5650563,115.3765 42.3839085,115.433479 L42.3171268,115.795775 L46.0056408,115.747986 L46.0724225,115.3765 C45.8340915,115.271528 45.6911338,115.185754 45.6339507,115.12857 C45.5577746,115.052394 45.5195845,114.938028 45.5099859,114.79507 L45.3670282,111.077965 L48.3407535,110.963803 L50.7236549,114.213641 C50.9997676,114.575937 51.133331,114.79507 51.133331,114.871042 L51.133331,114.880845 C51.133331,114.985613 51.0189648,115.061789 50.7806338,115.109373 L50.7236549,115.462275 L54.955,115.395697 L55.0409789,115.023599 C54.6884859,114.928634 54.4501549,114.823662 54.3259859,114.71869 C54.1068521,114.537746 53.8115423,114.204246 53.4304577,113.698993 L51.1619225,110.725472 C53.1251408,110.315592 54.0972535,109.228908 54.0878592,107.446838 L54.0878592,107.256092 C54.068662,106.712852 53.9449014,106.198204 53.716169,105.693155 C53.4588451,105.168908 53.1063521,104.777817 52.6390845,104.511099 C52.2481972,104.253775 51.7717394,104.091824 51.2285,104.015444 L49.8655,103.929669 L49.1415211,103.948866 Z M50.7806338,106.207599 C51.1809155,106.407944 51.3904507,106.789028 51.4096479,107.351261 L51.4192465,107.437239 C51.4096479,107.951887 51.2285,108.323577 50.876007,108.542711 C50.6948592,108.647683 50.4853239,108.714261 50.2659859,108.761845 L49.0651408,108.857218 L45.2908521,109.019169 L45.1668873,106.083838 L49.7035493,106.007458 L50.1516197,106.036254 C50.3611549,106.055042 50.5710986,106.11243 50.7806338,106.207599 L50.7806338,106.207599 Z" id="Fill-4" fill="#000000"></path>
                <path d="M55.2887042,104.130014 L57.3952887,113.632211 L57.4044789,113.794366 L57.366493,113.985113 C57.3189085,114.080077 57.2045423,114.166056 57.0327887,114.242028 L57.0423873,114.614127 L57.0805775,114.699901 L60.7498944,113.889535 L60.6641197,113.537042 L60.187662,113.35569 C60.1018873,113.308106 60.0447042,113.203338 60.0161127,113.050782 L57.9097324,103.548585 L57.9001338,103.38643 L57.9383239,103.205486 C58.0051056,103.110113 58.1100775,103.024542 58.2624296,102.948162 L58.252831,102.585866 L58.2336338,102.500092 L54.5643169,103.300655 L54.6310986,103.653556 C54.8884225,103.720134 55.0503732,103.786915 55.1267535,103.8345 C55.2125282,103.901282 55.2697113,103.996451 55.2887042,104.130014" id="Fill-5" fill="#000000"></path>
                <path d="M64.7721127,100.012627 C62.2844437,101.09931 60.8834577,102.719225 60.5689507,104.882789 C60.5117676,105.178303 60.4831761,105.483415 60.4831761,105.77893 C60.4831761,106.588887 60.6547254,107.389655 60.9882254,108.171021 C61.2931338,108.895613 61.722007,109.534021 62.2844437,110.096254 C62.9038592,110.725472 63.6186479,111.182732 64.448007,111.468648 C65.0674225,111.687782 65.7156338,111.802352 66.4016268,111.802352 C67.3643451,111.802352 68.4032394,111.57362 69.5183099,111.106761 C71.9773873,110.048669 73.3783732,108.428345 73.7214718,106.226592 L73.7978521,105.254479 C73.7978521,104.482507 73.6452958,103.729732 73.3307887,102.986352 C72.6157958,101.318444 71.4533451,100.193775 69.8330211,99.631338 C69.2323944,99.4122042 68.5939859,99.297838 67.8981901,99.297838 C66.9068803,99.297838 65.8681901,99.536169 64.7721127,100.012627 Z M68.4794155,101.775704 C69.5279085,102.128401 70.2998803,102.88138 70.8051338,104.053838 C71.0050704,104.501704 71.1196408,104.997359 71.1292394,105.550197 L71.1292394,105.597577 C71.1292394,106.198204 71.014669,106.741444 70.776338,107.208507 C70.3856549,108.075852 69.6804648,108.714261 68.6795563,109.143134 C68.0887324,109.390859 67.5262958,109.515028 66.9928592,109.515028 C66.5829789,109.515028 66.2016901,109.448246 65.8297958,109.324282 C64.7433169,108.952592 63.9713451,108.209211 63.5138803,107.113134 C63.2757535,106.541303 63.1515845,105.998063 63.1515845,105.474021 C63.1515845,104.930782 63.2757535,104.406331 63.5138803,103.891887 C63.914162,103.043331 64.6099577,102.395324 65.6012676,101.966451 C66.2016901,101.728324 66.7829155,101.604155 67.3263592,101.604155 C67.7076479,101.604155 68.0887324,101.661542 68.4794155,101.775704 L68.4794155,101.775704 Z" id="Fill-6" fill="#000000"></path>
                <path d="M71.3577676,97.9158451 C71.4625352,97.9444366 71.5581127,98.0112183 71.6532817,98.1349789 L77.5815352,105.835908 C77.6673099,105.94088 77.7150986,106.036254 77.7150986,106.140817 L77.7150986,106.150415 C77.7055,106.264986 77.6387183,106.388746 77.5243521,106.531704 L77.486162,106.579493 L77.7434859,106.922387 L80.7268099,104.635063 L80.4694859,104.28257 L80.4027042,104.310958 L80.0596056,104.387134 L80.0024225,104.387134 C79.8976549,104.358746 79.7926831,104.292169 79.7071127,104.187197 L77.4385775,101.251662 L79.7926831,99.4215986 L83.6335493,100.698824 C84.0816197,100.832183 84.3103521,100.937155 84.3389437,101.013331 L84.3771338,101.080113 C84.3771338,101.156289 84.3103521,101.261261 84.1863873,101.385021 L84.1388028,101.442204 L84.3579366,101.718521 L84.3961268,101.785303 L87.8367113,99.1450775 L87.569993,98.8023873 L87.4842183,98.8307746 C87.3220634,98.9547394 87.1313169,99.0215211 86.9121831,99.0215211 L86.8456056,99.0215211 C86.6452606,99.0117183 86.206993,98.9069507 85.5491831,98.7068099 L81.9656408,97.5917394 C82.7376127,96.7623803 83.1189014,95.9334296 83.1189014,95.1040704 C83.1189014,94.4276761 82.8615775,93.750669 82.3469296,93.083669 C82.0040352,92.6355986 81.5941549,92.2831056 81.117493,92.0161831 C80.7076127,91.7874507 80.2501479,91.6730845 79.7640915,91.6730845 L79.5637465,91.6730845 C79.0968873,91.7016761 78.6204296,91.8444296 78.1437676,92.0923592 C77.6959014,92.3116972 77.1048732,92.6929859 76.3900845,93.2554225 L70.6335845,97.6871127 L70.8813099,98.0208169 L70.9478873,97.9920211 C71.0814507,97.9350423 71.1958169,97.9062465 71.3005845,97.9062465 L71.3577676,97.9158451 Z M78.4202887,94.3512958 C78.5822394,94.2463239 78.7823803,94.1797465 79.0207113,94.1413521 L79.2016549,94.1225634 C79.5735493,94.1225634 79.9164437,94.3131056 80.2119577,94.7037887 C80.4310915,94.999507 80.5454577,95.2852183 80.5454577,95.5523451 C80.5454577,95.6857042 80.5168662,95.8284577 80.4502887,95.9810141 C80.3645141,96.1813592 80.2405493,96.3620986 80.0881972,96.5148592 L79.1730634,97.2964296 L76.1707465,99.5933521 L74.4554577,97.3536127 L77.4385775,95.0468873 C77.8578521,94.7325845 78.1819577,94.4942535 78.4202887,94.3512958 L78.4202887,94.3512958 Z" id="Fill-7" fill="#000000"></path>
                <path d="M81.7083169,90.0145704 C81.7657042,90.9582958 82.1847746,91.7398662 82.9759437,92.3784789 C83.4526056,92.7499648 83.9576549,92.9882958 84.4915,93.0740704 L84.9773521,93.1122606 C85.4064296,93.1122606 85.8067113,93.0264859 86.1781972,92.8455423 C86.5500915,92.6833873 86.8835915,92.4832465 87.1885,92.2353169 L88.5421056,90.9676901 L89.4666338,90.043162 C90.0382606,89.4617324 90.4769366,89.0806479 90.7818451,88.8995 C90.9437958,88.804331 91.0963521,88.7565423 91.2583028,88.7565423 C91.4012606,88.7565423 91.5442183,88.8137254 91.706169,88.9376901 C91.8873169,89.0998451 92.0016831,89.2997817 92.0684648,89.5381127 L92.1160493,89.9383944 L92.0588662,90.3960634 C91.9351056,90.9393028 91.6489859,91.5111338 91.1819225,92.0923592 C90.7532535,92.6072113 90.2100141,93.083669 89.5524085,93.5221408 C88.9137958,93.9606127 88.3515634,94.2177324 87.8749014,94.2941127 L87.665162,94.3131056 C87.4650211,94.3131056 87.2934718,94.2559225 87.1697113,94.1511549 L87.0837324,94.0843732 L86.6644577,94.2271268 L88.1416197,97.1344789 L88.4849225,96.9913169 L88.5800915,96.5720423 L89.0757465,96.3049155 C90.5817042,95.6093239 91.8207394,94.6658028 92.7928521,93.4649577 C93.326493,92.8071479 93.7459718,92.1209507 94.0604789,91.406162 C94.3653873,90.6913732 94.5177394,90.043162 94.5177394,89.4525423 C94.5177394,89.2142113 94.4989507,89.0140704 94.451162,88.8327183 C94.2986056,88.0133662 93.8985282,87.346162 93.2407183,86.8219155 C92.8310423,86.4882113 92.3733732,86.2690775 91.8779225,86.1643099 L91.1917254,86.078331 L90.4293521,86.1833028 C89.9620845,86.3262606 89.5238169,86.5357958 89.1139366,86.8219155 C88.7136549,87.0790352 88.218,87.4985141 87.6269718,88.0799437 L86.6930493,89.0330634 C86.0926268,89.6524789 85.6637535,90.043162 85.4160282,90.2053169 C85.1964859,90.3482746 84.9965493,90.4244507 84.8058028,90.4244507 C84.6438521,90.4244507 84.4915,90.3672676 84.348338,90.2622958 C84.1484014,90.0815563 84.0434296,89.8716127 84.014838,89.6332817 L83.9862465,89.3951549 C83.9862465,89.1760211 84.0244366,88.9568873 84.1102113,88.7281549 C84.3009577,88.2610915 84.5772746,87.8130211 84.9299718,87.3935423 C85.7495282,86.3738451 86.7406338,85.6972465 87.9130915,85.3445493 L88.3515634,85.2683732 C88.456331,85.2683732 88.5421056,85.2873662 88.6086831,85.3349507 L88.7040563,85.4303239 L89.0567535,85.3349507 L89.1329296,85.2969648 L87.8367113,82.3710282 L87.4936127,82.5043873 C87.4460282,82.7713099 87.3984437,82.9332606 87.3506549,82.9808451 C87.3410563,83.0096408 87.1791056,83.1142042 86.8643944,83.2955563 C85.9400704,83.8006056 85.2156831,84.2388732 84.710838,84.6295563 C84.2149789,85.0108451 83.7193239,85.5065 83.223669,86.1071268 C82.2039718,87.3747535 81.6893239,88.5755986 81.6893239,89.7192606 L81.7083169,90.0145704" id="Fill-8" fill="#000000"></path>
                <path d="M46.3011549,9.01164789 C40.0583944,9.01164789 34.0825563,10.212493 28.3830352,12.6237817 C22.8740563,14.9588944 17.9942958,18.2471268 13.7531479,22.4882746 C9.50219718,26.7390211 6.21416901,31.6187817 3.88865493,37.1183662 C1.47716197,42.8176831 0.266922535,48.7935211 0.266922535,55.0362817 C0.266922535,61.278838 1.47716197,67.2548803 3.88865493,72.9541972 C6.21416901,78.4633803 9.50219718,83.3429366 13.7531479,87.5842887 C17.9942958,91.8256408 22.8740563,95.113669 28.3830352,97.4487817 C34.0825563,99.8598662 40.0583944,101.060915 46.3011549,101.060915 C52.5439155,101.060915 58.5197535,99.8598662 64.2096761,97.4487817 C69.7184507,95.113669 74.5984155,91.8256408 78.8395634,87.5842887 C83.0903099,83.3429366 86.3787465,78.4633803 88.7040563,72.9541972 C91.1153451,67.2548803 92.3163944,61.278838 92.3163944,55.0362817 C92.3163944,48.7935211 91.1153451,42.8176831 88.7040563,37.1183662 C86.3787465,31.6187817 83.0903099,26.7390211 78.8395634,22.4882746 C74.5984155,18.2471268 69.7184507,14.9588944 64.2096761,12.6237817 C58.5197535,10.212493 52.5439155,9.01164789 46.3011549,9.01164789" id="Fill-9" fill="#000000"></path>
                <path d="M2.41128873,21.5733451 C2.18276056,21.7734859 1.95382394,21.9926197 1.71549296,22.2309507 C1.43917606,22.5168662 1.20084507,22.8027817 1.00070423,23.0793028 C0.648211268,23.5557606 0.381288732,24.0514155 0.209739437,24.5660634 C0.047584507,25.0807113 -0.0189929577,25.5667676 0.00959859155,26.0242324 C0.0381901408,26.4816972 0.171549296,26.9297676 0.409880282,27.3586408 C0.648211268,27.7683169 0.991309859,28.1306127 1.43917606,28.4641127 C1.85865493,28.7788239 2.30652113,28.9979577 2.79257746,29.1027254 C3.25964085,29.1978944 3.72670423,29.1885 4.17457042,29.0741338 C4.6416338,28.9597676 5.07990141,28.7500282 5.49938028,28.4355211 C5.92825352,28.1116197 6.31893662,27.7017394 6.6716338,27.2156831 L7.21487324,26.4245141 L7.69153521,25.5477746 C7.8155,25.2712535 7.92026761,24.9567465 8.01543662,24.5852606 C8.0918169,24.2611549 8.13940141,23.9178521 8.14879577,23.5557606 L7.9774507,23.4224014 C7.92026761,23.4603873 7.86288028,23.4889789 7.79630282,23.5175704 C7.74851408,23.5463662 7.68193662,23.5367676 7.61515493,23.4889789 L6.41430986,22.6122394 L6.2809507,22.4216972 C6.2809507,22.3549155 6.31893662,22.2499437 6.39511268,22.1071901 L6.20457042,21.9642324 L4.26034507,24.6136479 L4.05060563,24.8043944 C3.98402817,24.8329859 3.87905634,24.8043944 3.75529577,24.7280141 L3.62173239,24.9187606 L4.9751338,25.9194648 L5.10869718,25.7193239 C4.98473239,25.6145563 4.9179507,25.5191831 4.90835211,25.4334085 C4.89895775,25.3666268 4.93694366,25.2712535 5.01332394,25.1568873 L6.00442958,23.8034859 L6.91935915,24.4612958 L6.52867606,25.443007 C6.34752817,25.8336901 6.11879577,26.2243732 5.83288028,26.6150563 C5.63273944,26.8725845 5.41360563,27.1013169 5.15628169,27.3014577 C4.88935915,27.5111972 4.60344366,27.6539507 4.29853521,27.7399296 L3.3358169,27.7875141 C3.0023169,27.7207324 2.65921831,27.5681761 2.30652113,27.3108521 C1.95382394,27.0535282 1.6965,26.7772113 1.54414789,26.4723028 C1.39138732,26.1767887 1.3058169,25.8620775 1.29621831,25.5381761 C1.28661972,25.223669 1.34380282,24.909162 1.45837324,24.5946549 C1.57253521,24.2801479 1.72509155,23.9942324 1.9156338,23.7463028 L2.44947887,23.0886972 C2.64961972,22.8695634 2.84976056,22.6884155 3.05929577,22.5360634 C3.28823239,22.3645141 3.48837324,22.2499437 3.65032394,22.2023592 L4.07919718,22.2119577 L4.18396479,22.3167254 L4.40330282,22.1547746 L3.45957746,20.5058592 C3.41219718,20.5344507 3.35480986,20.5630423 3.29762676,20.5820352 L3.28823239,20.7441901 L3.2214507,20.925338 L2.96412676,21.1444718 L2.41128873,21.5733451" id="Fill-10" fill="#000000"></path>
                <path d="M14.0580563,14.4156549 C13.6577746,13.9675845 13.2099085,13.6722746 12.7142535,13.5197183 C12.2185986,13.3767606 11.7229437,13.3385704 11.227493,13.3959577 C10.7222394,13.4625352 10.2457817,13.605493 9.77871831,13.824831 C9.31165493,14.0629577 8.90177465,14.3394789 8.54928169,14.6635845 C8.19658451,14.9780915 7.88207746,15.3591761 7.60576056,15.8166408 C7.32923944,16.2551127 7.13869718,16.7221761 7.03372535,17.2176268 C6.92895775,17.7228803 6.91935915,18.2185352 7.02433099,18.7045915 C7.12909859,19.2096408 7.37702817,19.6863028 7.78670423,20.134169 C8.19658451,20.5820352 8.64465493,20.8775493 9.14010563,21.0301056 C9.63576056,21.1730634 10.1312113,21.2206479 10.6270704,21.1540704 C11.1417183,21.0872887 11.6181761,20.944331 12.0566479,20.706 C12.5047183,20.467669 12.9143944,20.1913521 13.2764859,19.8578521 C13.6483803,19.5241479 13.9628873,19.1430634 14.2296056,18.7139859 C14.5059225,18.2947113 14.7062676,17.8372465 14.8204296,17.331993 C14.9254014,16.8461408 14.935,16.3504859 14.8300282,15.835838 C14.715662,15.3305845 14.458338,14.8541268 14.0580563,14.4156549 Z M13.4862254,17.2654155 C13.4196479,17.5989155 13.2956831,17.9136268 13.1145352,18.1995423 C12.9525845,18.4948521 12.7428451,18.7617746 12.4951197,18.990507 C12.2375915,19.2192394 11.9518803,19.4003873 11.6467676,19.5433451 C11.3322606,19.6956972 11.0081549,19.7910704 10.6746549,19.819662 C10.3505493,19.8578521 10.0264437,19.819662 9.71193662,19.7148944 C9.39742958,19.6195211 9.12111268,19.4383732 8.86378873,19.1620563 C8.60646479,18.8855352 8.45390845,18.5806268 8.38712676,18.2661197 C8.3109507,17.9516127 8.30135211,17.6179085 8.3681338,17.2846127 C8.43491549,16.9509085 8.54928169,16.6364014 8.72083099,16.3408873 C8.88278169,16.0645704 9.10191549,15.7976479 9.35944366,15.5497183 C9.61676761,15.3209859 9.9026831,15.1400423 10.2075915,14.9970845 C10.5220986,14.8541268 10.8368099,14.7587535 11.1701056,14.730162 C11.5038099,14.6919718 11.8277113,14.7205634 12.1424225,14.8255352 C12.447331,14.9303028 12.7332465,15.1208451 13.000169,15.3877676 C13.2385,15.6736831 13.4004507,15.9691972 13.4670282,16.2837042 C13.5434085,16.5982113 13.553007,16.9317113 13.4862254,17.2654155 L13.4862254,17.2654155 Z" id="Fill-12" fill="#000000"></path>
                <path d="M14.7824437,10.3172606 L17.9277183,15.3783732 C18.013493,15.521331 17.9371127,15.6546901 17.7179789,15.7880493 L17.8417394,15.9977887 L23.1505775,12.700162 C23.2745423,12.6237817 23.3793099,12.5761972 23.4460915,12.5572042 C23.5222676,12.5190141 23.5984437,12.5572042 23.6652254,12.6715704 L23.8653662,12.5572042 L22.9122465,11.0226549 L22.7121056,11.1370211 C22.7692887,11.241993 22.7788873,11.337162 22.7406972,11.4229366 C22.7121056,11.5183099 22.6359296,11.6040845 22.5215634,11.670662 L18.8140563,13.9675845 L16.0500704,9.52629577 C15.9832887,9.40233099 16.0404718,9.26897183 16.2406127,9.12601408 L16.1262465,8.93547183 L14.1914155,10.1171197 L14.3249789,10.3268592 L14.7824437,10.3172606" id="Fill-13" fill="#000000"></path>
                <path d="M27.6586479,3.45508451 C27.2107817,3.48367606 26.7723099,3.5790493 26.333838,3.75059859 L22.2832324,5.36132394 L22.3786056,5.58045775 C22.5691479,5.50428169 22.6931127,5.54226761 22.7406972,5.68542958 L24.9424507,11.2323944 C25.0090282,11.3753521 24.9424507,11.4897183 24.7517042,11.5565 L24.8374789,11.7850282 L28.8880845,10.174507 C29.3361549,9.99335915 29.726838,9.75502817 30.0605423,9.47871127 C30.3940423,9.20219014 30.6513662,8.86869014 30.8325141,8.48740141 C31.013662,8.10611268 31.108831,7.68683803 31.108831,7.21977465 C31.108831,6.76230986 31.0040634,6.25705634 30.7847254,5.69482394 C30.555993,5.13259155 30.2892746,4.69411972 29.9747676,4.37961268 C29.6696549,4.04611268 29.317162,3.7981831 28.9166761,3.63623239 C28.525993,3.48367606 28.1065141,3.42649296 27.6586479,3.45508451 Z M28.8405,5.25655634 C29.0596338,5.51388028 29.2407817,5.83778169 29.393338,6.24766197 C29.5648873,6.67653521 29.6602606,7.03883099 29.6792535,7.35333803 C29.6888521,7.68683803 29.631669,7.96315493 29.5077042,8.18249296 C29.393338,8.43021831 29.2025915,8.63995775 28.9452676,8.82110563 C28.7071408,8.9924507 28.3830352,9.15460563 27.9827535,9.31655634 L26.0861127,10.0695352 L24.3800141,5.74261268 L26.2672606,4.9896338 C26.6675423,4.83707746 27.0106408,4.74170423 27.3061549,4.69411972 L28.1543028,4.76090141 C28.4020282,4.84667606 28.6307606,5.01822535 28.8405,5.25655634 L28.8405,5.25655634 Z" id="Fill-14" fill="#000000"></path>
                <path d="M38.8097606,0.348 C38.7525775,0.424380282 38.6288169,0.48156338 38.447669,0.519549296 L32.567,1.66321127 L32.6243873,1.89194366 L32.7957324,1.92053521 C32.8435211,1.94933099 32.881507,2.00630986 32.8911056,2.08269014 L34.0347676,7.92496479 C34.0443662,8.00134507 34.0347676,8.06812676 33.9967817,8.11571127 C33.948993,8.17289437 33.9014085,8.20148592 33.8442254,8.21108451 L33.8918099,8.4398169 L39.8962394,7.26756338 L40.2203451,7.23897183 C40.3061197,7.23897183 40.3539085,7.3055493 40.3825,7.42951408 L40.6206268,7.38192958 L40.2775282,5.61864789 L40.0394014,5.66623239 C40.0583944,5.77120423 40.0298028,5.86637324 39.9630211,5.93315493 C39.8962394,6.01892958 39.7914718,6.06651408 39.6677113,6.07611268 L35.3595775,6.92446479 L35.0164789,5.15158451 L37.5421338,4.64653521 L37.9616127,4.65592958 C38.0663803,4.70371831 38.133162,4.81808451 38.1807465,5.00862676 L38.4094789,4.97064085 L38.0091972,2.95942958 L37.7900634,2.99761972 C37.8186549,3.20735915 37.7994577,3.34071831 37.7136831,3.38850704 C37.6281127,3.45508451 37.5041479,3.51226761 37.3325986,3.55045775 L34.8069437,4.04611268 L34.482838,2.44478169 L38.6668028,1.62522535 L39.0576901,1.61562676 C39.1338662,1.6538169 39.1814507,1.72059859 39.2100423,1.81576761 L39.4387746,1.7681831 L39.1052746,0.062084507 L38.8765423,0.109873239 C38.8955352,0.21443662 38.8765423,0.291021127 38.8097606,0.348" id="Fill-15" fill="#000000"></path>
                <path d="M48.7316408,4.65592958 L44.9667465,0.74828169 C44.7855986,0.557739437 44.6998239,0.433774648 44.6998239,0.366992958 C44.6998239,0.281422535 44.7380141,0.243232394 44.8047958,0.243232394 L44.8047958,0.0145 L42.5554577,0.0145 L42.5650563,0.243232394 C42.727007,0.243232394 42.8127817,0.319408451 42.8127817,0.48156338 L42.8127817,6.43820423 C42.8127817,6.60035915 42.727007,6.67653521 42.5554577,6.67653521 L42.5554577,6.9148662 L44.4998873,6.9148662 L44.4998873,6.67653521 C44.2997465,6.67653521 44.2043732,6.60035915 44.2043732,6.43820423 L44.2043732,2.08269014 L48.2073944,6.25705634 C48.3503521,6.40021831 48.4169296,6.49538732 48.4169296,6.56216901 C48.4169296,6.6385493 48.3597465,6.67653521 48.2549789,6.67653521 L48.2549789,6.9148662 L50.3803521,6.9148662 L50.3803521,6.67653521 C50.2181972,6.67653521 50.1324225,6.60035915 50.1324225,6.43820423 L50.1324225,0.48156338 C50.1324225,0.319408451 50.2181972,0.243232394 50.3803521,0.243232394 L50.3803521,0.0145 L48.388338,0.0145 L48.388338,0.243232394 C48.6170704,0.243232394 48.7316408,0.319408451 48.7316408,0.48156338 L48.7316408,4.65592958" id="Fill-16" fill="#000000"></path>
                <path d="M62.6655282,2.38759859 C62.3320282,2.22564789 61.9507394,2.08269014 61.5220704,1.95892958 C61.0168169,1.81576761 60.5497535,1.75858451 60.1112817,1.7681831 C59.6824085,1.77778169 59.3107183,1.84435915 59.0152042,1.96832394 C58.7006972,2.1016831 58.4433732,2.27323239 58.2624296,2.49257042 C58.0716831,2.69271127 57.9383239,2.94043662 57.8621479,3.21695775 C57.7571761,3.60764085 57.7477817,3.94134507 57.8237535,4.21766197 C57.9001338,4.48438028 58.0430915,4.72271127 58.2434366,4.94184507 C58.4433732,5.15158451 58.6913028,5.33273239 58.9868169,5.47569014 C59.2535352,5.60925352 59.5586479,5.73301408 59.8921479,5.85697887 L60.8260704,6.18088028 C61.1217887,6.27625352 61.388507,6.38102113 61.6172394,6.49538732 C61.8459718,6.60035915 62.0175211,6.72432394 62.1414859,6.8576831 C62.2654507,6.98144366 62.3034366,7.14359859 62.2462535,7.34373944 C62.1984648,7.53428169 62.0749085,7.66784507 61.8745634,7.75361972 L61.2359507,7.86798592 L60.521162,7.81080282 L59.9587254,7.68683803 L59.3107183,7.43911268 L58.6627113,7.05782394 L58.1384648,6.6385493 C57.995507,6.49538732 57.9097324,6.36202817 57.8717465,6.24766197 C57.8621479,6.17148592 57.8621479,6.09510563 57.8809366,6.01892958 L57.7763732,5.92376056 L56.6517042,7.25796479 L56.794662,7.41991549 C56.870838,7.36273239 56.9376197,7.34373944 56.9948028,7.35333803 C57.0805775,7.38192958 57.1853451,7.43911268 57.2903169,7.54388028 L57.7477817,7.90617606 L58.5007606,8.33484507 C58.7960704,8.46840845 59.1867535,8.6113662 59.6824085,8.75432394 L60.8260704,8.97345775 C61.2551479,9.04023944 61.6554296,9.03064085 62.0365141,8.96385915 C62.4178028,8.90667606 62.7705,8.76392254 63.0946056,8.54458451 C63.3995141,8.34444366 63.6092535,8.02033803 63.7330141,7.57247183 C63.8377817,7.20078169 63.8569789,6.87667606 63.7712042,6.59076056 C63.6854296,6.30484507 63.5424718,6.05711972 63.342331,5.85697887 C63.1421901,5.6566338 62.8944648,5.47569014 62.6083451,5.33273239 C62.3510211,5.19937324 62.0461127,5.06580986 61.7030141,4.9324507 L60.7784859,4.60834507 C60.4831761,4.50357746 60.2162535,4.39860563 59.9779225,4.27464085 C59.7587887,4.16987324 59.5872394,4.03651408 59.4728732,3.88395775 C59.3489085,3.741 59.3203169,3.5694507 59.3775,3.37890845 C59.4060915,3.21695775 59.491662,3.11198592 59.6348239,3.05480282 C59.7587887,2.98802113 59.9113451,2.94983099 60.0922887,2.93083803 L60.6641197,2.95942958 L61.2551479,3.05480282 C61.4932746,3.13097887 61.7316056,3.22635211 61.9699366,3.34071831 C62.1984648,3.44548592 62.4082042,3.5790493 62.5989507,3.72200704 C62.7800986,3.82677465 62.9420493,3.9601338 63.085007,4.12228873 C63.2087676,4.26524648 63.2945423,4.39860563 63.342331,4.51297183 C63.3709225,4.61794366 63.3709225,4.72271127 63.3519296,4.82747887 L63.4662958,4.91325352 L64.7817113,3.5790493 L64.6575423,3.44548592 C64.5909648,3.47428169 64.4953873,3.47428169 64.3812254,3.44548592 C64.2762535,3.41689437 64.152493,3.3503169 63.9999366,3.22635211 L63.4470986,2.84506338 L62.6655282,2.38759859" id="Fill-17" fill="#000000"></path>
                <path d="M73.283,6.67653521 L68.0029577,4.18907042 L67.8312042,4.02691549 C67.7838239,3.9601338 67.7934225,3.87435915 67.841007,3.75059859 L67.6218732,3.64562676 L66.8403028,5.31353521 L67.049838,5.40890845 C67.0974225,5.30414085 67.1735986,5.24695775 67.2593732,5.23735915 L67.4883099,5.2755493 L69.4517324,6.20967606 L67.2213873,10.9368803 L67.068831,11.0608451 L66.8878873,11.0416479 L66.8021127,11.2513873 L68.6223732,12.1281268 L68.7273451,11.908993 C68.5651901,11.8232183 68.5082113,11.7088521 68.5651901,11.5658944 L70.8051338,6.84808451 L72.7683521,7.77261268 L72.9399014,7.93456338 C72.9876901,8.00134507 72.9876901,8.08711972 72.9399014,8.20148592 L73.1496408,8.30645775 L73.9408099,6.64794366 L73.7214718,6.54317606 C73.6738873,6.64794366 73.6071056,6.71472535 73.5211268,6.72432394 L73.283,6.67653521" id="Fill-18" fill="#000000"></path>
                <path d="M71.1670211,12.8621127 L70.8431197,12.8525141 L70.7193592,13.0526549 L72.2537042,14.0915493 L72.3872676,13.901007 C72.2537042,13.8056338 72.2157183,13.7198592 72.2729014,13.6340845 C72.301493,13.5673028 72.4156549,13.4911268 72.5968028,13.3863592 L73.502338,12.8811056 L76.1613521,14.6635845 L76.027993,15.7500634 C76.0087958,15.9120141 75.9708099,16.0263803 75.9230211,16.093162 L75.7992606,16.1503451 L75.6656972,16.1025563 L75.532338,16.3026972 L77.4479718,17.5989155 L77.5719366,17.3987746 L77.4385775,17.1510493 C77.4099859,17.0652746 77.4003873,16.9699014 77.4099859,16.8651338 L78.1723592,10.6127746 C78.1915563,10.527 78.2199437,10.4602183 78.258338,10.4126338 C78.3057183,10.3268592 78.3725,10.2888732 78.4392817,10.2984718 L78.6394225,10.3458521 L78.7631831,10.1459155 L76.9239296,8.90667606 L76.7999648,9.10702113 L76.914331,9.2783662 C76.9429225,9.34535211 76.9429225,9.41192958 76.895338,9.48810563 L76.6855986,9.65026056 L71.5103239,12.6905634 L71.1670211,12.8621127 Z M76.7713732,10.9558732 L76.3139085,13.5958944 L74.3696831,12.2902817 L76.7713732,10.9558732 L76.7713732,10.9558732 Z" id="Fill-19" fill="#000000"></path>
                <path d="M82.2517606,12.2616901 L81.0031268,13.6150915 L81.1842746,13.7676479 C81.2700493,13.681669 81.3462254,13.6436831 81.432,13.6626761 C81.5081761,13.681669 81.5749577,13.7198592 81.6415352,13.7676479 L83.2334718,15.2448099 L79.6973099,19.0858803 C79.6401268,19.1430634 79.5829437,19.1716549 79.5163662,19.1620563 C79.4687817,19.1620563 79.4113944,19.1430634 79.3542113,19.0952746 L79.2016549,19.2764225 L80.6886197,20.6392183 L80.8505704,20.467669 C80.7076127,20.3439085 80.6886197,20.2199437 80.7933873,20.0959789 L84.3387394,16.2551127 L85.9304718,17.7228803 C85.9972535,17.789662 86.0354437,17.8562394 86.0640352,17.9324155 C86.0830282,17.9994014 86.0546408,18.0849718 85.9688662,18.1899437 L86.1496056,18.3518944 L87.3888451,16.998493 L87.2170915,16.8365423 C87.1313169,16.9223169 87.0457465,16.960507 86.9597676,16.9413099 C86.8741972,16.9317113 86.8074155,16.8935211 86.7502324,16.8365423 L82.4516972,12.8811056 L82.337331,12.681169 C82.3089437,12.5953944 82.337331,12.5094155 82.4231056,12.4142465 L82.2517606,12.2616901" id="Fill-20" fill="#000000"></path>
                <path d="M88.8564085,19.8292606 L84.1388028,23.4699859 C84.0720211,23.5081761 84.014838,23.527169 83.9576549,23.5175704 L83.8053028,23.4224014 L83.6241549,23.5651549 L87.3506549,28.4165282 L87.5318028,28.6834507 C87.569993,28.7596268 87.5318028,28.8358028 87.426831,28.9215775 L87.5793873,29.1123239 L89.0089648,28.0066479 L88.8470141,27.8257042 C88.7706338,27.8922817 88.6848592,27.9018803 88.5896901,27.8732887 C88.4849225,27.8446972 88.3895493,27.7779155 88.313169,27.6731479 L85.635162,24.2039718 L87.074338,23.0982958 L88.6468732,25.1378944 C88.7518451,25.2808521 88.8090282,25.4048169 88.8280211,25.5095845 C88.8376197,25.6239507 88.7614437,25.7383169 88.5992887,25.8622817 L88.7518451,26.0432254 L90.3623662,24.7947958 L90.229007,24.6040493 C90.0670563,24.7280141 89.9430915,24.7758028 89.8479225,24.7280141 L89.5332113,24.4420986 L87.9606761,22.4025 L89.2568944,21.4113944 L91.849331,24.7851972 C91.9730915,24.9281549 92.0302746,25.0521197 92.0398732,25.1378944 C92.0398732,25.223669 92.0016831,25.2904507 91.9257113,25.3570282 L92.0684648,25.5477746 L93.4502535,24.4898873 L93.2979014,24.2991408 C93.2311197,24.3659225 93.1453451,24.3753169 93.0595704,24.3469296 C92.9644014,24.3277324 92.8596338,24.2419577 92.7450634,24.0896056 L89.0947394,19.3525986 L88.9041972,19.4955563 C88.9421831,19.562338 88.9613803,19.6195211 88.9519859,19.6673099 L88.8564085,19.8292606" id="Fill-21" fill="#000000"></path>
                <path d="M46.2725634,11.2323944 C40.5348521,11.2323944 35.0450704,12.3474648 29.7936197,14.5682113 C24.7231127,16.7029789 20.2340352,19.7242887 16.3359859,23.6415352 C12.428338,27.5397887 9.40702817,32.028662 7.26266197,37.099169 C5.04191549,42.3412254 3.92664085,47.831007 3.92664085,53.5781127 C3.92664085,59.3252183 5.04191549,64.815 7.26266197,70.0570563 C9.40702817,75.1275634 12.428338,79.6164366 16.3359859,83.5240845 C20.2340352,87.4319366 24.7231127,90.4530423 29.7936197,92.5976127 C35.0450704,94.8183592 40.5348521,95.923831 46.2725634,95.923831 C52.1150423,95.923831 57.6905986,94.780169 63.008831,92.4832465 C68.1459155,90.2720986 72.6729789,87.1554155 76.5998239,83.1334014 C76.8189577,83.0096408 77.0952746,82.7139225 77.4289789,82.2468592 C80.9745352,78.4061972 83.7099296,74.0694718 85.6447606,69.2372958 C87.6367746,64.2335704 88.6278803,59.0107113 88.6278803,53.5781127 C88.6278803,47.831007 87.5222042,42.3412254 85.3014577,37.099169 C83.1570915,32.028662 80.1357817,27.5397887 76.2279296,23.6415352 C72.3108873,19.7242887 67.8218099,16.7029789 62.7609014,14.5682113 C57.5094507,12.3474648 52.019669,11.2323944 46.2725634,11.2323944 Z M61.722007,17.0080915 C66.4684085,19.0190986 70.6715704,21.849662 74.3408873,25.5191831 C78.0008099,29.169507 80.8315775,33.372669 82.8423803,38.1284648 C84.920169,43.0370211 85.9590634,48.1837042 85.9590634,53.5685141 C85.9590634,59.963831 84.5008944,65.9968521 81.5749577,71.6867746 C69.537507,68.999169 57.8907394,63.6617394 46.6346549,55.6748944 C39.2292394,50.4234437 32.5576056,44.4665986 26.6103592,37.8235563 L26.4578028,32.6386831 L25.2187676,32.0858451 L24.065507,33.0771549 L24.1130915,34.9166127 L23.4650845,34.1160493 L23.436493,31.1899085 L21.739993,31.1899085 L21.7018028,32.2004155 L20.672507,32.4577394 L20.5771338,38.0618873 C18.328,43.2179648 15.7735493,47.8595986 12.923993,51.9959789 C10.970169,54.8457394 8.99714789,57.2760211 7.02433099,59.3060211 C6.74801408,57.3903873 6.60485211,55.4843521 6.60485211,53.5685141 C6.60485211,48.1837042 7.64374648,43.0370211 9.72153521,38.1284648 C11.7325423,33.372669 14.5633099,29.169507 18.2230282,25.5191831 C21.8829507,21.849662 26.0861127,19.0190986 30.8325141,17.0080915 C35.7408662,14.9303028 40.8875493,13.8914085 46.2725634,13.8914085 C51.6575775,13.8914085 56.8040563,14.9303028 61.722007,17.0080915 Z M50.6090845,59.7922817 L55.1075563,73.8695352 L52.6486831,73.9740986 L47.3972324,57.3524014 L50.6090845,59.7922817 Z M46.1677958,56.3800845 L51.7717394,74.0122887 L49.0935282,74.1552465 L42.4504859,53.3207887 C43.6611338,54.3596831 44.8999648,55.3793803 46.1677958,56.3800845 Z M55.1457465,63.0327254 L58.5387465,73.7549648 L55.9845,73.8311408 L51.8481197,60.6976127 L55.1267535,62.9755423 L55.2507183,63.0613169 L55.1457465,63.0327254 Z M7.51038732,62.0128239 L8.90177465,60.0208099 L7.93926056,63.8049014 L7.51038732,62.0128239 Z M12.2471901,54.950507 L9.75012676,69.0849437 C9.32125352,68.0650423 8.91137324,66.9787676 8.5396831,65.8157042 L10.2933662,57.9622183 L12.2471901,54.950507 Z M31.6140845,43.3515282 L41.5833451,74.6221056 L39.1432606,74.8128521 L28.2018873,39.8631549 L31.6140845,43.3515282 Z M26.8198944,38.4049859 L38.2857183,74.8796338 L35.5979085,75.0987676 L26.9342606,47.2209859 L26.6197535,38.1952465 L26.8198944,38.4049859 Z M24.1226901,35.4884437 C24.5325704,52.5772042 24.9328521,66.1206127 25.3331338,76.1280634 L24.4371972,76.2330352 C23.9797324,65.0245352 23.6556268,51.2048099 23.4744789,34.7736549 L24.1226901,35.4884437 Z M20.5105563,39.7391901 L13.9818803,76.6141197 C13.3622606,75.7565775 12.8192254,74.9368169 12.3519577,74.1648451 L17.3080986,46.2488732 C18.5185423,43.9709437 19.5860282,41.8073803 20.5105563,39.7391901 Z M16.0404718,48.5647887 L11.7515352,73.1163521 C11.2082958,72.172831 10.731838,71.2389085 10.3219577,70.3333732 L13.3528662,53.158838 C14.2773944,51.6528803 15.1731268,50.118331 16.0404718,48.5647887 Z M20.1198732,59.4873732 L16.9841972,77.1573592 L14.6776761,77.4814648 L20.453169,44.9144648 C20.3675986,49.765838 20.3008169,54.636 20.2436338,59.5159648 L20.1198732,59.4873732 Z M27.0678239,50.7187535 L34.7305634,75.1751479 L32.4812254,75.3848873 L27.4299155,59.3252183 L27.0678239,50.7187535 Z M36.6653944,48.2026972 L44.9763451,74.3935775 L42.4504859,74.5651268 L33.0816479,44.7907042 C34.2922958,45.9819507 35.4835423,47.1162183 36.6653944,48.2026972 Z M28.3354507,75.7945634 C28.1065141,72.4777394 27.8587887,68.1412183 27.5918662,62.7847958 L31.6234789,75.4704577 L28.3354507,75.7945634 Z M17.8609366,77.0431972 L20.1864507,63.8904718 C20.138662,68.5129085 20.1102746,72.7922465 20.1102746,76.7476831 L17.8609366,77.0431972 Z M20.1674577,83.4287113 L18.7568732,82.1516901 L20.1482606,82.094507 L20.1674577,83.4287113 Z M25.0090282,87.0602465 C24.9042606,85.5256972 24.799493,83.8195986 24.7041197,81.9611479 L25.5904577,81.9325563 C25.6952254,84.1530986 25.8001972,86.059338 25.9145634,87.6318732 L25.0090282,87.0602465 Z M28.7833169,81.8561761 C47.9404718,81.4273028 62.7133169,81.7514085 73.1020563,82.8092958 C69.4991127,86.1167254 65.4391127,88.661169 60.9118451,90.4628451 C56.2322254,92.3210915 51.352669,93.2554225 46.2725634,93.2554225 C40.4204859,93.2554225 34.8545282,92.0257817 29.5648873,89.5667042 C29.3075634,87.5938873 29.0406408,85.0204437 28.7833169,81.8561761 Z M68.984669,70.9623873 C71.4533451,72.1158521 73.7024789,73.0305775 75.7420775,73.6881831 L69.8232183,73.612007 L68.984669,70.9623873 Z M74.8747324,81.0746056 C65.6584507,80.3408239 52.477338,80.1312887 35.3215915,80.4455915 C47.8355,79.8833592 61.3217254,79.768993 75.7800634,80.102493 L74.8747324,81.0746056 Z M67.9457746,70.4669366 L68.9464789,73.612007 L66.3446479,73.612007 L64.8578873,68.8848028 L67.9457746,70.4669366 Z M62.9610423,73.6595915 L60.7688873,66.5688873 C61.7126127,67.1407183 62.7227113,67.7219437 63.7997958,68.3033732 L65.4583099,73.6216056 L62.9610423,73.6595915 Z M62.0843028,73.6691901 L59.4060915,73.7357676 L56.2322254,63.7191268 C57.4044789,64.4910986 58.5483451,65.2248803 59.6824085,65.9110775 L62.0843028,73.6691901 Z M45.8436901,74.3363944 L37.9520141,49.3845493 L41.287831,52.3294789 L48.2261831,74.1936408 L45.8436901,74.3363944 L45.8436901,74.3363944 Z" id="Fill-22" fill="#FFFFFF"></path>
            </g>
        </g>
    </g>
</svg>