<?xml version="1.0" encoding="UTF-8"?>
<svg width="179px" height="179px" viewBox="0 0 179 179" version="1.1" xmlns="http://www.w3.org/2000/svg" xmlns:xlink="http://www.w3.org/1999/xlink">
    <!-- Generator: Sketch 61.2 (89653) - https://sketch.com -->
    <title>Ford Logo Flat_Black</title>
    <desc>Created with Sketch.</desc>
    <g id="Welcome" stroke="none" stroke-width="1" fill="none" fill-rule="evenodd">
        <g id="About" transform="translate(-271.000000, -3044.000000)" fill-rule="nonzero">
            <g id="Ford-Logo-Flat_Black" transform="translate(271.000000, 3044.000000)">
                <polygon id="Path" fill="#FFFFFF" points="0 0 179 0 179 179 0 179"></polygon>
                <path d="M89.5,120.233181 C137.476079,120.233181 176.368248,106.474522 176.368248,89.5 C176.368248,72.5264064 137.476079,58.7668192 89.5,58.7668192 C41.5248501,58.7668192 2.63268069,72.5264064 2.63268069,89.5 C2.63268069,106.473594 41.5248501,120.233181 89.5,120.233181 Z" id="Path" fill="#000000"></path>
                <path d="M89.4823559,119.623068 C136.503798,119.623068 175.254814,106.136499 175.254814,89.5 C175.254814,72.8644296 136.503798,59.3787898 89.4823559,59.3787898 C42.461843,59.3787898 3.53345681,72.8644296 3.53345681,89.5 C3.53345681,106.136499 42.461843,119.623068 89.4823559,119.623068 Z" id="Path" fill="#FFFFFF"></path>
                <path d="M170.288474,97.0971643 C166.457853,101.101439 161.81282,103.733191 157.017348,105.857908 C142.901165,112.064906 127.248091,114.995678 111.202204,117.010817 C85.5337992,120.101315 59.1122715,117.332125 36.0078286,111.179917 C25.6925491,108.276074 15.406986,104.40738 8.07819731,95.9428708 C6.54037747,93.8190822 4.76018386,91.6971508 4.85119011,88.9558198 L5.18271286,88.0420428 C5.27371911,88.4459991 5.48451929,88.8750285 5.90611965,89.1174023 C6.75117765,89.4934996 8.04848098,89.0904719 8.56108759,89.9503881 C8.92325531,90.9440277 8.6511652,92.1809697 9.31513935,93.065959 C11.3962108,97.1250233 15.5583536,101.316882 20.1123804,103.438814 C32.2979311,109.996835 46.1420241,112.951752 60.3185686,115.210193 C80.7977599,118.407484 104.355377,117.898592 124.412039,114.243484 C135.965189,112.201415 147.304753,109.701529 157.500239,104.703615 C162.326356,102.526894 166.307415,98.1725238 168.720009,94.0075951 C169.686718,92.2339019 170.470486,90.3803461 170.439841,88.2036253 C170.501131,87.9612515 170.620925,87.6120847 170.984021,87.5851543 C171.857867,87.3158501 173.274964,87.9343211 173.518267,86.7521685 L173.668706,86.2683496 C175.778565,90.1899759 173.213674,94.1673203 170.288474,97.0971643 L170.288474,97.0971643 Z" id="Path" fill="#000000"></path>
                <path d="M169.323622,87.9593943 C169.414628,91.6405041 167.302911,94.570348 165.161479,97.4463311 C161.964188,101.369815 157.409232,103.893845 152.795773,105.480883 C156.927271,103.277231 161.844394,100.643622 164.529078,96.5316255 C166.248911,93.9509483 167.967814,91.3442694 167.876808,88.0931177 C168.298408,88.0132551 168.840731,88.0401855 169.323622,87.9593943 L169.323622,87.9593943 Z M10.8826755,89.9216004 C11.6070109,94.6520679 15.1961859,98.7092749 19.7502127,101.665121 L23.0078649,103.760122 C17.186251,101.55647 11.2448432,96.5325541 9.67637843,91.0238903 L9.52501089,89.7052284 L10.8826755,89.9216004 Z" id="Shape" fill="#000000"></path>
                <path d="M89.3941356,115.350417 C131.955343,115.350417 166.457853,103.439742 166.457853,88.7487342 C166.457853,74.0567972 131.955343,62.1461226 89.3941356,62.1461226 C46.8338573,62.1461226 12.3304177,74.0567972 12.3304177,88.7487342 C12.3304177,103.439742 46.8338573,115.350417 89.3941356,115.350417 L89.3941356,115.350417 Z" id="Path" fill="#000000"></path>
                <path d="M89.3152016,113.270274 C130.524316,113.270274 163.931966,102.349525 163.931966,88.8787431 C163.931966,75.4079614 130.524316,64.4872118 89.3152016,64.4872118 C48.1060875,64.4872118 14.6984374,75.4079614 14.6984374,88.8787431 C14.6984374,102.349525 48.1060875,113.270274 89.3152016,113.270274 Z" id="Path" fill="#FFFFFF"></path>
                <path d="M89.3152016,111.242135 C129.266944,111.242135 161.65681,101.230519 161.65681,88.8787431 C161.65681,76.5278954 129.266944,66.5144224 89.3152016,66.5144224 C49.3625309,66.5144224 16.9735936,76.5278954 16.9735936,88.8787431 C16.9735936,101.230519 49.3625309,111.242135 89.3152016,111.242135 Z" id="Path" fill="#000000"></path>
                <path d="M79.0593548,71.3061798 L90.9384559,72.873716 C97.0145158,73.6816286 104.080501,73.8534261 109.964333,72.481832 C110.624593,72.4576874 111.47708,72.2125278 111.998973,72.677774 C112.274777,72.8978605 112.328638,73.1922379 112.247847,73.5107597 C111.972042,74.711485 110.515942,75.5193976 109.414581,76.1072236 C104.245798,78.7529052 96.9866567,77.6013976 91.4315611,76.44989 L82.4405155,74.3428168 L82.4135851,74.3428168 C82.3309365,74.6854832 82.4953049,75.1265849 82.276147,75.4209623 C78.7844788,77.3070203 75.566758,80.3938036 73.5599774,83.4815155 C75.5398276,83.4081533 77.5744672,83.3347911 79.4716688,82.9670516 C79.1967928,81.5220953 79.7465449,80.1746457 81.0661354,79.2682977 C81.7811845,78.8513406 82.6884611,78.6071095 83.5409481,78.8030515 C84.1464183,78.9989935 84.6683112,79.5376019 84.8336083,80.077139 C85.1363434,81.1794289 84.6404522,82.2083567 83.7610347,82.9679802 C83.1564932,83.4332265 82.4962336,83.800966 81.7811845,84.0210525 L81.8090436,84.0944147 C82.3040061,84.4862987 82.9364066,84.7806761 83.3208616,85.2709955 C83.3467605,85.4314467 83.2958775,85.5947537 83.1834236,85.7120972 C82.9642657,85.9321837 82.6884611,85.9321837 82.3866546,85.9572568 C81.3688705,85.8838947 80.764329,84.9775467 80.0492799,84.3655762 C77.5744672,84.7082425 75.017006,84.9283291 72.4595447,85.1251997 L70.8372191,87.1830553 L66.4373457,93.3064755 C62.9726079,97.9626523 57.7759655,103.376595 50.8195594,102.616043 C47.5749082,102.322594 44.1649598,100.191377 43.2307529,97.3256085 C41.9659518,93.7234327 44.0284505,90.3914898 47.1904532,88.211983 C48.3726058,87.476504 49.7748449,87.0121864 51.2875916,87.1830553 C51.6172571,87.2564174 51.9469225,87.476504 52.0843605,87.7708813 C52.1670091,88.016041 52.1670091,88.3345629 52.0026406,88.5063604 C50.655191,89.657868 48.8127788,90.3199849 47.8776432,91.8615192 C47.1078047,93.0390286 46.8607877,94.875869 47.7959233,96.0515211 C49.2529519,97.8159279 51.9747816,98.0843035 54.1747183,97.4481884 C60.0864098,95.6104194 64.2931271,89.9754612 68.0336695,85.6647368 C65.9442404,85.8606788 63.880813,86.2274897 62.231557,87.4040704 C62.0662599,87.4774326 61.7913839,87.5266503 61.5991564,87.4282149 C61.3512109,87.3056351 61.3242804,87.0604754 61.269491,86.8403889 C61.406929,85.7139544 62.8091681,85.2487082 63.7712341,84.8809687 C65.6136463,84.243925 67.676145,84.0721275 69.6550665,83.7545342 C72.4874038,80.0065627 76.5845421,76.233518 80.9844155,74.1264448 C73.8627124,72.6322709 63.331061,70.4509068 58.0239111,76.6012575 C57.336721,77.483461 56.8686889,78.6098954 57.2540725,79.7363299 C57.6942456,80.5693156 58.6284526,81.0345618 59.6193063,81.0837795 C62.3680664,81.1329972 64.2661966,79.0500685 66.0807498,77.3107348 C66.2729772,77.188155 66.5209228,77.0655751 66.7957988,77.1389373 C67.0158854,77.188155 67.1254643,77.4091701 67.2081128,77.5549659 C67.263831,79.2952282 65.9702422,80.5925315 64.8438077,81.9158366 C62.5333634,84.1937787 59.3713607,85.7371703 55.9344819,84.7574602 C54.0920698,84.2429963 52.7724792,82.5036627 52.6071821,80.8376912 C52.1948681,77.4816037 54.5870323,74.5907624 57.7759655,73.0724439 C62.6429424,70.5734867 68.8573689,70.2791093 74.8238498,70.8669354 L79.0593548,71.3061798 Z" id="Path" fill="#FFFFFF"></path>
                <path d="M123.055303,98.1558084 C122.863076,98.6219832 122.53341,99.1838075 122.863076,99.7233445 C123.028373,99.9192866 123.247531,100.164446 123.550266,100.212735 C124.732418,100.310242 125.639695,99.6741269 126.573902,99.0863008 C128.224086,97.8623597 129.736833,96.318968 131.27651,94.9455166 C131.579245,94.7495746 131.853193,94.481199 132.237648,94.5536326 C132.678749,94.7003569 133.255432,95.0198074 133.365939,95.4859823 L133.309293,95.7051402 C130.231796,98.6451991 127.067936,102.711693 122.448904,103.103577 C121.211962,103.177867 120.167248,102.76091 119.425268,101.902851 C118.930306,101.315025 118.846729,100.531257 118.930306,99.7716336 C116.538141,101.657692 113.567438,103.667258 110.241066,102.369026 C108.289075,101.341027 107.683605,99.4057513 107.821972,97.421258 C107.932479,96.782357 108.179496,96.1954595 108.398654,95.583489 C106.446663,96.7331393 104.274585,98.472473 101.689265,97.4936915 C100.452323,96.978299 99.7920635,95.8286487 99.7103436,94.677141 C99.6267665,94.3094015 99.7372741,93.893373 99.7372741,93.5507066 L93.41234,102.467461 L89.2882712,102.444246 C89.2056227,102.395028 89.0681846,102.320737 89.0960437,102.22323 L89.2056227,101.880564 L95.8045041,92.546852 C96.1620287,91.8104443 96.7674988,90.905025 96.2437486,90.0478947 C95.7227842,89.6309376 95.0068065,89.9986771 94.4839849,90.1714032 C91.7073658,91.5662132 89.5622186,94.2128235 87.6371579,96.418332 C85.0527662,99.5775488 81.5053799,103.571609 76.5557544,102.762767 C74.2183797,102.517608 72.6239131,100.410535 72.1289506,98.5746228 C72.1289506,98.500332 72.1010915,98.4260412 72.0463021,98.4018967 C70.918939,99.2599556 70.0664519,100.460681 68.8295098,101.071723 C68.6310085,101.121 68.4234697,101.121 68.2249684,101.071723 C67.7300058,100.704912 67.5925678,100.190448 67.4820602,99.6750555 C67.6752163,99.0380118 68.4719853,98.7937807 68.9400174,98.3034614 C72.3768962,95.0439519 73.3668213,90.1946191 78.3712362,88.2101258 C79.6081782,87.6956619 80.9277688,87.37714 82.4135851,87.4012845 C82.8258991,87.4012845 83.1834236,87.7198064 83.347792,88.0624728 C83.50566,88.2955602 83.6774575,88.6623711 83.5130891,88.9446762 C83.0181265,89.3848492 82.2752184,89.3848492 81.698536,89.6300089 C78.8661987,90.7815165 76.11651,93.3538359 75.869493,96.1722437 C75.7599141,97.3478958 76.144369,98.5226193 77.3543807,99.1615203 C78.8661987,99.846853 80.6538214,99.259027 81.863833,98.352679 C84.0637697,96.5641277 85.1354147,94.3354033 85.4381498,91.8104443 C85.5207983,90.7824452 85.1354147,89.9243863 84.8605387,89.018967 C84.8605387,88.4069964 85.5477287,87.9408216 86.0984094,87.6956619 C86.5107234,87.5238644 87.170983,87.37714 87.583297,87.6464442 C88.5462917,88.5286476 88.7106601,89.7284443 88.7654496,90.9291695 C88.7654496,91.2718359 88.7933086,91.6145023 88.7106601,91.9339528 C91.4324898,89.8519527 93.7160037,86.1764147 97.7026344,86.6667341 C98.6925595,86.789314 99.6267665,87.573082 99.8487103,88.4552854 C100.01215,89.0431115 99.9304302,89.7767333 99.8199226,90.3413435 C101.388387,88.47943 103.477817,86.6667341 106.227505,87.0586181 C107.27222,87.2053425 108.343865,88.0132551 108.619669,88.9446762 C108.949335,90.0469661 108.536092,91.1241829 107.683605,91.907951 C107.079992,92.3741258 106.419733,92.6675746 105.594176,92.595141 C104.906986,92.5208502 104.273657,92.2524746 103.889202,91.6627913 C103.531677,91.1492561 103.531677,90.3171989 103.889202,89.8250223 C102.981925,89.922529 102.403386,90.8548787 102.129438,91.5411401 C101.826703,92.4716325 101.387459,93.7698645 102.294735,94.6028502 C102.898348,95.3884756 104.081429,95.1182428 104.933916,94.9947343 C110.406363,93.3296914 113.677945,86.7642408 120.222037,87.4746467 C121.40419,87.5972265 122.587271,88.0383282 123.163953,89.0914005 C123.384969,89.5315736 123.577196,89.9485308 123.658916,90.4388502 L131.166003,80.0028482 L135.785963,80.2962969 L123.055303,98.1558084 L123.055303,98.1558084 Z" id="Path" fill="#FFFFFF"></path>
                <path d="M120.992804,90.56143 C121.542556,91.5411401 120.965874,92.6675746 120.524772,93.5507066 L121.350329,93.8190822 C119.755862,95.9010822 118.105678,98.5969101 115.272412,99.5264739 C114.64094,99.7224159 113.704876,99.7716336 113.156052,99.4048227 C112.248776,98.7919235 112.166127,97.7379226 112.358355,96.782357 C113.156052,93.893373 115.741373,90.4629947 119.315689,89.8993131 C120.02981,89.8018064 120.606492,90.0961838 120.992804,90.56143 L120.992804,90.56143 Z M83.1815663,79.8895547 C83.5130891,80.1309998 83.4230115,80.5878883 83.3626502,80.9101247 C83.0311274,81.8777626 81.914908,82.3885119 80.9491274,82.6568875 C80.7383272,81.5276671 81.0401336,80.3455145 82.1860694,79.7809044 C82.4878759,79.6741113 82.9401212,79.6741113 83.1815663,79.8895547 L83.1815663,79.8895547 Z" id="Shape" fill="#000000"></path>
            </g>
        </g>
    </g>
</svg>