<?xml version="1.0" encoding="UTF-8"?>
<svg width="193px" height="130px" viewBox="0 0 193 130" version="1.1" xmlns="http://www.w3.org/2000/svg" xmlns:xlink="http://www.w3.org/1999/xlink">
    <!-- Generator: Sketch 61.2 (89653) - https://sketch.com -->
    <title>Group 38</title>
    <desc>Created with Sketch.</desc>
    <g id="Welcome" stroke="none" stroke-width="1" fill="none" fill-rule="evenodd">
        <g id="About" transform="translate(-265.000000, -3069.000000)">
            <g id="Group-38" transform="translate(265.500000, 3069.000000)">
                <rect id="Rectangle-Copy-16" fill="#FFFFFF" x="0" y="0" width="192" height="130"></rect>
                <g id="Ford-Logo-Flat_Black" transform="translate(7.500000, 33.000000)" fill-rule="nonzero">
                    <path d="M87.5,62.2331808 C135.476079,62.2331808 174.368248,48.4745222 174.368248,31.5 C174.368248,14.5264064 135.476079,0.766819191 87.5,0.766819191 C39.5248501,0.766819191 0.632680695,14.5264064 0.632680695,31.5 C0.632680695,48.4735936 39.5248501,62.2331808 87.5,62.2331808 Z" id="Path" fill="#000000"></path>
                    <path d="M87.4823559,61.6230675 C134.503798,61.6230675 173.254814,48.136499 173.254814,31.5 C173.254814,14.8644296 134.503798,1.37878977 87.4823559,1.37878977 C40.461843,1.37878977 1.53345681,14.8644296 1.53345681,31.5 C1.53345681,48.136499 40.461843,61.6230675 87.4823559,61.6230675 Z" id="Path" fill="#FFFFFF"></path>
                    <path d="M168.288474,39.0971643 C164.457853,43.1014391 159.81282,45.7331912 155.017348,47.8579084 C140.901165,54.0649059 125.248091,56.9956785 109.202204,59.0108168 C83.5337992,62.1013146 57.1122715,59.3321246 34.0078286,53.1799166 C23.6925491,50.2760744 13.406986,46.4073803 6.07819731,37.9428708 C4.54037747,35.8190822 2.76018386,33.6971508 2.85119011,30.9558198 L3.18271286,30.0420428 C3.27371911,30.4459991 3.48451929,30.8750285 3.90611965,31.1174023 C4.75117765,31.4934996 6.04848098,31.0904719 6.56108759,31.9503881 C6.92325531,32.9440277 6.6511652,34.1809697 7.31513935,35.065959 C9.39621075,39.1250233 13.5583536,43.3168825 18.1123804,45.4388138 C30.2979311,51.9968354 44.1420241,54.9517525 58.3185686,57.2101932 C78.7977599,60.4074841 102.355377,59.898592 122.412039,56.243484 C133.965189,54.2014153 145.304753,51.7015294 155.500239,46.7036149 C160.326356,44.5268941 164.307415,40.1725238 166.720009,36.0075951 C167.686718,34.2339019 168.470486,32.3803461 168.439841,30.2036253 C168.501131,29.9612515 168.620925,29.6120847 168.984021,29.5851543 C169.857867,29.3158501 171.274964,29.9343211 171.518267,28.7521685 L171.668706,28.2683496 C173.778565,32.1899759 171.213674,36.1673203 168.288474,39.0971643 L168.288474,39.0971643 Z" id="Path" fill="#000000"></path>
                    <path d="M167.323622,29.9593943 C167.414628,33.6405041 165.302911,36.570348 163.161479,39.4463311 C159.964188,43.3698147 155.409232,45.8938451 150.795773,47.4808826 C154.927271,45.2772313 159.844394,42.643622 162.529078,38.5316255 C164.248911,35.9509483 165.967814,33.3442694 165.876808,30.0931177 C166.298408,30.0132551 166.840731,30.0401855 167.323622,29.9593943 L167.323622,29.9593943 Z M8.88267551,31.9216004 C9.60701094,36.6520679 13.1961859,40.7092749 17.7502127,43.6651207 L21.0078649,45.7601216 C15.186251,43.5564704 9.24484322,38.5325541 7.67637843,33.0238903 L7.52501089,31.7052284 L8.88267551,31.9216004 Z" id="Shape" fill="#000000"></path>
                    <path d="M87.3941356,57.3504171 C129.955343,57.3504171 164.457853,45.4397425 164.457853,30.7487342 C164.457853,16.0567972 129.955343,4.14612256 87.3941356,4.14612256 C44.8338573,4.14612256 10.3304177,16.0567972 10.3304177,30.7487342 C10.3304177,45.4397425 44.8338573,57.3504171 87.3941356,57.3504171 L87.3941356,57.3504171 Z" id="Path" fill="#000000"></path>
                    <path d="M87.3152016,55.2702743 C128.524316,55.2702743 161.931966,44.3495248 161.931966,30.8787431 C161.931966,17.4079614 128.524316,6.48721181 87.3152016,6.48721181 C46.1060875,6.48721181 12.6984374,17.4079614 12.6984374,30.8787431 C12.6984374,44.3495248 46.1060875,55.2702743 87.3152016,55.2702743 Z" id="Path" fill="#FFFFFF"></path>
                    <path d="M87.3152016,53.2421351 C127.266944,53.2421351 159.65681,43.2305194 159.65681,30.8787431 C159.65681,18.5278954 127.266944,8.51442238 87.3152016,8.51442238 C47.3625309,8.51442238 14.9735936,18.5278954 14.9735936,30.8787431 C14.9735936,43.2305194 47.3625309,53.2421351 87.3152016,53.2421351 Z" id="Path" fill="#000000"></path>
                    <path d="M77.0593548,13.3061798 L88.9384559,14.873716 C95.0145158,15.6816286 102.080501,15.8534261 107.964333,14.481832 C108.624593,14.4576874 109.47708,14.2125278 109.998973,14.677774 C110.274777,14.8978605 110.328638,15.1922379 110.247847,15.5107597 C109.972042,16.711485 108.515942,17.5193976 107.414581,18.1072236 C102.245798,20.7529052 94.9866567,19.6013976 89.4315611,18.44989 L80.4405155,16.3428168 L80.4135851,16.3428168 C80.3309365,16.6854832 80.4953049,17.1265849 80.276147,17.4209623 C76.7844788,19.3070203 73.566758,22.3938036 71.5599774,25.4815155 C73.5398276,25.4081533 75.5744672,25.3347911 77.4716688,24.9670516 C77.1967928,23.5220953 77.7465449,22.1746457 79.0661354,21.2682977 C79.7811845,20.8513406 80.6884611,20.6071095 81.5409481,20.8030515 C82.1464183,20.9989935 82.6683112,21.5376019 82.8336083,22.077139 C83.1363434,23.1794289 82.6404522,24.2083567 81.7610347,24.9679802 C81.1564932,25.4332265 80.4962336,25.800966 79.7811845,26.0210525 L79.8090436,26.0944147 C80.3040061,26.4862987 80.9364066,26.7806761 81.3208616,27.2709955 C81.3467605,27.4314467 81.2958775,27.5947537 81.1834236,27.7120972 C80.9642657,27.9321837 80.6884611,27.9321837 80.3866546,27.9572568 C79.3688705,27.8838947 78.764329,26.9775467 78.0492799,26.3655762 C75.5744672,26.7082425 73.017006,26.9283291 70.4595447,27.1251997 L68.8372191,29.1830553 L64.4373457,35.3064755 C60.9726079,39.9626523 55.7759655,45.3765953 48.8195594,44.6160431 C45.5749082,44.3225944 42.1649598,42.1913767 41.2307529,39.3256085 C39.9659518,35.7234327 42.0284505,32.3914898 45.1904532,30.211983 C46.3726058,29.476504 47.7748449,29.0121864 49.2875916,29.1830553 C49.6172571,29.2564174 49.9469225,29.476504 50.0843605,29.7708813 C50.1670091,30.016041 50.1670091,30.3345629 50.0026406,30.5063604 C48.655191,31.657868 46.8127788,32.3199849 45.8776432,33.8615192 C45.1078047,35.0390286 44.8607877,36.875869 45.7959233,38.0515211 C47.2529519,39.8159279 49.9747816,40.0843035 52.1747183,39.4481884 C58.0864098,37.6104194 62.2931271,31.9754612 66.0336695,27.6647368 C63.9442404,27.8606788 61.880813,28.2274897 60.231557,29.4040704 C60.0662599,29.4774326 59.7913839,29.5266503 59.5991564,29.4282149 C59.3512109,29.3056351 59.3242804,29.0604754 59.269491,28.8403889 C59.406929,27.7139544 60.8091681,27.2487082 61.7712341,26.8809687 C63.6136463,26.243925 65.676145,26.0721275 67.6550665,25.7545342 C70.4874038,22.0065627 74.5845421,18.233518 78.9844155,16.1264448 C71.8627124,14.6322709 61.331061,12.4509068 56.0239111,18.6012575 C55.336721,19.483461 54.8686889,20.6098954 55.2540725,21.7363299 C55.6942456,22.5693156 56.6284526,23.0345618 57.6193063,23.0837795 C60.3680664,23.1329972 62.2661966,21.0500685 64.0807498,19.3107348 C64.2729772,19.188155 64.5209228,19.0655751 64.7957988,19.1389373 C65.0158854,19.188155 65.1254643,19.4091701 65.2081128,19.5549659 C65.263831,21.2952282 63.9702422,22.5925315 62.8438077,23.9158366 C60.5333634,26.1937787 57.3713607,27.7371703 53.9344819,26.7574602 C52.0920698,26.2429963 50.7724792,24.5036627 50.6071821,22.8376912 C50.1948681,19.4816037 52.5870323,16.5907624 55.7759655,15.0724439 C60.6429424,12.5734867 66.8573689,12.2791093 72.8238498,12.8669354 L77.0593548,13.3061798 Z" id="Path" fill="#FFFFFF"></path>
                    <path d="M121.055303,40.1558084 C120.863076,40.6219832 120.53341,41.1838075 120.863076,41.7233445 C121.028373,41.9192866 121.247531,42.1644462 121.550266,42.2127353 C122.732418,42.310242 123.639695,41.6741269 124.573902,41.0863008 C126.224086,39.8623597 127.736833,38.318968 129.27651,36.9455166 C129.579245,36.7495746 129.853193,36.481199 130.237648,36.5536326 C130.678749,36.7003569 131.255432,37.0198074 131.365939,37.4859823 L131.309293,37.7051402 C128.231796,40.6451991 125.067936,44.7116925 120.448904,45.1035765 C119.211962,45.1778674 118.167248,44.7609102 117.425268,43.9028513 C116.930306,43.3150252 116.846729,42.5312571 116.930306,41.7716336 C114.538141,43.6576916 111.567438,45.6672581 108.241066,44.3690261 C106.289075,43.341027 105.683605,41.4057513 105.821972,39.421258 C105.932479,38.782357 106.179496,38.1954595 106.398654,37.583489 C104.446663,38.7331393 102.274585,40.472473 99.6892652,39.4936915 C98.4523231,38.978299 97.7920635,37.8286487 97.7103436,36.677141 C97.6267665,36.3094015 97.7372741,35.893373 97.7372741,35.5507066 L91.41234,44.4674615 L87.2882712,44.4442456 C87.2056227,44.3950279 87.0681846,44.3207371 87.0960437,44.2232304 L87.2056227,43.880564 L93.8045041,34.546852 C94.1620287,33.8104443 94.7674988,32.905025 94.2437486,32.0478947 C93.7227842,31.6309376 93.0068065,31.9986771 92.4839849,32.1714032 C89.7073658,33.5662132 87.5622186,36.2128235 85.6371579,38.418332 C83.0527662,41.5775488 79.5053799,45.5716087 74.5557544,44.7627674 C72.2183797,44.5176078 70.6239131,42.4105346 70.1289506,40.5746228 C70.1289506,40.500332 70.1010915,40.4260412 70.0463021,40.4018967 C68.918939,41.2599556 68.0664519,42.4606809 66.8295098,43.0717228 C66.6310085,43.1209999 66.4234697,43.1209999 66.2249684,43.0717228 C65.7300058,42.7049119 65.5925678,42.190448 65.4820602,41.6750555 C65.6752163,41.0380118 66.4719853,40.7937807 66.9400174,40.3034614 C70.3768962,37.0439519 71.3668213,32.1946191 76.3712362,30.2101258 C77.6081782,29.6956619 78.9277688,29.37714 80.4135851,29.4012845 C80.8258991,29.4012845 81.1834236,29.7198064 81.347792,30.0624728 C81.50566,30.2955602 81.6774575,30.6623711 81.5130891,30.9446762 C81.0181265,31.3848492 80.2752184,31.3848492 79.698536,31.6300089 C76.8661987,32.7815165 74.11651,35.3538359 73.869493,38.1722437 C73.7599141,39.3478958 74.144369,40.5226193 75.3543807,41.1615203 C76.8661987,41.846853 78.6538214,41.259027 79.863833,40.352679 C82.0637697,38.5641277 83.1354147,36.3354033 83.4381498,33.8104443 C83.5207983,32.7824452 83.1354147,31.9243863 82.8605387,31.018967 C82.8605387,30.4069964 83.5477287,29.9408216 84.0984094,29.6956619 C84.5107234,29.5238644 85.170983,29.37714 85.583297,29.6464442 C86.5462917,30.5286476 86.7106601,31.7284443 86.7654496,32.9291695 C86.7654496,33.2718359 86.7933086,33.6145023 86.7106601,33.9339528 C89.4324898,31.8519527 91.7160037,28.1764147 95.7026344,28.6667341 C96.6925595,28.789314 97.6267665,29.573082 97.8487103,30.4552854 C98.0121501,31.0431115 97.9304302,31.7767333 97.8199226,32.3413435 C99.3883874,30.47943 101.477817,28.6667341 104.227505,29.0586181 C105.27222,29.2053425 106.343865,30.0132551 106.619669,30.9446762 C106.949335,32.0469661 106.536092,33.1241829 105.683605,33.907951 C105.079992,34.3741258 104.419733,34.6675746 103.594176,34.595141 C102.906986,34.5208502 102.273657,34.2524746 101.889202,33.6627913 C101.531677,33.1492561 101.531677,32.3171989 101.889202,31.8250223 C100.981925,31.922529 100.403386,32.8548787 100.129438,33.5411401 C99.8267032,34.4716325 99.3874588,35.7698645 100.294735,36.6028502 C100.898348,37.3884756 102.081429,37.1182428 102.933916,36.9947343 C108.406363,35.3296914 111.677945,28.7642408 118.222037,29.4746467 C119.40419,29.5972265 120.587271,30.0383282 121.163953,31.0914005 C121.384969,31.5315736 121.577196,31.9485308 121.658916,32.4388502 L129.166003,22.0028482 L133.785963,22.2962969 L121.055303,40.1558084 L121.055303,40.1558084 Z" id="Path" fill="#FFFFFF"></path>
                    <path d="M118.992804,32.56143 C119.542556,33.5411401 118.965874,34.6675746 118.524772,35.5507066 L119.350329,35.8190822 C117.755862,37.9010822 116.105678,40.5969101 113.272412,41.5264739 C112.64094,41.7224159 111.704876,41.7716336 111.156052,41.4048227 C110.248776,40.7919235 110.166127,39.7379226 110.358355,38.782357 C111.156052,35.893373 113.741373,32.4629947 117.315689,31.8993131 C118.02981,31.8018064 118.606492,32.0961838 118.992804,32.56143 L118.992804,32.56143 Z M81.1815663,21.8895547 C81.5130891,22.1309998 81.4230115,22.5878883 81.3626502,22.9101247 C81.0311274,23.8777626 79.914908,24.3885119 78.9491274,24.6568875 C78.7383272,23.5276671 79.0401336,22.3455145 80.1860694,21.7809044 C80.4878759,21.6741113 80.9401212,21.6741113 81.1815663,21.8895547 L81.1815663,21.8895547 Z" id="Shape" fill="#000000"></path>
                </g>
            </g>
        </g>
    </g>
</svg>