<svg width="109" height="90" viewBox="0 0 109 90" xmlns="http://www.w3.org/2000/svg" xmlns:xlink="http://www.w3.org/1999/xlink"><defs><path id="path-1" d="M.03.975h67.923v9.906H.029z"/><path id="path-3" d="M.03.495h67.923v9.906H.029z"/><path id="path-5" d="M.03.016h67.923V9.92H.029z"/><path id="path-7" d="M0 .23h78.155v89.523H0z"/></defs><g id="HABIT-WEBSITE" stroke="none" stroke-width="1" fill="none" fill-rule="evenodd"><g id="6.0.0_Contact" transform="translate(-666 -1721)"><g id="Group-13" transform="translate(666 1721)"><g id="Group-3" transform="translate(40.875 22.455)"><mask id="mask-2" fill="#fff"><use xlink:href="#path-1"/></mask><path d="M31.772 3.722c-3.637-3.663-9.558-3.663-13.198 0-1.186 1.195-3.253 1.192-4.44 0a9.3 9.3 0 00-13.197 0 3.13 3.13 0 00-.001 4.406 3.084 3.084 0 004.38 0 3.129 3.129 0 014.439 0 9.24 9.24 0 006.6 2.753 9.233 9.233 0 006.597-2.753 3.129 3.129 0 014.44 0 9.238 9.238 0 006.6 2.753 9.238 9.238 0 006.599-2.753 3.129 3.129 0 014.439 0 9.235 9.235 0 006.598 2.753 9.238 9.238 0 006.6-2.753 3.129 3.129 0 014.439 0 3.082 3.082 0 004.38 0 3.13 3.13 0 000-4.406 9.301 9.301 0 00-13.2 0c-1.185 1.192-3.252 1.195-4.439 0-3.636-3.663-9.558-3.663-13.197 0-1.186 1.194-3.253 1.196-4.44 0" id="Fill-1" fill="#FFA38B" mask="url(#mask-2)"/></g><g id="Group-6" transform="translate(40.875 38.66)"><mask id="mask-4" fill="#fff"><use xlink:href="#path-3"/></mask><path d="M53.848 3.242c-1.185 1.193-3.253 1.195-4.44 0a9.3 9.3 0 00-13.197 0c-1.185 1.195-3.253 1.195-4.44 0-3.636-3.661-9.557-3.663-13.198 0-1.186 1.195-3.252 1.193-4.44 0a9.3 9.3 0 00-13.196 0 3.13 3.13 0 00-.001 4.406 3.083 3.083 0 004.38 0 3.129 3.129 0 014.439 0 9.238 9.238 0 006.6 2.753 9.233 9.233 0 006.598-2.753 3.129 3.129 0 014.439 0 9.238 9.238 0 006.6 2.753 9.233 9.233 0 006.598-2.753 3.129 3.129 0 014.439 0 9.238 9.238 0 006.6 2.753 9.238 9.238 0 006.599-2.753 3.129 3.129 0 014.44 0 3.082 3.082 0 004.379 0 3.13 3.13 0 00-.001-4.406 9.3 9.3 0 00-13.198 0" id="Fill-4" fill="#FFA38B" mask="url(#mask-4)"/></g><g id="Group-9" transform="translate(40.875 54.866)"><mask id="mask-6" fill="#fff"><use xlink:href="#path-5"/></mask><path d="M53.848 2.762c-1.185 1.193-3.253 1.196-4.44 0a9.3 9.3 0 00-13.197 0c-1.185 1.196-3.253 1.196-4.44 0-3.636-3.661-9.557-3.662-13.198 0-1.186 1.196-3.252 1.193-4.44 0a9.3 9.3 0 00-13.196 0A3.13 3.13 0 00.936 7.17a3.083 3.083 0 004.38 0 3.129 3.129 0 014.439 0 9.238 9.238 0 006.6 2.752 9.233 9.233 0 006.598-2.752 3.129 3.129 0 014.439 0 9.238 9.238 0 006.6 2.752A9.233 9.233 0 0040.59 7.17a3.129 3.129 0 014.439 0 9.238 9.238 0 006.6 2.752 9.238 9.238 0 006.599-2.752 3.129 3.129 0 014.44 0 3.082 3.082 0 004.379 0 3.13 3.13 0 00-.001-4.407 9.3 9.3 0 00-13.198 0" id="Fill-7" fill="#FFA38B" mask="url(#mask-6)"/></g><g id="Group-12" transform="translate(0 .016)"><mask id="mask-8" fill="#fff"><use xlink:href="#path-7"/></mask><path d="M72.768 70.911c-7.25 8.013-17.561 12.61-28.292 12.61-21.109 0-38.283-17.284-38.283-38.529 0-21.245 17.174-38.529 38.283-38.529 10.73 0 21.041 4.596 28.292 12.61a3.083 3.083 0 004.375.208 3.129 3.129 0 00.204-4.402C68.926 5.569 56.944.23 44.477.23 19.95.23-.002 20.31-.002 44.992c0 24.681 19.952 44.761 44.477 44.761 12.47 0 24.45-5.338 32.871-14.647a3.129 3.129 0 00-.204-4.402 3.082 3.082 0 00-4.375.207" id="Fill-10" fill="#FFA38B" mask="url(#mask-8)"/></g></g></g></g></svg>