<svg width="89" height="90" viewBox="0 0 89 90" xmlns="http://www.w3.org/2000/svg" xmlns:xlink="http://www.w3.org/1999/xlink"><defs><path id="path-1" d="M0 .218h88.777v89.535H0z"/></defs><g id="HABIT-WEBSITE" stroke="none" stroke-width="1" fill="none" fill-rule="evenodd"><g id="6.0.0_Contact" transform="translate(-1017 -1721)"><g id="Group-6" transform="translate(1017 1720)"><g id="Group-3" transform="translate(0 1.029)"><mask id="mask-2" fill="#fff"><use xlink:href="#path-1"/></mask><path d="M47.479 83.378v-4.85c0-1.72-1.384-3.117-3.09-3.117-1.708 0-3.09 1.396-3.09 3.117v4.85C22.692 81.868 7.815 66.865 6.315 48.101h4.815c1.707 0 3.09-1.395 3.09-3.116 0-1.722-1.383-3.117-3.09-3.117H6.316C7.813 23.102 22.691 8.098 41.298 6.587v4.856c0 1.722 1.383 3.117 3.09 3.117 1.707 0 3.09-1.395 3.09-3.117V6.587c18.608 1.51 33.486 16.515 34.983 35.281h-4.815c-1.707 0-3.09 1.395-3.09 3.117 0 1.721 1.383 3.116 3.09 3.116h4.815c-1.5 18.764-16.376 33.766-34.982 35.277zm41.298-38.393v-.003C88.777 20.3 68.865.218 44.388.218 19.912.218 0 20.298 0 44.982v.004C.002 69.64 19.87 89.701 44.308 89.744c.028.002.053.01.08.01.028 0 .052-.008.08-.01 24.439-.043 44.308-20.104 44.31-44.758v-.001z" id="Fill-1" fill="#FFA38B" mask="url(#mask-2)"/></g><path d="M44.394 50.328c-2.358 0-4.278-1.936-4.278-4.314 0-2.379 1.92-4.313 4.278-4.313 2.359 0 4.277 1.934 4.277 4.313 0 2.378-1.918 4.314-4.277 4.314m12.34-30.519a3.079 3.079 0 00-4.117 1.479l-6.733 14.3c-.488-.072-.983-.12-1.49-.12-5.767 0-10.458 4.73-10.458 10.546 0 3.065 1.311 5.82 3.388 7.75L30.59 68.067a3.128 3.128 0 001.466 4.153 3.06 3.06 0 001.322.302 3.09 3.09 0 002.794-1.781l6.733-14.3c.488.071.983.12 1.49.12 5.766 0 10.457-4.732 10.457-10.547 0-3.066-1.31-5.82-3.387-7.749l6.734-14.303a3.127 3.127 0 00-1.466-4.153" id="Fill-4" fill="#FFA38B"/></g></g></g></svg>