<svg width="84" height="84" viewBox="0 0 84 84" xmlns="http://www.w3.org/2000/svg" xmlns:xlink="http://www.w3.org/1999/xlink"><defs><path id="path-1" d="M0 0h83.571v83.571H0z"/></defs><g id="HABIT-WEBSITE" stroke="none" stroke-width="1" fill="none" fill-rule="evenodd"><g id="6.0.0_Contact" transform="translate(-338 -1724)"><g id="Group-3" transform="translate(338 1724)"><mask id="mask-2" fill="#fff"><use xlink:href="#path-1"/></mask><path d="M82.667 60.163c-.582-.582-1.33-.918-2.195-.905-6 0-11.906-.94-17.551-2.796a3.075 3.075 0 00-.995-.141l-.068-.001a3.205 3.205 0 00-.361.034 2.786 2.786 0 00-.349.064l-.074.021c-.501.138-.977.39-1.371.782l-6.342 6.344a3.088 3.088 0 104.368 4.366l5.073-5.073c4.744 1.398 9.626 2.26 14.593 2.502v11.973c-18.691-.756-36.156-8.394-49.46-21.696C14.63 42.33 6.995 24.87 6.238 6.177h11.974c.242 4.972 1.104 9.86 2.506 14.606l-5.068 5.07a3.086 3.086 0 002.183 5.27c.79 0 1.58-.301 2.184-.904l6.342-6.343a3.055 3.055 0 00.88-1.915l.015-.163c.003-.085 0-.17-.005-.257a3.008 3.008 0 00-.14-.89 56.135 56.135 0 01-2.795-17.563A3.088 3.088 0 0021.226 0H3.088A3.089 3.089 0 000 3.088c-.004 21.5 8.367 41.714 23.568 56.917 15.2 15.199 35.405 23.566 56.903 23.566h.013a3.088 3.088 0 003.087-3.088V62.347c0-.82-.325-1.605-.904-2.184" id="Fill-1" fill="#FFA38B" mask="url(#mask-2)"/></g></g></g></svg>