<svg width="137" height="155" viewBox="0 0 137 155" xmlns="http://www.w3.org/2000/svg" xmlns:xlink="http://www.w3.org/1999/xlink"><defs><path id="path-1" d="M0 0h136.236v154.708H0z"/></defs><g id="HABIT-WEBSITE" stroke="none" stroke-width="1" fill="none" fill-rule="evenodd"><g id="5.0.0_Facts" transform="translate(-410 -2333)"><g id="Group-3" transform="translate(410 2333)"><mask id="mask-2" fill="#fff"><use xlink:href="#path-1"/></mask><path d="M19.053 102.058c.316-4.55 4.166-8.157 8.856-8.157h81c4.688 0 8.54 3.607 8.854 8.157h-98.71zm21.892-79.473c.021-.17.03-.341.03-.513 0-7.393 6.093-13.406 13.584-13.406h27.698c7.492 0 13.585 6.013 13.585 13.406 0 .172.01.343.03.513l5.557 45.881H35.388l5.557-45.88zm95.292 41.635c0-2.394-1.965-4.334-4.39-4.334h-13.478c-2.425 0-4.39 1.94-4.39 4.334 0 2.394 1.965 4.333 4.39 4.333h1.28c5.179 6.155 5.646 14.876 1.418 21.502a17.7 17.7 0 00-12.158-4.82H72.801v-8.102h33.575c1.256 0 2.45-.53 3.285-1.458a4.294 4.294 0 001.075-3.39l-6.114-50.487C104.474 9.753 94.498 0 82.257 0H54.56C42.32 0 32.343 9.753 32.195 21.798L26.08 72.285a4.3 4.3 0 001.075 3.39 4.42 4.42 0 003.285 1.458h33.579v8.102h-36.11A17.72 17.72 0 0015.377 90.4a18.213 18.213 0 011.208-21.847h1.28c2.426 0 4.392-1.94 4.392-4.333 0-2.394-1.966-4.334-4.391-4.334H4.39c-2.425 0-4.39 1.94-4.39 4.334 0 2.394 1.965 4.333 4.39 4.333h1.862a26.778 26.778 0 004.514 29.999 17.224 17.224 0 00-.516 4.11v3.73c0 2.394 1.965 4.333 4.39 4.333h49.38v21.904l-29.53 13.829c-2.19 1.026-3.123 3.61-2.083 5.774.75 1.563 2.327 2.476 3.97 2.476.632 0 1.271-.135 1.88-.419l30.153-14.123 30.15 14.123c.608.284 1.25.42 1.88.42 1.642 0 3.22-.916 3.971-2.477 1.038-2.164.105-4.748-2.085-5.774l-29.525-13.829v-21.904h49.374c2.426 0 4.391-1.94 4.391-4.333v-3.73c0-1.597-.237-3.136-.644-4.606 7.354-8.287 8.708-19.96 4.06-29.503h1.864c2.426 0 4.391-1.94 4.391-4.333z" id="Fill-1" fill="#F9C2CC" mask="url(#mask-2)"/></g></g></g></svg>