<svg width="72" height="59" viewBox="0 0 72 59" xmlns="http://www.w3.org/2000/svg" xmlns:xlink="http://www.w3.org/1999/xlink"><defs><path id="path-1" d="M0 0h71.756v58.46H0z"/></defs><g id="Symbols" stroke="none" stroke-width="1" fill="none" fill-rule="evenodd" opacity=".3"><g id="Footer" transform="translate(-695 -35)"><g id="Group-3" transform="translate(695 35)"><mask id="mask-2" fill="#fff"><use xlink:href="#path-1"/></mask><path d="M17.71 47.554a30.157 30.157 0 0118.168 6.106 30.161 30.161 0 0118.17-6.106c4.734 0 9.343 1.1 13.523 3.207V8.019a25.831 25.831 0 00-13.524-3.805c-6.147 0-12.12 2.2-16.819 6.195a2.081 2.081 0 01-2.7 0A25.987 25.987 0 0017.71 4.214 25.82 25.82 0 004.186 8.019V50.76a29.98 29.98 0 0113.524-3.206M35.878 58.46c-.48 0-.96-.166-1.35-.497a25.987 25.987 0 00-16.818-6.195A25.83 25.83 0 003.254 56.17a2.085 2.085 0 01-2.149.106A2.11 2.11 0 010 54.417V6.863c0-.704.35-1.362.931-1.752A29.981 29.981 0 0117.71 0a30.157 30.157 0 0118.168 6.106A30.161 30.161 0 0154.048 0a29.99 29.99 0 0116.778 5.11c.582.391.931 1.05.931 1.753v47.554a2.11 2.11 0 01-1.105 1.859 2.085 2.085 0 01-2.15-.106 25.83 25.83 0 00-14.455-4.402c-6.147 0-12.12 2.2-16.819 6.195a2.08 2.08 0 01-1.35.497" id="Fill-1" fill="#FFF" mask="url(#mask-2)"/></g></g></g></svg>