<svg width="21" height="22" viewBox="0 0 21 22" xmlns="http://www.w3.org/2000/svg"><g id="Page-1" stroke="none" stroke-width="1" fill="none" fill-rule="evenodd"><g id="Search" transform="translate(-878 -36)" fill="#D4D4D4"><g id="Group-5" transform="translate(878 35)"><path d="M10.708-1.656A1.624 1.624 0 0112.324-.04l.115 24.095a1.594 1.594 0 01-1.602 1.601 1.624 1.624 0 01-1.616-1.616L9.107-.055a1.594 1.594 0 011.6-1.601z" id="Rectangle" transform="rotate(-41 10.773 12)"/><path d="M10.435-1.656A1.624 1.624 0 0112.052-.04l.114 24.095a1.594 1.594 0 01-1.601 1.601 1.624 1.624 0 01-1.617-1.616L8.834-.055a1.594 1.594 0 011.601-1.601z" id="Rectangle-Copy-2" transform="scale(-1 1) rotate(-41 0 40.084)"/></g></g></g></svg>