<svg width="154" height="130" viewBox="0 0 154 130" xmlns="http://www.w3.org/2000/svg" xmlns:xlink="http://www.w3.org/1999/xlink"><defs><path id="path-1" d="M.45.309h98.703v8.684H.45z"/></defs><g id="HABIT-WEBSITE" stroke="none" stroke-width="1" fill="none" fill-rule="evenodd"><g id="5.0.0_Facts" transform="translate(-625 -1765)"><g id="Group-9" transform="translate(551 1703)"><g id="Group-20" transform="translate(74 62)"><path id="Fill-1" fill="#F9C2CC" d="M5.14 0v8.038h5.46v23.574h10.74V0z"/><g id="Group-19" transform="translate(0 20.176)"><path d="M21.202 47.694c2.152-1.926 3.603-3.651 4.345-5.17.744-1.52 1.115-3.155 1.115-4.9 0-1.958-.545-3.688-1.637-5.194-1.092-1.504-2.61-2.664-4.551-3.477-1.941-.813-4.17-1.22-6.687-1.22-3.308 0-6.129.656-8.463 1.965C2.988 31.008 1.21 32.792 0 35.05l8.1 4.02c.453-.933 1.105-1.656 1.956-2.168a5.185 5.185 0 012.728-.768c1.003 0 1.768.22 2.298.655.532.438.796 1.046.796 1.829 0 .632-.166 1.28-.499 1.942-.336.661-1 1.46-2.003 2.395L1.864 53.519v6.548H27.39v-8.264H16.652l4.55-4.11z" id="Fill-2" fill="#F9C2CC"/><path d="M19.655 89.597l5.915-5.961v-6.548H1.819v8.038h11.375l-4.687 4.742v6.547h4.232c2.516 0 3.776.723 3.776 2.168 0 .783-.38 1.386-1.137 1.806-.758.422-1.759.633-3.003.633-1.395 0-2.844-.195-4.345-.588a16.839 16.839 0 01-4.209-1.716l-3.64 7.858c1.668.933 3.617 1.641 5.847 2.122a31.74 31.74 0 006.711.723c3.244 0 5.96-.512 8.144-1.535s3.8-2.356 4.846-3.997c1.047-1.641 1.57-3.41 1.57-5.306 0-2.227-.66-4.132-1.98-5.712-1.319-1.581-3.207-2.672-5.664-3.274" id="Fill-4" fill="#F9C2CC"/><path d="M59.074 8.83h77.704c2.417 0 4.375-1.943 4.375-4.342 0-2.399-1.958-4.342-4.375-4.342H59.074c-2.416 0-4.375 1.943-4.375 4.342 0 2.399 1.959 4.342 4.375 4.342" id="Fill-6" fill="#F9C2CC"/><path d="M41.756.146h-1.554c-2.417 0-4.375 1.943-4.375 4.342 0 2.399 1.958 4.342 4.375 4.342h1.554c2.416 0 4.375-1.943 4.375-4.342 0-2.399-1.959-4.342-4.375-4.342" id="Fill-8" fill="#F9C2CC"/><g id="Group-12" transform="translate(54.25 52.105)"><mask id="mask-2" fill="#fff"><use xlink:href="#path-1"/></mask><path d="M94.779.309H4.825C2.408.309.45 2.252.45 4.65s1.958 4.342 4.375 4.342H94.78c2.416 0 4.375-1.944 4.375-4.342 0-2.399-1.959-4.342-4.375-4.342" id="Fill-10" fill="#F9C2CC" mask="url(#mask-2)"/></g><path d="M41.756 52.414h-1.554c-2.417 0-4.375 1.943-4.375 4.342 0 2.399 1.958 4.342 4.375 4.342h1.554c2.416 0 4.375-1.943 4.375-4.342 0-2.399-1.959-4.342-4.375-4.342" id="Fill-13" fill="#F9C2CC"/><path d="M133.279 99.47H59.075c-2.417 0-4.375 1.943-4.375 4.342 0 2.398 1.958 4.342 4.375 4.342h74.204c2.416 0 4.375-1.944 4.375-4.342 0-2.399-1.959-4.342-4.375-4.342" id="Fill-15" fill="#F9C2CC"/><path d="M41.756 99.47h-1.554c-2.417 0-4.375 1.943-4.375 4.342 0 2.398 1.958 4.342 4.375 4.342h1.554c2.416 0 4.375-1.944 4.375-4.342 0-2.399-1.959-4.342-4.375-4.342" id="Fill-17" fill="#F9C2CC"/></g></g></g></g></g></svg>