<svg width="87" height="135" viewBox="0 0 87 135" xmlns="http://www.w3.org/2000/svg" xmlns:xlink="http://www.w3.org/1999/xlink"><defs><path id="path-1" d="M0 0h86.6v134.365H0z"/></defs><g id="HABIT-WEBSITE" stroke="none" stroke-width="1" fill="none" fill-rule="evenodd"><g id="5.0.0_Facts" transform="translate(-1112 -1763)"><g id="Group-10" transform="translate(1000 1703)"><g id="Door" transform="translate(112 60)"><mask id="mask-2" fill="#fff"><use xlink:href="#path-1"/></mask><path d="M41.145 23.149l36.656-12.655v114.023l-36.656-8.435V23.149zm45.107 108.559c.012-.031.02-.065.03-.096.081-.2.153-.404.206-.62.004-.018.004-.036.007-.055.03-.134.037-.277.055-.416.017-.16.044-.316.045-.47.002-.015.006-.03.006-.047V4.36c0-.093-.021-.178-.027-.269a3.96 3.96 0 00-.047-.453c-.025-.16-.069-.314-.111-.467-.025-.082-.032-.164-.062-.246-.012-.039-.037-.074-.053-.112a4.25 4.25 0 00-.21-.453c-.059-.11-.115-.225-.182-.33-.08-.124-.17-.235-.26-.35-.09-.112-.175-.223-.272-.325-.091-.095-.195-.18-.295-.266-.113-.098-.222-.197-.343-.281-.108-.075-.22-.136-.333-.2-.132-.077-.262-.156-.401-.218-.113-.05-.23-.086-.347-.126-.157-.054-.31-.11-.474-.146-.107-.025-.216-.035-.325-.051a3.805 3.805 0 00-.547-.056c-.04-.002-.073-.01-.111-.01H4.4C1.97 0 0 1.95 0 4.36v125.644c0 2.408 1.97 4.36 4.4 4.36 2.43 0 4.4-1.952 4.4-4.36V8.72h47.407l-20.909 7.216a4.361 4.361 0 00-2.953 4.117v99.491c0 2.028 1.412 3.787 3.406 4.247l45.455 10.462c.016.003.032.002.05.005.274.061.56.09.853.098.032 0 .065.01.095.01.28 0 .556-.031.826-.085.082-.014.158-.04.239-.061a3.708 3.708 0 00.808-.286c.15-.07.294-.147.435-.234.086-.052.172-.106.255-.165.139-.1.269-.211.397-.325.067-.063.138-.12.201-.185.136-.14.259-.293.377-.451.04-.054.086-.105.125-.162a4.45 4.45 0 00.385-.703z" id="Fill-1" fill="#F9C2CC" mask="url(#mask-2)"/></g></g></g></g></svg>