<svg width="156" height="82" viewBox="0 0 156 82" xmlns="http://www.w3.org/2000/svg" xmlns:xlink="http://www.w3.org/1999/xlink"><defs><path id="path-1" d="M0 .317h155.532v80.589H0z"/></defs><g id="HABIT-WEBSITE" stroke="none" stroke-width="1" fill="none" fill-rule="evenodd"><g id="5.0.0_Facts" transform="translate(-857 -2370)"><g id="Group-6" transform="translate(857 2370)"><path d="M85.946 37.935c-1.67-.587-3.721-1.106-6.153-1.555-1.884-.36-3.233-.7-4.056-1.015-.82-.317-1.228-.791-1.228-1.423 0-1.322 1.381-1.983 4.145-1.983 2.796 0 5.758.781 8.887 2.344l3.236-7.714c-2.523-1.414-5.604-2.283-9.25-2.616v-4.827h-6.426v4.917c-3.618.512-6.389 1.714-8.319 3.609-1.93 1.895-2.894 4.166-2.894 6.812 0 2.286.609 4.098 1.823 5.437 1.215 1.338 2.644 2.3 4.284 2.887 1.64.585 3.692 1.135 6.153 1.645 1.914.39 3.288.751 4.126 1.083.834.331 1.253.827 1.253 1.488 0 .571-.32 1-.957 1.286-.64.288-1.704.43-3.192.43-1.732 0-3.539-.265-5.421-.79-1.886-.526-3.587-1.226-5.106-2.098l-3.464 7.759c1.367.843 3.092 1.549 5.173 2.12a30.79 30.79 0 006.541 1.037v4.782h6.426v-5.005c3.4-.602 6.02-1.843 7.86-3.724 1.838-1.879 2.757-4.08 2.757-6.609 0-2.285-.614-4.089-1.846-5.413a10.727 10.727 0 00-4.352-2.864" id="Fill-1" fill="#F9C2CC"/><g id="Group-5" transform="translate(0 .137)"><mask id="mask-2" fill="#fff"><use xlink:href="#path-1"/></mask><path d="M147.46 69.672c0 1.787-1.47 3.243-3.276 3.243H11.35c-1.807 0-3.276-1.456-3.276-3.243V11.549c0-1.787 1.47-3.241 3.276-3.241h132.835c1.806 0 3.276 1.454 3.276 3.24v58.124zM144.184.316H11.35C5.09.316 0 5.356 0 11.55v58.123c0 6.194 5.091 11.234 11.35 11.234h132.835c6.258 0 11.348-5.04 11.348-11.234V11.549c0-6.193-5.09-11.233-11.348-11.233z" id="Fill-3" fill="#F9C2CC" mask="url(#mask-2)"/></g></g></g></g></svg>