<svg width="97" height="63" viewBox="0 0 97 63" xmlns="http://www.w3.org/2000/svg" xmlns:xlink="http://www.w3.org/1999/xlink"><defs><path id="path-1" d="M0 .616h60.019v61.128H0z"/></defs><g id="Symbols" stroke="none" stroke-width="1" fill="none" fill-rule="evenodd" opacity=".3"><g id="Footer" transform="translate(-459 -33)"><g id="Group-6" transform="translate(459 33)"><g id="Group-3" transform="translate(0 .236)"><mask id="mask-2" fill="#fff"><use xlink:href="#path-1"/></mask><path d="M30.015 61.744c-8.021 0-15.562-3.181-21.234-8.956-11.709-11.92-11.709-31.315 0-43.236C18.29-.129 33.099-2.183 44.795 4.56a2.15 2.15 0 01.79 2.9 2.07 2.07 0 01-2.85.805C32.67 2.461 19.923 4.23 11.738 12.562c-10.078 10.261-10.078 26.956 0 37.217 4.882 4.97 11.373 7.708 18.277 7.708 6.904 0 13.395-2.737 18.277-7.708 8.616-8.773 10.028-22.658 3.356-33.016a2.153 2.153 0 01.602-2.947 2.069 2.069 0 012.895.612c7.752 12.037 6.113 28.17-3.897 38.36-5.671 5.775-13.212 8.956-21.233 8.956" id="Fill-1" fill="#FFF" mask="url(#mask-2)"/></g><path d="M66.472 62.385A29.465 29.465 0 0151.73 58.44c-1.005-.579-1.358-1.878-.79-2.9a2.07 2.07 0 012.85-.804c10.065 5.801 22.812 4.035 30.998-4.3 10.078-10.26 10.078-26.955 0-37.215a25.553 25.553 0 00-36.555 0c-8.616 8.772-10.027 22.658-3.356 33.016a2.153 2.153 0 01-.601 2.947 2.07 2.07 0 01-2.895-.613c-7.753-12.037-6.114-28.169 3.896-38.36a29.683 29.683 0 0142.467 0c11.708 11.92 11.708 31.316 0 43.235a29.796 29.796 0 01-21.272 8.938" id="Fill-4" fill="#FFF"/></g></g></g></svg>