<svg width="137" height="86" viewBox="0 0 137 86" xmlns="http://www.w3.org/2000/svg" xmlns:xlink="http://www.w3.org/1999/xlink"><defs><path id="path-1" d="M0 0h136.612v86.015H0z"/></defs><g id="HABIT-WEBSITE" stroke="none" stroke-width="1" fill="none" fill-rule="evenodd"><g id="5.0.0_Facts" transform="translate(-183 -1807)"><g id="Group-8" transform="translate(96 1703)"><g id="Group-3" transform="translate(87 104)"><mask id="mask-2" fill="#fff"><use xlink:href="#path-1"/></mask><path d="M117.26 54.886a57.261 57.261 0 00-5.111-20.712 10.92 10.92 0 014.68-1.06c6.065 0 11.001 4.888 11.001 10.897 0 5.863-4.705 10.648-10.57 10.875m-10.52 6.072c-15.336 5.908-31.446 8.899-47.972 8.899-2.828 0-5.7-.093-8.534-.272-13.678-.861-26.974-3.744-39.608-8.581a47.464 47.464 0 01.01-5.894c1.606-25.049 22.685-44.67 47.988-44.67 1.03 0 2.078.034 3.112.098 12.833.81 24.581 6.518 33.079 16.08 8.452 9.51 12.683 21.7 11.926 34.34m29.871-16.947c0-10.806-8.875-19.598-19.782-19.598a19.71 19.71 0 00-8.898 2.116c-9.759-14.9-26.26-25.195-45.528-26.41-1.265-.08-2.53-.12-3.78-.12C27.913 0 2.094 23.66.118 54.447a57.79 57.79 0 00.79 13.875c4.45 1.933 9.033 3.624 13.714 5.116l-5.986 4.865a4.323 4.323 0 00-.607 6.123 4.398 4.398 0 003.395 1.59c.982 0 1.967-.324 2.784-.988l9.799-7.966c.286-.233.521-.501.732-.783a145.955 145.955 0 0034.029 4.018c12.168 0 24.015-1.537 35.358-4.406.186.315.399.616.67.884l8.04 7.966a4.4 4.4 0 003.106 1.275 4.4 4.4 0 003.103-1.275 4.318 4.318 0 000-6.151l-5.476-5.426a144.912 144.912 0 0012.89-4.896 59.06 59.06 0 00.618-4.672c10.793-.134 19.535-8.863 19.535-19.585" id="Fill-1" fill="#F9C2CC" mask="url(#mask-2)"/></g></g></g></g></svg>