<svg width="269" height="160" viewBox="0 0 269 160" xmlns="http://www.w3.org/2000/svg"><g id="Page-1" fill="none" fill-rule="evenodd"><g id="1-coursematch-landing-copy-2" transform="translate(-149 -3804)" fill-rule="nonzero"><g id="Group-2" transform="translate(14 3672)"><g id="logos" transform="translate(135 132)"><g id="jisc-logo"><path id="Shape" fill="#E65E11" d="M0 0h268.308v160H0z"/><path d="M111.791 39.208c0 5.372-4.178 9.67-9.4 9.67s-9.4-4.298-9.4-9.67 4.178-9.67 9.4-9.67 9.4 4.298 9.4 9.67m-57.185 87.561c-16.973 0-25.068-11.55-25.068-11.55l5.223-8.594s6.789 6.177 16.45 6.177c8.356 0 15.407-5.103 15.407-19.607V34.642h17.495V95.88c-.261 17.459-9.662 30.888-29.507 30.888m153.017 0c15.406 0 23.24-11.55 23.24-11.55l-4.7-7.788s-6.79 6.983-16.713 6.983c-10.183 0-18.017-8.058-18.017-22.562 0-14.504 7.834-21.219 18.017-21.219 9.4 0 16.712 7.79 16.712 7.79l5.223-8.058s-8.617-11.818-23.762-11.818c-16.19 0-30.551 12.355-30.551 33.842-.523 22.294 14.622 34.38 30.55 34.38m-64.235 0c-9.4 0-20.89-4.297-25.068-9.132l3.917-8.326c7.312 4.029 13.579 5.103 21.412 5.103 6.79 0 10.706-2.686 10.706-6.715 0-4.566-2.872-6.446-13.056-9.132-15.406-4.029-21.934-8.864-21.934-20.682 0-11.28 8.878-19.338 23.5-19.338 8.357 0 17.757 3.223 22.98 6.446l-3.134 9.132c-6.79-2.686-13.317-3.76-19.584-3.76-6.006 0-8.878 2.417-8.878 6.177 0 3.492 2.35 5.372 12.011 8.058 16.712 4.298 22.979 9.132 22.979 21.488 0 13.16-8.878 20.681-25.851 20.681M94.77 59.077h14.768v65.23H94.77z" id="Shape" fill="#FFF"/></g></g></g></g></g></svg>