<?xml version="1.0" encoding="UTF-8"?>
<svg width="176px" height="76px" viewBox="0 0 176 76" version="1.1" xmlns="http://www.w3.org/2000/svg" xmlns:xlink="http://www.w3.org/1999/xlink">
    <!-- Generator: Sketch 61.2 (89653) - https://sketch.com -->
    <title>Group 5</title>
    <desc>Created with Sketch.</desc>
    <g id="Welcome" stroke="none" stroke-width="1" fill="none" fill-rule="evenodd">
        <g id="About" transform="translate(-272.000000, -5665.000000)" fill="#FCFCFC">
            <g id="Group-5" transform="translate(272.000000, 5665.000000)">
                <path d="M71.1458496,61.7698512 L71.1458496,34.3241232 L77.5851776,34.3241232 L90.4382976,50.2929392 C90.8018816,50.7343472 91.2171456,51.3836912 91.6585536,52.1886832 C92.0999616,53.0195152 92.5675136,53.9801552 93.0347616,55.0967472 C92.8791136,54.2917552 92.7751456,53.4867632 92.7231616,52.6817712 C92.6453376,51.8770832 92.6194976,50.8902992 92.6194976,49.6958832 L92.6194976,34.3502672 L98.5395936,34.3502672 L98.5395936,61.7956912 L92.4635456,61.7956912 L79.2729856,45.5152752 C78.9094016,45.0738672 78.4941376,44.4248272 78.0527296,43.6198352 C77.6113216,42.8148432 77.1437696,41.8283632 76.6765216,40.6856272 C76.8321696,41.4647792 76.9361376,42.2697712 76.9881216,43.0744592 C77.0659456,43.8794512 77.0920896,44.8920752 77.0920896,46.1126352 L77.0920896,61.7956912 L71.1458496,61.7956912 L71.1458496,61.7698512 Z M65.9267776,48.1120432 C65.9267776,50.0853072 65.5373536,51.9287632 64.7582016,53.6685552 C63.9793536,55.4083472 62.8627616,56.9663472 61.4087296,58.2905712 C59.9027136,59.6406352 58.2149056,60.7052432 56.3194656,61.4324112 C54.4240256,62.1592752 52.4766016,62.5228592 50.4513536,62.5228592 C48.6854176,62.5228592 46.9459296,62.2370992 45.2581216,61.6658832 C43.5703136,61.0946672 42.0123136,60.2896752 40.5844256,59.2253712 C38.7668096,57.8491632 37.3644576,56.2133392 36.4038176,54.2917552 C35.4431776,52.3701712 34.9497856,50.3190832 34.9497856,48.1120432 C34.9497856,46.1384752 35.3392096,44.2950192 36.0922176,42.5552272 C36.8710656,40.8157392 37.9876576,39.2835792 39.4678336,37.9335152 C40.9218656,36.6092912 42.6096736,35.5705232 44.5309536,34.8175152 C46.4525376,34.0903472 48.4258016,33.7009232 50.4771936,33.7009232 C52.5024416,33.7009232 54.4760096,34.0645072 56.3714496,34.8175152 C58.2927296,35.5446832 59.9805376,36.5831472 61.4345696,37.9335152 C62.8886016,39.2835792 64.0313376,40.8157392 64.7840416,42.5552272 C65.5373536,44.2950192 65.9267776,46.1384752 65.9267776,48.1120432 L65.9267776,48.1120432 Z M50.4513536,57.2779472 C53.0736576,57.2779472 55.2548576,56.3948272 56.9685056,54.6553392 C58.6821536,52.9155472 59.5391296,50.7343472 59.5391296,48.1120432 C59.5391296,45.5152752 58.6821536,43.3343792 56.9426656,41.5426032 C55.2028736,39.7769712 53.0478176,38.8941552 50.4513536,38.8941552 C47.8287456,38.8941552 45.6475456,39.7769712 43.9077536,41.5426032 C42.1682656,43.3082352 41.3112896,45.4894352 41.3112896,48.1120432 C41.3112896,50.7604912 42.1682656,52.9413872 43.8557696,54.6811792 C45.5955616,56.4209712 47.7767616,57.2779472 50.4513536,57.2779472 L50.4513536,57.2779472 Z M23.3950496,61.7698512 L29.5747616,61.7698512 L29.5747616,34.3241232 L23.3950496,34.3241232 L23.3950496,61.7698512 Z M3.2456256,61.7698512 L3.2456256,34.3241232 L9.4514816,34.3241232 L9.4514816,56.7845552 L19.3703936,56.7845552 L19.3703936,61.7698512 L3.2456256,61.7698512 Z M150.886266,2.5941232 C155.63809,4.1262832 156.676554,8.2287632 155.04073,10.0983632 C154.132074,11.1368272 153.093306,11.7600272 150.704474,13.2402032 C148.315642,14.7200752 147.380842,15.4992272 146.627834,16.0704432 C145.874826,16.6674992 145.459562,17.4724912 147.095082,17.0310832 C147.251034,16.9790992 157.299754,14.8240432 158.598138,14.1488592 C160.779034,13.0064272 161.402234,12.2272752 161.739978,10.7474032 C162.077418,9.2672272 159.818394,6.8267152 158.753786,5.6322992 C156.62457,3.1653392 151.509466,0.6208592 151.27569,0.5947152 C148.705066,-0.2619568 145.563226,0.4390672 142.992602,0.5688752 C142.707146,0.5688752 142.81081,1.0102832 142.966762,1.1142512 C145.27777,2.6980912 148.081866,1.9450832 150.886266,2.5941232 L150.886266,2.5941232 Z M137.176474,31.2342672 C137.12449,31.6236912 137.513914,31.2601072 137.825514,30.8186992 C138.137114,30.3514512 139.383514,28.3000592 141.408762,24.8207792 C143.43401,21.3414992 144.628426,18.3553072 144.524762,18.2774832 C144.394954,18.1996592 144.109194,18.4851152 143.797594,18.7188912 C143.460154,18.9526672 142.81081,19.6017072 142.265738,20.3027312 C141.720362,21.0037552 141.253114,20.9259312 140.55209,21.0815792 C139.850762,21.2375312 138.578522,22.6137392 137.851658,23.2107952 C137.12449,23.7820112 136.137706,24.3793712 135.22905,24.5091792 C134.242266,24.6648272 134.086618,24.2234192 133.67105,24.3015472 C133.255482,24.3793712 133.281626,25.0545552 133.411434,25.5479472 C133.567082,26.0151952 133.437274,26.2489712 133.35945,27.0798032 C133.281626,27.9367792 133.878682,28.7414672 134.372074,29.2348592 C134.865466,29.7024112 134.709818,30.4554192 135.047258,30.7150352 C135.384698,30.9746512 135.488666,29.2610032 135.488666,28.1963952 C135.488666,27.1576272 135.25489,26.1191632 135.281034,25.9632112 C135.333018,25.8075632 136.16385,25.5737872 136.553274,25.3141712 C136.968538,25.0545552 137.929482,24.3535312 138.39673,24.1197552 C138.890122,23.8859792 138.890122,24.0677712 138.760314,24.3273872 C138.630506,24.6131472 138.37089,25.0284112 137.851658,25.4698192 C137.306282,25.9373712 136.034042,26.2748112 135.748282,26.3009552 C135.462826,26.3267952 135.488666,26.5605712 135.774426,26.7940432 C136.059882,27.0019792 136.760906,27.0019792 137.384106,26.8460272 C138.007306,26.6642352 137.929482,27.4953712 137.851658,28.3781872 C137.77353,29.2610032 137.254298,30.8448432 137.176474,31.2342672 L137.176474,31.2342672 Z M122.142154,32.9998992 C122.68753,33.4154672 123.726298,35.3367472 123.59649,35.0251472 C123.466682,34.7135472 124.011754,32.9479152 122.843482,30.7670192 C121.649066,28.5858192 121.285482,27.7808272 120.76625,25.5996272 C120.246714,23.3925872 119.311914,21.6011152 120.869914,20.2507472 C122.454058,18.9006832 123.674314,16.9532592 124.167706,14.8760272 C124.661098,12.7987952 126.348602,11.1629712 128.218202,8.9039472 C130.087802,6.6449232 130.451386,6.3071792 130.451386,6.3071792 C130.009978,6.9045392 129.127162,9.3192112 128.737738,10.5917552 C128.32217,11.8639952 126.296922,14.6422512 125.362122,16.1224272 C124.453162,17.6022992 122.35009,20.4586832 122.168298,23.1329712 C122.012346,25.8075632 124.193546,28.9752432 124.53129,30.1438192 C124.84289,31.3120912 124.089578,34.6098832 124.89457,36.9725712 C125.673722,39.3355632 127.906602,41.5167632 128.32217,41.8022192 C128.711594,42.0879792 128.63377,41.8022192 128.503962,41.6465712 C128.374154,41.4906192 128.114538,41.2571472 127.569162,40.1144112 C127.023786,38.9981232 127.283402,37.7255792 127.646986,36.0119312 C128.03641,34.2982832 128.218202,32.9220752 128.062554,31.2084272 C127.906602,29.4944752 126.530698,26.5864112 126.11513,24.8207792 C125.699562,23.0551472 126.76417,21.3153552 128.555946,18.3033232 C130.321578,15.2654512 130.581194,12.7206672 130.81497,10.8513712 C131.048442,8.9817712 132.08721,6.3071792 134.891306,5.1389072 C136.527434,4.4637232 141.071322,5.3985232 143.434314,6.8783952 C145.095978,7.9949872 145.92681,9.0337552 146.160586,10.2281712 C146.446042,11.6302192 145.58937,12.5908592 145.069834,13.9412272 C144.550602,15.3174352 144.187018,16.9012752 144.784378,16.8234512 C145.30361,16.7714672 151.405498,11.6302192 152.781706,10.1500432 C153.45689,9.3973392 154.36585,7.5015952 153.067466,5.8137872 C151.950874,4.3339152 144.005226,3.6848752 142.47337,1.5556592 C141.123306,-0.3397808 137.592042,-0.2361168 136.553274,0.4649072 C135.592634,1.1142512 133.489258,2.8798832 131.43817,3.5809072 C129.386778,4.2819312 127.283402,4.6193712 124.505146,6.0217232 C121.72689,7.4499152 121.856698,9.0857392 121.545098,10.2801552 C121.233498,11.4745712 121.025866,14.6942352 118.766842,18.1476752 C116.481978,21.6011152 117.806202,23.9638032 118.92249,27.4692272 C120.013242,30.8968272 121.597082,32.5843312 122.142154,32.9998992 L122.142154,32.9998992 Z M153.43105,55.8755952 C148.73121,61.8996592 140.811706,61.6400432 135.410842,63.8212432 C129.101018,66.3398832 124.790906,70.8059472 123.674314,71.9225392 C121.72689,73.8438192 119.286074,73.3504272 117.96185,73.2726032 C116.637626,73.1947792 115.365386,72.5195952 114.82001,72.4159312 C114.274634,72.3119632 113.028234,72.4417712 113.028234,72.4417712 C113.028234,72.4417712 113.080218,71.8444112 113.521626,71.5328112 C113.989178,71.2473552 114.923978,71.1433872 116.585642,70.8059472 C118.247306,70.4685072 119.51985,69.5853872 120.16889,69.1439792 C120.844074,68.7025712 120.402666,68.5727632 119.961258,68.6767312 C119.54569,68.7806992 118.195626,69.2999312 115.884618,69.6373712 C113.57361,69.9751152 112.820602,69.7933232 111.937786,70.4165232 C111.02913,71.0135792 111.236762,72.5457392 111.02913,72.9610032 C110.821194,73.4024112 110.665546,73.5063792 110.353946,73.2206192 C110.068186,72.9610032 109.938378,71.9225392 110.146314,71.0655632 C110.379786,70.2085872 111.730154,69.5075632 113.002394,69.2221072 C114.274634,68.9363472 116.975066,68.7545552 119.909274,67.1965552 C128.581786,62.6006832 132.39881,59.1472432 140.058698,53.2271472 C148.211674,46.9434672 155.482138,43.4641872 161.220442,40.6859312 C164.75201,38.9719792 175.215994,37.6997392 175.215994,37.6997392 C175.215994,37.6997392 173.709978,36.6871152 172.151978,36.5053232 C171.217482,36.4013552 170.308522,36.3755152 169.425706,36.4013552 C170.853898,35.6225072 174.48913,32.8181072 175.034202,29.2090192 C175.735226,24.3793712 169.321738,20.3805552 169.243914,15.9926192 C169.036282,5.7621072 158.753786,4.3080752 159.221338,4.5935312 C161.142618,5.7879472 163.142026,8.0989552 163.50561,9.4231792 C164.180794,11.8378512 162.129402,14.4604592 159.14321,15.4730832 C157.715322,15.9406352 149.821658,17.6801232 148.78289,18.7447312 C147.718586,19.8093392 149.899482,25.3919952 148.497434,27.6510192 C147.095386,29.9100432 139.253706,33.7790512 138.318906,34.8694992 C137.384106,35.9599472 136.397322,35.6225072 136.059882,35.5966672 C135.722442,35.5705232 136.007898,35.9860912 136.968538,36.1937232 C137.929482,36.4013552 139.591146,35.8301392 140.55209,35.3109072 C141.51273,34.7655312 142.862794,35.9079632 142.81081,36.6612752 C142.732986,37.3881392 141.82433,37.5957712 140.058698,38.7123632 C138.656346,39.5951792 134.657834,37.1026832 134.32009,36.2715472 C133.98265,35.4407152 135.151226,35.7264752 135.87809,34.8175152 C136.605258,33.9346992 135.333018,33.7790512 134.891306,33.9346992 C134.424058,34.0645072 134.164442,33.8307312 133.69689,33.7009232 C133.229642,33.5711152 132.632586,33.7009232 132.346826,34.0386672 C132.061066,34.3761072 132.346826,34.6357232 131.256378,34.7655312 C130.165626,34.8953392 130.659018,33.5711152 130.892794,32.1432272 C131.126266,30.7150352 132.035226,26.9238512 131.853434,26.4566032 C131.671642,25.9632112 131.645802,26.1450032 131.256378,25.6777552 C130.86665,25.2102032 130.84081,24.3793712 130.788826,23.0293072 C130.762986,21.6789392 130.86665,19.1602992 130.86665,19.1602992 C130.86665,19.1602992 130.035818,20.3805552 129.672234,22.5359152 C129.308954,24.6909712 130.81497,25.8853872 130.84081,26.2228272 C130.86665,26.5605712 130.788826,27.3394192 130.139786,31.1564432 C129.464602,34.9734672 130.295434,35.7003312 131.126266,36.3755152 C131.957402,37.0506992 135.670458,38.9719792 135.670458,38.9719792 L135.592634,40.6859312 C135.592634,40.6859312 133.748874,41.2829872 132.009082,42.4254192 C130.269594,43.5420112 129.620554,45.5672592 129.490746,46.2424432 C129.360634,46.9176272 129.724218,46.8136592 129.724218,46.8136592 C129.724218,46.8136592 130.113642,46.3980912 131.48985,45.3334832 C132.840218,44.2691792 135.826106,43.6976592 136.18969,43.6718192 C136.553274,43.6459792 136.579114,43.7757872 136.111866,44.1132272 C135.644618,44.4509712 134.424058,45.3334832 131.80145,47.2809072 C129.178842,49.2544752 128.815562,51.6952912 128.815562,52.2665072 C128.815562,52.8118832 129.178842,52.3704752 129.178842,52.3704752 C129.178842,52.3704752 129.542426,51.5393392 130.451386,50.7085072 C131.334202,49.8776752 133.35945,49.3842832 135.618474,49.0206992 C137.877498,48.6571152 138.241082,48.0858992 138.942106,47.0474352 C139.64313,46.0348112 141.53857,44.1132272 141.927994,43.8536112 C142.317722,43.6198352 142.421386,43.7496432 142.187914,43.9314352 C141.954138,44.1132272 141.82433,44.2430352 140.629914,45.5152752 C139.435498,46.8136592 139.227562,48.3455152 139.227562,48.3455152 C139.227562,48.3455152 139.876906,47.4368592 141.356778,46.4242352 C142.81081,45.3854672 146.368218,44.2430352 147.303018,44.0092592 C148.211674,43.7757872 148.159994,43.9055952 148.004042,44.0354032 C147.848394,44.1652112 147.744426,44.1910512 146.705658,44.7364272 C145.693034,45.2556592 142.057802,47.4110192 137.306282,50.9422832 C132.450794,54.5513712 128.477818,58.7058352 124.55713,61.6142032 C120.662282,64.4964272 117.728074,65.7945072 116.196218,66.0541232 C114.664362,66.3137392 112.872586,65.4309232 110.613562,65.3272592 C108.354538,65.2232912 106.848522,66.7551472 106.614746,67.0928912 C106.381274,67.4303312 106.381274,67.7160912 106.588906,67.6899472 C106.796538,67.6641072 107.160122,67.2485392 107.497562,67.2485392 C107.835306,67.2485392 107.809466,67.4564752 107.809466,67.4564752 C107.809466,67.4564752 107.653514,67.5342992 107.004474,67.8458992 C106.381274,68.1833392 105.42033,69.1181392 104.953082,70.5463312 C104.485834,71.9483792 105.576282,74.0775952 105.576282,74.0775952 C105.576282,74.0775952 106.277306,74.0775952 107.237946,74.4931632 C108.19889,74.8825872 108.82209,75.1422032 109.289338,75.4276592 C109.75689,75.6875792 110.224138,75.7654032 111.184778,75.5057872 C112.145418,75.2200272 114.118986,75.2200272 115.46905,75.2978512 C116.819418,75.3498352 122.116314,76.6482192 125.51777,74.4411792 C136.137706,65.1193232 147.251034,65.9243152 151.24985,64.4964272 C159.42897,61.5102352 158.078602,50.4488912 172.489722,52.1366992 C171.788698,50.4747312 160.519418,46.8394992 153.43105,55.8755952 Z M167.634234,35.0251472 C170.827754,31.8316272 171.321146,28.4560112 171.477098,27.0536592 C172.074154,30.0918352 170.360506,34.4280912 168.958458,36.4274992 C167.764042,36.4791792 166.621306,36.6351312 165.556698,36.8169232 C166.36169,36.3755152 166.880922,35.7781552 167.634234,35.0251472 L167.634234,35.0251472 Z M166.02425,24.7687952 C168.56873,29.1311952 165.06361,34.0903472 164.310602,34.7916752 C163.687402,35.3887312 162.415162,36.0639152 161.558186,36.5053232 C163.090042,35.1032752 164.492394,33.3376432 164.907658,31.2604112 C165.297082,29.1570352 164.648042,27.0536592 163.557594,24.7168112 C163.349658,24.2754032 159.480954,18.5629392 159.143514,18.2513392 C159.76641,18.3294672 164.725866,21.8607312 166.02425,24.7687952 L166.02425,24.7687952 Z M154.002266,20.0950992 C153.846314,19.7315152 158.130586,27.8069712 157.273914,31.3640752 C155.923546,37.0245552 150.860426,40.9194032 150.860426,40.9194032 C150.860426,40.9194032 153.275098,36.2976912 153.638682,35.4665552 C154.002266,34.6357232 156.416938,26.2228272 154.002266,20.0950992 L154.002266,20.0950992 Z M144.732394,36.1417392 C146.342378,35.2069392 151.016074,27.8586512 151.197866,28.2483792 C151.353818,28.6378032 151.613434,30.6630512 151.120042,32.0912432 C150.444858,33.9866832 144.732394,36.1417392 144.732394,36.1417392 L144.732394,36.1417392 Z M107.523706,71.3771632 C107.26409,72.0262032 106.381274,70.9877392 106.64089,70.2605712 C106.718714,70.0529392 107.783322,67.6899472 110.146314,68.1833392 C110.821194,68.3392912 108.380378,69.2737872 107.523706,71.3771632 L107.523706,71.3771632 Z M141.85017,12.1236112 C142.44753,12.9544432 141.902154,15.6028912 142.577338,15.5250672 C143.226378,15.4472432 145.459562,11.1109872 144.732394,9.6049712 C143.979386,8.0989552 138.70833,6.3591632 137.799674,6.3071792 C134.216426,6.0995472 133.177658,8.9559312 132.762394,11.2407952 C132.580602,12.2792592 129.178842,19.7056752 129.334794,19.4718992 L136.371482,11.5004112 C137.565898,10.3059952 140.967354,10.9030512 141.85017,12.1236112 L141.85017,12.1236112 Z" id="Fill-1"></path>
                <path d="M101.369803,28.3261424 L103.732795,25.8075024 C104.018251,26.5085264 104.511643,27.0539024 105.160683,27.4433264 C105.810027,27.8327504 106.563035,28.0403824 107.393867,28.0403824 C108.380651,28.0403824 109.159499,27.8069104 109.756859,27.3655024 C110.328075,26.9240944 110.613531,26.3267344 110.613531,25.5737264 C110.613531,24.6909104 109.652891,23.8080944 107.731307,22.9252784 C107.108107,22.6395184 106.614715,22.4060464 106.251435,22.2242544 C104.511643,21.3672784 103.317227,20.5364464 102.642043,19.7314544 C101.967163,18.9264624 101.629419,17.9399824 101.629419,16.8233904 C101.629419,15.2653904 102.278763,14.0189904 103.576843,13.0063664 C104.875227,12.0195824 106.563035,11.5264944 108.614123,11.5264944 C109.808539,11.5264944 110.847307,11.7341264 111.730123,12.1235504 C112.586795,12.5129744 113.365947,13.1361744 114.041131,13.9931504 L111.522187,16.2521744 C111.236731,15.7067984 110.821163,15.2915344 110.328075,15.0316144 C109.834683,14.7719984 109.237323,14.6163504 108.536299,14.6163504 C107.705467,14.6163504 107.030283,14.8239824 106.511051,15.2134064 C105.991819,15.6028304 105.731899,16.1223664 105.731899,16.7455664 C105.731899,17.7320464 106.744523,18.6410064 108.795915,19.4718384 C109.211483,19.6277904 109.523083,19.7575984 109.730715,19.8612624 C111.418523,20.5884304 112.664923,21.4192624 113.469611,22.3282224 C114.274603,23.2368784 114.690171,24.2756464 114.690171,25.4439184 C114.690171,27.2095504 114.066971,28.6119024 112.794731,29.6503664 C111.522187,30.6891344 109.834683,31.2083664 107.679323,31.2083664 C106.173611,31.2083664 104.849083,30.9487504 103.784475,30.4553584 C102.719867,29.9878064 101.915179,29.2609424 101.369803,28.3261424 L101.369803,28.3261424 Z M86.8030352,30.7149744 L86.8030352,11.9679024 L98.4875792,11.9679024 L98.4875792,15.3432144 L91.0614672,15.3432144 L91.0614672,19.2122224 L98.4875792,19.2122224 L98.4875792,22.6136784 L91.0614672,22.6136784 L91.0614672,27.3135184 L98.4875792,27.3135184 L98.4875792,30.7149744 L86.8030352,30.7149744 Z M63.6935632,30.7149744 L63.6935632,11.9679024 L68.1079472,11.9679024 L76.8841232,22.8732944 C77.1437392,23.1848944 77.4036592,23.6263024 77.7149552,24.1716784 C78.0265552,24.7428944 78.3384592,25.3919344 78.6497552,26.1449424 C78.5460912,25.5998704 78.4682672,25.0283504 78.4421232,24.4832784 C78.3901392,23.9379024 78.3642992,23.2627184 78.3642992,22.4318864 L78.3642992,11.9679024 L82.4147952,11.9679024 L82.4147952,30.7149744 L78.2603312,30.7149744 L69.2503792,19.6016464 C68.9907632,19.2900464 68.7308432,18.8486384 68.4195472,18.3035664 C68.1337872,17.7320464 67.7963472,17.0830064 67.4847472,16.3041584 C67.5884112,16.8492304 67.6665392,17.3946064 67.6923792,17.9399824 C67.7443632,18.4850544 67.7702032,19.1860784 67.7702032,20.0172144 L67.7702032,30.7149744 L63.6935632,30.7149744 Z M40.5582512,30.7149744 L40.5582512,11.9679024 L44.9464912,11.9679024 L53.7229712,22.8732944 C53.9825872,23.1848944 54.2422032,23.6263024 54.5538032,24.1716784 C54.8654032,24.7428944 55.1770032,25.3919344 55.4886032,26.1449424 C55.3846352,25.5998704 55.3068112,25.0283504 55.2809712,24.4832784 C55.2289872,23.9379024 55.2028432,23.2627184 55.2028432,22.4318864 L55.2028432,11.9679024 L59.2536432,11.9679024 L59.2536432,30.7149744 L55.0991792,30.7149744 L46.0889232,19.6016464 C45.8293072,19.2900464 45.5696912,18.8486384 45.2580912,18.3035664 C44.9464912,17.7320464 44.6348912,17.0830064 44.2974512,16.3041584 C44.4011152,16.8492304 44.4792432,17.3946064 44.5050832,17.9399824 C44.5570672,18.4850544 44.5829072,19.1860784 44.5829072,20.0172144 L44.5829072,30.7149744 L40.5582512,30.7149744 Z M18.4097232,30.7149744 L25.9398032,11.9679024 L30.7952912,11.9679024 L38.4551792,30.7149744 L33.6255312,30.7149744 L32.0155472,26.7423024 L24.3556592,26.7423024 L22.9794512,30.7149744 L18.4097232,30.7149744 Z M31.0287632,23.5743184 L28.8217232,17.5244144 C28.7700432,17.3426224 28.6660752,17.0310224 28.5882512,16.5896144 C28.4842832,16.1482064 28.3803152,15.6289744 28.2766512,14.9799344 C28.1726832,15.5769904 28.0428752,16.1223664 27.9389072,16.6157584 C27.8352432,17.1088464 27.7574192,17.4204464 27.7054352,17.5763984 L25.5762192,23.5484784 L31.0287632,23.5743184 Z M16.8258832,16.8492304 C15.9689072,16.1223664 15.0860912,15.6028304 14.1771312,15.2653904 C13.2684752,14.9279504 12.3075312,14.7719984 11.2690672,14.7719984 C9.1659952,14.7719984 7.4781872,15.3693584 6.2056432,16.5637744 C4.9595472,17.7581904 4.3363472,19.3678704 4.3363472,21.3672784 C4.3363472,23.3408464 4.9075632,24.8985424 6.0758352,26.0671184 C7.2444112,27.2356944 8.8282512,27.8069104 10.8538032,27.8069104 C11.9962352,27.8069104 13.0608432,27.6251184 14.0473232,27.2615344 C15.0341072,26.8979504 15.9427632,26.3528784 16.7738992,25.6257104 L16.7477552,29.7281904 C15.8390992,30.2215824 14.9042992,30.6110064 13.9175152,30.8447824 C12.9310352,31.0785584 11.8922672,31.2083664 10.8018192,31.2083664 C7.6338352,31.2083664 5.0373712,30.2735664 3.0121232,28.4301104 C1.0127152,26.5863504 9.12e-05,24.2236624 9.12e-05,21.3672784 C9.12e-05,18.5111984 1.0127152,16.1743504 3.0379632,14.3047504 C5.0632112,12.4609904 7.6858192,11.5264944 10.8796432,11.5264944 C11.9442512,11.5264944 12.9827152,11.6301584 13.9953392,11.8380944 C15.0082672,12.0457264 15.9947472,12.3831664 16.9556912,12.8245744 L16.8258832,16.8492304 Z M103.161579,58.2905104 L106.614715,54.6032944 C107.056427,55.6159184 107.757451,56.4209104 108.718091,56.9921264 C109.678731,57.5633424 110.769483,57.8749424 111.963899,57.8749424 C113.417931,57.8749424 114.560363,57.5375024 115.417035,56.8884624 C116.274011,56.2391184 116.689579,55.3563024 116.689579,54.2658544 C116.689579,52.9674704 115.287227,51.6690864 112.456987,50.3968464 C111.548331,49.9815824 110.821163,49.6438384 110.301931,49.3842224 C107.757451,48.1378224 106.017659,46.9175664 105.030875,45.7231504 C104.044395,44.5287344 103.551003,43.1005424 103.551003,41.4647184 C103.551003,39.2056944 104.511643,37.3360944 106.407083,35.8820624 C108.302523,34.4280304 110.769483,33.7011664 113.781515,33.7011664 C115.546843,33.7011664 117.053163,33.9866224 118.325403,34.5839824 C119.597643,35.1551984 120.740075,36.0638544 121.701019,37.3102544 L118.039643,40.6338864 C117.598235,39.8288944 117.027019,39.2318384 116.300155,38.8421104 C115.572987,38.4526864 114.716011,38.2450544 113.703387,38.2450544 C112.483131,38.2450544 111.496347,38.5305104 110.717499,39.1278704 C109.964491,39.6990864 109.600907,40.4520944 109.600907,41.3868944 C109.600907,42.8409264 111.106923,44.1651504 114.093115,45.3595664 C114.690171,45.5933424 115.131579,45.7751344 115.469019,45.9307824 C117.935979,46.9953904 119.753595,48.1898064 120.921867,49.5401744 C122.116283,50.8643984 122.687499,52.3962544 122.687499,54.1099024 C122.687499,56.6805264 121.752699,58.7319184 119.909243,60.2637744 C118.065787,61.7959344 115.546843,62.5489424 112.431147,62.5489424 C110.224107,62.5489424 108.302523,62.1853584 106.718683,61.4581904 C105.109003,60.7051824 103.940427,59.6405744 103.161579,58.2905104 L103.161579,58.2905104 Z" id="Fill-3"></path>
            </g>
        </g>
    </g>
</svg>