<?xml version="1.0" encoding="UTF-8"?>
<svg width="193px" height="131px" viewBox="0 0 193 131" version="1.1" xmlns="http://www.w3.org/2000/svg" xmlns:xlink="http://www.w3.org/1999/xlink">
    <!-- Generator: Sketch 61.2 (89653) - https://sketch.com -->
    <title>Group 44</title>
    <desc>Created with Sketch.</desc>
    <g id="Welcome" stroke="none" stroke-width="1" fill="none" fill-rule="evenodd">
        <g id="About" transform="translate(-264.000000, -5637.000000)">
            <g id="Group-44" transform="translate(264.250000, 5637.500000)">
                <rect id="Rectangle" fill="#000000" x="0" y="0" width="192" height="130"></rect>
                <g id="Group-5" transform="translate(20.750000, 32.500000)" fill="#FCFCFC">
                    <path d="M60.848424,52.829478 L60.848424,29.356158 L66.355744,29.356158 L77.348544,43.013698 C77.659504,43.391218 78.014664,43.946578 78.392184,44.635058 C78.769704,45.345638 79.169584,46.167238 79.569204,47.122218 C79.436084,46.433738 79.347164,45.745258 79.302704,45.056778 C79.236144,44.368558 79.214044,43.524598 79.214044,42.503058 L79.214044,29.378518 L84.277284,29.378518 L84.277284,52.851578 L79.080664,52.851578 L67.799264,38.927538 C67.488304,38.550018 67.133144,37.994918 66.755624,37.306438 C66.378104,36.617958 65.978224,35.774258 65.578604,34.796918 C65.711724,35.463298 65.800644,36.151778 65.845104,36.839998 C65.911664,37.528478 65.934024,38.394538 65.934024,39.438438 L65.934024,52.851578 L60.848424,52.851578 L60.848424,52.829478 Z M56.384744,41.148458 C56.384744,42.836118 56.051684,44.412758 55.385304,45.900738 C54.719184,47.388718 53.764204,48.721218 52.520624,49.853778 C51.232584,51.008438 49.789064,51.918958 48.167964,52.540878 C46.546864,53.162538 44.881304,53.473498 43.149184,53.473498 C41.638844,53.473498 40.151124,53.229098 38.707604,52.740558 C37.264084,52.252018 35.931584,51.563538 34.710364,50.653278 C33.155824,49.476258 31.956444,48.077198 31.134844,46.433738 C30.313244,44.790278 29.891264,43.036058 29.891264,41.148458 C29.891264,39.460538 30.224324,37.883898 30.868344,36.395918 C31.534464,34.908198 32.489444,33.597798 33.755384,32.443138 C34.998964,31.310578 36.442484,30.422158 38.085684,29.778138 C39.729144,29.156218 41.416804,28.823158 43.171284,28.823158 C44.903404,28.823158 46.591324,29.134118 48.212424,29.778138 C49.855624,30.400058 51.299144,31.288218 52.542724,32.443138 C53.786304,33.597798 54.763644,34.908198 55.407404,36.395918 C56.051684,37.883898 56.384744,39.460538 56.384744,41.148458 L56.384744,41.148458 Z M43.149184,48.987718 C45.391944,48.987718 47.257444,48.232418 48.723064,46.744698 C50.188684,45.256718 50.921624,43.391218 50.921624,41.148458 C50.921624,38.927538 50.188684,37.062298 48.700964,35.529858 C47.212984,34.019778 45.369844,33.264738 43.149184,33.264738 C40.906164,33.264738 39.040664,34.019778 37.552684,35.529858 C36.064964,37.039938 35.332024,38.905438 35.332024,41.148458 C35.332024,43.413578 36.064964,45.278818 37.508224,46.766798 C38.996204,48.254778 40.861704,48.987718 43.149184,48.987718 L43.149184,48.987718 Z M20.008924,52.829478 L25.294204,52.829478 L25.294204,29.356158 L20.008924,29.356158 L20.008924,52.829478 Z M2.775864,52.829478 L2.775864,29.356158 L8.083504,29.356158 L8.083504,48.565738 L16.566784,48.565738 L16.566784,52.829478 L2.775864,52.829478 Z M129.047464,2.218658 C133.111524,3.529058 133.999684,7.037758 132.600624,8.636758 C131.823484,9.524918 130.935064,10.057918 128.891984,11.323858 C126.848904,12.589538 126.049404,13.255918 125.405384,13.744458 C124.761364,14.255098 124.406204,14.943578 125.805004,14.566058 C125.938384,14.521598 134.532684,12.678458 135.643144,12.100998 C137.508384,11.123918 138.041384,10.457538 138.330244,9.191858 C138.618844,7.925918 136.686784,5.838638 135.776264,4.817098 C133.955224,2.707198 129.580464,0.530998 129.380524,0.508638 C127.181964,-0.224042 124.494864,0.375518 122.296304,0.486538 C122.052164,0.486538 122.140824,0.864058 122.274204,0.952978 C124.250724,2.307578 126.648964,1.663558 129.047464,2.218658 L129.047464,2.218658 Z M117.321984,26.713518 C117.277524,27.046578 117.610584,26.735618 117.877084,26.358098 C118.143584,25.958478 119.209584,24.203998 120.941704,21.228298 C122.673824,18.252598 123.695364,15.698618 123.606704,15.632058 C123.495684,15.565498 123.251284,15.809638 122.984784,16.009578 C122.696184,16.209518 122.140824,16.764618 121.674644,17.364178 C121.208204,17.963738 120.808584,17.897178 120.209024,18.030298 C119.609204,18.163678 118.521104,19.340698 117.899444,19.851338 C117.277524,20.339878 116.433564,20.850778 115.656424,20.961798 C114.812464,21.094918 114.679344,20.717398 114.323924,20.784218 C113.968504,20.850778 113.990864,21.428238 114.101884,21.850218 C114.235004,22.249838 114.123984,22.449778 114.057424,23.160358 C113.990864,23.893298 114.501504,24.581518 114.923484,25.003498 C115.345464,25.403378 115.212344,26.047398 115.500944,26.269438 C115.789544,26.491478 115.878464,25.025858 115.878464,24.115338 C115.878464,23.226918 115.678524,22.338758 115.700884,22.205378 C115.745344,22.072258 116.455924,21.872318 116.788984,21.650278 C117.144144,21.428238 117.966004,20.828678 118.365624,20.628738 C118.787604,20.428798 118.787604,20.584278 118.676584,20.806318 C118.565564,21.050718 118.343524,21.405878 117.899444,21.783398 C117.433004,22.183278 116.344904,22.471878 116.100504,22.494238 C115.856364,22.516338 115.878464,22.716278 116.122864,22.915958 C116.367004,23.093798 116.966564,23.093798 117.499564,22.960418 C118.032564,22.804938 117.966004,23.515778 117.899444,24.270818 C117.832624,25.025858 117.388544,26.380458 117.321984,26.713518 L117.321984,26.713518 Z M104.463684,28.223598 C104.930124,28.579018 105.818544,30.222218 105.707524,29.955718 C105.596504,29.689218 106.062684,28.179138 105.063504,26.313898 C104.041964,24.448398 103.731004,23.759918 103.286924,21.894418 C102.842584,20.006818 102.043084,18.474638 103.375584,17.319718 C104.730444,16.165058 105.774084,14.499498 106.196064,12.722918 C106.618044,10.946338 108.061304,9.547278 109.660304,7.615218 C111.259304,5.683158 111.570264,5.394298 111.570264,5.394298 C111.192744,5.905198 110.437704,7.970378 110.104644,9.058738 C109.749224,10.146838 108.017104,12.522978 107.217604,13.788918 C106.440204,15.054598 104.641524,17.497558 104.486044,19.784778 C104.352664,22.072258 106.218164,24.781458 106.507024,25.780898 C106.773524,26.780078 106.129244,29.600558 106.817724,31.621278 C107.484104,33.642258 109.393804,35.507758 109.749224,35.751898 C110.082284,35.996298 110.015724,35.751898 109.904704,35.618778 C109.793684,35.485398 109.571644,35.285718 109.105204,34.308378 C108.638764,33.353658 108.860804,32.265298 109.171764,30.799678 C109.504824,29.334058 109.660304,28.157038 109.527184,26.691418 C109.393804,25.225538 108.217044,22.738378 107.861624,21.228298 C107.506204,19.718218 108.416724,18.230238 109.949164,15.654158 C111.459244,13.055978 111.681284,10.879518 111.881224,9.280778 C112.080904,7.681778 112.969324,5.394298 115.367564,4.395118 C116.766884,3.817658 120.653104,4.617158 122.674084,5.882838 C124.095244,6.837818 124.805824,7.726238 125.005764,8.747778 C125.249904,9.946898 124.517224,10.768498 124.072884,11.923418 C123.628804,13.100438 123.317844,14.455038 123.828744,14.388478 C124.272824,14.344018 129.491544,9.946898 130.668564,8.680958 C131.246024,8.037198 132.023424,6.415838 130.912964,4.972318 C129.957984,3.706638 123.162364,3.151538 121.852224,1.330498 C120.697564,-0.290602 117.677404,-0.201942 116.788984,0.397618 C115.967384,0.952978 114.168444,2.463058 112.414224,3.062618 C110.659744,3.662178 108.860804,3.950778 106.484664,5.150158 C104.108524,6.371638 104.219544,7.770698 103.953044,8.792238 C103.686544,9.813778 103.508964,12.567438 101.576904,15.521038 C99.622744,18.474638 100.755304,20.495358 101.710024,23.493418 C102.642904,26.424918 103.997504,27.868178 104.463684,28.223598 L104.463684,28.223598 Z M131.223924,47.788338 C127.204324,52.940498 120.431064,52.718458 115.811904,54.583958 C110.415344,56.738058 106.729064,60.557718 105.774084,61.512698 C104.108524,63.155898 102.020984,62.733918 100.888424,62.667358 C99.755864,62.600798 98.667764,62.023338 98.201324,61.934678 C97.734884,61.845758 96.668884,61.956778 96.668884,61.956778 C96.668884,61.956778 96.713344,61.445878 97.090864,61.179378 C97.490744,60.935238 98.290244,60.846318 99.711404,60.557718 C101.132564,60.269118 102.220924,59.513818 102.776024,59.136298 C103.353484,58.758778 102.975964,58.647758 102.598444,58.736678 C102.243024,58.825598 101.088364,59.269678 99.111844,59.558278 C97.135324,59.847138 96.491304,59.691658 95.736264,60.224658 C94.959124,60.735298 95.136704,62.045698 94.959124,62.400858 C94.781284,62.778378 94.648164,62.867298 94.381664,62.622898 C94.137264,62.400858 94.026244,61.512698 94.204084,60.779758 C94.403764,60.046818 95.558684,59.447258 96.646784,59.203118 C97.734884,58.958718 100.044464,58.803238 102.553984,57.470738 C109.971264,53.540058 113.235824,50.586458 119.787044,45.523218 C126.759984,40.149018 132.978144,37.173318 137.885904,34.797178 C140.906324,33.331298 149.855784,32.243198 149.855784,32.243198 C149.855784,32.243198 148.567744,31.377138 147.235244,31.221658 C146.436004,31.132738 145.658604,31.110638 144.903564,31.132738 C146.125044,30.466618 149.234124,28.068118 149.700304,24.981398 C150.299864,20.850778 144.814644,17.430738 144.748084,13.677898 C144.570504,4.928118 135.776264,3.684538 136.176144,3.928678 C137.819344,4.950218 139.529364,6.926738 139.840324,8.059298 C140.417784,10.124478 138.663304,12.367498 136.109324,13.233558 C134.888104,13.633438 128.136944,15.121158 127.248524,16.031678 C126.338264,16.942198 128.203504,21.716838 127.004384,23.648898 C125.805264,25.580958 119.098564,28.889978 118.299064,29.822598 C117.499564,30.755218 116.655604,30.466618 116.367004,30.444518 C116.078404,30.422158 116.322544,30.777578 117.144144,30.955158 C117.966004,31.132738 119.387164,30.644198 120.209024,30.200118 C121.030624,29.733678 122.185284,30.710758 122.140824,31.355038 C122.074264,31.976698 121.297124,32.154278 119.787044,33.109258 C118.587664,33.864298 115.167884,31.732558 114.879024,31.021718 C114.590424,30.311138 115.589864,30.555538 116.211524,29.778138 C116.833444,29.023098 115.745344,28.889978 115.367564,29.023098 C114.967944,29.134118 114.745904,28.934178 114.346024,28.823158 C113.946404,28.712138 113.435764,28.823158 113.191364,29.112018 C112.946964,29.400618 113.191364,29.622658 112.258744,29.733678 C111.325864,29.844698 111.747844,28.712138 111.947784,27.490918 C112.147464,26.269438 112.924864,23.026978 112.769384,22.627358 C112.613904,22.205378 112.591804,22.360858 112.258744,21.961238 C111.925424,21.561358 111.903324,20.850778 111.858864,19.696118 C111.836764,18.541198 111.925424,16.387098 111.925424,16.387098 C111.925424,16.387098 111.214844,17.430738 110.903884,19.274138 C110.593184,21.117278 111.881224,22.138818 111.903324,22.427418 C111.925424,22.716278 111.858864,23.382398 111.303764,26.646958 C110.726304,29.911518 111.436884,30.533178 112.147464,31.110638 C112.858304,31.688098 116.033944,33.331298 116.033944,33.331298 L115.967384,34.797178 C115.967384,34.797178 114.390484,35.307818 112.902504,36.284898 C111.414784,37.239878 110.859684,38.971998 110.748664,39.549458 C110.637384,40.126918 110.948344,40.037998 110.948344,40.037998 C110.948344,40.037998 111.281404,39.682578 112.458424,38.772058 C113.613344,37.861798 116.167064,37.372998 116.478024,37.350898 C116.788984,37.328798 116.811084,37.439818 116.411464,37.728418 C116.011844,38.017278 114.967944,38.772058 112.724924,40.437618 C110.481904,42.125538 110.171204,44.213078 110.171204,44.701618 C110.171204,45.168058 110.481904,44.790538 110.481904,44.790538 C110.481904,44.790538 110.792864,44.079698 111.570264,43.369118 C112.325304,42.658538 114.057424,42.236558 115.989484,41.925598 C117.921544,41.614638 118.232504,41.126098 118.832064,40.237938 C119.431624,39.371878 121.052724,37.728418 121.385784,37.506378 C121.719104,37.306438 121.807764,37.417458 121.608084,37.572938 C121.408144,37.728418 121.297124,37.839438 120.275584,38.927538 C119.254044,40.037998 119.076204,41.348138 119.076204,41.348138 C119.076204,41.348138 119.631564,40.570998 120.897244,39.704938 C122.140824,38.816518 125.183344,37.839438 125.982844,37.639498 C126.759984,37.439818 126.715784,37.550838 126.582404,37.661858 C126.449284,37.772878 126.360364,37.794978 125.471944,38.261418 C124.605884,38.705498 121.496804,40.548898 117.433004,43.569058 C113.280284,46.655778 109.882344,50.208938 106.529124,52.696358 C103.198004,55.161418 100.688484,56.271618 99.378344,56.493658 C98.068204,56.715698 96.535764,55.960658 94.603704,55.871998 C92.671644,55.783078 91.383604,57.093218 91.183664,57.382078 C90.983984,57.670678 90.983984,57.915078 91.161564,57.892718 C91.339144,57.870618 91.650104,57.515198 91.938704,57.515198 C92.227564,57.515198 92.205464,57.693038 92.205464,57.693038 C92.205464,57.693038 92.072084,57.759598 91.516984,58.026098 C90.983984,58.314698 90.162124,59.114198 89.762504,60.335678 C89.362884,61.534798 90.295504,63.355838 90.295504,63.355838 C90.295504,63.355838 90.895064,63.355838 91.716664,63.711258 C92.538524,64.044318 93.071524,64.266358 93.471144,64.510498 C93.871024,64.732798 94.270644,64.799358 95.092244,64.577318 C95.913844,64.332918 97.601764,64.332918 98.756424,64.399478 C99.911344,64.443938 104.441584,65.554398 107.350724,63.666798 C116.433564,55.694158 125.938384,56.382638 129.358424,55.161418 C136.353724,52.607438 135.198804,43.147078 147.524104,44.590598 C146.924544,43.169178 137.286344,40.060098 131.223924,47.788338 Z M143.371384,29.955718 C146.102684,27.224418 146.524664,24.337378 146.658044,23.137998 C147.168684,25.736438 145.703064,29.445078 144.503944,31.155098 C143.482404,31.199298 142.505064,31.332678 141.594544,31.488158 C142.283024,31.110638 142.727104,30.599738 143.371384,29.955718 L143.371384,29.955718 Z M141.994424,21.183838 C144.170624,24.914838 141.172824,29.156218 140.528804,29.756038 C139.995804,30.266678 138.907704,30.844138 138.174764,31.221658 C139.484904,30.022538 140.684284,28.512458 141.039444,26.735878 C141.372504,24.936938 140.817404,23.137998 139.884784,21.139378 C139.706944,20.761858 136.398184,15.876198 136.109584,15.609698 C136.642324,15.676518 140.883964,18.696678 141.994424,21.183838 L141.994424,21.183838 Z M131.712464,17.186598 C131.579084,16.875638 135.243264,23.782278 134.510584,26.824538 C133.355664,31.665738 129.025364,34.996858 129.025364,34.996858 C129.025364,34.996858 131.090544,31.044078 131.401504,30.333238 C131.712464,29.622658 133.777644,22.427418 131.712464,17.186598 L131.712464,17.186598 Z M123.784284,30.910698 C125.161244,30.111198 129.158484,23.826478 129.313964,24.159798 C129.447344,24.492858 129.669384,26.224978 129.247404,27.446458 C128.669944,29.067558 123.784284,30.910698 123.784284,30.910698 L123.784284,30.910698 Z M91.961064,61.046258 C91.739024,61.601358 90.983984,60.713198 91.206024,60.091278 C91.272584,59.913698 92.183104,57.892718 94.204084,58.314698 C94.781284,58.448078 92.693744,59.247318 91.961064,61.046258 L91.961064,61.046258 Z M121.319224,10.368878 C121.830124,11.079458 121.363684,13.344578 121.941144,13.278018 C122.496244,13.211458 124.406204,9.502818 123.784284,8.214778 C123.140264,6.926738 118.632124,5.438758 117.854984,5.394298 C114.790364,5.216718 113.901944,7.659678 113.546784,9.613838 C113.391304,10.501998 110.481904,16.853538 110.615284,16.653598 L116.633504,9.835878 C117.655044,8.814338 120.564184,9.324978 121.319224,10.368878 L121.319224,10.368878 Z" id="Fill-1"></path>
                    <path d="M86.697858,24.226306 L88.718838,22.072206 C88.962978,22.671766 89.384958,23.138206 89.940058,23.471266 C90.495418,23.804326 91.139438,23.981906 91.850018,23.981906 C92.693978,23.981906 93.360098,23.782226 93.870998,23.404706 C94.359538,23.027186 94.603678,22.516286 94.603678,21.872266 C94.603678,21.117226 93.782078,20.362186 92.138618,19.607146 C91.605618,19.362746 91.183638,19.163066 90.872938,19.007586 C89.384958,18.274646 88.363418,17.564066 87.785958,16.875586 C87.208758,16.187106 86.919898,15.343406 86.919898,14.388426 C86.919898,13.055926 87.475258,11.989926 88.585458,11.123866 C89.695918,10.279906 91.139438,9.858186 92.893658,9.858186 C93.915198,9.858186 94.803618,10.035766 95.558658,10.368826 C96.291338,10.701886 96.957718,11.234886 97.535178,11.967826 L95.380818,13.899886 C95.136678,13.433446 94.781258,13.078286 94.359538,12.855986 C93.937558,12.633946 93.426658,12.500826 92.827098,12.500826 C92.116518,12.500826 91.539058,12.678406 91.094978,13.011466 C90.650898,13.344526 90.428598,13.788866 90.428598,14.321866 C90.428598,15.165566 91.294658,15.942966 93.049138,16.653546 C93.404558,16.786926 93.671058,16.897946 93.848638,16.986606 C95.292158,17.608526 96.358158,18.319106 97.046378,19.096506 C97.734858,19.873646 98.090278,20.762066 98.090278,21.761246 C98.090278,23.271326 97.557278,24.470706 96.469178,25.358866 C95.380818,26.247286 93.937558,26.691366 92.094158,26.691366 C90.806378,26.691366 89.673558,26.469326 88.763038,26.047346 C87.852518,25.647466 87.164298,25.025806 86.697858,24.226306 L86.697858,24.226306 Z M74.239438,26.269386 L74.239438,10.235706 L84.232798,10.235706 L84.232798,13.122486 L77.881518,13.122486 L77.881518,16.431506 L84.232798,16.431506 L84.232798,19.340646 L77.881518,19.340646 L77.881518,23.360246 L84.232798,23.360246 L84.232798,26.269386 L74.239438,26.269386 Z M54.474758,26.269386 L54.474758,10.235706 L58.250218,10.235706 L65.756158,19.562686 C65.978198,19.829186 66.200498,20.206706 66.466738,20.673146 C66.733238,21.161686 66.999998,21.716786 67.266238,22.360806 C67.177578,21.894626 67.111018,21.405826 67.088658,20.939646 C67.044198,20.473206 67.022098,19.895746 67.022098,19.185166 L67.022098,10.235706 L70.486338,10.235706 L70.486338,26.269386 L66.933178,26.269386 L59.227298,16.764566 C59.005258,16.498066 58.782958,16.120546 58.516718,15.654366 C58.272318,15.165566 57.983718,14.610466 57.717218,13.944346 C57.805878,14.410526 57.872698,14.876966 57.894798,15.343406 C57.939258,15.809586 57.961358,16.409146 57.961358,17.119986 L57.961358,26.269386 L54.474758,26.269386 Z M34.687978,26.269386 L34.687978,10.235706 L38.441078,10.235706 L45.947278,19.562686 C46.169318,19.829186 46.391358,20.206706 46.657858,20.673146 C46.924358,21.161686 47.190858,21.716786 47.457358,22.360806 C47.368438,21.894626 47.301878,21.405826 47.279778,20.939646 C47.235318,20.473206 47.212958,19.895746 47.212958,19.185166 L47.212958,10.235706 L50.677458,10.235706 L50.677458,26.269386 L47.124298,26.269386 L39.418158,16.764566 C39.196118,16.498066 38.974078,16.120546 38.707578,15.654366 C38.441078,15.165566 38.174578,14.610466 37.885978,13.944346 C37.974638,14.410526 38.041458,14.876966 38.063558,15.343406 C38.108018,15.809586 38.130118,16.409146 38.130118,17.119986 L38.130118,26.269386 L34.687978,26.269386 Z M15.745158,26.269386 L22.185358,10.235706 L26.338078,10.235706 L32.889298,26.269386 L28.758678,26.269386 L27.381718,22.871706 L20.830498,22.871706 L19.653478,26.269386 L15.745158,26.269386 Z M26.537758,20.162246 L24.650158,14.987986 C24.605958,14.832506 24.517038,14.566006 24.450478,14.188486 C24.361558,13.810966 24.272638,13.366886 24.183978,12.811786 C24.095058,13.322426 23.984038,13.788866 23.895118,14.210846 C23.806458,14.632566 23.739898,14.899066 23.695438,15.032446 L21.874398,20.140146 L26.537758,20.162246 Z M14.390558,14.410526 C13.657618,13.788866 12.902578,13.344526 12.125178,13.055926 C11.348038,12.767326 10.526178,12.633946 9.638018,12.633946 C7.839338,12.633946 6.395818,13.144846 5.307458,14.166386 C4.241718,15.187926 3.708718,16.564626 3.708718,18.274646 C3.708718,19.962566 4.197258,21.294806 5.196438,22.294246 C6.195878,23.293686 7.550478,23.782226 9.282858,23.782226 C10.259938,23.782226 11.170458,23.626746 12.014158,23.315786 C12.858118,23.004826 13.635258,22.538646 14.346098,21.916726 L14.323738,25.425426 C13.546598,25.847406 12.747098,26.180466 11.903138,26.380406 C11.059438,26.580346 10.171018,26.691366 9.238398,26.691366 C6.528938,26.691366 4.308278,25.891866 2.576158,24.315226 C0.866138,22.738326 7.8e-05,20.717606 7.8e-05,18.274646 C7.8e-05,15.831946 0.866138,13.833326 2.598258,12.234326 C4.330378,10.657426 6.573398,9.858186 9.304958,9.858186 C10.215478,9.858186 11.103638,9.946846 11.969698,10.124686 C12.836018,10.302266 13.679718,10.590866 14.501578,10.968386 L14.390558,14.410526 Z M88.230298,49.853726 L91.183638,46.700186 C91.561418,47.566246 92.160978,48.254726 92.982578,48.743266 C93.804178,49.231806 94.737058,49.498306 95.758598,49.498306 C97.002178,49.498306 97.979258,49.209706 98.711938,48.654606 C99.444878,48.099246 99.800298,47.344206 99.800298,46.411586 C99.800298,45.301126 98.600918,44.190666 96.180318,43.102566 C95.403178,42.747406 94.781258,42.458546 94.337178,42.236506 C92.160978,41.170506 90.672998,40.126866 89.829038,39.105326 C88.985338,38.083786 88.563358,36.862306 88.563358,35.463246 C88.563358,33.531186 89.384958,31.932186 91.006058,30.688606 C92.627158,29.445026 94.737058,28.823366 97.313138,28.823366 C98.822958,28.823366 100.111258,29.067506 101.199358,29.578406 C102.287458,30.066946 103.264538,30.844086 104.086398,31.910086 L100.954958,34.752666 C100.577438,34.064186 100.088898,33.553546 99.467238,33.220226 C98.845318,32.887166 98.112378,32.709586 97.246318,32.709586 C96.202678,32.709586 95.358718,32.953726 94.692598,33.464626 C94.048578,33.953166 93.737618,34.597186 93.737618,35.396686 C93.737618,36.640266 95.025658,37.772826 97.579638,38.794366 C98.090278,38.994306 98.467798,39.149786 98.756398,39.282906 C100.866298,40.193426 102.420838,41.214966 103.420018,42.369886 C104.441558,43.502446 104.930098,44.812586 104.930098,46.278206 C104.930098,48.476766 104.130598,50.231246 102.553958,51.541386 C100.977318,52.851786 98.822958,53.495806 96.158218,53.495806 C94.270618,53.495806 92.627158,53.184846 91.272558,52.562926 C89.895858,51.918906 88.896418,51.008386 88.230298,49.853726 L88.230298,49.853726 Z" id="Fill-3"></path>
                </g>
            </g>
        </g>
    </g>
</svg>