<?xml version="1.0" encoding="UTF-8"?>
<svg width="193px" height="131px" viewBox="0 0 193 131" version="1.1" xmlns="http://www.w3.org/2000/svg" xmlns:xlink="http://www.w3.org/1999/xlink">
    <!-- Generator: Sketch 61.2 (89653) - https://sketch.com -->
    <title>Group 47</title>
    <desc>Created with Sketch.</desc>
    <defs>
        <polygon id="path-1" points="0 0.0200074074 35.92256 0.0200074074 35.92256 36.7258985 0 36.7258985"></polygon>
        <polygon id="path-3" points="0.0188288889 0.0200348148 35.605703 0.0200348148 35.605703 36.7259259 0.0188288889 36.7259259"></polygon>
        <polygon id="path-5" points="0.250065185 0.0201444444 36.17268 0.0201444444 36.17268 36.7259259 0.250065185 36.7259259"></polygon>
        <polygon id="path-7" points="0.268948889 0.0201992593 35.9676452 0.0201992593 35.9676452 36.7259259 0.268948889 36.7259259"></polygon>
        <polygon id="path-9" points="0.0640511111 0.0201444444 36.4342289 0.0201444444 36.4342289 36.7259259 0.0640511111 36.7259259"></polygon>
    </defs>
    <g id="Welcome" stroke="none" stroke-width="1" fill="none" fill-rule="evenodd">
        <g id="About" transform="translate(-504.000000, -6012.000000)">
            <g id="Group-47" transform="translate(504.250000, 6012.500000)">
                <rect id="Rectangle-Copy-33" fill="#000000" x="0" y="0" width="192" height="130"></rect>
                <g id="Group-30" transform="translate(7.750000, 45.500000)">
                    <g id="Group-3" transform="translate(0.000000, 0.254067)">
                        <mask id="mask-2" fill="white">
                            <use xlink:href="#path-1"></use>
                        </mask>
                        <g id="Clip-2"></g>
                        <path d="M2.64558222,5.78101704 C4.24809333,13.2432319 5.68478963,20.7454615 7.22919704,28.2208319 C7.51121926,29.1162319 7.33663407,30.2977652 8.20517481,30.8977133 C9.77178222,31.1484911 11.3789526,31.0857281 12.9589896,30.9785652 C13.8184859,31.0051504 14.0243156,29.993543 14.1810859,29.3445356 C15.2598415,24.0222911 16.4326044,18.7175874 17.5069748,13.395343 C17.5919378,12.9028319 17.7440489,12.4237504 17.9770119,11.9808467 C19.3153156,17.6925504 20.4209304,23.4535874 21.6655007,29.18338 C21.8357007,29.7920985 21.8713304,30.5441578 22.4712785,30.9155281 C24.1812267,31.1216319 25.9358489,31.1394467 27.6414119,30.9020985 C28.2545156,30.5397726 28.2860341,29.7920985 28.4428044,29.1743356 C30.0228415,21.3810393 31.4954415,13.5564985 33.1651007,5.78101704 C31.656597,5.79006148 30.1524785,5.7856763 28.64836,5.7856763 C27.4490119,12.5670911 26.4864637,19.3934541 25.1613156,26.1526689 C23.6709007,20.4184911 22.672723,14.5456319 21.3744341,8.75773556 C21.0789822,7.76860222 21.2132785,6.32697259 20.1301378,5.82569111 C18.8049896,5.74511333 17.4710711,5.74100222 16.146197,5.82569111 C15.3941378,5.88845407 15.2239378,6.77946889 15.0762119,7.37009852 C13.8765896,13.1086615 12.6188637,18.8340689 11.4458267,24.5726319 C11.32496,25.1054319 11.1459896,25.6157578 10.9445452,26.1214244 C9.74053778,19.3578244 8.59901926,12.5761356 7.56055259,5.7856763 C5.92213778,5.78101704 4.28399704,5.79006148 2.64558222,5.78101704 L2.64558222,5.78101704 Z M-5.48148148e-05,36.7258985 L35.92256,36.7258985 L35.92256,0.01998 L-5.48148148e-05,0.01998 L-5.48148148e-05,36.7258985 Z" id="Fill-1" fill="#000000" mask="url(#mask-2)"></path>
                    </g>
                    <g id="Group-6" transform="translate(35.903704, 0.254067)">
                        <mask id="mask-4" fill="white">
                            <use xlink:href="#path-3"></use>
                        </mask>
                        <g id="Clip-5"></g>
                        <path d="M9.13261407,5.53933852 C9.11479926,7.04318296 9.11479926,8.5429163 9.13261407,10.0470348 C11.178303,10.0604644 13.2239919,10.05142 15.2696807,10.05142 C15.2606363,15.597583 15.2606363,21.1481311 15.2696807,26.6945681 C13.2239919,26.6945681 11.178303,26.6855237 9.13261407,26.6989533 C9.11479926,28.2027978 9.11479926,29.7025311 9.13727333,31.2063756 C14.9205104,31.2200793 20.7040215,31.2200793 26.4872585,31.2063756 C26.5097326,29.7071904 26.5053474,28.2027978 26.496303,26.7036126 C24.4462289,26.6855237 22.40054,26.6945681 20.3548511,26.6945681 C20.3638956,21.1481311 20.3638956,15.597583 20.3548511,10.05142 C22.40054,10.05142 24.4462289,10.0604644 26.4919178,10.0470348 C26.5097326,8.5429163 26.5097326,7.03907185 26.4872585,5.53933852 C20.7040215,5.52590889 14.9205104,5.52590889 9.13261407,5.53933852 L9.13261407,5.53933852 Z M0.0188288889,36.7259533 L35.605703,36.7259533 L35.605703,0.0200348148 L0.0188288889,0.0200348148 L0.0188288889,36.7259533 Z" id="Fill-4" fill="#FFFFFF" mask="url(#mask-4)"></path>
                    </g>
                    <g id="Group-9" transform="translate(71.259259, 0.254067)">
                        <mask id="mask-6" fill="white">
                            <use xlink:href="#path-5"></use>
                        </mask>
                        <g id="Clip-8"></g>
                        <path d="M8.36567259,5.78556667 L8.36567259,30.9603667 L13.3434059,30.9603667 L13.3434059,21.1126111 C16.0427615,21.1213815 18.741843,21.0989074 21.4411985,21.1167222 C22.4259467,21.0229889 23.5987096,21.7257148 23.5762356,22.8088556 C23.7017615,25.5306852 23.9344504,28.2431963 24.1043763,30.9603667 C25.6846874,30.9603667 27.2603393,30.9603667 28.8406504,30.9647519 C28.3928133,27.8852556 28.9434281,24.7024333 28.0751615,21.6854259 C27.6273244,20.1053889 25.8817467,19.7515593 24.5206948,19.3579889 C25.5325763,18.8208037 26.8305911,18.7714704 27.5648356,17.7864481 C28.6301615,16.4344407 28.70608,14.6304852 28.7107393,12.9835741 C28.6929244,11.0584778 28.7375985,8.94152963 27.5155022,7.32531481 C26.5397985,5.98262593 24.7130948,5.78556667 23.1823911,5.78556667 C18.2449467,5.78090741 13.303117,5.78556667 8.36567259,5.78556667 L8.36567259,5.78556667 Z M0.250065185,36.726063 L36.17268,36.726063 L36.17268,0.0201444444 L0.250065185,0.0201444444 L0.250065185,36.726063 Z" id="Fill-7" fill="#000000" mask="url(#mask-6)"></path>
                    </g>
                    <g id="Group-12" transform="translate(107.162963, 0.254067)">
                        <mask id="mask-8" fill="white">
                            <use xlink:href="#path-7"></use>
                        </mask>
                        <g id="Clip-11"></g>
                        <path d="M6.68803778,5.54388815 C6.67022296,7.03896222 6.67022296,8.53842148 6.67899333,10.0334956 C7.82051185,10.0559696 8.96203037,10.0559696 10.1035489,10.0471993 C10.1257489,15.5977474 10.1257489,21.1482956 10.1035489,26.6991178 C8.96203037,26.6897993 7.82489704,26.6897993 6.68365259,26.703503 C6.67022296,28.2029622 6.6655637,29.7024215 6.68803778,31.2021548 C13.8860452,31.2243548 21.0793933,31.2243548 28.2774007,31.2021548 C28.3133044,28.2342067 28.2908304,25.2665326 28.2908304,22.2988585 C26.7286081,22.2851548 25.1663859,22.2851548 23.6041637,22.3029696 C23.5997785,23.7667993 23.5997785,25.2306289 23.6041637,26.6944585 C20.7570822,26.6991178 17.9102748,26.6763696 15.0631933,26.7078881 C15.0185193,24.5100881 15.0497637,22.3076289 15.0409933,20.1098289 L21.7555341,20.1098289 L21.7555341,15.8260511 L15.0409933,15.8260511 C15.0409933,13.9009548 15.0363341,11.9764067 15.0453785,10.0513104 C17.8206526,10.0559696 20.5915415,10.0559696 23.3668156,10.0513104 C23.3577711,11.3317844 23.3577711,12.6119844 23.3624304,13.8968437 L27.9685193,13.8968437 C27.9641341,11.1122511 27.9731785,8.32793259 27.9641341,5.54388815 C20.8691785,5.52141407 13.7786081,5.52141407 6.68803778,5.54388815 L6.68803778,5.54388815 Z M0.268948889,36.7261178 L35.9676452,36.7261178 L35.9676452,0.0201992593 L0.268948889,0.0201992593 L0.268948889,36.7261178 Z" id="Fill-10" fill="#FFFFFF" mask="url(#mask-8)"></path>
                    </g>
                    <g id="Group-15" transform="translate(143.066667, 0.254067)">
                        <mask id="mask-10" fill="white">
                            <use xlink:href="#path-9"></use>
                        </mask>
                        <g id="Clip-14"></g>
                        <path d="M8.17965852,5.78556667 L8.17965852,30.9603667 C12.3650437,30.9513222 16.5457696,30.9784556 20.7311548,30.946937 C23.3096437,30.8976037 26.3132215,30.4187963 27.8666733,28.1089 C29.6793993,25.2083741 29.4064215,21.6585667 29.7240733,18.3863963 C29.4020363,15.1098407 29.6884437,11.5466037 27.8666733,8.63675926 C26.4206585,6.47486296 23.6541548,5.90615926 21.2236659,5.81681111 C16.8771252,5.74527778 12.5261993,5.80338148 8.17965852,5.78556667 L8.17965852,5.78556667 Z M0.0640511111,36.726063 L36.4342289,36.726063 L36.4342289,0.0201444444 L0.0640511111,0.0201444444 L0.0640511111,36.726063 Z" id="Fill-13" fill="#000000" mask="url(#mask-10)"></path>
                    </g>
                    <path d="M45.0363178,5.79340519 C50.8242141,5.77997556 56.6077252,5.77997556 62.3909622,5.79340519 C62.4134363,7.29313852 62.4134363,8.79698296 62.3956215,10.3011015 C60.3499326,10.3145311 58.3042437,10.3054867 56.2585548,10.3054867 C56.2675993,15.8516496 56.2675993,21.4021978 56.2585548,26.9486348 C58.3042437,26.9486348 60.3499326,26.9395904 62.4000067,26.9576793 C62.4090511,28.4568644 62.4134363,29.961257 62.3909622,31.4604422 C56.6077252,31.4741459 50.8242141,31.4741459 45.040977,31.4604422 C45.018503,29.9565978 45.018503,28.4568644 45.0363178,26.95302 C47.0820067,26.9395904 49.1276956,26.9486348 51.1733844,26.9486348 C51.16434,21.4021978 51.16434,15.8516496 51.1733844,10.3054867 C49.1276956,10.3054867 47.0820067,10.3145311 45.0363178,10.3011015 C45.018503,8.79698296 45.018503,7.29724963 45.0363178,5.79340519" id="Fill-16" fill="#000000"></path>
                    <path d="M113.851001,5.79795481 C120.941571,5.77548074 128.032141,5.77548074 135.127097,5.79795481 C135.136141,8.58199926 135.127097,11.3663178 135.131482,14.1509104 L130.525393,14.1509104 C130.520734,12.8660511 130.520734,11.5858511 130.529779,10.305377 C127.754504,10.3100363 124.983616,10.3100363 122.208341,10.305377 C122.199297,12.2304733 122.203956,14.1550215 122.203956,16.0801178 L128.918497,16.0801178 L128.918497,20.3638956 L122.203956,20.3638956 C122.212727,22.5616956 122.181482,24.7641548 122.226156,26.9619548 C125.073238,26.9304363 127.920045,26.9531844 130.767127,26.9485252 C130.762741,25.4846956 130.762741,24.0208659 130.767127,22.5570363 C132.329349,22.5392215 133.891571,22.5392215 135.453793,22.5529252 C135.453793,25.5205993 135.476267,28.4882733 135.440364,31.4562215 C128.242356,31.4784215 121.049008,31.4784215 113.851001,31.4562215 C113.828527,29.9564881 113.833186,28.4570289 113.846616,26.9575696 C114.98786,26.9438659 116.124993,26.9438659 117.266512,26.9531844 C117.288712,21.4023622 117.288712,15.8518141 117.266512,10.3012659 C116.124993,10.3100363 114.983475,10.3100363 113.841956,10.2875622 C113.833186,8.79248815 113.833186,7.29302889 113.851001,5.79795481" id="Fill-18" fill="#000000"></path>
                    <path d="M2.64558222,6.0350837 C4.28399704,6.04412815 5.92213778,6.0350837 7.56055259,6.03974296 C8.59901926,12.8302022 9.74053778,19.6118911 10.9445452,26.3754911 C11.1459896,25.8698244 11.32496,25.3594985 11.4458267,24.8266985 C12.6188637,19.0881356 13.8765896,13.3627281 15.0762119,7.62416519 C15.2239378,7.03353556 15.3941378,6.14252074 16.146197,6.07975778 C17.4710711,5.99506889 18.8049896,5.99918 20.1301378,6.07975778 C21.2132785,6.58103926 21.0789822,8.02266889 21.3744341,9.01180222 C22.672723,14.7996985 23.6709007,20.6725578 25.1613156,26.4067356 C26.4864637,19.6475207 27.4490119,12.8211578 28.64836,6.03974296 C30.1524785,6.03974296 31.656597,6.04412815 33.1651007,6.0350837 C31.4954415,13.8105652 30.0228415,21.6351059 28.4428044,29.4284022 C28.2860341,30.0461652 28.2545156,30.7938393 27.6414119,31.1561652 C25.9358489,31.3935133 24.1812267,31.3756985 22.4712785,31.1695948 C21.8713304,30.7982244 21.8357007,30.0461652 21.6655007,29.4374467 C20.4209304,23.7076541 19.3153156,17.946617 17.9770119,12.2349133 C17.7440489,12.677817 17.5919378,13.1568985 17.5069748,13.6494096 C16.4326044,18.9716541 15.2598415,24.2763578 14.1810859,29.5986022 C14.0243156,30.2476096 13.8184859,31.259217 12.9589896,31.2326319 C11.3789526,31.3397948 9.77178222,31.4025578 8.20517481,31.15178 C7.33663407,30.5518319 7.51121926,29.3702985 7.22919704,28.4748985 C5.68478963,20.9995281 4.24809333,13.4972985 2.64558222,6.0350837" id="Fill-20" fill="#FFFFFF"></path>
                    <path d="M84.6026926,10.1756578 L84.6026926,17.4676726 C87.5794111,17.4273837 90.5651741,17.5572948 93.5375074,17.4049096 C95.1353593,17.3109022 95.1578333,15.3904652 95.2205963,14.190843 C95.171263,12.8703541 95.4173815,11.1157319 94.1865148,10.2428059 C90.9993074,10.0772652 87.7986704,10.2249911 84.6026926,10.1756578 M79.6249593,6.03960593 C84.5624037,6.03960593 89.5042333,6.03522074 94.4416778,6.03960593 C95.9723815,6.03960593 97.7988111,6.23666519 98.7747889,7.57935407 C99.9966111,9.19556889 99.951937,11.312517 99.9700259,13.2376133 C99.9653667,14.8847985 99.8891741,16.6887541 98.8241222,18.0404874 C98.0898778,19.0255096 96.791863,19.074843 95.7799815,19.6120281 C97.1410333,20.0055985 98.8866111,20.3594281 99.3341741,21.9394652 C100.202715,24.9567467 99.6521,28.1392948 100.099663,31.2187911 C98.5196259,31.21468 96.9439741,31.21468 95.363663,31.21468 C95.193737,28.4975096 94.9607741,25.7847244 94.8355222,23.0628948 C94.8579963,21.9797541 93.6852333,21.2770281 92.7002111,21.3710356 C90.0011296,21.3529467 87.3020481,21.3754207 84.6026926,21.3666504 L84.6026926,31.21468 L79.6249593,31.21468 L79.6249593,6.03960593" id="Fill-22" fill="#FFFFFF"></path>
                    <path d="M156.223949,10.1756578 L156.223949,27.0783541 C158.770919,27.0736948 161.31789,27.0827393 163.869519,27.0827393 C165.091616,27.1052133 166.57326,26.7829022 167.146349,25.5651911 C168.001186,23.6806578 167.790971,21.5590504 167.862504,19.5489911 C167.768497,17.0332652 168.126438,14.4103763 167.280371,11.993043 C166.899956,10.757517 165.525749,10.1712726 164.321467,10.1847022 C161.622386,10.157843 158.923304,10.1890874 156.223949,10.1756578 M151.246216,6.03960593 C155.592756,6.05769481 159.943682,5.99931704 164.290223,6.07085037 C166.720986,6.16047259 169.48749,6.72890222 170.93323,8.89107259 C172.755001,11.800643 172.468593,15.36388 172.790904,18.6404356 C172.472979,21.9126059 172.74623,25.4624133 170.93323,28.3629393 C169.379779,30.6728356 166.376201,31.151643 163.797986,31.2009763 C159.612601,31.2324948 155.431601,31.2053615 151.246216,31.21468 L151.246216,6.03960593" id="Fill-24" fill="#FFFFFF"></path>
                    <path d="M84.6026926,10.1756578 C87.7986704,10.2249911 90.9993074,10.0772652 94.1865148,10.2428059 C95.4173815,11.1157319 95.171263,12.8703541 95.2205963,14.190843 C95.1578333,15.3904652 95.1353593,17.3109022 93.5375074,17.4049096 C90.5651741,17.5572948 87.5794111,17.4273837 84.6026926,17.4676726 L84.6026926,10.1756578 Z" id="Fill-26" fill="#231F20"></path>
                    <path d="M156.223949,10.1756578 C158.923304,10.1890874 161.622386,10.157843 164.321467,10.1847022 C165.525749,10.1712726 166.899956,10.757517 167.280371,11.993043 C168.126438,14.4103763 167.768497,17.0332652 167.862504,19.5489911 C167.790971,21.5590504 168.001186,23.6806578 167.146349,25.5651911 C166.57326,26.7829022 165.091616,27.1052133 163.869519,27.0827393 C161.31789,27.0827393 158.770919,27.0736948 156.223949,27.0783541 L156.223949,10.1756578 Z" id="Fill-28" fill="#231F20"></path>
                </g>
            </g>
        </g>
    </g>
</svg>