<?xml version="1.0" encoding="UTF-8"?>
<svg width="159px" height="58px" viewBox="0 0 159 58" version="1.1" xmlns="http://www.w3.org/2000/svg" xmlns:xlink="http://www.w3.org/1999/xlink">
    <!-- Generator: Sketch 61.2 (89653) - https://sketch.com -->
    <title>Group 9</title>
    <desc>Created with Sketch.</desc>
    <defs>
        <polygon id="path-1" points="0.2262 0.0115079365 54.549 0.0115079365 54.549 57.5396825 0.2262 57.5396825"></polygon>
        <polygon id="path-3" points="0.0739730159 0.0115079365 47.9465286 0.0115079365 47.9465286 57.5396825 0.0739730159 57.5396825"></polygon>
    </defs>
    <g id="Welcome" stroke="none" stroke-width="1" fill="none" fill-rule="evenodd">
        <g id="About" transform="translate(-763.000000, -6048.000000)">
            <g id="Group-9" transform="translate(763.000000, 6048.000000)">
                <polygon id="Fill-1" fill="#FFFFFF" points="0 0.460363492 0 15.1734905 15.8984444 15.1734905 15.8984444 57.9885381 33.3725556 57.9885381 33.3725556 15.1734905 49.2944762 15.1734905 49.2944762 0.460363492"></polygon>
                <g id="Group-8" transform="translate(52.476190, 0.448810)">
                    <g id="Group-4" transform="translate(51.095238, 0.000000)">
                        <mask id="mask-2" fill="white">
                            <use xlink:href="#path-1"></use>
                        </mask>
                        <g id="Clip-3"></g>
                        <path d="M17.7003111,42.827154 L24.5475333,42.827154 C27.3218667,42.827154 29.526327,42.3143603 31.160454,41.2873921 C32.8203587,40.2618048 34.0788667,39.0249317 34.9341365,37.5776937 C35.7636286,36.0779794 36.3477714,34.5119794 36.6847238,32.8806143 C36.9438825,31.2225508 37.0736921,29.7495349 37.0736921,28.4592651 C37.0736921,27.4345984 36.9954381,26.1576778 36.8403111,24.6312651 C36.5806921,23.1315508 35.9712317,21.6318365 35.0119302,20.1316619 C34.1041841,18.6057095 32.7167873,17.3039317 30.8492794,16.2235667 C28.9822317,15.2242175 26.4661365,14.7243127 23.3023746,14.7243127 L17.7003111,14.7243127 L17.7003111,42.827154 Z M0.2262,0.0111857143 L28.9412635,0.0111857143 C38.3188508,0.169074603 44.9759619,3.11970952 48.9139778,8.86539206 C52.7226444,14.5581381 54.6012,21.1678365 54.5478032,28.6967889 C54.6812952,47.5587571 45.0058825,57.1724873 25.5220254,57.5398206 L0.2262,57.5398206 L0.2262,0.0111857143 Z" id="Fill-2" fill="#FFFFFF" mask="url(#mask-2)"></path>
                    </g>
                    <g id="Group-7">
                        <mask id="mask-4" fill="white">
                            <use xlink:href="#path-3"></use>
                        </mask>
                        <g id="Clip-6"></g>
                        <polygon id="Fill-5" fill="#FFFFFF" mask="url(#mask-4)" points="47.9465286 42.827154 17.5480841 42.827154 17.5480841 35.6227254 47.9465286 35.6227254 47.9465286 21.9287413 17.5480841 21.9287413 17.5480841 14.7243127 47.9465286 14.7243127 47.9465286 0.0111857143 0.0739730159 0.0111857143 0.0739730159 57.5398206 47.9465286 57.5398206"></polygon>
                    </g>
                </g>
            </g>
        </g>
    </g>
</svg>