<?xml version="1.0" encoding="UTF-8"?>
<svg width="193px" height="131px" viewBox="0 0 193 131" version="1.1" xmlns="http://www.w3.org/2000/svg" xmlns:xlink="http://www.w3.org/1999/xlink">
    <!-- Generator: Sketch 61.2 (89653) - https://sketch.com -->
    <title>Group 52</title>
    <desc>Created with Sketch.</desc>
    <defs>
        <polygon id="path-1" points="0.187861017 0.00955743879 45.3034068 0.00955743879 45.3034068 47.787194 0.187861017 47.787194"></polygon>
        <polygon id="path-3" points="0.0614352166 0.00955743879 39.8199983 0.00955743879 39.8199983 47.787194 0.0614352166 47.787194"></polygon>
    </defs>
    <g id="Welcome" stroke="none" stroke-width="1" fill="none" fill-rule="evenodd">
        <g id="About" transform="translate(-742.000000, -6012.000000)">
            <g id="Group-52" transform="translate(742.500000, 6012.500000)">
                <rect id="Rectangle-Copy-34" fill="#000000" x="0" y="0" width="192" height="130"></rect>
                <g id="Group-9" transform="translate(31.000000, 40.500000)">
                    <polygon id="Fill-1" fill="#FFFFFF" points="0 0.382335782 0 12.6017124 13.2037928 12.6017124 13.2037928 48.1599723 27.7161902 48.1599723 27.7161902 12.6017124 40.9394802 12.6017124 40.9394802 0.382335782"></polygon>
                    <g id="Group-8" transform="translate(43.581921, 0.372740)">
                        <g id="Group-4" transform="translate(42.435028, 0.000000)">
                            <mask id="mask-2" fill="white">
                                <use xlink:href="#path-1"></use>
                            </mask>
                            <g id="Clip-3"></g>
                            <path d="M14.7002584,35.5683143 L20.3869345,35.5683143 C22.6910418,35.5683143 24.5218648,35.1424348 25.8790211,34.289529 C27.2575861,33.4377701 28.3027876,32.4105365 29.0130964,31.208593 C29.7019966,29.9630676 30.1871322,28.6624913 30.466974,27.3076288 C30.6822075,25.930593 30.7900154,24.7072409 30.7900154,23.6356608 C30.7900154,22.7846665 30.7250249,21.7241731 30.5961906,20.4564744 C30.3805748,19.210949 29.8744128,17.9654235 29.0777047,16.7195158 C28.3238139,15.4521994 27.1715691,14.371062 25.6205879,13.4738096 C24.0699891,12.6438416 21.9803507,12.2286665 19.3528196,12.2286665 L14.7002584,12.2286665 L14.7002584,35.5683143 Z M0.187861017,0.00928983051 L24.0359646,0.00928983051 C31.8241303,0.140417891 37.3529175,2.5909452 40.6234731,7.36278324 C43.786603,12.0906571 45.3467593,17.5800676 45.3024128,23.8329264 C45.4132791,39.4979508 37.3777669,47.4822352 21.1962584,47.7873087 L0.187861017,47.7873087 L0.187861017,0.00928983051 Z" id="Fill-2" fill="#FFFFFF" mask="url(#mask-2)"></path>
                        </g>
                        <g id="Group-7">
                            <mask id="mask-4" fill="white">
                                <use xlink:href="#path-3"></use>
                            </mask>
                            <g id="Clip-6"></g>
                            <polygon id="Fill-5" fill="#FFFFFF" mask="url(#mask-4)" points="39.8199983 35.5683143 14.5738326 35.5683143 14.5738326 29.5849753 39.8199983 29.5849753 39.8199983 18.2120055 14.5738326 18.2120055 14.5738326 12.2286665 39.8199983 12.2286665 39.8199983 0.00928983051 0.0614352166 0.00928983051 0.0614352166 47.7873087 39.8199983 47.7873087"></polygon>
                        </g>
                    </g>
                </g>
            </g>
        </g>
    </g>
</svg>