<?xml version="1.0" encoding="utf-8"?>
<!-- Generator: Adobe Illustrator 24.1.2, SVG Export Plug-In . SVG Version: 6.00 Build 0)  -->
<svg version="1.1" id="Layer_1" xmlns="http://www.w3.org/2000/svg" xmlns:xlink="http://www.w3.org/1999/xlink" x="0px" y="0px"
	 viewBox="0 0 788 980" style="enable-background:new 0 0 788 980;" xml:space="preserve">
<style type="text/css">
	.st0{fill:#FFFFFF;}
</style>
<g transform="translate(0.000000,980.000000) scale(0.100000,-0.100000)">
	<path class="st0" d="M5560,9793c-129-9-261-35-247-49c3-3,90-10,194-15c347-16,478-65,577-214c61-91,79-154,80-280
		c1-91-3-122-22-177c-69-200-216-318-443-355c-87-14-120-15-228-5c-247,22-565,103-1121,284c-979,319-1261,392-1651,428
		c-180,17-695,8-814-14c-249-46-685-230-885-373c-119-85-403-366-493-488c-123-167-204-324-241-465c-28-106-41-433-28-673
		c13-231,24-285,87-414c84-171,232-342,410-475c102-77,284-174,395-211c68-23,311-79,317-73c1,1-21,33-49,72
		c-98,133-138,260-138,437c0,191,57,344,170,458c53,54,87,77,180,123c153,75,239,96,415,103c338,13,802-88,1867-406
		c790-236,1303-365,1613-406c64-8,186-15,271-15h154v-499v-499l-24-19c-13-10-271-236-572-503c-302-267-560-494-573-506l-24-20
		l389-345c214-189,483-427,597-528l209-184l-5-661c-3-363-9-678-13-699c-5-29-13-41-33-49c-41-15-314-77-415-93
		c-493-79-1202-61-1591,40c-667,174-1173,511-1488,990c-119,183-235,450-292,675c-144,566-120,1284,61,1827
		c142,427,385,789,729,1082c121,104,177,145,405,300c107,73,200,138,205,143c15,15-31,4-265-63c-448-127-780-253-1140-433
		c-313-157-586-330-841-533c-164-131-455-419-573-568C300,4971,69,4426,21,3900c-44-474,0-947,125-1345c99-317,228-589,409-860
		c132-198,246-337,425-516C1553,605,2325,224,3250,60c302-53,696-71,1120-51c904,43,1403,194,2032,613c520,346,923,858,1171,1483
		c140,353,215,690,267,1199c37,369,45,616,19,616c-5,0-40-62-78-139c-147-293-391-651-603-884c-206-228-559-489-878-652
		c-118-60-320-148-326-143c-1,2,0,320,4,708l5,705l350,300c400,343,741,641,776,678l24,26l-42,55c-74,96-318,319-810,742
		c-134,115-256,220-272,234l-27,25l-5,501l-5,501l182,37c347,71,584,170,813,343c313,235,539,575,628,946c61,252,46,638-35,876
		c-31,94-90,205-161,304c-87,122-273,298-411,391c-207,137-488,255-694,290C6122,9793,5762,9808,5560,9793z"/>
	<path class="st0" d="M4410,6616c-309-119-1428-570-1436-579c-10-9-9-3516,1-3526c14-14,158,26,360,100c141,51,1007,394,1288,510
		l77,31v1462c0,1349-9,1958-28,2046c-5,24-14,36-27,37C4634,6699,4528,6662,4410,6616z"/>
</g>
</svg>
