<?xml version="1.0" encoding="UTF-8"?>
<svg width="193px" height="131px" viewBox="0 0 193 131" version="1.1" xmlns="http://www.w3.org/2000/svg" xmlns:xlink="http://www.w3.org/1999/xlink">
    <!-- Generator: Sketch 61.2 (89653) - https://sketch.com -->
    <title>Group 57</title>
    <desc>Created with Sketch.</desc>
    <g id="Welcome" stroke="none" stroke-width="1" fill="none" fill-rule="evenodd">
        <g id="About" transform="translate(-982.000000, -6012.000000)">
            <g id="Group-57" transform="translate(982.500000, 6012.500000)">
                <rect id="Rectangle-Copy-35" fill="#000000" x="0" y="0" width="192" height="130"></rect>
                <g id="NTtimes2" transform="translate(63.000000, 22.500000)" fill="#FFFFFF" fill-rule="nonzero">
                    <g id="Group" transform="translate(33.533669, 42.491583) scale(-1, 1) rotate(-180.000000) translate(-33.533669, -42.491583) translate(0.033669, 0.991583)">
                        <path d="M46.765764,82.4208714 C45.6799499,82.3451169 44.5688842,82.1262707 44.6867245,82.0084304 C44.711976,81.9831789 45.4442693,81.9242587 46.3196543,81.8821729 C49.2404103,81.7474983 50.3430588,81.3350572 51.1763581,80.0808998 C51.6898051,79.3149378 51.841314,78.7846565 51.8497312,77.7240938 C51.8581484,76.9581319 51.8244797,76.6971998 51.6645536,76.2342558 C51.0837693,74.5508229 49.8464461,73.5575976 47.9357499,73.2461625 C47.2034566,73.1283222 46.9256902,73.119905 46.0166364,73.2040767 C43.9375969,73.3892543 41.2609387,74.0710446 36.5809954,75.5945513 C28.3405917,78.2796266 25.9669514,78.8940796 22.6842574,79.1970975 C21.1691679,79.3401893 16.8343283,79.2644349 15.8326858,79.0792572 C13.7368119,78.6920677 10.0669283,77.1433095 8.3834955,75.939655 C7.38185296,75.2241961 4.99137834,72.8589729 4.23383357,71.8320789 C3.19852238,70.4264125 2.51673208,69.1049177 2.20529701,67.9180976 C1.96961641,67.0258782 1.86019328,64.2734655 1.96961641,62.2533461 C2.07903955,60.3089812 2.17162835,59.8544543 2.70190969,58.7686401 C3.40895148,57.3293051 4.65469178,55.88997 6.152947,54.7704872 C7.01149774,54.1223655 8.54342162,53.3059006 9.47772684,52.9944655 C10.050094,52.8008707 12.0954649,52.3295096 12.1459679,52.3800125 C12.154385,52.3884297 11.9692074,52.657779 11.7335268,52.9860484 C10.9086447,54.1055312 10.5719582,55.174511 10.5719582,56.6643491 C10.5719582,58.2720274 11.0517365,59.5598536 12.0028761,60.5194103 C12.4489858,60.9739371 12.7351694,61.1675319 13.5179656,61.5547215 C14.8057917,62.1860088 15.5296679,62.3627692 17.0110888,62.4216894 C19.8560902,62.5311125 23.7616544,61.6809789 32.7259342,59.0043207 C39.3754939,57.01787 43.6934991,55.9320558 46.30282,55.5869521 C46.8415185,55.5196148 47.8684126,55.4606946 48.5838715,55.4606946 L49.8801148,55.4606946 L49.8801148,51.2605297 L49.8801148,47.0603648 L49.6781028,46.9004387 C49.5686797,46.816267 47.3970514,44.9139879 44.8634849,42.6666051 C42.3215014,40.4192223 40.149873,38.508526 40.0404499,38.40752 L39.8384379,38.2391768 L43.1127148,35.3352551 C44.9139879,33.7444111 47.1782051,31.741126 48.1377618,30.8909925 L49.8969491,29.3422342 L49.8548633,23.7784887 C49.8296118,20.7230582 49.7791088,18.0716514 49.7454402,17.894891 C49.7033543,17.6507932 49.636017,17.5497873 49.4676737,17.48245 C49.12257,17.3561925 46.8246842,16.8343283 45.9745506,16.6996537 C41.8248887,16.0346977 35.8571193,16.1862067 32.5828424,17.0363403 C26.968594,18.5009268 22.7095089,21.3375111 20.0581022,25.3693328 C19.0564596,26.9096738 18.0800686,29.1570566 17.6002902,31.0509186 C16.3882186,35.8150335 16.5902306,41.8585573 18.1137373,46.4290775 C19.3089746,50.0232066 21.3543455,53.07022 24.2498499,55.5364491 C25.2683268,56.4118342 25.739688,56.7569379 27.6588014,58.0615983 C28.559438,58.6760513 29.3422342,59.223167 29.3843201,59.2652528 C29.5105775,59.3915103 29.123388,59.2989215 27.1537716,58.7349715 C23.382882,57.6659916 20.5883835,56.6054289 17.5582044,55.0903394 C14.923632,53.7688446 12.6257462,52.3126752 10.4793694,50.6039909 C9.09895445,49.5013424 6.64955968,47.0771991 5.65633431,45.8230417 C2.49148059,41.8333059 0.54711567,37.2459514 0.143091791,32.818523 C-0.227263432,28.8287872 0.143091791,24.8474686 1.19523731,21.4974373 C2.02853656,18.8291962 3.11435074,16.5397276 4.63785745,14.2586761 C5.74892312,12.5920776 6.70847983,11.4220918 8.21515222,9.91541938 C13.0381873,5.08396715 19.536238,1.87702761 27.3221148,0.496612685 C29.8640984,0.0505029849 33.1804611,-0.10100597 36.7493387,0.0673373132 C44.3584551,0.429275372 48.55862,1.70026716 53.8530163,5.22705894 C58.2299416,8.13939774 61.6220588,12.4489858 63.7095155,17.7097134 C64.8879185,20.6809723 65.5192058,23.5175567 65.9568983,27.8018932 C66.2683334,30.9078268 66.3356707,32.9868663 66.1168244,32.9868663 C66.0747386,32.9868663 65.7801379,32.4650021 65.4602856,31.8168805 C64.2229625,29.3506514 62.1691745,26.3373066 60.3847357,24.3761074 C58.6507998,22.456994 55.6795409,20.2601141 52.9944655,18.8881164 C52.0012402,18.3830865 50.300973,17.6423761 50.25047,17.6844619 C50.2420528,17.7012962 50.25047,20.3779544 50.2841387,23.6438141 L50.3262245,29.5779148 L53.2722319,32.1030641 C56.6390976,34.9901514 59.5093506,37.4984663 59.8039513,37.8099014 L60.0059633,38.0287477 L59.6524424,38.4916917 C59.0295722,39.2997394 56.9757842,41.176767 52.8345394,44.7372275 C51.7066394,45.7052014 50.6797454,46.5890036 50.5450708,46.7068439 L50.3178073,46.917273 L50.2757215,51.1342722 L50.2336357,55.3512715 L51.7655596,55.6627066 C54.6863155,56.2603252 56.6811834,57.0936245 58.608714,58.5497939 C61.2432864,60.5278274 63.1455655,63.3896633 63.8946931,66.5124312 C64.4081401,68.6335565 64.2818827,71.8825819 63.6000924,73.885867 C63.3391603,74.6770804 62.8425476,75.6113856 62.2449289,76.4446849 C61.5126356,77.4715789 59.9470431,78.9529998 58.7854745,79.735796 C57.0431215,80.8889475 54.6778984,81.8821729 52.9439625,82.1767737 C51.4962103,82.4208714 48.4660312,82.5471289 46.765764,82.4208714 Z" id="Path"></path>
                        <path d="M37.0860253,55.6795409 C34.4851215,54.6778984 25.0663149,50.8817573 24.9989775,50.8060028 C24.9148059,50.7302484 24.9232231,21.2112537 25.0073947,21.127082 C25.125235,21.0092417 26.3373066,21.3459283 28.0375738,21.9687984 C29.2243939,22.3980738 36.5136581,25.2851611 38.8788812,26.2615522 L39.5270029,26.5224843 L39.5270029,38.8283782 C39.5270029,50.1831327 39.4512484,55.3091857 39.2913223,56.0498961 C39.2492365,56.2519081 39.173482,56.352914 39.0640588,56.3613312 C38.97147,56.3781655 38.0792506,56.0667304 37.0860253,55.6795409 Z" id="Path"></path>
                    </g>
                </g>
            </g>
        </g>
    </g>
</svg>