<?xml version="1.0" encoding="UTF-8"?>
<svg width="193px" height="131px" viewBox="0 0 193 131" version="1.1" xmlns="http://www.w3.org/2000/svg" xmlns:xlink="http://www.w3.org/1999/xlink">
    <!-- Generator: Sketch 61.2 (89653) - https://sketch.com -->
    <title>Group 35</title>
    <desc>Created with Sketch.</desc>
    <defs>
        <polygon id="path-1" points="0 0.146639962 69.033687 0.146639962 69.033687 69.1798729 0 69.1798729"></polygon>
    </defs>
    <g id="Welcome" stroke="none" stroke-width="1" fill="none" fill-rule="evenodd">
        <g id="About" transform="translate(-264.000000, -6168.000000)">
            <g id="Group-35" transform="translate(264.250000, 6168.500000)">
                <rect id="Rectangle-Copy-36" fill="#000000" x="0" y="0" width="192" height="130"></rect>
                <g id="Group-20" transform="translate(28.750000, 32.000000)">
                    <g id="Group-3" transform="translate(0.000000, 0.120464)">
                        <mask id="mask-2" fill="white">
                            <use xlink:href="#path-1"></use>
                        </mask>
                        <g id="Clip-2"></g>
                        <path d="M69.033687,34.6638441 C69.033687,53.7265049 53.579865,69.1800599 34.5161357,69.1800599 C15.4542761,69.1800599 -8.01311269e-05,53.7265049 -8.01311269e-05,34.6638441 C-8.01311269e-05,15.6003819 15.4542761,0.146559831 34.5161357,0.146559831 C53.579865,0.146559831 69.033687,15.6003819 69.033687,34.6638441" id="Fill-1" fill="#FFFFFF" mask="url(#mask-2)"></path>
                    </g>
                    <path d="M73.9214988,15.5053731 L73.9214988,7.64905027 L77.4539459,7.64905027 L77.4539459,14.4861051 C77.4539459,15.8392527 77.5947096,17.1574098 79.3698812,17.1574098 C81.1453199,17.1574098 81.2863506,15.8392527 81.2863506,14.4861051 L81.2863506,7.64905027 L84.8190649,7.64905027 L84.8190649,15.5053731 C84.8190649,18.5460822 82.8676049,20.2331095 79.3698812,20.2331095 C75.7666515,20.2331095 73.9214988,18.5460822 73.9214988,15.5053731" id="Fill-4" fill="#FFFFFF"></path>
                    <path d="M85.7692865,18.4406564 L87.4742098,16.0856025 C88.1072457,16.8412391 89.1615042,17.5263602 90.3744224,17.5263602 C91.2879172,17.5263602 91.8333431,17.1401282 91.8333431,16.4194822 C91.8333431,15.5578055 91.0419147,15.311803 89.7063959,14.907675 C87.9133284,14.3627833 86.3320741,13.4313925 86.3320741,11.3047124 C86.3320741,8.96675323 88.2477423,7.40286074 90.9545718,7.40286074 C92.8349822,7.40286074 94.2586452,7.98274299 95.1550454,8.82652376 L93.5550939,11.1815776 C93.0459942,10.6016953 92.1843174,10.1099573 91.1297918,10.1099573 C90.2160299,10.1099573 89.8289965,10.4782934 89.8289965,10.9708327 C89.8289965,11.7443652 90.7614557,11.954843 91.7807237,12.2713609 C93.7837347,12.9038626 95.3302655,13.8178917 95.3302655,16.0856025 C95.3302655,18.4580181 93.6258764,20.2331897 90.5504438,20.2331897 C88.2821987,20.2331897 86.5251902,19.2665412 85.7692865,18.4406564" id="Fill-6" fill="#FFFFFF"></path>
                    <path d="M100.07694,7.64902356 L103.96143,7.64902356 L108.547868,19.9868132 L104.875192,19.9868132 L104.295576,18.2121758 L99.6372868,18.2121758 L99.0753005,19.9868132 L95.4902339,19.9868132 L100.07694,7.64902356 L100.07694,7.64902356 Z M103.399176,15.3998404 L102.449622,12.4293795 C102.256506,11.8497643 102.098648,11.1109553 102.027865,10.5836925 L101.922092,10.5836925 C101.852111,11.1109553 101.693452,11.8497643 101.501137,12.4293795 L100.551583,15.3998404 L103.399176,15.3998404 Z" id="Fill-8" fill="#FFFFFF"></path>
                    <polygon id="Fill-10" fill="#FFFFFF" points="77.0154951 25.3109923 73.974786 25.3109923 73.974786 22.4460375 83.5883844 22.4460375 83.5883844 25.3109923 80.5482094 25.3109923 80.5482094 34.7848955 77.0154951 34.7848955"></polygon>
                    <path d="M83.8356423,28.6328549 C83.8356423,25.5921458 86.0149419,22.2001952 90.6019147,22.2001952 C95.2070505,22.2001952 97.3866172,25.5921458 97.3866172,28.6328549 C97.3866172,31.6556681 95.2070505,35.0305241 90.6019147,35.0305241 C86.0149419,35.0305241 83.8356423,31.6556681 83.8356423,28.6328549 M93.7478627,28.6328549 C93.7478627,26.4182977 92.3076392,25.2758949 90.58482,25.2758949 C88.8972585,25.2758949 87.4556995,26.4182977 87.4556995,28.6328549 C87.4556995,30.8297833 88.8972585,31.9550914 90.58482,31.9550914 C92.3076392,31.9550914 93.7478627,30.8297833 93.7478627,28.6328549" id="Fill-12" fill="#FFFFFF"></path>
                    <path d="M98.6537841,22.4466785 L103.205232,22.4466785 C107.564098,22.4466785 110.06045,24.7664746 110.06045,28.6149055 C110.06045,32.3941566 107.494384,34.784201 103.205232,34.784201 L98.6537841,34.784201 L98.6537841,22.4466785 L98.6537841,22.4466785 Z M102.186498,31.9374092 L102.942402,31.9374092 C105.209044,31.9374092 106.421963,30.8476258 106.421963,28.6149055 C106.421963,26.3829866 105.209044,25.2934703 102.942402,25.2934703 L102.186498,25.2934703 L102.186498,31.9374092 Z" id="Fill-14" fill="#FFFFFF"></path>
                    <path d="M114.156887,22.446171 L118.041377,22.446171 L122.627815,34.7842277 L118.955406,34.7842277 L118.375524,33.0093233 L113.717234,33.0093233 L113.155248,34.7842277 L109.56938,34.7842277 L114.156887,22.446171 L114.156887,22.446171 Z M117.47939,30.197522 L116.529569,27.2265269 C116.336453,26.6471789 116.178328,25.908637 116.10808,25.3816413 L116.00204,25.3816413 C115.932058,25.908637 115.773399,26.6471789 115.58055,27.2265269 L114.631263,30.197522 L117.47939,30.197522 Z" id="Fill-16" fill="#FFFFFF"></path>
                    <path d="M124.809198,30.3903976 L120.204062,22.4467319 L124.070656,22.4467319 L125.740856,25.4869069 C126.092098,26.1370374 126.584904,27.1213148 126.689876,27.7717124 L126.759857,27.7717124 C126.86563,27.1213148 127.357902,26.1370374 127.709144,25.4869069 L129.379076,22.4467319 L133.139897,22.4467319 L128.535029,30.3903976 L128.535029,34.7847886 L124.809198,34.7847886 L124.809198,30.3903976" id="Fill-18" fill="#FFFFFF"></path>
                </g>
            </g>
        </g>
    </g>
</svg>