<?xml version="1.0" encoding="UTF-8"?>
<svg width="160px" height="84px" viewBox="0 0 160 84" version="1.1" xmlns="http://www.w3.org/2000/svg" xmlns:xlink="http://www.w3.org/1999/xlink">
    <!-- Generator: Sketch 61.2 (89653) - https://sketch.com -->
    <title>Group 20</title>
    <desc>Created with Sketch.</desc>
    <defs>
        <polygon id="path-1" points="0 0.175866102 82.7924751 0.175866102 82.7924751 82.9677966 0 82.9677966"></polygon>
    </defs>
    <g id="Welcome" stroke="none" stroke-width="1" fill="none" fill-rule="evenodd">
        <g id="About" transform="translate(-280.000000, -6195.000000)">
            <g id="Group-20" transform="translate(280.000000, 6195.000000)">
                <g id="Group-3" transform="translate(0.000000, 0.144473)">
                    <mask id="mask-2" fill="white">
                        <use xlink:href="#path-1"></use>
                    </mask>
                    <g id="Clip-2"></g>
                    <path d="M82.7924751,41.5725361 C82.7924751,64.4344886 64.2586225,82.9680208 41.3953886,82.9680208 C18.5343971,82.9680208 -9.61016949e-05,64.4344886 -9.61016949e-05,41.5725361 C-9.61016949e-05,18.7096225 18.5343971,0.17577 41.3953886,0.17577 C64.2586225,0.17577 82.7924751,18.7096225 82.7924751,41.5725361" id="Fill-1" fill="#FFFFFF" mask="url(#mask-2)"></path>
                </g>
                <path d="M88.6544542,18.595678 L88.6544542,9.17354746 L92.8909373,9.17354746 L92.8909373,17.3732644 C92.8909373,18.9961017 93.0597559,20.5769746 95.1887288,20.5769746 C97.318022,20.5769746 97.487161,18.9961017 97.487161,17.3732644 L97.487161,9.17354746 L101.723964,9.17354746 L101.723964,18.595678 C101.723964,22.2424169 99.3835678,24.265678 95.1887288,24.265678 C90.8673559,24.265678 88.6544542,22.2424169 88.6544542,18.595678" id="Fill-4" fill="#FFFFFF"></path>
                <path d="M102.86357,22.1159792 L104.908294,19.2915503 C105.667497,20.1977893 106.931875,21.0194588 108.386535,21.0194588 C109.482094,21.0194588 110.136226,20.5562486 110.136226,19.6919741 C110.136226,18.6585605 109.187062,18.3635283 107.585367,17.8788554 C105.434931,17.2253639 103.538525,16.1083419 103.538525,13.5578029 C103.538525,10.7538758 105.835996,8.87829102 109.082311,8.87829102 C111.337497,8.87829102 113.044904,9.57374695 114.119962,10.5856978 L112.201131,13.4101266 C111.590565,12.7146707 110.557152,12.1249266 109.292453,12.1249266 C108.196574,12.1249266 107.732403,12.5666741 107.732403,13.1573792 C107.732403,14.0850808 108.850706,14.337508 110.073119,14.7171097 C112.475342,15.4756724 114.330104,16.5718724 114.330104,19.2915503 C114.330104,22.1368012 112.286021,24.2657741 108.597638,24.2657741 C105.877319,24.2657741 103.77013,23.1064673 102.86357,22.1159792" id="Fill-6" fill="#FFFFFF"></path>
                <path d="M120.022816,9.17351542 L124.681506,9.17351542 L130.182047,23.9702934 L125.777386,23.9702934 L125.08225,21.8419612 L119.495538,21.8419612 L118.821545,23.9702934 L114.521955,23.9702934 L120.022816,9.17351542 L120.022816,9.17351542 Z M124.007193,18.469112 L122.868387,14.9066222 C122.636782,14.2114866 122.447462,13.325429 122.362572,12.6930798 L122.235718,12.6930798 C122.151789,13.325429 121.961508,14.2114866 121.730864,14.9066222 L120.592059,18.469112 L124.007193,18.469112 Z" id="Fill-8" fill="#FFFFFF"></path>
                <polygon id="Fill-10" fill="#FFFFFF" points="92.3651008 30.3556103 88.7183619 30.3556103 88.7183619 26.9196544 100.248003 26.9196544 100.248003 30.3556103 96.6019042 30.3556103 96.6019042 41.7177137 92.3651008 41.7177137"></polygon>
                <path d="M100.54454,34.3395381 C100.54454,30.6927992 103.158186,26.6248144 108.659367,26.6248144 C114.182332,26.6248144 116.796298,30.6927992 116.796298,34.3395381 C116.796298,37.9648144 114.182332,42.0122975 108.659367,42.0122975 C103.158186,42.0122975 100.54454,37.9648144 100.54454,34.3395381 M112.43232,34.3395381 C112.43232,31.6836076 110.705052,30.3135178 108.638866,30.3135178 C106.614964,30.3135178 104.886095,31.6836076 104.886095,34.3395381 C104.886095,36.9743263 106.614964,38.3239144 108.638866,38.3239144 C110.705052,38.3239144 112.43232,36.9743263 112.43232,34.3395381" id="Fill-12" fill="#FFFFFF"></path>
                <path d="M118.316018,26.9204232 L123.774594,26.9204232 C129.002206,26.9204232 131.996094,29.7025673 131.996094,34.3180114 C131.996094,38.8504876 128.918598,41.7168808 123.774594,41.7168808 L118.316018,41.7168808 L118.316018,26.9204232 L118.316018,26.9204232 Z M122.552822,38.302708 L123.459381,38.302708 C126.177777,38.302708 127.632437,36.9957249 127.632437,34.3180114 C127.632437,31.6412588 126.177777,30.3345961 123.459381,30.3345961 L122.552822,30.3345961 L122.552822,38.302708 Z" id="Fill-14" fill="#FFFFFF"></path>
                <path d="M136.908973,26.9198146 L141.567663,26.9198146 L147.068204,41.7169129 L142.663863,41.7169129 L141.968407,39.5882603 L136.381695,39.5882603 L135.707702,41.7169129 L131.407151,41.7169129 L136.908973,26.9198146 L136.908973,26.9198146 Z M140.89367,36.2160519 L139.754544,32.6529214 C139.522939,31.9581061 139.333299,31.0723688 139.249049,30.44034 L139.121875,30.44034 C139.037946,31.0723688 138.847665,31.9581061 138.61638,32.6529214 L137.477895,36.2160519 L140.89367,36.2160519 Z" id="Fill-16" fill="#FFFFFF"></path>
                <path d="M149.684348,36.4473686 L144.161384,26.9204873 L148.798611,26.9204873 L150.801691,30.5665856 C151.222936,31.3462907 151.813962,32.5267398 151.939855,33.3067653 L152.023784,33.3067653 C152.150638,32.5267398 152.741023,31.3462907 153.162268,30.5665856 L155.165028,26.9204873 L159.675401,26.9204873 L154.152757,36.4473686 L154.152757,41.7175856 L149.684348,41.7175856 L149.684348,36.4473686" id="Fill-18" fill="#FFFFFF"></path>
            </g>
        </g>
    </g>
</svg>