<?xml version="1.0" encoding="UTF-8"?>
<svg width="170px" height="21px" viewBox="0 0 170 21" version="1.1" xmlns="http://www.w3.org/2000/svg" xmlns:xlink="http://www.w3.org/1999/xlink">
    <!-- Generator: Sketch 61.2 (89653) - https://sketch.com -->
    <title>Group 24</title>
    <desc>Created with Sketch.</desc>
    <defs>
        <polygon id="path-1" points="0.158346196 0.193915761 19.4583221 0.193915761 19.4583221 19.9733894 0.158346196 19.9733894"></polygon>
        <polygon id="path-3" points="0 0.205141304 10.214078 0.205141304 10.214078 19.1664049 0 19.1664049"></polygon>
        <polygon id="path-5" points="0.163892935 0.176879348 10.378125 0.176879348 10.378125 19.138363 0.163892935 19.138363"></polygon>
    </defs>
    <g id="Welcome" stroke="none" stroke-width="1" fill="none" fill-rule="evenodd">
        <g id="About" transform="translate(-520.000000, -6226.000000)">
            <g id="Group-24" transform="translate(520.000000, 6226.000000)">
                <polygon id="Fill-1" fill="#FFFFFF" points="21.8674908 19.6327712 28.0468223 19.6327712 31.3480125 0.671507609 25.1689011 0.671507609 23.9554418 7.47154565 18.5944745 7.47154565 19.8077136 0.671507609 13.656556 0.671507609 10.3553658 19.6327712 16.5346973 19.6327712 17.7761103 12.5221598 23.1372978 12.5221598"></polygon>
                <g id="Group-23" transform="translate(0.000000, 0.026149)">
                    <path d="M34.8750783,0.588944837 L32.9845647,11.1418361 C32.8153011,11.9599802 32.7589533,12.7501704 32.7589533,13.5119666 C32.7589533,19.0987655 37.6403038,19.9450834 40.5747929,19.9450834 C46.7259505,19.9450834 49.3782603,17.9137003 50.3656679,12.3832492 L52.4254451,0.560770924 L46.2463337,0.560770924 L44.4966897,10.4927356 C43.9325511,13.5967084 43.537456,15.2048226 41.2236734,15.2048226 C39.7282549,15.2048226 38.9946326,14.4148524 38.9946326,12.7501704 C38.9946326,12.1294639 39.0793745,11.3392736 39.276812,10.3798198 L41.0544098,0.560770924 L34.8750783,0.588944837 Z" id="Fill-2" fill="#FFFFFF"></path>
                    <path d="M94.749684,10.0413587 L92.9720861,10.0413587 L93.7904503,5.58327717 L95.4551323,5.58327717 C96.8094611,5.58327717 97.5430834,6.26033152 97.5430834,7.50196467 C97.5430834,9.05395109 96.4991079,10.0413587 94.749684,10.0413587 L94.749684,10.0413587 Z M85.1280726,19.6066223 L91.3074041,19.6066223 L92.1818959,14.7252717 L95.0884313,14.7252717 C100.477573,14.7252717 103.46841,11.8189565 103.46841,6.48616304 C103.46841,2.7617038 100.872668,0.617184783 96.3580182,0.617184783 L88.4574367,0.617184783 L85.1280726,19.6066223 Z" id="Fill-4" fill="#FFFFFF"></path>
                    <g id="Group-8" transform="translate(104.551630, 0.000000)">
                        <mask id="mask-2" fill="white">
                            <use xlink:href="#path-1"></use>
                        </mask>
                        <g id="Clip-7"></g>
                        <path d="M9.10290326,15.0920389 C7.49456902,15.0920389 6.56328913,13.9351476 6.56328913,12.0164601 C6.56328913,11.2828378 6.61985707,10.6621312 6.76094674,9.92850897 C7.24056359,7.44546277 8.0305337,5.16007418 10.5419739,5.16007418 C12.1503082,5.16007418 13.0813679,6.31696549 13.0813679,8.23565299 C13.0813679,8.96927527 13.0248,9.58998179 12.8839304,10.3236041 C12.4322674,12.7782563 11.6141234,15.0920389 9.10290326,15.0920389 M10.908675,0.193761685 C4.1931587,0.193761685 0.158346196,4.53936766 0.158346196,11.8471965 C0.158346196,16.9262046 3.34684076,19.9733894 8.70780815,19.9733894 C15.4233245,19.9733894 19.4583221,15.6282236 19.4583221,8.32017473 C19.4863109,3.24116658 16.2980364,0.193761685 10.908675,0.193761685" id="Fill-6" fill="#FFFFFF" mask="url(#mask-2)"></path>
                    </g>
                    <polygon id="Fill-9" fill="#FFFFFF" points="145.538687 19.6066223 151.718018 19.6066223 154.172891 5.72436685 158.82841 5.72436685 159.731296 0.645358696 143.902179 0.645358696 142.999293 5.72436685 147.936991 5.72436685"></polygon>
                    <path d="M135.296215,7.64294429 C133.349354,7.02223777 132.559163,6.76823234 132.559163,5.86534647 C132.559163,5.24463995 132.954258,4.53919158 134.139324,4.53919158 C135.014036,4.53919158 135.747658,5.01880842 136.029837,5.75243071 L141.475546,4.28518614 C140.85484,1.60470245 138.541057,0.250373641 134.562593,0.250373641 C127.08528,0.250373641 126.492748,5.24463995 126.492748,6.79640625 C126.492748,9.90037908 128.129256,11.7908927 131.712845,12.7783003 C132.643905,13.0323057 133.744449,13.3144851 133.744449,14.3584606 C133.744449,15.1768247 133.123522,15.6846155 132.079546,15.6846155 C131.120313,15.6846155 130.076337,15.1202568 129.73781,14.1326291 L124.348449,15.5998736 C124.940981,18.4216671 127.593291,20.0297812 131.741019,20.0297812 C134.90134,20.0297812 140.234133,19.1834633 140.234133,13.4555747 C140.234133,10.5210856 138.597625,8.63057201 135.296215,7.64294429" id="Fill-11" fill="#FFFFFF"></path>
                    <g id="Group-15" transform="translate(0.000000, 0.440217)">
                        <mask id="mask-4" fill="white">
                            <use xlink:href="#path-3"></use>
                        </mask>
                        <g id="Clip-14"></g>
                        <polygon id="Fill-13" fill="#FFFFFF" mask="url(#mask-4)" points="6.88471386 19.1664049 10.214078 0.205141304 -6.60326087e-05 0.205141304 -6.60326087e-05 19.1664049"></polygon>
                    </g>
                    <g id="Group-18" transform="translate(158.918478, 0.440217)">
                        <mask id="mask-6" fill="white">
                            <use xlink:href="#path-5"></use>
                        </mask>
                        <g id="Clip-17"></g>
                        <polygon id="Fill-16" fill="#FFFFFF" mask="url(#mask-6)" points="3.46530326 0.176879348 0.163892935 19.138363 10.3782571 19.138363 10.3782571 0.176879348"></polygon>
                    </g>
                    <polygon id="Fill-19" fill="#FFFFFF" points="55.9525109 0.588944837 52.6513207 19.6065563 58.8306522 19.6065563 59.8180598 13.9918035 65.0099837 13.9918035 65.8565217 9.22314864 60.6645978 9.22314864 61.2571304 5.6961269 68.5086114 5.6961269 69.4114973 0.588944837"></polygon>
                    <polygon id="Fill-21" fill="#FFFFFF" points="72.1768329 0.588944837 68.8754226 19.6065563 75.0549742 19.6065563 76.0142079 13.9918035 81.2340856 13.9918035 82.0806236 9.22314864 76.8889198 9.22314864 77.4814524 5.6961269 84.7329334 5.6961269 85.6358193 0.588944837"></polygon>
                </g>
            </g>
        </g>
    </g>
</svg>