<?xml version="1.0" encoding="UTF-8"?>
<svg width="186px" height="33px" viewBox="0 0 186 33" version="1.1" xmlns="http://www.w3.org/2000/svg" xmlns:xlink="http://www.w3.org/1999/xlink">
    <!-- Generator: Sketch 61.2 (89653) - https://sketch.com -->
    <title>Group 17</title>
    <desc>Created with Sketch.</desc>
    <defs>
        <polygon id="path-1" points="0.152801032 0.283187807 24.0506417 0.283187807 24.0506417 32.1022329 0.152801032 32.1022329"></polygon>
        <polygon id="path-3" points="0 32.1022616 185.87926 32.1022616 185.87926 0.283187807 0 0.283187807"></polygon>
    </defs>
    <g id="Welcome" stroke="none" stroke-width="1" fill="none" fill-rule="evenodd">
        <g id="About" transform="translate(-750.000000, -6221.000000)">
            <g id="Group-17" transform="translate(750.000000, 6221.000000)">
                <polygon id="Fill-1" fill="#FFFFFF" points="24.2760168 0.286799312 17.7647036 17.5323062 11.2023708 0.286799312 0.000114650934 0.286799312 0.000114650934 31.5417905 8.06179508 31.5417905 8.06179508 10.8736666 15.9833147 31.5417905 19.5463792 31.5417905 27.4163059 10.8736666 27.4163059 31.5417905 35.478273 31.5417905 35.478273 0.286799312"></polygon>
                <g id="Group-16" transform="translate(0.000000, 0.003440)">
                    <path d="M51.4986773,25.7256346 L51.4986773,23.713224 C50.7488602,22.6366518 49.0632048,22.1175697 47.4678371,22.1175697 C45.5961606,22.1175697 43.8594855,22.9634069 43.8594855,24.7450824 C43.8594855,26.526758 45.5961606,27.3662894 47.4678371,27.3662894 C49.0632048,27.3662894 50.7488602,26.8085126 51.4986773,25.7256346 L51.4986773,25.7256346 Z M51.4986773,31.5381503 L51.4986773,29.2889856 C50.0953499,30.9743543 47.3715303,32.1022329 44.468282,32.1022329 C41.0012378,32.1022329 36.6883562,29.7117609 36.6883562,24.6490623 C36.6883562,19.1696075 41.0012378,17.3366257 44.468282,17.3366257 C47.4678371,17.3366257 50.1400637,18.3237703 51.4986773,20.009139 L51.4986773,17.7596877 C51.4986773,15.7922776 49.8133086,14.4336641 46.9037545,14.4336641 C44.6543031,14.4336641 42.4048518,15.3245018 40.5781758,16.8691365 L37.9059492,11.8571709 C40.8155032,9.37067881 44.7053228,8.34541283 48.1726537,8.34541283 C53.607108,8.34541283 58.7148071,10.3578234 58.7148071,17.387932 L58.7148071,31.5381503 L51.4986773,31.5381503 Z" id="Fill-2" fill="#FFFFFF"></path>
                    <path d="M59.2275261,28.5865766 L62.2267945,23.433877 C63.9121632,24.9335113 67.5202281,26.478146 70.1927414,26.478146 C72.3461726,26.478146 73.2367237,25.8693495 73.2367237,24.882205 C73.2367237,22.0752635 60.0733633,24.9782251 60.0733633,15.7946853 C60.0733633,11.8085589 63.5404076,8.3415147 69.7696794,8.3415147 C73.6147852,8.3415147 76.8000747,9.55910762 79.2352606,11.3407831 L76.4730329,16.4484823 C75.1144194,15.1345825 72.5382129,13.9682959 69.8209857,13.9682959 C68.1290246,13.9682959 67.0077384,14.6218062 67.0077384,15.5129306 C67.0077384,17.9928303 80.1260983,15.4166238 80.1260983,24.6964705 C80.1260983,29.0096386 76.3320123,32.0983348 69.8659862,32.0983348 C65.7901455,32.0983348 61.617998,30.7400078 59.2275261,28.5865766" id="Fill-4" fill="#FFFFFF"></path>
                    <path d="M96.3855212,31.5382363 L96.3855212,18.3685701 C96.3855212,15.6063425 94.9306008,14.7157913 92.6364356,14.7157913 C90.528005,14.7157913 89.1243909,15.8883838 88.2785536,16.9202422 L88.2785536,31.5382363 L81.0624238,31.5382363 L81.0624238,0.283245133 L88.2785536,0.283245133 L88.2785536,11.6712358 C89.6371672,10.0755814 92.3096805,8.34549882 96.1034799,8.34549882 C101.256179,8.34549882 103.601651,11.2484605 103.601651,15.420608 L103.601651,31.5382363 L96.3855212,31.5382363 Z" id="Fill-6" fill="#FFFFFF"></path>
                    <path d="M119.438728,25.7256346 L119.438728,23.713224 C118.688911,22.6366518 117.003543,22.1175697 115.407888,22.1175697 C113.536498,22.1175697 111.799537,22.9634069 111.799537,24.7450824 C111.799537,26.526758 113.536498,27.3662894 115.407888,27.3662894 C117.003543,27.3662894 118.688911,26.8085126 119.438728,25.7256346 L119.438728,25.7256346 Z M119.438728,31.5381503 L119.438728,29.2889856 C118.035401,30.9743543 115.311581,32.1022329 112.408333,32.1022329 C108.941289,32.1022329 104.628407,29.7117609 104.628407,24.6490623 C104.628407,19.1696075 108.941289,17.3366257 112.408333,17.3366257 C115.407888,17.3366257 118.080115,18.3237703 119.438728,20.009139 L119.438728,17.7596877 C119.438728,15.7922776 117.75336,14.4336641 114.843806,14.4336641 C112.594354,14.4336641 110.344903,15.3245018 108.518227,16.8691365 L105.846,11.8571709 C108.755554,9.37067881 112.645661,8.34541283 116.112705,8.34541283 C121.547159,8.34541283 126.654858,10.3578234 126.654858,17.387932 L126.654858,31.5381503 L119.438728,31.5381503 Z" id="Fill-8" fill="#FFFFFF"></path>
                    <g id="Group-12" transform="translate(128.982301, 0.000000)">
                        <mask id="mask-2" fill="white">
                            <use xlink:href="#path-1"></use>
                        </mask>
                        <g id="Clip-11"></g>
                        <path d="M11.6818123,25.7256346 C14.5400601,25.7256346 16.6934913,23.6172039 16.6934913,20.2014659 C16.6934913,16.8238494 14.5400601,14.7157054 11.6818123,14.7157054 C10.1374643,14.7157054 8.25976858,15.5615426 7.36893083,16.7791355 L7.36893083,23.713224 C8.25976858,24.9311036 10.1374643,25.7256346 11.6818123,25.7256346 L11.6818123,25.7256346 Z M0.152801032,31.5381503 L0.152801032,0.283159145 L7.36893083,0.283159145 L7.36893083,11.5754163 C9.15031971,9.32596495 11.5857922,8.34541283 14.0722843,8.34541283 C19.744066,8.34541283 24.0506417,12.7930092 24.0506417,20.2014659 C24.0506417,27.8853715 19.6477592,32.1022329 14.0722843,32.1022329 C11.5407917,32.1022329 9.2466265,31.0703745 7.36893083,28.9172299 L7.36893083,31.5381503 L0.152801032,31.5381503 Z" id="Fill-10" fill="#FFFFFF" mask="url(#mask-2)"></path>
                    </g>
                    <mask id="mask-4" fill="white">
                        <use xlink:href="#path-3"></use>
                    </mask>
                    <g id="Clip-14"></g>
                    <polygon id="Fill-13" fill="#FFFFFF" mask="url(#mask-4)" points="154.064199 31.5390388 161.280329 31.5390388 161.280329 0.284047689 154.064199 0.284047689"></polygon>
                    <path d="M174.305191,14.1544604 C171.164902,14.1544604 169.947309,16.0258502 169.665268,17.6665051 L178.989828,17.6665051 C178.804094,16.0708507 177.631215,14.1544604 174.305191,14.1544604 M162.308117,20.1979977 C162.308117,13.6353783 167.229795,8.34194464 174.305191,8.34194464 C181.008544,8.34194464 185.879203,13.2639092 185.879203,20.9478148 L185.879203,22.5884697 L169.761288,22.5884697 C170.274064,24.6005936 172.15176,26.2928414 175.426764,26.2928414 C177.022418,26.2928414 179.649931,25.5877382 180.957238,24.3701452 L184.097527,29.0997829 C181.848076,31.1184992 178.09899,32.0987647 174.631946,32.0987647 C167.653144,32.0987647 162.308117,27.5551482 162.308117,20.1979977" id="Fill-15" fill="#FFFFFF" mask="url(#mask-4)"></path>
                </g>
            </g>
        </g>
    </g>
</svg>