<?xml version="1.0" encoding="UTF-8"?>
<svg width="193px" height="131px" viewBox="0 0 193 131" version="1.1" xmlns="http://www.w3.org/2000/svg" xmlns:xlink="http://www.w3.org/1999/xlink">
    <!-- Generator: Sketch 61.2 (89653) - https://sketch.com -->
    <title>Group 53</title>
    <desc>Created with Sketch.</desc>
    <defs>
        <polygon id="path-1" points="0.143540364 0.26602491 22.5930271 0.26602491 22.5930271 30.156643 0.143540364 30.156643"></polygon>
        <polygon id="path-3" points="0 30.1566699 174.61385 30.1566699 174.61385 0.26602491 0 0.26602491"></polygon>
    </defs>
    <g id="Welcome" stroke="none" stroke-width="1" fill="none" fill-rule="evenodd">
        <g id="About" transform="translate(-742.000000, -6168.000000)">
            <g id="Group-53" transform="translate(742.500000, 6168.500000)">
                <rect id="Rectangle-Copy-38" fill="#000000" x="0" y="0" width="192" height="130"></rect>
                <g id="Group-17" transform="translate(13.500000, 49.000000)">
                    <polygon id="Fill-1" fill="#FFFFFF" points="22.8047431 0.269417535 16.6880549 16.4697422 10.5234392 0.269417535 0.000107702393 0.269417535 0.000107702393 29.6301668 7.57320144 29.6301668 7.57320144 10.2146565 15.014629 29.6301668 18.3617501 29.6301668 25.7547116 10.2146565 25.7547116 29.6301668 33.3280746 29.6301668 33.3280746 0.269417535"></polygon>
                    <g id="Group-16" transform="translate(0.000000, 0.003231)">
                        <path d="M48.3775453,24.1665052 L48.3775453,22.2760589 C47.6731717,21.2647335 46.0896773,20.7771109 44.5909985,20.7771109 C42.8327569,20.7771109 41.2013349,21.5716853 41.2013349,23.2453805 C41.2013349,24.9190757 42.8327569,25.7077264 44.5909985,25.7077264 C46.0896773,25.7077264 47.6731717,25.1837543 48.3775453,24.1665052 L48.3775453,24.1665052 Z M48.3775453,29.6267472 L48.3775453,27.5138956 C47.059268,29.0971207 44.5005284,30.156643 41.7732346,30.156643 C38.5163143,30.156643 34.4648195,27.9110481 34.4648195,23.1551797 C34.4648195,18.0078131 38.5163143,16.2859211 41.7732346,16.2859211 C44.5909985,16.2859211 47.101272,17.2132387 48.3775453,18.7964639 L48.3775453,16.683343 C48.3775453,14.8351699 46.7943202,13.5588965 44.0611027,13.5588965 C41.9479817,13.5588965 39.8348608,14.3957441 38.1188924,15.8467646 L35.6086189,11.1385545 C38.3418364,8.80275888 41.9959093,7.83963024 45.2530989,7.83963024 C50.3581923,7.83963024 55.1563339,9.73007648 55.1563339,16.3341179 L55.1563339,29.6267472 L48.3775453,29.6267472 Z" id="Fill-2" fill="#FFFFFF"></path>
                        <path d="M55.637979,26.8540569 L58.4554736,22.0136421 C60.0386988,23.4223894 63.4280931,24.8734098 65.9386359,24.8734098 C67.961556,24.8734098 68.7981344,24.3015101 68.7981344,23.3741925 C68.7981344,20.7373687 56.4325534,23.4643933 56.4325534,14.8374316 C56.4325534,11.0928887 59.6894738,7.83596835 65.541214,7.83596835 C69.153283,7.83596835 72.1455247,8.97976776 74.4331236,10.6534629 L71.8383037,15.4516045 C70.5620303,14.2173351 68.1419576,13.1217325 65.5894108,13.1217325 C63.9999928,13.1217325 62.9466634,13.7356362 62.9466634,14.572753 C62.9466634,16.9023558 75.2699712,14.482283 75.2699712,23.1997147 C75.2699712,27.2514787 71.7058297,30.1529811 65.631684,30.1529811 C61.802864,30.1529811 57.8835739,28.876977 55.637979,26.8540569" id="Fill-4" fill="#FFFFFF"></path>
                        <path d="M90.5439745,29.626828 L90.5439745,17.2553234 C90.5439745,14.6605035 89.1772311,13.8239252 87.0221062,13.8239252 C85.0414592,13.8239252 83.7229127,14.9254514 82.9283383,15.894773 L82.9283383,29.626828 L76.1495497,29.626828 L76.1495497,0.266078761 L82.9283383,0.266078761 L82.9283383,10.9638882 C84.2046116,9.46494012 86.7151544,7.83971101 90.2790266,7.83971101 C95.1194413,7.83971101 97.322763,10.5667356 97.322763,14.4860257 L97.322763,29.626828 L90.5439745,29.626828 Z" id="Fill-6" fill="#FFFFFF"></path>
                        <path d="M112.200018,24.1665052 L112.200018,22.2760589 C111.495644,21.2647335 109.912419,20.7771109 108.413471,20.7771109 C106.655498,20.7771109 105.023807,21.5716853 105.023807,23.2453805 C105.023807,24.9190757 106.655498,25.7077264 108.413471,25.7077264 C109.912419,25.7077264 111.495644,25.1837543 112.200018,24.1665052 L112.200018,24.1665052 Z M112.200018,29.6267472 L112.200018,27.5138956 C110.88174,29.0971207 108.323001,30.156643 105.595707,30.156643 C102.338787,30.156643 98.2872918,27.9110481 98.2872918,23.1551797 C98.2872918,18.0078131 102.338787,16.2859211 105.595707,16.2859211 C108.413471,16.2859211 110.923744,17.2132387 112.200018,18.7964639 L112.200018,16.683343 C112.200018,14.8351699 110.616792,13.5588965 107.883575,13.5588965 C105.770454,13.5588965 103.657333,14.3957441 101.941365,15.8467646 L99.4310912,11.1385545 C102.164309,8.80275888 105.818651,7.83963024 109.075571,7.83963024 C114.180665,7.83963024 118.978806,9.73007648 118.978806,16.3341179 L118.978806,29.6267472 L112.200018,29.6267472 Z" id="Fill-8" fill="#FFFFFF"></path>
                        <g id="Group-12" transform="translate(121.165192, 0.000000)">
                            <mask id="mask-2" fill="white">
                                <use xlink:href="#path-1"></use>
                            </mask>
                            <g id="Clip-11"></g>
                            <path d="M10.9738237,24.1665052 C13.6588444,24.1665052 15.6817646,22.1858582 15.6817646,18.9771347 C15.6817646,15.8042222 13.6588444,13.8238444 10.9738237,13.8238444 C9.52307248,13.8238444 7.75917655,14.6184188 6.92232896,15.7622182 L6.92232896,22.2760589 C7.75917655,23.4201276 9.52307248,24.1665052 10.9738237,24.1665052 L10.9738237,24.1665052 Z M0.143540364,29.6267472 L0.143540364,0.265997984 L6.92232896,0.265997984 L6.92232896,10.8738759 C8.59575488,8.76075495 10.883623,7.83963024 13.2194186,7.83963024 C18.547456,7.83963024 22.5930271,12.0176753 22.5930271,18.9771347 C22.5930271,26.195349 18.456986,30.156643 13.2194186,30.156643 C10.8413498,30.156643 8.68622489,29.1873215 6.92232896,27.1646706 L6.92232896,29.6267472 L0.143540364,29.6267472 Z" id="Fill-10" fill="#FFFFFF" mask="url(#mask-2)"></path>
                        </g>
                        <mask id="mask-4" fill="white">
                            <use xlink:href="#path-3"></use>
                        </mask>
                        <g id="Clip-14"></g>
                        <polygon id="Fill-13" fill="#FFFFFF" mask="url(#mask-4)" points="144.726975 29.6275819 151.505764 29.6275819 151.505764 0.266832678 144.726975 0.266832678"></polygon>
                        <path d="M163.74124,13.2966143 C160.791271,13.2966143 159.647472,15.0545866 159.382524,16.5958078 L168.14196,16.5958078 C167.967482,15.0968598 166.865686,13.2966143 163.74124,13.2966143 M152.471262,18.9738767 C152.471262,12.8089917 157.094656,7.83637224 163.74124,7.83637224 C170.03833,7.83637224 174.613797,12.460036 174.613797,19.6782503 L174.613797,21.2194716 L159.472725,21.2194716 C159.954424,23.1096485 161.71832,24.6993359 164.794839,24.6993359 C166.293787,24.6993359 168.762056,24.0369661 169.990133,22.8931667 L172.940101,27.3361597 C170.82698,29.2325296 167.305112,30.153385 164.048192,30.153385 C157.492347,30.153385 152.471262,25.8851392 152.471262,18.9738767" id="Fill-15" fill="#FFFFFF" mask="url(#mask-4)"></path>
                    </g>
                </g>
            </g>
        </g>
    </g>
</svg>