<?xml version="1.0" encoding="UTF-8"?>
<svg width="101px" height="108px" viewBox="0 0 101 108" version="1.1" xmlns="http://www.w3.org/2000/svg" xmlns:xlink="http://www.w3.org/1999/xlink">
    <!-- Generator: Sketch 61.2 (89653) - https://sketch.com -->
    <title>Group 11</title>
    <desc>Created with Sketch.</desc>
    <g id="Welcome" stroke="none" stroke-width="1" fill="none" fill-rule="evenodd">
        <g id="About" transform="translate(-1038.000000, -6183.000000)" fill="#FFFFFF">
            <g id="Group-11" transform="translate(1038.000000, 6183.000000)">
                <path d="M6.97892025,100.828601 L93.744,100.828601 L93.744,63.1389202 L6.97892025,63.1389202 L6.97892025,100.828601 Z M0,107.89465 L0,56.0546503 C0.245815951,56.0556442 0.491300613,56.0569693 0.737447853,56.0569693 C33.8490552,56.0573006 66.9609939,56.0573006 100.072601,56.0573006 L100.789509,56.0573006 L100.789509,107.89465 L0,107.89465 Z" id="Fill-1"></path>
                <path d="M6.99647853,44.7514233 L93.7377055,44.7514233 L93.7377055,7.07996319 L6.99647853,7.07996319 L6.99647853,44.7514233 Z M0,51.84 L0,0 L100.827276,0 L100.827276,51.7382945 C100.508245,51.7382945 100.264417,51.7376319 100.02092,51.7382945 C91.8920982,51.7604908 83.7636074,51.7932883 75.6351166,51.8025644 C61.6070429,51.8184663 47.5793006,51.8201227 33.551227,51.8267485 C22.3675951,51.8320491 11.1836319,51.8356933 0,51.84 L0,51.84 Z" id="Fill-3"></path>
                <polygon id="Fill-4" points="36.3551853 91.987973 36.3551853 72.6543166 41.2923755 72.6543166 41.2923755 79.9443166 48.8122896 79.9443166 48.8122896 72.6443779 53.8982282 72.6443779 53.8982282 91.9942675 48.9385104 91.9942675 48.9385104 84.4170405 41.3185472 84.4170405 41.3185472 91.987973"></polygon>
                <path d="M67.5875264,86.2551607 C69.2638454,86.2551607 70.8407779,86.2482037 72.4173791,86.2677497 C72.5429374,86.2694061 72.7294528,86.4237865 72.7817963,86.5510012 C73.606373,88.5516515 76.5227043,88.5718601 77.7070601,87.765173 C78.2212196,87.4150012 78.5048025,86.9323141 78.4670356,86.2962405 C78.4276123,85.6310135 78.0197963,85.2066331 77.4304344,85.0423141 C76.2520417,84.7136761 75.0464834,84.4834307 73.8634528,84.169038 C72.835465,83.8960564 71.7760049,83.6671362 70.8139436,83.233811 C68.677465,82.2707558 67.8210847,80.3651853 68.0109129,78.0570994 C68.2252564,75.4521791 69.6845816,73.7414061 72.1000049,72.9075534 C74.8569865,71.9560933 77.5930969,72.0634307 80.1738331,73.5336883 C81.8551215,74.4914429 82.9622871,76.1836638 83.3061644,78.1445595 C83.2524957,78.1647681 83.1928638,78.2065104 83.1335632,78.2065104 C81.6768883,78.2121423 80.2198822,78.2210871 78.7632074,78.2022037 C78.6184344,78.2005472 78.4034282,78.0570994 78.3428025,77.9242528 C77.5122626,76.1021669 75.1766798,76.034584 73.9691337,76.6352098 C73.3476368,76.9443018 73.0395387,77.4587926 73.0955264,78.1770258 C73.1528393,78.9065227 73.6312196,79.2752466 74.2500663,79.4488417 C75.3787656,79.7652221 76.5313178,79.9967926 77.6613423,80.3095288 C78.5862994,80.5649521 79.5264957,80.8097742 80.4027534,81.1914184 C84.7128147,83.0661791 84.3056613,88.8342405 81.1160172,90.9206945 C79.6282012,91.8940196 77.9916368,92.2935534 76.2377963,92.3220442 C74.1423975,92.3561669 72.1470479,91.9973816 70.388238,90.7828785 C68.8580172,89.7260687 67.9675141,88.2498479 67.5875264,86.2551607" id="Fill-5"></path>
                <polygon id="Fill-6" points="26.3857914 76.8956025 26.3857914 91.9079337 21.4055337 91.9079337 21.4055337 76.9363509 15.4605644 76.9363509 15.4605644 72.6610748 32.3049202 72.6610748 32.3049202 76.8956025"></polygon>
                <polygon id="Fill-7" points="58.7364294 91.9199264 63.6679877 91.9199264 63.6679877 72.6594847 58.7364294 72.6594847"></polygon>
                <path d="M58.7972209,16.3546123 L63.9268896,16.3546123 C64.8207055,20.0888945 65.7118712,23.813238 66.6030368,27.5372503 C66.6335153,27.539238 66.6639939,27.5412258 66.6941411,27.5425509 C67.6836994,23.8205264 68.6732577,20.0985018 69.6671227,16.358919 L73.5067546,16.358919 C74.4648405,20.0865755 75.4229264,23.8129067 76.380681,27.5395693 C76.4108282,27.5375816 76.4413067,27.5359252 76.4717853,27.5339374 C77.3629509,23.8102564 78.2537853,20.0865755 79.1472699,16.3539497 L84.2812454,16.3539497 C83.8846933,17.8676061 83.4974172,19.3560847 83.1048405,20.843238 C81.8429632,25.6230663 80.5734663,30.4005755 79.3264969,35.1843791 C79.205908,35.6461951 79.0465583,35.8390049 78.5270982,35.820784 C77.2128773,35.7740724 75.8960061,35.8052135 74.5168528,35.8052135 C73.5206687,32.0606613 72.527135,28.3260479 71.5336012,24.5911031 C71.5024601,24.5897779 71.471319,24.588784 71.4398466,24.5877902 C70.447638,28.3194221 69.4550982,32.051054 68.4569264,35.8045509 C66.9757362,35.8045509 65.5376135,35.816146 64.0998221,35.7846736 C63.9679693,35.7820233 63.7701902,35.5226245 63.7244724,35.3503546 C62.9943129,32.605962 62.2820429,29.8569313 61.5701043,27.1075693 C60.6646933,23.6114834 59.7632577,20.1144037 58.8604969,16.6176552 C58.8432699,16.5510663 58.828362,16.484146 58.7972209,16.3546123" id="Fill-8"></path>
                <path d="M33.639681,35.8032258 C32.3178405,35.8032258 31.0231656,35.816146 29.7291534,35.7863301 C29.574773,35.7826859 29.3905767,35.5713239 29.2789325,35.413962 C26.8191166,31.9533239 24.3675828,28.4863914 21.9137301,25.0211153 C21.8073865,24.8710417 21.6920982,24.7266 21.494319,24.4642196 L21.494319,35.7674466 L16.6846748,35.7674466 L16.6846748,16.3353975 L17.1580859,16.3353975 C18.4043926,16.3353975 19.6510307,16.3493117 20.8970061,16.326784 C21.256454,16.319827 21.4608589,16.4430663 21.6629448,16.7339374 C23.902454,19.9636675 26.1565399,23.1834589 28.4073129,26.405238 C28.5153129,26.5599497 28.6306012,26.709692 28.8237423,26.9720724 L28.8237423,16.3725018 L33.639681,16.3725018 L33.639681,35.8032258 Z" id="Fill-9"></path>
                <path d="M51.4192638,26.2107387 C51.4179387,24.9296466 51.2536196,23.8774748 50.7805399,22.8945423 C50.0467362,21.3702847 48.8464785,20.4966773 47.1363681,20.4754748 C45.4756196,20.4546037 44.2047975,21.2245178 43.4965031,22.7169718 C42.4261104,24.9730454 42.3976196,27.2953767 43.6041718,29.4977816 C45.1353865,32.2935239 48.9922454,32.2630454 50.5867362,29.5027509 C51.2102209,28.4227509 51.4089939,27.2397202 51.4192638,26.2107387 M47.2973742,36.1033941 C42.242908,36.1192417 38.372135,32.6383951 37.8182209,27.7853521 C37.5893006,25.7810577 37.7257914,23.8251313 38.4579387,21.9341374 C40.0564049,17.8062847 43.8466748,15.837438 47.9400736,16.1680638 C53.6644049,16.6298798 56.9322331,21.4335607 56.5310429,27.0098061 C56.4071411,28.7328368 55.956589,30.3641006 55.0263313,31.8327018 C53.1866871,34.7361129 50.4678037,36.0284687 47.2973742,36.1033941" id="Fill-10"></path>
            </g>
        </g>
    </g>
</svg>