<?xml version="1.0" encoding="UTF-8"?>
<svg width="193px" height="131px" viewBox="0 0 193 131" version="1.1" xmlns="http://www.w3.org/2000/svg" xmlns:xlink="http://www.w3.org/1999/xlink">
    <!-- Generator: Sketch 61.2 (89653) - https://sketch.com -->
    <title>Group 56</title>
    <desc>Created with Sketch.</desc>
    <g id="Welcome" stroke="none" stroke-width="1" fill="none" fill-rule="evenodd">
        <g id="About" transform="translate(-982.000000, -6168.000000)">
            <g id="Group-56" transform="translate(982.500000, 6168.500000)">
                <rect id="Rectangle-Copy-39" fill="#000000" x="0" y="0" width="192" height="130"></rect>
                <g id="Group-11" transform="translate(51.500000, 16.000000)" fill="#FFFFFF">
                    <path d="M6.26810429,90.5590215 L84.196,90.5590215 L84.196,56.7081043 L6.26810429,56.7081043 L6.26810429,90.5590215 Z M0,96.9053804 L0,50.3453804 C0.220779141,50.346273 0.441260736,50.3474632 0.662337423,50.3474632 C30.4014663,50.3477607 60.1408926,50.3477607 89.8800215,50.3477607 L90.523911,50.3477607 L90.523911,96.9053804 L0,96.9053804 Z" id="Fill-1"></path>
                    <path d="M6.28387423,40.193408 L84.1903466,40.193408 L84.1903466,6.35885583 L6.28387423,6.35885583 L6.28387423,40.193408 Z M0,46.56 L0,0 L90.5578313,0 L90.5578313,46.4686534 C90.2712945,46.4686534 90.0523006,46.4680583 89.8336043,46.4686534 C82.5327178,46.488589 75.2321288,46.518046 67.9315399,46.5263773 C55.3322515,46.5406595 42.7332607,46.5421472 30.1339724,46.5480982 C20.0894141,46.5528589 10.0445583,46.5561319 0,46.56 L0,46.56 Z" id="Fill-3"></path>
                    <polygon id="Fill-4" points="32.6523423 82.6188276 32.6523423 65.2543399 37.0866706 65.2543399 37.0866706 71.8018399 43.8406675 71.8018399 43.8406675 65.2454135 48.4085939 65.2454135 48.4085939 82.624481 43.9540325 82.624481 43.9540325 75.8190086 37.1101767 75.8190086 37.1101767 82.6188276"></polygon>
                    <path d="M60.7036117,77.4699129 C62.2091945,77.4699129 63.6255135,77.4636644 65.041535,77.4812196 C65.1543049,77.4827074 65.3218233,77.6213638 65.3688356,77.7356215 C66.1094276,79.5325018 68.7287252,79.5506521 69.7924521,78.8261276 C70.2542436,78.5116215 70.5089429,78.0780969 70.4750227,77.5068086 C70.4396147,76.9093362 70.0733356,76.5281798 69.5440012,76.3805969 C68.4856301,76.0854313 67.4028601,75.8786368 66.3403233,75.5962656 C65.417038,75.3510877 64.4654859,75.1454834 63.6014123,74.7562933 C61.682538,73.891327 60.9133816,72.1798423 61.0838755,70.1068393 C61.2763877,67.767235 62.5870779,66.2307074 64.7564859,65.481784 C67.2326638,64.6272319 69.6900963,64.7236368 72.0079798,66.044146 C73.5180258,66.9043515 74.5124245,68.4242166 74.8212773,70.1853914 C74.7730748,70.2035417 74.7195166,70.2410325 74.6662558,70.2410325 C73.357946,70.2460908 72.0493387,70.2541245 70.7410288,70.2371644 C70.6110012,70.2356767 70.4178939,70.1068393 70.3634429,69.9875233 C69.6174951,68.3510202 67.5197957,68.2903209 66.4352405,68.8297718 C65.8770442,69.1073822 65.6003264,69.5694712 65.6506117,70.2145509 C65.7020871,70.8697472 66.1317436,71.200916 66.6875595,71.3568301 C67.7012988,71.6409865 68.7364613,71.8489712 69.7513908,72.1298546 C70.5821393,72.3592626 71.4265748,72.5791491 72.213584,72.9219221 C76.0846577,74.605735 75.7189736,79.7863086 72.8542006,81.6602534 C71.5179215,82.5344436 70.0480442,82.893284 68.4728356,82.918873 C66.5908571,82.9495202 64.7987374,82.6272779 63.2190656,81.5364742 C61.8447006,80.5873025 61.0448969,79.2614374 60.7036117,77.4699129" id="Fill-5"></path>
                    <polygon id="Fill-6" points="23.6983497 69.0636429 23.6983497 82.5469405 19.2253405 82.5469405 19.2253405 69.1002411 13.8858773 69.1002411 13.8858773 65.2604098 29.0146043 65.2604098 29.0146043 69.0636429"></polygon>
                    <polygon id="Fill-7" points="52.7540153 82.5577117 57.1832853 82.5577117 57.1832853 65.2589816 52.7540153 65.2589816"></polygon>
                    <path d="M52.808615,14.6888647 L57.4158175,14.6888647 C58.2185966,18.0428034 59.0189954,21.3878156 59.8193942,24.7325304 C59.8467684,24.7343156 59.8741426,24.7361009 59.9012193,24.7372911 C60.7899893,21.3943617 61.6787592,18.0514322 62.5713972,14.6927328 L66.0199555,14.6927328 C66.8804586,18.0407206 67.7409617,21.3875181 68.6011672,24.7346132 C68.6282439,24.7328279 68.6556181,24.7313402 68.6829923,24.7295549 C69.4833911,21.3851377 70.2834923,18.0407206 71.0859739,14.6882696 L75.6970445,14.6882696 C75.3408819,16.0477574 74.9930506,17.3846316 74.6404586,18.7203156 C73.5071058,23.0133095 72.3669095,27.3042206 71.2469463,31.600785 C71.1386396,32.0155641 70.9955199,32.1887359 70.5289678,32.1723709 C69.3486028,32.1304169 68.1658574,32.1583862 66.9271733,32.1583862 C66.0324525,28.7952236 65.140112,25.4409874 64.2477715,22.0864537 C64.2198021,22.0852635 64.1918328,22.0843709 64.163566,22.0834782 C63.2724156,25.4350365 62.3809678,28.7865948 61.4844617,32.1577911 C60.1541334,32.1577911 58.8624862,32.1682052 57.5711365,32.1399383 C57.4527132,32.137558 57.2750782,31.9045794 57.2340169,31.7498555 C56.5782255,29.2849844 55.9385015,26.8159475 55.2990752,24.3466132 C54.4858819,21.2066101 53.6762592,18.0657144 52.8654463,14.9251163 C52.8499739,14.8653095 52.8365844,14.8052052 52.808615,14.6888647" id="Fill-8"></path>
                    <path d="M30.2134172,32.1566009 C29.0262086,32.1566009 27.8633988,32.1682052 26.701184,32.1414261 C26.5625276,32.1381531 26.397092,31.9483187 26.296819,31.8069844 C24.0875399,28.6988187 21.8856994,25.5849997 19.6817761,22.4726684 C19.5862638,22.3378801 19.4827178,22.20815 19.3050828,21.9724936 L19.3050828,32.124466 L14.9853098,32.124466 L14.9853098,14.6716071 L15.4105031,14.6716071 C16.5298712,14.6716071 17.6495368,14.684104 18.7686074,14.6638709 C19.0914448,14.6576224 19.2750307,14.7683095 19.4565337,15.0295549 C21.4679448,17.930331 23.4924479,20.8221807 25.5139755,23.7158156 C25.6109755,23.8547696 25.7145215,23.9892604 25.8879908,24.2249169 L25.8879908,14.7049322 L30.2134172,14.7049322 L30.2134172,32.1566009 Z" id="Fill-9"></path>
                    <path d="M46.1821166,23.5411264 C46.1809264,22.390516 46.0333436,21.4455098 45.6084479,20.5626908 C44.9493834,19.1936816 43.8713742,18.4090528 42.3354417,18.3900098 C40.8438436,18.3712644 39.7024571,19.0627613 39.0663037,20.4032061 C38.1049325,22.4294945 38.0793436,24.515292 39.1630061,26.4933779 C40.5382638,29.0043687 44.0022945,28.9769945 45.4343834,26.4978411 C45.994365,25.5278411 46.1728926,24.4653043 46.1821166,23.5411264 M42.4800491,32.4261966 C37.9403896,32.4404301 34.463862,29.3141141 33.966365,24.9553626 C33.7607607,23.1552092 33.8833497,21.3984975 34.5409264,19.7001049 C35.9765859,15.9926816 39.3808098,14.2243656 43.0572883,14.5213166 C48.1985859,14.9360957 51.1335798,19.2505129 50.7732515,24.2588074 C50.6619693,25.8063442 50.2573067,27.2714607 49.4217975,28.5904822 C47.7695245,31.1981755 45.3275644,32.3589025 42.4800491,32.4261966" id="Fill-10"></path>
                </g>
            </g>
        </g>
    </g>
</svg>