<?xml version="1.0" encoding="UTF-8"?>
<svg width="193px" height="130px" viewBox="0 0 193 130" version="1.1" xmlns="http://www.w3.org/2000/svg" xmlns:xlink="http://www.w3.org/1999/xlink">
    <!-- Generator: Sketch 61.2 (89653) - https://sketch.com -->
    <title>Group 32</title>
    <desc>Created with Sketch.</desc>
    <defs>
        <polygon id="path-1" points="0 0 73.5464991 0 73.5464991 105.901398 0 105.901398"></polygon>
    </defs>
    <g id="Welcome" stroke="none" stroke-width="1" fill="none" fill-rule="evenodd">
        <g id="About" transform="translate(-264.000000, -6355.000000)">
            <g id="Group-32" transform="translate(264.250000, 6355.000000)">
                <rect id="Rectangle-Copy-40" fill="#000000" x="0" y="0" width="192" height="130"></rect>
                <g id="Group-3" transform="translate(58.750000, 11.500000)">
                    <mask id="mask-2" fill="white">
                        <use xlink:href="#path-1"></use>
                    </mask>
                    <g id="Clip-2"></g>
                    <path d="M66.1510563,60.9322194 C66.1445284,60.962061 66.1582059,60.9831988 66.1886692,60.9831988 L66.2725988,60.9831988 C66.2896956,60.9831988 66.3089683,60.9673455 66.3114551,60.953668 L66.494546,59.8697326 L66.502939,59.8697326 L66.8942997,60.9810229 C66.8986516,60.9937677 66.9169918,61.003715 66.9294258,61.003715 L66.9682821,61.003715 C66.9807161,61.003715 66.9990563,60.9937677 67.0037191,60.9810229 L67.3910387,59.8697326 L67.3994317,59.8697326 L67.5865636,60.953668 C67.5902938,60.9673455 67.6077015,60.9831988 67.6251091,60.9831988 L67.7077953,60.9831988 C67.7401238,60.9831988 67.7528686,60.962061 67.7466516,60.9322194 L67.4752792,59.5187824 C67.4712381,59.5016856 67.4535196,59.4886299 67.4364229,59.4886299 L67.4044053,59.4886299 C67.3885519,59.4886299 67.3723877,59.5001314 67.3667924,59.5119437 L66.9574023,60.6717267 L66.9471443,60.6717267 L66.529983,59.5119437 C66.5268745,59.5001314 66.5094669,59.4886299 66.494546,59.4886299 L66.461285,59.4886299 C66.4432557,59.4886299 66.4277132,59.5016856 66.4227396,59.5187824 L66.1510563,60.9322194 Z M65.4883232,60.94341 C65.4883232,60.9636152 65.5069742,60.9831988 65.5274903,60.9831988 L65.607068,60.9831988 C65.6288276,60.9831988 65.6477894,60.9636152 65.6477894,60.94341 L65.6477894,59.6518264 L66.014593,59.6518264 C66.0363525,59.6518264 66.0543818,59.6325537 66.0543818,59.6107941 L66.0543818,59.5495566 C66.0543818,59.5287296 66.0363525,59.5103894 66.014593,59.5103894 L65.1212088,59.5103894 C65.0988276,59.5103894 65.0823525,59.5287296 65.0823525,59.5495566 L65.0823525,59.6107941 C65.0823525,59.6325537 65.0988276,59.6518264 65.1212088,59.6518264 L65.4883232,59.6518264 L65.4883232,60.94341 Z M35.4390328,53.8510463 C42.0144522,53.8510463 48.0368686,50.2482897 51.1466164,44.4515507 L44.629637,40.9507531 C42.8021472,44.3415097 39.2826985,46.4506299 35.4390328,46.4506299 C29.6929625,46.4506299 25.0190152,41.7757501 25.0190152,36.031234 C25.0190152,30.2870287 29.6929625,25.6109056 35.4390328,25.6109056 C39.2056076,25.6109056 42.70081,27.6575449 44.5416663,30.9534921 L51.0008276,27.3435859 C47.8522235,21.7078674 41.8876252,18.2120434 35.4390328,18.2120434 C25.6105636,18.2120434 17.6136252,26.2036974 17.6136252,36.031234 C17.6136252,45.8584598 25.6105636,53.8510463 35.4390328,53.8510463 L35.4390328,53.8510463 Z M35.4946751,72.0615977 C55.3598833,72.0615977 71.526593,55.8995507 71.526593,36.0327883 C71.526593,16.1638499 55.3598833,-6.2170088e-05 35.4946751,-6.2170088e-05 C22.4199947,-6.2170088e-05 10.3434551,7.10566804 3.98563109,18.5449642 L10.4553613,22.1393279 C15.5101003,13.0506827 25.1035666,7.3994217 35.4946751,7.3994217 C51.2793496,7.3994217 64.125244,20.2443836 64.125244,36.0327883 C64.125244,51.8171519 51.2793496,64.6580727 35.4946751,64.6580727 C24.9767396,64.6580727 15.3198598,58.9067179 10.3011795,49.6421314 L3.79321466,53.169973 C10.1081413,64.8225126 22.2540006,72.0615977 35.4946751,72.0615977 L35.4946751,72.0615977 Z M6.17215308,95.8948117 C6.17215308,95.748712 6.05402991,95.6197091 5.89300938,95.6197091 L0.44877478,95.6197091 C0.290862757,95.6197091 0.17988915,95.748712 0.17988915,95.8948117 L0.17988915,97.4711343 C0.17988915,97.6141255 0.290862757,97.746237 0.44877478,97.746237 L3.89703871,97.746237 L3.89703871,105.480818 C3.89703871,105.62443 4.02759589,105.752501 4.1712088,105.752501 L5.89300938,105.752501 C6.05402991,105.752501 6.17215308,105.62443 6.17215308,105.480818 L6.17215308,95.8948117 Z M14.8461238,99.0912868 L13.7556604,101.483281 L13.7429155,101.483281 L12.6409507,99.0912868 L14.8461238,99.0912868 Z M18.5934258,95.9955273 C18.6758012,95.8059085 18.5635842,95.6197091 18.3447455,95.6197091 L16.7522587,95.6197091 C16.4619243,95.6197091 16.304634,95.7863249 16.2306516,95.9647531 L15.708112,97.1217384 L11.7746106,97.1217384 L11.2511384,95.9787413 C11.119027,95.7020845 11.004634,95.6197091 10.7438305,95.6197091 L9.13766628,95.6197091 C8.92069267,95.6197091 8.80598886,95.8059085 8.88867507,95.9955273 L13.4242938,105.740999 C13.4678129,105.824929 13.5688393,105.901398 13.6661355,105.901398 L13.8109918,105.901398 C13.9095314,105.901398 14.0164639,105.824929 14.0609155,105.740999 L18.5934258,95.9955273 L18.5934258,95.9955273 Z M26.370593,101.424219 L26.370593,103.678818 L24.2313202,103.678818 C23.6341765,103.678818 23.1293554,103.195445 23.1293554,102.583381 C23.1293554,101.975979 23.6341765,101.424219 24.2313202,101.424219 L26.370593,101.424219 Z M28.6590739,95.8948117 C28.6590739,95.748712 28.5456135,95.6197091 28.3861472,95.6197091 L26.6599947,95.6197091 C26.5179361,95.6197091 26.3842704,95.748712 26.3842704,95.8948117 L26.3842704,99.5889584 L25.3867513,99.5889584 L23.4632088,95.748712 C23.4305695,95.690583 23.3457073,95.6197091 23.2331795,95.6197091 L21.3021765,95.6197091 C21.055983,95.6197091 20.9577543,95.8460082 21.055983,96.0402897 L23.0395196,99.7139202 C21.7805754,100.222472 20.9039771,101.297392 20.9039771,102.622548 C20.9039771,104.349011 22.3177249,105.752501 24.0553789,105.752501 L28.3861472,105.752501 C28.5456135,105.752501 28.6590739,105.62443 28.6590739,105.482994 L28.6590739,95.8948117 Z M36.430024,95.8935683 C36.430024,95.748712 36.3007103,95.6181548 36.1546106,95.6181548 L34.4178891,95.6181548 C34.2733437,95.6181548 34.1406106,95.748712 34.1406106,95.8935683 L34.1406106,103.629392 L32.0709683,103.629392 C31.9115021,103.629392 31.7989742,103.75653 31.7989742,103.899832 L31.7989742,105.482994 C31.7989742,105.62412 31.9115021,105.752501 32.0709683,105.752501 L38.5009097,105.752501 C38.6578891,105.752501 38.7757015,105.62412 38.7757015,105.482994 L38.7757015,103.899832 C38.7757015,103.75653 38.6578891,103.629392 38.5009097,103.629392 L36.430024,103.629392 L36.430024,95.8935683 Z M50.8077894,95.8948117 C50.8077894,95.748712 50.6731912,95.6197091 50.5329977,95.6197091 L48.8105754,95.6197091 C48.6501765,95.6197091 48.5360944,95.748712 48.5360944,95.8948117 L48.5360944,101.298636 L48.5193085,101.298636 L42.7974845,95.5441724 C42.7657777,95.5174393 42.6569801,95.4717443 42.6100416,95.4717443 L42.3781472,95.4717443 C42.2357777,95.4717443 42.1064639,95.5855155 42.1064639,95.7359672 L42.1064639,105.482994 C42.1064639,105.62412 42.2357777,105.752501 42.3781472,105.752501 L44.1170446,105.752501 C44.2802411,105.752501 44.3924581,105.62412 44.3924581,105.482994 L44.3924581,100.343082 L44.4055138,100.343082 L50.1857777,105.901398 L50.548851,105.901398 C50.6918422,105.901398 50.8202235,105.784829 50.8202235,105.642149 L50.8077894,95.8948117 Z M61.1755842,95.8948117 C61.1755842,95.748712 61.0611912,95.6197091 60.9001707,95.6197091 L54.9103935,95.6197091 C54.7499947,95.6197091 54.6343584,95.748712 54.6343584,95.8948117 L54.6343584,97.4711343 C54.6343584,97.6141255 54.7499947,97.7484129 54.9103935,97.7484129 L58.9175666,97.7484129 L58.9175666,99.7008645 L55.6175783,99.7008645 C55.4721003,99.7008645 55.3415431,99.8146358 55.3415431,99.976278 L55.3415431,101.557885 C55.3415431,101.699633 55.4721003,101.827392 55.6175783,101.827392 L58.9175666,101.827392 L58.9175666,103.628149 L54.9103935,103.628149 C54.7499947,103.628149 54.6343584,103.75653 54.6343584,103.897967 L54.6343584,105.482994 C54.6343584,105.62443 54.7499947,105.752501 54.9103935,105.752501 L60.9001707,105.752501 C61.0611912,105.752501 61.1755842,105.62443 61.1755842,105.482994 L61.1755842,95.8948117 Z M68.3186164,105.901398 C71.2120123,105.901398 73.5464991,103.571263 73.5464991,100.672272 C73.5464991,97.7745243 71.2120123,95.4717443 68.3186164,95.4717443 C67.0301413,95.4717443 65.787983,95.9224774 64.8001003,96.8777208 C64.7028041,96.9753279 64.6847748,97.1640141 64.7873554,97.2700141 L65.9132557,98.4745595 C66.004024,98.571234 66.1908452,98.571234 66.2896956,98.488237 C66.8134786,98.0396798 67.5533026,97.7906886 68.2387279,97.7906886 C69.8710035,97.7906886 71.0864287,99.1229935 71.0864287,100.731334 C71.0864287,102.354284 69.8846809,103.714565 68.2443232,103.714565 C67.535895,103.714565 66.8259126,103.452829 66.2896956,102.977539 C66.1908452,102.87558 66.0295138,102.87558 65.9294199,102.977539 L64.8001003,104.14758 C64.6847748,104.264149 64.6847748,104.437914 64.8134669,104.551064 C65.8010387,105.451287 66.8669449,105.901398 68.3186164,105.901398 L68.3186164,105.901398 Z M67.6723584,91.5798968 C67.6723584,91.7359437 67.7914141,91.8699202 67.9602059,91.8699202 L69.7566106,91.8699202 C69.9107924,91.8699202 70.0457015,91.7359437 70.0457015,91.5798968 L70.0457015,86.7586065 L73.4336604,81.7278029 C73.5561355,81.5273044 73.4336604,81.2857736 73.1921296,81.2857736 L71.2247572,81.2857736 C71.0886047,81.2857736 71.0314082,81.361932 70.9826047,81.4203718 L68.8849859,84.5217267 L66.7774199,81.4203718 C66.7348334,81.3588235 66.6583642,81.2857736 66.5377543,81.2857736 L64.5750446,81.2857736 C64.331027,81.2857736 64.2094845,81.5273044 64.331027,81.7278029 L67.6723584,86.7713513 L67.6723584,91.5798968 Z M55.20881,89.6336622 L55.20881,83.5068 L56.6589273,83.5068 C58.3667396,83.5068 59.6085871,84.8555801 59.6085871,86.5640141 C59.6085871,88.2845713 58.3667396,89.6336622 56.6589273,89.6336622 L55.20881,89.6336622 Z M52.8516311,91.5817619 C52.8516311,91.7359437 52.9725519,91.8699202 53.122071,91.8699202 L56.8121765,91.8699202 C59.7279537,91.8699202 62.1171501,89.4953337 62.1171501,86.5640141 C62.1171501,83.6616035 59.7279537,81.2857736 56.8121765,81.2857736 L53.122071,81.2857736 C52.9725519,81.2857736 52.8516311,81.4203718 52.8516311,81.5714452 L52.8516311,91.5817619 Z M42.0206692,91.5817619 C42.0206692,91.7359437 42.1394141,91.8699202 42.3097601,91.8699202 L48.5665578,91.8699202 C48.7285109,91.8699202 48.8553378,91.7359437 48.8553378,91.5817619 L48.8553378,89.9348762 C48.8553378,89.785668 48.7285109,89.648583 48.5665578,89.648583 L44.3803349,89.648583 L44.3803349,87.6056739 L47.8301531,87.6056739 C47.9774962,87.6056739 48.1105402,87.489105 48.1105402,87.3215566 L48.1105402,85.6678323 C48.1105402,85.5217326 47.9774962,85.3852692 47.8301531,85.3852692 L44.3803349,85.3852692 L44.3803349,83.5068 L48.5665578,83.5068 C48.7285109,83.5068 48.8553378,83.3740669 48.8553378,83.2236152 L48.8553378,81.5705126 C48.8553378,81.4203718 48.7285109,81.2857736 48.5665578,81.2857736 L42.3097601,81.2857736 C42.1394141,81.2857736 42.0206692,81.4203718 42.0206692,81.5705126 L42.0206692,91.5817619 Z M26.1088569,91.537932 C26.0808804,91.7359437 26.2142352,91.8711636 26.3923525,91.8711636 L28.1772557,91.8711636 C28.3320592,91.8711636 28.4526692,91.7471343 28.4663466,91.6318088 L29.1318774,86.9553748 L29.159854,86.9553748 L31.7231267,91.8571754 C31.7657132,91.9454569 31.8841472,92.0265889 31.9786457,92.0265889 L32.2456663,92.0265889 C32.3227572,92.0265889 32.462329,91.9454569 32.5042938,91.8571754 L35.0467396,86.9553748 L35.0759595,86.9553748 L35.7588979,91.6318088 C35.7719537,91.7471343 35.9059302,91.8711636 36.0433261,91.8711636 L37.8279185,91.8711636 C38.0069683,91.8711636 38.1465402,91.7359437 38.1145226,91.537932 L36.4063994,81.3759202 C36.392722,81.2363484 36.2568804,81.1340786 36.1337836,81.1340786 L35.8934962,81.1340786 C35.8136076,81.1340786 35.681807,81.1915859 35.6364229,81.2857736 L32.1259889,87.8232692 L32.0980123,87.8232692 L28.5878891,81.2857736 C28.542505,81.1915859 28.4082176,81.1340786 28.3320592,81.1340786 L28.0883525,81.1340786 C27.9683642,81.1340786 27.8294141,81.2363484 27.8188452,81.3759202 L26.1088569,91.537932 Z M17.530939,89.6013337 C15.880634,89.6013337 14.5219067,88.2404305 14.5219067,86.5947883 C14.5219067,84.9320493 15.880634,83.5559144 17.530939,83.5559144 C19.193678,83.5559144 20.5496076,84.9320493 20.5496076,86.5947883 C20.5496076,88.2404305 19.193678,89.6013337 17.530939,89.6013337 L17.530939,89.6013337 Z M17.530939,81.1340786 C14.511027,81.1340786 12.1031795,83.5667941 12.1031795,86.5947883 C12.1031795,89.6206065 14.511027,92.0265889 17.530939,92.0265889 C20.5496076,92.0265889 22.9733085,89.6206065 22.9733085,86.5947883 C22.9733085,83.5667941 20.5496076,81.1340786 17.530939,81.1340786 L17.530939,81.1340786 Z M5.46185982,81.1340786 C6.97445806,81.1340786 8.09289795,81.6040845 9.12150205,82.5394334 C9.25361349,82.6631519 9.25361349,82.8403367 9.13424692,82.9625009 L7.9551912,84.188495 C7.85229971,84.2938733 7.68102111,84.2938733 7.57906217,84.188495 C7.01984223,83.6883367 6.27815308,83.4203836 5.53739648,83.4203836 C3.82647566,83.4203836 2.57095073,84.8359965 2.57095073,86.5332399 C2.57095073,88.2087238 3.83984223,89.6013337 5.55324985,89.6013337 C6.26074545,89.6013337 7.03351965,89.3476798 7.57906217,88.8761196 C7.68102111,88.7875273 7.8799654,88.7875273 7.97011202,88.8907296 L9.14792434,90.1440786 C9.25361349,90.2569173 9.23807097,90.4502663 9.13424692,90.5519144 C8.10439941,91.5531636 6.80690968,92.0265889 5.46185982,92.0265889 C2.43417654,92.0265889 -9.3255132e-05,89.6171871 -9.3255132e-05,86.5947883 C-9.3255132e-05,83.5667941 2.43417654,81.1340786 5.46185982,81.1340786 L5.46185982,81.1340786 Z" id="Fill-1" fill="#FFFFFF" mask="url(#mask-2)"></path>
                </g>
            </g>
        </g>
    </g>
</svg>