<?xml version="1.0" encoding="UTF-8"?>
<svg width="89px" height="127px" viewBox="0 0 89 127" version="1.1" xmlns="http://www.w3.org/2000/svg" xmlns:xlink="http://www.w3.org/1999/xlink">
    <!-- Generator: Sketch 61.2 (89653) - https://sketch.com -->
    <title>Group 3</title>
    <desc>Created with Sketch.</desc>
    <defs>
        <polygon id="path-1" points="0 0 88.117032 0 88.117032 126.881864 0 126.881864"></polygon>
    </defs>
    <g id="Welcome" stroke="none" stroke-width="1" fill="none" fill-rule="evenodd">
        <g id="About" transform="translate(-316.000000, -6356.000000)">
            <g id="Group-3" transform="translate(316.000000, 6356.000000)">
                <mask id="mask-2" fill="white">
                    <use xlink:href="#path-1"></use>
                </mask>
                <g id="Clip-2"></g>
                <path d="M79.2564543,73.0036968 C79.2486331,73.0394504 79.2650202,73.064776 79.3015188,73.064776 L79.402076,73.064776 C79.4225598,73.064776 79.4456507,73.0457818 79.4486302,73.0293947 L79.6679938,71.7307173 L79.6780496,71.7307173 L80.146944,73.0621689 C80.1521581,73.0774387 80.1741317,73.0893566 80.189029,73.0893566 L80.2355833,73.0893566 C80.2504806,73.0893566 80.2724543,73.0774387 80.2780408,73.0621689 L80.7420935,71.7307173 L80.7521493,71.7307173 L80.9763545,73.0293947 C80.9808238,73.0457818 81.0016801,73.064776 81.0225364,73.064776 L81.1216038,73.064776 C81.160337,73.064776 81.1756067,73.0394504 81.1681581,73.0036968 L80.8430232,71.3102393 C80.8381815,71.2897554 80.8169528,71.2741132 80.7964689,71.2741132 L80.7581082,71.2741132 C80.7391141,71.2741132 80.7197475,71.2878933 80.7130437,71.3020457 L80.2225481,72.6915971 L80.2102578,72.6915971 L79.7104513,71.3020457 C79.706727,71.2878933 79.6858707,71.2741132 79.6679938,71.2741132 L79.6281434,71.2741132 C79.6065422,71.2741132 79.5879205,71.2897554 79.5819616,71.3102393 L79.2564543,73.0036968 Z M78.4624249,73.0171044 C78.4624249,73.0413126 78.484771,73.064776 78.5093516,73.064776 L78.6046947,73.064776 C78.6307651,73.064776 78.6534836,73.0413126 78.6534836,73.0171044 L78.6534836,71.4696411 L79.0929557,71.4696411 C79.1190261,71.4696411 79.1406273,71.4465501 79.1406273,71.4204798 L79.1406273,71.3471103 C79.1406273,71.3221572 79.1190261,71.3001836 79.0929557,71.3001836 L78.0225804,71.3001836 C77.9957651,71.3001836 77.9760261,71.3221572 77.9760261,71.3471103 L77.9760261,71.4204798 C77.9760261,71.4465501 77.9957651,71.4696411 78.0225804,71.4696411 L78.4624249,71.4696411 L78.4624249,73.0171044 Z M42.4599733,64.5196499 C50.3380701,64.5196499 57.5536067,60.2031396 61.2794367,53.25799 L53.4713575,49.0636381 C51.2818179,53.1261484 47.0651199,55.6531132 42.4599733,55.6531132 C35.5755305,55.6531132 29.9756126,50.052078 29.9756126,43.1694974 C29.9756126,36.2872891 35.5755305,30.6847642 42.4599733,30.6847642 C46.9727563,30.6847642 51.1604044,33.1368698 53.3659587,37.0857877 L61.1047651,32.7607114 C57.3323809,26.0084827 50.186117,21.8200897 42.4599733,21.8200897 C30.6843545,21.8200897 21.103117,31.3949959 21.103117,43.1694974 C21.103117,54.9436264 30.6843545,64.5196499 42.4599733,64.5196499 L42.4599733,64.5196499 Z M42.526639,86.3379519 C66.3274073,86.3379519 85.6969557,66.97399 85.6969557,43.1713595 C85.6969557,19.366122 66.3274073,-7.44868035e-05 42.526639,-7.44868035e-05 C26.8616918,-7.44868035e-05 12.3926302,8.51339472 4.77523724,22.2189666 L12.5267065,26.5254211 C18.582856,15.6361953 30.0769147,8.86534487 42.526639,8.86534487 C61.438466,8.86534487 76.8293018,24.2550633 76.8293018,43.1713595 C76.8293018,62.0828141 61.438466,77.4676909 42.526639,77.4676909 C29.9249616,77.4676909 18.3549264,70.5769167 12.3419792,59.4768933 L4.54470059,63.7036469 C12.1106977,77.6647085 26.662812,86.3379519 42.526639,86.3379519 L42.526639,86.3379519 Z M7.39493812,114.89284 C7.39493812,114.717796 7.2534132,114.563236 7.06049238,114.563236 L0.537682991,114.563236 C0.34848651,114.563236 0.215527566,114.717796 0.215527566,114.89284 L0.215527566,116.781453 C0.215527566,116.952773 0.34848651,117.111057 0.537682991,117.111057 L4.66909355,117.111057 L4.66909355,126.377961 C4.66909355,126.550025 4.82551584,126.703468 4.99758035,126.703468 L7.06049238,126.703468 C7.2534132,126.703468 7.39493812,126.550025 7.39493812,126.377961 L7.39493812,114.89284 Z M17.787337,118.722579 L16.4808384,121.588459 L16.4655686,121.588459 L15.14529,118.722579 L17.787337,118.722579 Z M22.277029,115.013509 C22.375724,114.786324 22.2412754,114.563236 21.9790818,114.563236 L20.0711023,114.563236 C19.723249,114.563236 19.5347974,114.762861 19.4461581,114.976638 L18.8200965,116.362838 L14.1073164,116.362838 L13.4801375,114.993398 C13.3218531,114.661931 13.1847974,114.563236 12.8723252,114.563236 L10.9479587,114.563236 C10.6879997,114.563236 10.5505716,114.786324 10.649639,115.013509 L16.0838238,126.689688 C16.1359645,126.790245 16.2570056,126.881864 16.3735774,126.881864 L16.5471317,126.881864 C16.6651933,126.881864 16.7933106,126.790245 16.8465686,126.689688 L22.277029,115.013509 L22.277029,115.013509 Z M31.5949557,121.517697 L31.5949557,124.218961 L29.0318648,124.218961 C28.3164191,124.218961 27.7115862,123.639826 27.7115862,122.906503 C27.7115862,122.178767 28.3164191,121.517697 29.0318648,121.517697 L31.5949557,121.517697 Z M34.336815,114.89284 C34.336815,114.717796 34.2008765,114.563236 34.0098179,114.563236 L31.9416918,114.563236 C31.7714894,114.563236 31.6113428,114.717796 31.6113428,114.89284 L31.6113428,119.318846 L30.4162021,119.318846 L28.1115804,114.717796 C28.0724748,114.648151 27.9708003,114.563236 27.8359792,114.563236 L25.5224191,114.563236 C25.2274513,114.563236 25.1097622,114.834368 25.2274513,115.06714 L27.6039528,119.468565 C26.095595,120.077867 25.0453311,121.365744 25.0453311,122.95343 C25.0453311,125.021928 26.739161,126.703468 28.8210672,126.703468 L34.0098179,126.703468 C34.2008765,126.703468 34.336815,126.550025 34.336815,126.380568 L34.336815,114.89284 Z M43.647293,114.891351 C43.647293,114.717796 43.4923604,114.561374 43.3173164,114.561374 L41.2365276,114.561374 C41.0633457,114.561374 40.9043164,114.717796 40.9043164,114.891351 L40.9043164,124.159744 L38.4246507,124.159744 C38.2335921,124.159744 38.098771,124.312069 38.098771,124.483761 L38.098771,126.380568 C38.098771,126.549653 38.2335921,126.703468 38.4246507,126.703468 L46.1284484,126.703468 C46.3165276,126.703468 46.4576801,126.549653 46.4576801,126.380568 L46.4576801,124.483761 C46.4576801,124.312069 46.3165276,124.159744 46.1284484,124.159744 L43.647293,124.159744 L43.647293,114.891351 Z M60.8734836,114.89284 C60.8734836,114.717796 60.7122196,114.563236 60.5442519,114.563236 L58.480595,114.563236 C58.2884191,114.563236 58.1517358,114.717796 58.1517358,114.89284 L58.1517358,121.367233 L58.1316243,121.367233 L51.2762314,114.472735 C51.2382431,114.440706 51.1078912,114.385958 51.0516537,114.385958 L50.7738179,114.385958 C50.6032431,114.385958 50.4483106,114.522269 50.4483106,114.702527 L50.4483106,126.380568 C50.4483106,126.549653 50.6032431,126.703468 50.7738179,126.703468 L52.8572138,126.703468 C53.0527416,126.703468 53.1871903,126.549653 53.1871903,126.380568 L53.1871903,120.222371 L53.2028326,120.222371 L60.1282431,126.881864 L60.563246,126.881864 C60.7345657,126.881864 60.8883809,126.742201 60.8883809,126.571254 L60.8734836,114.89284 Z M73.2952754,114.89284 C73.2952754,114.717796 73.1582196,114.563236 72.9652988,114.563236 L65.7888677,114.563236 C65.5966918,114.563236 65.4581463,114.717796 65.4581463,114.89284 L65.4581463,116.781453 C65.4581463,116.952773 65.5966918,117.113665 65.7888677,117.113665 L70.5899147,117.113665 L70.5899147,119.452923 L66.6361551,119.452923 C66.461856,119.452923 66.3054337,119.589233 66.3054337,119.782899 L66.3054337,121.677843 C66.3054337,121.847673 66.461856,122.000744 66.6361551,122.000744 L70.5899147,122.000744 L70.5899147,124.158254 L65.7888677,124.158254 C65.5966918,124.158254 65.4581463,124.312069 65.4581463,124.481527 L65.4581463,126.380568 C65.4581463,126.550025 65.5966918,126.703468 65.7888677,126.703468 L72.9652988,126.703468 C73.1582196,126.703468 73.2952754,126.550025 73.2952754,126.380568 L73.2952754,114.89284 Z M81.8534367,126.881864 C85.3200525,126.881864 88.117032,124.090099 88.117032,120.616779 C88.117032,117.144949 85.3200525,114.385958 81.8534367,114.385958 C80.3096977,114.385958 78.8214513,114.925987 77.637856,116.070477 C77.5212842,116.187421 77.499683,116.413489 77.6225862,116.540489 L78.9715422,117.98367 C79.080293,118.099497 79.3041258,118.099497 79.4225598,118.000057 C80.0501111,117.462635 80.9365041,117.164316 81.7577211,117.164316 C83.7133721,117.164316 85.1695891,118.760568 85.1695891,120.687541 C85.1695891,122.632019 83.7297592,124.261791 81.7644249,124.261791 C80.9156478,124.261791 80.0650085,123.948201 79.4225598,123.37875 C79.3041258,123.256591 79.1108326,123.256591 78.9909088,123.37875 L77.637856,124.780591 C77.499683,124.920254 77.499683,125.128445 77.6538707,125.264011 C78.8370935,126.342579 80.1141698,126.881864 81.8534367,126.881864 L81.8534367,126.881864 Z M81.0791463,109.723084 C81.0791463,109.910046 81.2217886,110.070565 81.4240202,110.070565 L83.5763164,110.070565 C83.7610437,110.070565 83.9226801,109.910046 83.9226801,109.723084 L83.9226801,103.946632 L87.9818384,97.9191601 C88.1285774,97.6789402 87.9818384,97.3895589 87.6924572,97.3895589 L85.3353223,97.3895589 C85.1721962,97.3895589 85.1036683,97.4808053 85.0451962,97.5508229 L82.5320114,101.266597 L80.0069088,97.5508229 C79.9558853,97.4770809 79.8642666,97.3895589 79.7197622,97.3895589 L77.3682138,97.3895589 C77.0758531,97.3895589 76.9302314,97.6789402 77.0758531,97.9191601 L81.0791463,103.961902 L81.0791463,109.723084 Z M66.1464044,107.391274 L66.1464044,100.0506 L67.8838091,100.0506 C69.9299616,100.0506 71.4178355,101.666591 71.4178355,103.713489 C71.4178355,105.774911 69.9299616,107.391274 67.8838091,107.391274 L66.1464044,107.391274 Z M63.3222372,109.725318 C63.3222372,109.910046 63.4671141,110.070565 63.6462548,110.070565 L68.0674191,110.070565 C71.5608501,110.070565 74.423378,107.225541 74.423378,103.713489 C74.423378,100.236072 71.5608501,97.3895589 68.0674191,97.3895589 L63.6462548,97.3895589 C63.4671141,97.3895589 63.3222372,97.5508229 63.3222372,97.7318258 L63.3222372,109.725318 Z M50.3455188,109.725318 C50.3455188,109.910046 50.4877886,110.070565 50.6918824,110.070565 L58.1882343,110.070565 C58.3822724,110.070565 58.5342255,109.910046 58.5342255,109.725318 L58.5342255,107.752163 C58.5342255,107.573395 58.3822724,107.409151 58.1882343,107.409151 L53.1726654,107.409151 L53.1726654,104.961515 L57.3059381,104.961515 C57.4824718,104.961515 57.6418736,104.821852 57.6418736,104.62111 L57.6418736,102.639761 C57.6418736,102.464717 57.4824718,102.301219 57.3059381,102.301219 L53.1726654,102.301219 L53.1726654,100.0506 L58.1882343,100.0506 C58.3822724,100.0506 58.5342255,99.8915707 58.5342255,99.7113126 L58.5342255,97.7307085 C58.5342255,97.5508229 58.3822724,97.3895589 58.1882343,97.3895589 L50.6918824,97.3895589 C50.4877886,97.3895589 50.3455188,97.5508229 50.3455188,97.7307085 L50.3455188,109.725318 Z M31.2813663,109.672805 C31.2478472,109.910046 31.4076214,110.072055 31.6210261,110.072055 L33.7595422,110.072055 C33.9450144,110.072055 34.0895188,109.923453 34.1059059,109.78528 L34.9032871,104.182383 L34.9368062,104.182383 L38.0078971,110.055295 C38.0589205,110.161066 38.2008179,110.258272 38.3140378,110.258272 L38.6339587,110.258272 C38.7263223,110.258272 38.8935452,110.161066 38.9438238,110.055295 L41.9899616,104.182383 L42.0249704,104.182383 L42.8432079,109.78528 C42.8588501,109.923453 43.0193692,110.072055 43.183985,110.072055 L45.3221287,110.072055 C45.5366507,110.072055 45.7038736,109.910046 45.6655129,109.672805 L43.618988,97.4975648 C43.6026009,97.3303419 43.4398472,97.2078111 43.2923633,97.2078111 L43.0044718,97.2078111 C42.9087563,97.2078111 42.7508443,97.2767114 42.6964689,97.3895589 L38.4905716,105.222219 L38.4570525,105.222219 L34.2515276,97.3895589 C34.1971522,97.2767114 34.0362607,97.2078111 33.9450144,97.2078111 L33.6530261,97.2078111 C33.5092666,97.2078111 33.3427886,97.3303419 33.3301258,97.4975648 L31.2813663,109.672805 Z M21.0040496,107.352541 C19.0267974,107.352541 17.3988883,105.722025 17.3988883,103.75036 C17.3988883,101.75821 19.0267974,100.109445 21.0040496,100.109445 C22.9961991,100.109445 24.6207563,101.75821 24.6207563,103.75036 C24.6207563,105.722025 22.9961991,107.352541 21.0040496,107.352541 L21.0040496,107.352541 Z M21.0040496,97.2078111 C17.3858531,97.2078111 14.5009792,100.12248 14.5009792,103.75036 C14.5009792,107.375632 17.3858531,110.258272 21.0040496,110.258272 C24.6207563,110.258272 27.5246243,107.375632 27.5246243,103.75036 C27.5246243,100.12248 24.6207563,97.2078111 21.0040496,97.2078111 L21.0040496,97.2078111 Z M6.54392639,97.2078111 C8.35619032,97.2078111 9.69620792,97.7709314 10.9285921,98.8915853 C11.0868765,99.0398141 11.0868765,99.2521015 10.9438619,99.398468 L9.53121965,100.867348 C9.40794399,100.993603 9.20273284,100.993603 9.08057449,100.867348 C8.41056569,100.268101 7.52193812,99.9470633 6.63442786,99.9470633 C4.58455103,99.9470633 3.08029003,101.643128 3.08029003,103.676618 C3.08029003,105.684037 4.60056569,107.352541 6.65342199,107.352541 C7.50108182,107.352541 8.42695279,107.048635 9.08057449,106.483653 C9.20273284,106.377509 9.44109062,106.377509 9.54909648,106.501157 L10.960249,108.002811 C11.0868765,108.138005 11.0682548,108.369659 10.9438619,108.491445 C9.70998798,109.691055 8.15544839,110.258272 6.54392639,110.258272 C2.91641906,110.258272 -0.000111730205,107.371535 -0.000111730205,103.75036 C-0.000111730205,100.12248 2.91641906,97.2078111 6.54392639,97.2078111 L6.54392639,97.2078111 Z" id="Fill-1" fill="#FFFFFF" mask="url(#mask-2)"></path>
            </g>
        </g>
    </g>
</svg>