<?xml version="1.0" encoding="UTF-8"?>
<svg width="193px" height="130px" viewBox="0 0 193 130" version="1.1" xmlns="http://www.w3.org/2000/svg" xmlns:xlink="http://www.w3.org/1999/xlink">
    <!-- Generator: Sketch 61.2 (89653) - https://sketch.com -->
    <title>Group 45</title>
    <desc>Created with Sketch.</desc>
    <defs>
        <polygon id="path-1" points="0.259413455 0.0487865257 158.388264 0.0487865257 158.388264 27.2706767 0.259413455 27.2706767"></polygon>
        <polygon id="path-3" points="0 0.135512009 56.6670639 0.135512009 56.6670639 57.8169887 0 57.8169887"></polygon>
    </defs>
    <g id="Welcome" stroke="none" stroke-width="1" fill="none" fill-rule="evenodd">
        <g id="About" transform="translate(-504.000000, -6355.000000)">
            <g id="Group-45" transform="translate(504.250000, 6355.000000)">
                <rect id="Rectangle-Copy-41" fill="#000000" x="0" y="0" width="192" height="130"></rect>
                <g id="Group-7" transform="translate(15.750000, 35.500000)">
                    <g id="Group-3" transform="translate(5.506380, 13.905812)">
                        <mask id="mask-2" fill="white">
                            <use xlink:href="#path-1"></use>
                        </mask>
                        <g id="Clip-2"></g>
                        <path d="M22.8284323,10.8839655 C20.4816132,10.8839655 18.5766811,12.8194581 18.5766811,15.2089516 C18.5766811,17.5962426 20.4791353,19.5339377 22.8284323,19.5339377 C25.1749761,19.5339377 27.0777056,17.5962426 27.0777056,15.2089516 C27.0777056,12.8194581 25.1727735,10.8814877 22.8284323,10.8814877 L22.8284323,10.8839655 Z M4.51145963,10.8839655 C3.85014341,10.8839655 3.22434333,11.035391 2.66930024,11.3079568 C1.18808405,12.0422325 0.254477346,13.5537338 0.259413455,15.2089516 C0.259413455,17.5962426 2.16464052,19.5339377 4.50870644,19.5339377 C6.85800341,19.5339377 8.75825511,17.5962426 8.75825511,15.2089516 C8.75825511,12.8194581 6.85800341,10.8814877 4.50870644,10.8814877 L4.51145963,10.8839655 Z M140.293281,20.8009557 C140.994794,22.5368419 141.605451,23.3443525 142.786294,24.2350095 C144.27522,25.3957544 146.2432,25.9761268 148.43116,25.9761268 C152.193394,25.9761268 154.731835,23.9676748 154.731835,21.0658126 C154.731835,18.9208023 153.505564,17.7603327 148.973538,15.5773284 C144.583026,13.4325935 143.487807,12.3627038 142.569343,11.4692937 C141.214498,9.99578645 140.646515,8.6585621 140.646515,6.87201715 C140.646515,2.76646031 143.926941,0.0487865257 148.885161,0.0487865257 C150.379042,0.0487865257 152.00425,0.270693635 153.762987,0.714783172 C154.4645,0.891537966 155.168491,0.982393234 155.564675,0.982393234 C155.912678,0.982393234 156.092186,0.894015837 156.220485,0.596396004 L156.977612,0.596396004 L157.063512,6.22088773 L156.440189,6.22088773 C156.046758,4.88091019 155.784104,4.30301562 155.211165,3.57121773 C153.979939,2.09523261 152.046924,1.29267774 149.566575,1.29267774 C146.417477,1.29267774 144.358366,2.80913476 144.358366,5.08795007 C144.358366,7.0509745 145.544165,8.16629174 149.743055,10.1295915 C155.128019,12.6732637 158.388347,14.9515283 158.388347,19.1454626 C158.388347,23.9651969 154.509928,27.2202933 148.781916,27.2202933 C147.218655,27.207078 145.662552,27.0129781 144.143892,26.6423988 C143.626293,26.522635 143.099607,26.4474729 142.569343,26.4177385 C142.041832,26.4177385 141.870308,26.5085937 141.52203,26.9223982 L140.777842,26.9223982 L140.68919,26.2965981 C140.39157,24.5304268 140.038336,22.7689359 139.634443,21.0228628 L140.293281,20.7982025 L140.293281,20.8009557 Z M130.174482,27.2681988 L128.945733,27.2681988 L123.939333,13.3618365 L118.804358,27.2706767 L117.618559,27.2706767 L109.053936,3.92720519 C108.397851,2.1357045 107.77976,1.42152703 106.639388,1.20209779 L106.639388,0.54573731 L107.386054,0.54573731 C107.867862,0.54573731 110.285438,0.694684885 110.855624,0.694684885 C111.337707,0.694684885 113.83843,0.54821518 114.365665,0.54821518 L115.158033,0.54821518 L115.158033,1.24229436 C113.883857,1.29019987 113.356346,1.64591201 113.356346,2.36008948 C113.356346,2.76370712 113.487673,3.34435488 113.70958,3.97235751 L119.722822,20.5182031 L123.14724,11.0808186 L120.908897,4.73196261 C119.942252,2.00437734 119.107209,1.29019987 116.997715,1.24229436 L116.997715,0.54821518 L117.704184,0.54821518 C118.317319,0.54821518 121.479082,0.694684885 122.228501,0.694684885 C122.839158,0.694684885 126.000921,0.54821518 126.702434,0.54821518 L127.754703,0.54821518 L127.754703,1.24229436 L126.702434,1.24229436 C125.253981,1.24229436 124.552468,1.60048437 124.552468,2.36008948 C124.552468,2.76370712 124.729223,3.48036246 124.991602,4.19453993 L130.830567,20.6520081 L135.440784,6.69774023 C136.010969,4.9087174 136.273348,3.74549466 136.273348,3.03131719 C136.273348,1.77971704 135.660488,1.23981649 134.300137,1.23981649 L133.510247,1.23981649 L133.510247,0.54821518 L133.729951,0.54821518 C134.343362,0.54821518 135.87744,0.694684885 136.80086,0.694684885 C137.23724,0.694684885 138.948348,0.54821518 139.778434,0.54821518 L140.088994,0.54821518 L140.088994,1.24229436 C138.98882,1.55780993 138.423314,2.36008948 137.5478,5.09042794 L130.172004,27.2706767 L130.174482,27.2681988 Z M88.0319543,3.52331223 C88.0319543,1.77971704 87.3733912,1.24229436 85.3093247,1.24229436 L84.6532396,1.24229436 L84.6532396,0.54821518 L86.3640718,0.54821518 C87.550146,0.54821518 93.9543411,0.694684885 93.9994935,0.694684885 C94.9182329,0.694684885 101.007188,0.54821518 102.316605,0.54821518 L104.070387,0.54821518 L104.158764,6.29412258 L103.47735,6.29412258 C103.34382,3.29617406 102.014029,2.08752367 98.9480771,2.08752367 L92.8164477,2.08752367 L92.8164477,12.2465192 L98.1155124,12.2465192 C100.174348,12.2465192 101.314994,11.2625291 101.620323,9.15551288 L102.402504,9.20094052 L102.402504,17.2201569 L101.662998,17.2201569 C101.314994,14.7144787 100.043296,13.7302133 96.9773437,13.7302133 L92.7732227,13.7302133 L92.7732227,22.996074 C92.7732227,24.5177621 93.5201631,25.2798451 95.0066103,25.2798451 L99.3872108,25.2798451 C102.228503,25.2798451 104.292569,23.9803394 105.51884,21.2929507 L106.311208,21.2929507 L104.466571,26.9199203 C103.192395,26.9199203 97.1538232,26.7734506 95.1404154,26.7734506 C93.7803395,26.7734506 87.2420641,26.8744927 85.7484585,26.9199203 L84.6078119,26.9199203 L84.6078119,26.1757331 L85.3093247,26.1757331 C87.3733912,26.1327833 88.0344321,25.5953606 88.0344321,23.8465344 L88.0344321,3.52331223 L88.0319543,3.52331223 Z M57.8022041,3.25597748 C56.6161298,2.00437734 55.3444314,1.24229436 54.4664391,1.24229436 L53.6762736,1.24229436 L53.6762736,0.54821518 L54.335112,0.54821518 C54.6404407,0.54821518 58.2413379,0.694684885 58.5918189,0.694684885 C59.1647578,0.694684885 60.8276845,0.54821518 61.1809188,0.54821518 L61.8824316,0.54821518 L78.5819051,19.0824145 L78.5819051,4.46215 C78.5819051,2.13790705 77.5725857,1.24229436 75.0316667,1.24229436 L74.2847263,1.24229436 L74.2847263,0.54821518 L75.0746165,0.54821518 C75.1627185,0.54821518 78.9326615,0.694684885 79.2379903,0.694684885 C79.6746462,0.694684885 82.1753686,0.54821518 82.6571769,0.54821518 L83.1417383,0.54821518 L83.1846881,1.24229436 C80.8579672,1.42152703 80.2448318,2.04980497 80.2448318,4.10616254 L80.2448318,27.2202933 L79.4576948,27.2202933 L59.5130363,5.09042794 L59.5130363,21.7444739 C59.5130363,25.2368953 60.3054044,26.1757331 63.1970798,26.1757331 L63.9415423,26.1757331 L63.9415423,26.9223982 L63.1062245,26.9223982 C62.4930891,26.9223982 59.4700865,26.7712481 58.7660959,26.7712481 C58.3723897,26.7712481 55.5638606,26.9223982 54.9507252,26.9223982 L54.2467346,26.9223982 L54.2467346,26.1757331 C57.1890687,25.9056451 57.8046819,25.4133748 57.8046819,23.266162 L57.8046819,3.25597748 L57.8022041,3.25597748 Z" id="Fill-1" fill="#FFFFFF" mask="url(#mask-2)"></path>
                    </g>
                    <g id="Group-6" transform="translate(0.000000, 0.139862)">
                        <mask id="mask-4" fill="white">
                            <use xlink:href="#path-3"></use>
                        </mask>
                        <g id="Clip-5"></g>
                        <path d="M28.3348122,0.135512009 C12.6848546,0.135512009 -0.000192723296,13.0474222 -0.000192723296,28.9749013 C-0.000192723296,44.9023804 12.6848546,57.8170438 28.3348122,57.8170438 C43.9795387,57.8170438 56.6670639,44.9023804 56.6670639,28.9749013 C56.6670639,13.0474222 43.9795387,0.135512009 28.3348122,0.135512009 L28.3348122,0.135512009 Z M14.3400724,37.6276266 L14.322452,35.4600402 C13.3585602,36.4415524 11.6906777,37.6276266 9.71994435,37.6276266 C5.02658147,37.6276266 1.51653961,33.7541637 1.51653961,28.9724234 C1.51653961,24.1959142 5.32172343,20.3224513 10.0150863,20.3224513 C10.7468842,20.3224513 11.4610617,20.4157844 12.1424762,20.5950171 C15.8088992,21.5536778 18.5163862,24.9428546 18.5163862,28.9724234 L18.5163862,28.9977528 L18.5667696,37.6276266 L14.3378698,37.6276266 L14.3400724,37.6276266 Z M28.3348122,37.6276266 C23.6590697,37.6276266 19.8665506,33.787202 19.8337876,29.0354715 L19.7327455,13.8552081 L24.0324022,13.8552081 L24.0577316,22.0005205 C25.3167654,21.0011126 26.7754054,20.3224513 28.3348122,20.3224513 C33.028175,20.3224513 36.8333589,24.1959142 36.8333589,28.9749013 C36.8333589,33.7541637 33.0256972,37.6276266 28.3348122,37.6276266 L28.3348122,37.6276266 Z M46.6063572,37.6276266 C41.9080386,37.6276266 38.1028547,33.7541637 38.1028547,28.9724234 C38.1028547,24.1959142 41.9080386,20.3224513 46.6063572,20.3224513 C50.6337234,20.3224513 54.0050045,23.1788858 54.8829968,27.009399 L50.3914427,27.009399 C49.6794678,25.5681041 48.2139448,24.6534944 46.6063572,24.6474373 C44.2545823,24.6474373 42.3521281,26.5854077 42.3521281,28.9749013 C42.3521281,31.3621923 44.2545823,33.2998874 46.6038793,33.2998874 C48.2153214,33.2941057 49.6841482,32.3748155 50.3939206,30.9280142 L54.8931836,30.8850645 C54.0377675,34.7458627 50.6538217,37.6276266 46.6038793,37.6276266 L46.6063572,37.6276266 Z" id="Fill-4" fill="#FFFFFF" mask="url(#mask-4)"></path>
                    </g>
                </g>
            </g>
        </g>
    </g>
</svg>