<?xml version="1.0" encoding="UTF-8"?>
<svg width="167px" height="59px" viewBox="0 0 167 59" version="1.1" xmlns="http://www.w3.org/2000/svg" xmlns:xlink="http://www.w3.org/1999/xlink">
    <!-- Generator: Sketch 61.2 (89653) - https://sketch.com -->
    <title>Group 7</title>
    <desc>Created with Sketch.</desc>
    <defs>
        <polygon id="path-1" points="0.263810294 0.049613416 161.072811 0.049613416 161.072811 27.7328916 0.263810294 27.7328916"></polygon>
        <polygon id="path-3" points="0 0.137808822 57.6275226 0.137808822 57.6275226 58.7969377 0 58.7969377"></polygon>
    </defs>
    <g id="Welcome" stroke="none" stroke-width="1" fill="none" fill-rule="evenodd">
        <g id="About" transform="translate(-521.000000, -6390.000000)">
            <g id="Group-7" transform="translate(521.000000, 6390.000000)">
                <g id="Group-3" transform="translate(5.599708, 14.141503)">
                    <mask id="mask-2" fill="white">
                        <use xlink:href="#path-1"></use>
                    </mask>
                    <g id="Clip-2"></g>
                    <path d="M23.2153549,11.0684395 C20.8287592,11.0684395 18.8915401,13.036737 18.8915401,15.4667304 C18.8915401,17.894484 20.8262393,19.8650214 23.2153549,19.8650214 C25.6016706,19.8650214 27.5366498,17.894484 27.5366498,15.4667304 C27.5366498,13.036737 25.5994307,11.0659197 23.2153549,11.0659197 L23.2153549,11.0684395 Z M4.58792505,11.0684395 C3.91540007,11.0684395 3.27899322,11.2224315 2.71454262,11.4996171 C1.20822107,12.2463382 0.258790521,13.7834581 0.263810294,15.4667304 C0.263810294,17.894484 2.20132935,19.8650214 4.58512519,19.8650214 C6.97424076,19.8650214 8.90670011,17.894484 8.90670011,15.4667304 C8.90670011,13.036737 6.97424076,11.0659197 4.58512519,11.0659197 L4.58792505,11.0684395 Z M142.671133,21.1535143 C143.384536,22.9188223 144.005544,23.7400195 145.206401,24.6457724 C146.720562,25.8261909 148.721898,26.4164001 150.946942,26.4164001 C154.772943,26.4164001 157.354408,24.3739065 157.354408,21.4228602 C157.354408,19.2414938 156.107353,18.0613553 151.498513,15.8413509 C147.033586,13.6602645 145.919804,12.5722412 144.985773,11.6636885 C143.607964,10.1652066 143.030355,8.80531739 143.030355,6.98849202 C143.030355,2.81334947 146.366381,0.049613416 151.408638,0.049613416 C152.927839,0.049613416 154.580593,0.275281662 156.36914,0.726898141 C157.082543,0.906648779 157.798465,0.999043966 158.201364,0.999043966 C158.555266,0.999043966 158.737816,0.909168647 158.86829,0.606504411 L159.63825,0.606504411 L159.725605,6.3263265 L159.091718,6.3263265 C158.691619,4.96363748 158.424513,4.37594809 157.841863,3.63174685 C156.589768,2.13074502 154.623991,1.31458753 152.101602,1.31458753 C148.899129,1.31458753 146.805118,2.85674721 146.805118,5.17418651 C146.805118,7.17048254 148.011015,8.30470346 152.281073,10.3012795 C157.757307,12.8880647 161.072895,15.2049441 161.072895,19.4699619 C161.072895,24.3713867 157.12874,27.6816542 151.303644,27.6816542 C149.713886,27.6682149 148.131409,27.4708252 146.587009,27.0939649 C146.060637,26.9721712 145.525025,26.8957352 144.985773,26.8654968 C144.449321,26.8654968 144.27489,26.9578919 143.920708,27.37871 L143.163908,27.37871 L143.073752,26.7423032 C142.771088,24.9461967 142.411867,23.15485 142.001128,21.3791825 L142.671133,21.1507144 L142.671133,21.1535143 Z M132.380829,27.7303717 L131.131254,27.7303717 L126.039999,13.5883083 L120.817991,27.7328916 L119.612094,27.7328916 L110.902308,3.99376799 C110.235103,2.17190288 109.606535,1.44562071 108.446836,1.22247233 L108.446836,0.554987094 L109.206156,0.554987094 C109.696131,0.554987094 112.154683,0.706459205 112.734532,0.706459205 C113.224787,0.706459205 115.767894,0.557506963 116.304066,0.557506963 L117.109865,0.557506963 L117.109865,1.2633502 C115.814092,1.31206766 115.27764,1.67380882 115.27764,2.400091 C115.27764,2.81054962 115.411193,3.40103886 115.636861,4.0396856 L121.752023,20.8659692 L125.234481,11.2686291 L122.9582,4.81216537 C121.975171,2.03834984 121.125975,1.31206766 118.980727,1.2633502 L118.980727,0.557506963 L119.69917,0.557506963 C120.322697,0.557506963 123.53805,0.706459205 124.30017,0.706459205 C124.921178,0.706459205 128.13653,0.557506963 128.849933,0.557506963 L129.920037,0.557506963 L129.920037,1.2633502 L128.849933,1.2633502 C127.37693,1.2633502 126.663527,1.62761123 126.663527,2.400091 C126.663527,2.81054962 126.843278,3.53935166 127.110104,4.26563383 L133.048034,21.0020421 L137.73639,6.81126125 C138.31624,4.991916 138.583066,3.80897762 138.583066,3.08269544 C138.583066,1.80988174 137.959819,1.26083033 136.576411,1.26083033 L135.773132,1.26083033 L135.773132,0.557506963 L135.996561,0.557506963 C136.620368,0.557506963 138.180447,0.706459205 139.119518,0.706459205 C139.563295,0.706459205 141.303404,0.557506963 142.14756,0.557506963 L142.463384,0.557506963 L142.463384,1.2633502 C141.344562,1.58421349 140.769472,2.400091 139.879119,5.17670638 L132.378309,27.7328916 L132.380829,27.7303717 Z M89.5240213,3.58302938 C89.5240213,1.80988174 88.8542962,1.2633502 86.7552455,1.2633502 L86.0880402,1.2633502 L86.0880402,0.557506963 L87.8278696,0.557506963 C89.0340468,0.557506963 95.5467876,0.706459205 95.5927052,0.706459205 C96.5270166,0.706459205 102.719174,0.557506963 104.050785,0.557506963 L105.834292,0.557506963 L105.924167,6.40080262 L105.231203,6.40080262 C105.09541,3.35204141 103.743081,2.12290543 100.625163,2.12290543 L94.3896079,2.12290543 L94.3896079,12.4540873 L99.7784872,12.4540873 C101.872218,12.4540873 103.032198,11.4534195 103.342702,9.31069107 L104.13814,9.35688866 L104.13814,17.5120239 L103.386099,17.5120239 C103.032198,14.9638766 101.738945,13.9629288 98.6210275,13.9629288 L94.3456502,13.9629288 L94.3456502,23.385838 C94.3456502,24.9333174 95.1052506,25.708317 96.6168919,25.708317 L101.07174,25.708317 C103.961189,25.708317 106.06024,24.3867859 107.307295,21.6538482 L108.113093,21.6538482 L106.237191,27.3761902 C104.941418,27.3761902 98.8004981,27.2272379 96.7529648,27.2272379 C95.3698368,27.2272379 88.7207431,27.3299926 87.2018222,27.3761902 L86.0418427,27.3761902 L86.0418427,26.6193896 L86.7552455,26.6193896 C88.8542962,26.5757118 89.5265412,26.0291803 89.5265412,24.2507129 L89.5265412,3.58302938 L89.5240213,3.58302938 Z M58.7819024,3.31116354 C57.5757253,2.03834984 56.2824726,1.2633502 55.3895991,1.2633502 L54.586041,1.2633502 L54.586041,0.557506963 L55.2560461,0.557506963 C55.5665499,0.557506963 59.2284792,0.706459205 59.5849006,0.706459205 C60.1675503,0.706459205 61.8586622,0.557506963 62.2178835,0.557506963 L62.9312863,0.557506963 L79.9138018,19.4058453 L79.9138018,4.53777966 C79.9138018,2.17414276 78.8873753,1.2633502 76.3033899,1.2633502 L75.5437894,1.2633502 L75.5437894,0.557506963 L76.3470676,0.557506963 C76.4366629,0.557506963 80.2705032,0.706459205 80.5810071,0.706459205 C81.0250639,0.706459205 83.5681715,0.557506963 84.058146,0.557506963 L84.5509203,0.557506963 L84.594598,1.2633502 C82.2284413,1.44562071 81.6049137,2.08454743 81.6049137,4.17575851 L81.6049137,27.6816542 L80.8044354,27.6816542 L60.5217318,5.17670638 L60.5217318,22.1130243 C60.5217318,25.6646393 61.3275299,26.6193896 64.2682167,26.6193896 L65.0252973,26.6193896 L65.0252973,27.37871 L64.1758215,27.37871 C63.552294,27.37871 60.4780541,27.224998 59.7621314,27.224998 C59.3617522,27.224998 56.505621,27.37871 55.8820935,27.37871 L55.1661708,27.37871 L55.1661708,26.6193896 C58.1583749,26.3447239 58.7844223,25.84411 58.7844223,23.6605037 L58.7844223,3.31116354 L58.7819024,3.31116354 Z" id="Fill-1" fill="#FFFFFF" mask="url(#mask-2)"></path>
                </g>
                <g id="Group-6" transform="translate(0.000000, 0.142233)">
                    <mask id="mask-4" fill="white">
                        <use xlink:href="#path-3"></use>
                    </mask>
                    <g id="Clip-5"></g>
                    <path d="M28.8150632,0.137808822 C12.8998521,0.137808822 -0.000195989792,13.2685649 -0.000195989792,29.4660013 C-0.000195989792,45.6634377 12.8998521,58.7969937 28.8150632,58.7969937 C44.7249546,58.7969937 57.6275226,45.6634377 57.6275226,29.4660013 C57.6275226,13.2685649 44.7249546,0.137808822 28.8150632,0.137808822 L28.8150632,0.137808822 Z M14.5831245,38.265383 L14.5652054,36.0610578 C13.5849764,37.0592058 11.8888248,38.265383 9.88468917,38.265383 C5.11177776,38.265383 1.54224367,34.3262682 1.54224367,29.4634814 C1.54224367,24.6060144 5.41192213,20.6668996 10.1848335,20.6668996 C10.9290348,20.6668996 11.655317,20.7618147 12.3482809,20.9440852 C16.0768467,21.9189944 18.8302233,25.3656149 18.8302233,29.4634814 L18.8302233,29.4892401 L18.8814606,38.265383 L14.5808846,38.265383 L14.5831245,38.265383 Z M28.8150632,38.265383 C24.0600709,38.265383 20.2032717,34.3598664 20.1699535,29.5275981 L20.0671988,14.0900421 L24.4397311,14.0900421 L24.4654898,22.3734107 C25.7458631,21.3570637 27.2292258,20.6668996 28.8150632,20.6668996 C33.5879746,20.6668996 37.4576531,24.6060144 37.4576531,29.4660013 C37.4576531,34.3262682 33.5854548,38.265383 28.8150632,38.265383 L28.8150632,38.265383 Z M47.3962954,38.265383 C42.6183443,38.265383 38.7486658,34.3262682 38.7486658,29.4634814 C38.7486658,24.6060144 42.6183443,20.6668996 47.3962954,20.6668996 C51.4919221,20.6668996 54.9203436,23.5717483 55.8132171,27.4671854 L51.245535,27.4671854 C50.5214927,26.0014618 49.0311303,25.0713502 47.3962954,25.0651905 C45.00466,25.0651905 43.0699608,27.0360079 43.0699608,29.4660013 C43.0699608,31.8937549 45.00466,33.8642922 47.3937756,33.8642922 C49.0325302,33.8584125 50.5262524,32.9235412 51.2480548,31.4522179 L55.8235765,31.4085401 C54.9536618,35.3347756 51.5123611,38.265383 47.3937756,38.265383 L47.3962954,38.265383 Z" id="Fill-4" fill="#FFFFFF" mask="url(#mask-4)"></path>
                </g>
            </g>
        </g>
    </g>
</svg>