<?xml version="1.0" encoding="UTF-8"?>
<svg width="89px" height="89px" viewBox="0 0 89 89" version="1.1" xmlns="http://www.w3.org/2000/svg" xmlns:xlink="http://www.w3.org/1999/xlink">
    <!-- Generator: Sketch 61.2 (89653) - https://sketch.com -->
    <title>Group 10</title>
    <desc>Created with Sketch.</desc>
    <defs>
        <polygon id="path-1" points="0 0.203813058 88.4903756 0.203813058 88.4903756 88.6941581 0 88.6941581"></polygon>
    </defs>
    <g id="Welcome" stroke="none" stroke-width="1" fill="none" fill-rule="evenodd">
        <g id="About" transform="translate(-799.000000, -6375.000000)">
            <g id="Group-10" transform="translate(799.000000, 6375.000000)">
                <path d="M54.3862179,44.5511062 C51.8465065,44.5511062 49.7759567,46.6219619 49.7759567,49.1613674 C49.7759567,51.7010787 51.8465065,53.7716285 54.3862179,53.7716285 C56.9259292,53.7716285 58.996479,51.7010787 58.996479,49.1613674 C58.996479,46.6219619 56.9259292,44.5511062 54.3862179,44.5511062" id="Fill-1" fill="#FFFFFF"></path>
                <path d="M53.5101337,59.6475553 C51.5279722,61.6297168 47.2804395,62.3377409 44.2541337,62.3377409 C41.2189584,62.3377409 36.9802952,61.6297168 34.9978278,59.6475553 C34.5289722,59.1786997 33.7769069,59.1786997 33.3077454,59.6475553 C32.8388897,60.1167168 32.8388897,60.8687821 33.3077454,61.3376378 C36.4493536,64.479246 42.4842265,64.726978 44.2541337,64.726978 C46.0237351,64.726978 52.0500443,64.479246 55.2002162,61.3376378 C55.6605082,60.8687821 55.6605082,60.1167168 55.2002162,59.6475553 C54.7313605,59.1783938 53.9789893,59.1783938 53.5101337,59.6475553" id="Fill-3" fill="#FFFFFF"></path>
                <path d="M38.7145718,49.1614285 C38.7145718,46.6217172 36.6437162,44.5511674 34.1043107,44.5511674 C31.5645993,44.5511674 29.4937436,46.6217172 29.4937436,49.1614285 C29.4937436,51.7011399 31.5645993,53.7716897 34.1043107,53.7716897 C36.6437162,53.7716897 38.7145718,51.7011399 38.7145718,49.1614285" id="Fill-5" fill="#FFFFFF"></path>
                <g id="Group-9" transform="translate(0.000000, 0.102151)">
                    <mask id="mask-2" fill="white">
                        <use xlink:href="#path-1"></use>
                    </mask>
                    <g id="Clip-8"></g>
                    <path d="M69.9162897,50.3511842 C70.0135474,50.9882529 70.0667639,51.6344969 70.0667639,52.2889986 C70.0667639,62.2178509 58.5099151,70.2617993 44.2540113,70.2617993 C29.9981076,70.2617993 18.4415646,62.2178509 18.4415646,52.2889986 C18.4415646,51.6256275 18.4944753,50.9705141 18.591733,50.3334454 C16.3441007,49.3247787 14.7778842,47.068277 14.7778842,44.4490467 C14.7778842,40.8914935 17.6625852,37.997923 21.2290079,37.997923 C22.9631316,37.997923 24.529654,38.6793388 25.6887948,39.7944385 C30.1663206,36.5644419 36.360843,34.5027615 43.2542141,34.325679 C43.2542141,34.2369849 43.2364753,34.157466 43.2542141,34.0690777 L46.4750354,18.8928955 C46.5371213,18.5919471 46.7142038,18.3353457 46.9708052,18.1674385 C47.2274065,17.9992254 47.5369186,17.9460089 47.837867,18.0080948 L58.5628258,20.290899 C59.3151969,18.7690296 60.8636746,17.7160158 62.6779289,17.7160158 C65.2262038,17.7160158 67.28819,19.7780021 67.28819,22.326277 C67.28819,24.8748577 65.2262038,26.9365381 62.6779289,26.9365381 C60.208867,26.9365381 58.2089667,24.9898543 58.0939701,22.5474007 L48.4926746,20.5034591 L45.554757,34.3345485 C52.3242622,34.573411 58.403788,36.6265278 62.8106643,39.8121773 C63.9698052,38.6882082 65.5448911,37.997923 67.28819,37.997923 C70.8543069,37.997923 73.7390079,40.8829299 73.7390079,44.4490467 C73.7390079,47.0860158 72.1550526,49.3425175 69.9162897,50.3511842 M44.2451419,0.203813058 C19.8129598,0.203813058 -9.17525773e-05,20.0165588 -9.17525773e-05,44.4490467 C-9.17525773e-05,68.8812289 19.8129598,88.6942804 44.2451419,88.6942804 C68.6773241,88.6942804 88.4903756,68.8812289 88.4903756,44.4490467 C88.4903756,20.0165588 68.6773241,0.203813058 44.2451419,0.203813058" id="Fill-7" fill="#FFFFFF" mask="url(#mask-2)"></path>
                </g>
            </g>
        </g>
    </g>
</svg>