<?xml version="1.0" encoding="UTF-8"?>
<svg width="193px" height="131px" viewBox="0 0 193 131" version="1.1" xmlns="http://www.w3.org/2000/svg" xmlns:xlink="http://www.w3.org/1999/xlink">
    <!-- Generator: Sketch 61.2 (89653) - https://sketch.com -->
    <title>Group 49</title>
    <desc>Created with Sketch.</desc>
    <defs>
        <polygon id="path-1" points="0 0.216729513 90.799574 0.216729513 90.799574 106.149463 0 106.149463"></polygon>
    </defs>
    <g id="Welcome" stroke="none" stroke-width="1" fill="none" fill-rule="evenodd">
        <g id="About" transform="translate(-504.000000, -5637.000000)">
            <g id="Group-49" transform="translate(504.250000, 5637.500000)">
                <rect id="Rectangle-Copy-25" fill="#000000" x="0" y="0" width="192" height="130"></rect>
                <g id="Group-14" transform="translate(52.750000, 11.000000)">
                    <polygon id="Fill-1" fill="#FFFFFF" points="41.616374 68.8613721 53.1177452 66.2888629 45.5512884 72.0393947"></polygon>
                    <g id="Group-13" transform="translate(0.000000, 0.091073)">
                        <path d="M48.2750529,33.8125423 C48.2750529,33.8125423 49.031637,31.9966173 48.1236745,31.6938606 C48.1236745,31.6938606 46.7618846,31.3911039 45.2484086,33.9639207 C45.2484086,33.9639207 43.7352403,36.8391866 45.2484086,39.2606251 C45.2484086,39.2606251 47.9722962,35.477089 48.2750529,33.8125423" id="Fill-2" fill="#FFFFFF"></path>
                        <path d="M28.4504561,56.9664171 C28.4504561,56.9664171 37.6817672,45.3136675 34.3523662,33.9639822 L22.6999243,53.4856377 C22.6999243,53.4856377 23.30513,57.1177955 23.4565084,57.5716229 C23.4565084,57.4202445 24.2134002,62.7169489 28.4504561,56.9664171" id="Fill-4" fill="#FFFFFF"></path>
                        <path d="M40.4057778,56.8150695 C40.4057778,56.8150695 42.6758379,59.236508 45.7024822,53.1832195 L42.978287,47.8865151 C42.978287,47.7351367 38.8926095,53.9398036 40.4057778,56.8150695" id="Fill-6" fill="#FFFFFF"></path>
                        <path d="M60.6842328,52.4264199 C62.9542929,57.2689892 64.9215963,59.387671 66.4347646,58.6310868 C67.9482406,57.8745027 68.0996189,53.7885175 66.5864507,49.8539108 C64.9215963,45.6165473 62.8029146,43.0437304 60.8356112,44.1030713 C58.8683078,44.8596554 58.7169294,48.6431915 60.6842328,52.4264199" id="Fill-8" fill="#FFFFFF"></path>
                        <g id="Group-12">
                            <mask id="mask-2" fill="white">
                                <use xlink:href="#path-1"></use>
                            </mask>
                            <g id="Clip-11"></g>
                            <path d="M71.4289892,58.9336897 L70.672405,58.0257272 C70.672405,59.6902739 70.5210267,60.2957873 70.5210267,60.2957873 C69.3103074,64.2303941 66.5864199,64.0790157 66.5864199,64.0790157 C61.4410939,63.9276374 57.8089362,55.3018397 57.8089362,55.3018397 C52.9663669,46.0705285 56.7495953,41.0765809 56.7495953,41.0765809 C58.4144496,39.1092775 60.5328237,39.2603482 60.5328237,39.2603482 L56.5982169,31.9966481 L59.0196554,28.6672471 L73.2449142,55.3018397 L71.4289892,58.9336897 Z M39.6490706,82.541638 L35.109258,79.5149938 L41.616374,74.8234952 L35.8658422,70.1323042 L24.818606,72.5537427 L20.1271074,69.2243417 L59.7762395,60.9009931 L63.2570189,64.3817725 L39.6490706,82.541638 Z M36.471048,22.9167153 C41.4649956,36.8392174 38.4383513,46.2219069 38.4383513,46.2219069 C34.6551229,59.0850681 26.9372878,65.289735 26.9372878,65.289735 C24.818606,67.10566 22.5485459,66.5004542 21.6405834,65.1383566 C20.7323132,63.6248806 20.4298641,61.3551282 20.4298641,61.3551282 C20.1271074,60.4471657 18.9166959,52.8804012 18.9166959,52.8804012 L36.471048,22.9167153 Z M42.3729581,32.9046106 C45.8537375,27.3051495 49.1831385,26.8513221 49.1831385,26.8513221 C52.5125395,26.0944303 52.5125395,29.5752096 52.5125395,29.5752096 C53.1177452,34.871914 47.0644567,42.4383708 47.0644567,42.4383708 C47.3669058,43.8004684 49.3342091,46.6757343 49.3342091,46.6757343 C50.39355,45.162566 51.7556476,39.5631049 51.7556476,39.5631049 L57.052352,36.8392174 C56.2957679,41.6817867 51.6042693,51.0644762 51.6042693,51.0644762 C51.907026,51.3669252 54.7822919,56.815008 54.7822919,56.815008 L49.3342091,59.3878248 L47.9724192,56.9663863 C41.7677523,66.0463191 38.1355946,63.9276374 38.1355946,63.9276374 C35.5630855,63.0196748 36.0172205,56.6636296 36.0172205,56.6636296 C36.6224263,50.9130978 41.3139249,43.8004684 41.3139249,43.8004684 C38.2872807,38.503764 42.3729581,32.9046106 42.3729581,32.9046106 L42.3729581,32.9046106 Z M45.3996024,0.216729513 L-6.15359207e-05,26.6999437 L-6.15359207e-05,79.6663721 L45.3996024,106.149586 L90.799574,79.6663721 L90.799574,26.6999437 L45.3996024,0.216729513 Z" id="Fill-10" fill="#FFFFFF" mask="url(#mask-2)"></path>
                        </g>
                    </g>
                </g>
            </g>
        </g>
    </g>
</svg>