<?xml version="1.0" encoding="UTF-8"?>
<svg width="108px" height="126px" viewBox="0 0 108 126" version="1.1" xmlns="http://www.w3.org/2000/svg" xmlns:xlink="http://www.w3.org/1999/xlink">
    <!-- Generator: Sketch 61.2 (89653) - https://sketch.com -->
    <title>Group 14</title>
    <desc>Created with Sketch.</desc>
    <defs>
        <polygon id="path-1" points="0 0.257074008 107.702039 0.257074008 107.702039 125.909331 0 125.909331"></polygon>
    </defs>
    <g id="Welcome" stroke="none" stroke-width="1" fill="none" fill-rule="evenodd">
        <g id="About" transform="translate(-551.000000, -5639.000000)">
            <g id="Group-14" transform="translate(551.000000, 5639.000000)">
                <polygon id="Fill-1" fill="#FFFFFF" points="49.3633189 81.6800108 63.0056862 78.6286255 54.0307231 85.4496267"></polygon>
                <g id="Group-13" transform="translate(0.000000, 0.108027)">
                    <path d="M57.2615201,40.1067934 C57.2615201,40.1067934 58.1589434,37.9528314 57.0819624,37.5937161 C57.0819624,37.5937161 55.4666734,37.2346008 53.6714618,40.286351 C53.6714618,40.286351 51.8766152,43.6968516 53.6714618,46.5690442 C53.6714618,46.5690442 56.9024047,42.0811977 57.2615201,40.1067934" id="Fill-2" fill="#FFFFFF"></path>
                    <path d="M33.7465474,67.5707936 C33.7465474,67.5707936 44.6962797,53.7488687 40.7471062,40.286424 L26.9255462,63.4420624 C26.9255462,63.4420624 27.6434119,67.7503513 27.8229696,68.2886593 C27.8229696,68.1091016 28.7207578,74.3917948 33.7465474,67.5707936" id="Fill-4" fill="#FFFFFF"></path>
                    <path d="M47.9273686,67.3912724 C47.9273686,67.3912724 50.6200036,70.263465 54.2100618,63.0833486 L50.9787539,56.8006554 C50.9787539,56.6210978 46.132522,63.9807719 47.9273686,67.3912724" id="Fill-6" fill="#FFFFFF"></path>
                    <path d="M71.9806858,62.1856698 C74.6733207,67.9296899 77.0068403,70.4427672 78.801687,69.5453439 C80.5968986,68.6479206 80.7764562,63.8013237 78.9816096,59.1342845 C77.0068403,54.10813 74.4937631,51.0563798 72.1602435,52.3129184 C69.8267239,53.2103417 69.6471662,57.6981882 71.9806858,62.1856698" id="Fill-8" fill="#FFFFFF"></path>
                    <g id="Group-12">
                        <mask id="mask-2" fill="white">
                            <use xlink:href="#path-1"></use>
                        </mask>
                        <g id="Clip-11"></g>
                        <path d="M84.7255933,69.9042767 L83.8281699,68.8272957 C83.8281699,70.8017 83.6486123,71.5199307 83.6486123,71.5199307 C82.212516,76.1869699 78.9815731,76.0074122 78.9815731,76.0074122 C72.8784376,75.8278546 68.5701487,65.5963528 68.5701487,65.5963528 C62.8261286,54.6466205 67.3136101,48.7230426 67.3136101,48.7230426 C69.2883794,46.389523 71.8010917,46.5687157 71.8010917,46.5687157 L67.1340525,37.9528679 L70.006245,34.0036944 L86.8795552,65.5963528 L84.7255933,69.9042767 Z M47.0297993,97.9068769 L41.6448945,94.3168187 L49.3633189,88.7519912 L42.5423178,83.1875287 L29.4386235,86.0597212 L23.873796,82.1105477 L70.9036683,72.2377963 L75.0323995,76.3665275 L47.0297993,97.9068769 Z M43.2601835,27.1826932 C49.1837613,43.6968881 45.5937031,54.8261781 45.5937031,54.8261781 C41.1062215,70.0838344 31.9517007,77.4435085 31.9517007,77.4435085 C29.4386235,79.5974704 26.7459886,78.8796048 25.6690076,77.2639508 C24.5916617,75.4687392 24.2329113,72.7764693 24.2329113,72.7764693 C23.873796,71.6994883 22.4380647,62.7241603 22.4380647,62.7241603 L43.2601835,27.1826932 Z M50.2607423,39.0298489 C54.3894735,32.3880404 58.338647,31.8497324 58.338647,31.8497324 C62.2878206,30.9519442 62.2878206,35.0806754 62.2878206,35.0806754 C63.0056862,41.3633685 55.8255698,50.3383316 55.8255698,50.3383316 C56.1843201,51.9539856 58.5178397,55.3644861 58.5178397,55.3644861 C59.7743783,53.5696395 61.3900323,46.927831 61.3900323,46.927831 L67.6727254,43.6968881 C66.7753021,49.4409083 61.2104746,60.5701983 61.2104746,60.5701983 C61.5695899,60.9289487 64.9800905,67.3911995 64.9800905,67.3911995 L58.5178397,70.4429497 L56.9025507,67.5707571 C49.5428766,78.3409318 45.2345878,75.8278546 45.2345878,75.8278546 C42.1832025,74.7508736 42.7218754,67.2116418 42.7218754,67.2116418 C43.4397411,60.3906406 49.0045686,51.9539856 49.0045686,51.9539856 C45.4145104,45.6712924 50.2607423,39.0298489 50.2607423,39.0298489 L50.2607423,39.0298489 Z M53.8508005,0.257074008 L-7.29909166e-05,31.6701748 L-7.29909166e-05,94.4963763 L53.8508005,125.909477 L107.702039,94.4963763 L107.702039,31.6701748 L53.8508005,0.257074008 Z" id="Fill-10" fill="#FFFFFF" mask="url(#mask-2)"></path>
                    </g>
                </g>
            </g>
        </g>
    </g>
</svg>