<?xml version="1.0" encoding="UTF-8"?>
<svg width="145px" height="108px" viewBox="0 0 145 108" version="1.1" xmlns="http://www.w3.org/2000/svg" xmlns:xlink="http://www.w3.org/1999/xlink">
    <!-- Generator: Sketch 61.2 (89653) - https://sketch.com -->
    <title>Group 20</title>
    <desc>Created with Sketch.</desc>
    <defs>
        <polygon id="path-1" points="0.0158044614 0.187370274 107.569981 0.187370274 107.569981 107.741475 0.0158044614 107.741475"></polygon>
    </defs>
    <g id="Welcome" stroke="none" stroke-width="1" fill="none" fill-rule="evenodd">
        <g id="About" transform="translate(-771.000000, -5648.000000)">
            <g id="Group-20" transform="translate(771.000000, 5648.000000)">
                <path d="M36.5921088,60.9517071 C36.5921088,62.7297982 38.0155806,64.1543403 39.7950987,64.1543403 L41.9741879,64.1543403 C43.753706,64.1543403 45.1329396,62.7740364 45.1329396,60.9517071 L45.1329396,47.7847712 C45.1329396,45.9606581 43.753706,44.5814245 41.9741879,44.5814245 L39.7950987,44.5814245 C38.0155806,44.5814245 36.5921088,46.0056099 36.5921088,47.7847712 L36.5921088,60.9517071" id="Fill-1" fill="#FFFFFF"></path>
                <g id="Group-5" transform="translate(12.129835, 0.169461)">
                    <mask id="mask-2" fill="white">
                        <use xlink:href="#path-1"></use>
                    </mask>
                    <g id="Clip-4"></g>
                    <path d="M61.6000468,67.7651781 C61.6000468,68.0776997 61.4662618,68.2097008 61.1548105,68.2097008 L57.4627028,68.2097008 L57.0624182,67.9885097 L47.9436364,50.1066357 L48.1662546,67.7651781 C48.1662546,68.0776997 48.0331831,68.2097008 47.7217318,68.2097008 L43.5847445,68.2097008 C43.27365,68.2097008 43.139865,68.0776997 43.139865,67.7651781 L43.139865,40.6310941 C43.139865,40.3203562 43.27365,40.1865713 43.5847445,40.1865713 L47.3210905,40.1865713 L47.7217318,40.409903 L56.7966321,58.4680163 L56.6178954,40.6310941 C56.6178954,40.3203562 56.7513236,40.1865713 57.0624182,40.1865713 L61.1548105,40.1865713 C61.4216668,40.1865713 61.6000468,40.3203562 61.6000468,40.6310941 L61.6000468,67.7651781 M106.309905,0.187370274 L69.0902198,0.187370274 C68.3963219,0.187370274 67.429146,0.588725107 66.9382444,1.0792699 L28.2740388,39.7424053 L29.8444956,39.7424053 C34.8262902,39.7424053 38.1177566,42.89973 38.1177566,47.6150249 L38.1177566,60.7823175 C38.1177566,65.4954719 34.8262902,68.6556507 29.8444956,68.6556507 L27.6654065,68.6556507 C22.6386602,68.6556507 19.3910752,65.4954719 19.3910752,60.7823175 L19.3910752,48.625012 L0.90663381,67.1094535 C0.416802534,67.5996415 0.0158044614,68.5682445 0.0158044614,69.2614289 L0.0158044614,106.481471 C0.0158044614,107.175012 0.583409385,107.741546 1.27695054,107.741546 L38.495922,107.741546 C39.1891064,107.741546 40.1577094,107.339835 40.6478974,106.849647 L79.2874867,68.2097008 L68.0477676,68.2097008 C67.7384568,68.2097008 67.6050286,68.0776997 67.6050286,67.7651781 L67.6050286,40.6310941 C67.6050286,40.3203562 67.7384568,40.1865713 68.0477676,40.1865713 L83.7512659,40.1865713 C84.017052,40.1865713 84.1950752,40.3203562 84.1950752,40.6310941 L84.1950752,44.412035 C84.1950752,44.7238431 84.0620038,44.8572713 83.7512659,44.8572713 L73.1640606,44.8572713 C72.8522525,44.8572713 72.719181,44.9906994 72.719181,45.3025076 L72.719181,51.2182994 C72.719181,51.5301075 72.8522525,51.6631789 73.1640606,51.6631789 L81.8372493,51.6631789 C82.149771,51.6631789 82.2831991,51.7969639 82.2831991,52.1084152 L82.2831991,55.8897129 C82.2831991,56.1997372 82.149771,56.3331654 81.8372493,56.3331654 L73.1640606,56.3331654 C72.8522525,56.3331654 72.719181,56.4665936 72.719181,56.7780449 L72.719181,63.0941213 C72.719181,63.4059294 72.8522525,63.5390009 73.1640606,63.5390009 L83.7512659,63.5390009 C83.8176233,63.5390009 83.8786292,63.5475631 83.9324999,63.5657579 L106.677724,40.8191065 C107.168626,40.3289185 107.569981,39.3606722 107.569981,38.6674878 L107.569981,1.44780283 C107.569981,0.754975197 107.003446,0.187370274 106.309905,0.187370274" id="Fill-3" fill="#FFFFFF" mask="url(#mask-2)"></path>
                </g>
                <path d="M6.75360669,41.8685513 L4.72007554,41.8685513 C4.58950143,41.8685513 4.53349013,41.9242058 4.53349013,42.0547799 L4.53349013,51.4764508 C4.53349013,51.6073817 4.47747884,51.6630362 4.34690473,51.6630362 L2.59343006,51.6630362 C2.46285596,51.6630362 2.4064879,51.6073817 2.4064879,51.4764508 L2.4064879,42.0547799 C2.4064879,41.9242058 2.35083336,41.8685513 2.22025926,41.8685513 L0.186728106,41.8685513 C0.0557972407,41.8685513 0.000142703941,41.81254 0.000142703941,41.6819659 L0.000142703941,40.0961683 C0.000142703941,39.9652375 0.0557972407,39.9095829 0.186728106,39.9095829 L6.75360669,39.9095829 C6.86562928,39.9095829 6.94019209,39.9652375 6.94019209,40.0961683 L6.94019209,41.6819659 C6.94019209,41.81254 6.8841808,41.8685513 6.75360669,41.8685513" id="Fill-6" fill="#FFFFFF"></path>
                <path d="M16.3991801,51.6629649 L14.6453487,51.6629649 C14.5147746,51.6629649 14.4587633,51.6073104 14.4587633,51.4767362 L14.4587633,46.8684692 C14.4587633,46.7378951 14.402752,46.6818838 14.2721779,46.6818838 L10.8019748,46.6818838 C10.6714007,46.6818838 10.6153894,46.7378951 10.6153894,46.8684692 L10.6153894,51.4767362 C10.6153894,51.6073104 10.5597348,51.6629649 10.4291607,51.6629649 L8.65677779,51.6629649 C8.52584693,51.6629649 8.47019239,51.6073104 8.47019239,51.4767362 L8.47019239,40.096097 C8.47019239,39.9651661 8.52584693,39.9095116 8.65677779,39.9095116 L10.4291607,39.9095116 C10.5408266,39.9095116 10.6153894,39.9651661 10.6153894,40.096097 L10.6153894,44.5363301 C10.6153894,44.6669042 10.6714007,44.7229155 10.8019748,44.7229155 L14.2721779,44.7229155 C14.402752,44.7229155 14.4587633,44.6669042 14.4587633,44.5363301 L14.4587633,40.096097 C14.4587633,39.9651661 14.5147746,39.9095116 14.6453487,39.9095116 L16.3991801,39.9095116 C16.5297542,39.9095116 16.5854087,39.9651661 16.5854087,40.096097 L16.5854087,51.4767362 C16.5854087,51.6073104 16.5297542,51.6629649 16.3991801,51.6629649" id="Fill-8" fill="#FFFFFF"></path>
                <path d="M25.4101847,51.6629649 L18.8243979,51.6629649 C18.6938238,51.6629649 18.6378125,51.6073104 18.6378125,51.4767362 L18.6378125,40.096097 C18.6378125,39.9651661 18.6938238,39.9095116 18.8243979,39.9095116 L25.4101847,39.9095116 C25.5222073,39.9095116 25.5967701,39.9651661 25.5967701,40.096097 L25.5967701,41.6818945 C25.5967701,41.8124686 25.5407588,41.8684799 25.4101847,41.8684799 L20.9699516,41.8684799 C20.8393775,41.8684799 20.7833662,41.9244912 20.7833662,42.0550653 L20.7833662,44.5363301 C20.7833662,44.6669042 20.8393775,44.7229155 20.9699516,44.7229155 L24.6078318,44.7229155 C24.7384059,44.7229155 24.7944172,44.7789268 24.7944172,44.9095009 L24.7944172,46.4952984 C24.7944172,46.6258725 24.7384059,46.6818838 24.6078318,46.6818838 L20.9699516,46.6818838 C20.8393775,46.6818838 20.7833662,46.7378951 20.7833662,46.8684692 L20.7833662,49.5177679 C20.7833662,49.6479852 20.8393775,49.7039965 20.9699516,49.7039965 L25.4101847,49.7039965 C25.5222073,49.7039965 25.5967701,49.7600078 25.5967701,49.8905819 L25.5967701,51.4767362 C25.5967701,51.6073104 25.5407588,51.6629649 25.4101847,51.6629649" id="Fill-10" fill="#FFFFFF"></path>
                <path d="M107.30555,59.6843177 C107.30555,60.5612334 108.163558,60.8223816 109.469655,61.4195976 C111.466084,62.3336164 112.398654,63.3600145 112.398654,65.2069602 C112.398654,67.1841233 111.036902,68.5087726 108.928451,68.5087726 L108.182466,68.5087726 C107.118965,68.5087726 106.316612,68.2105214 105.757212,67.6322137 C105.141445,66.9978947 104.898848,66.4570467 104.898848,66.2701046 C104.898848,66.2330015 104.935951,66.1769902 105.010871,66.1398872 L106.633771,65.3371776 C106.671231,65.318626 106.689783,65.318626 106.727243,65.318626 C106.85746,65.318626 106.895276,65.5052114 107.081862,65.8783822 C107.286999,66.2701046 107.753284,66.550161 108.182466,66.550161 L108.928451,66.550161 C109.656598,66.550161 110.272008,65.9529451 110.272008,65.2069602 C110.272008,64.2740332 109.488207,63.9383222 108.275937,63.3600145 C106.223498,62.3710761 105.178905,61.5312635 105.178905,59.6843177 C105.178905,57.7067979 106.559209,56.3821485 108.649108,56.3821485 L108.928451,56.3821485 C109.786815,56.3821485 110.458594,56.5690907 111.055453,56.997916 C111.783243,57.5202125 112.249171,58.3600251 112.249171,58.5837136 C112.249171,58.6586331 112.212425,58.6957362 112.137506,58.7331959 L110.514605,59.5351921 C110.477145,59.5541004 110.440042,59.5541004 110.421134,59.5541004 C110.327663,59.5541004 110.290917,59.441721 110.178537,59.2740439 C109.824275,58.6768279 109.507115,58.3411169 108.928451,58.3411169 L108.649108,58.3411169 C107.920961,58.3411169 107.30555,58.9194246 107.30555,59.6843177" id="Fill-12" fill="#FFFFFF"></path>
                <path d="M121.745869,68.3224013 L119.992038,68.3224013 C119.861463,68.3224013 119.805452,68.26639 119.805452,68.1361726 L119.805452,63.5275489 C119.805452,63.3969748 119.749441,63.3409635 119.618867,63.3409635 L116.148664,63.3409635 C116.01809,63.3409635 115.962435,63.3969748 115.962435,63.5275489 L115.962435,68.1361726 C115.962435,68.26639 115.906424,68.3224013 115.775493,68.3224013 L114.00311,68.3224013 C113.872536,68.3224013 113.816525,68.26639 113.816525,68.1361726 L113.816525,56.7551766 C113.816525,56.6246025 113.872536,56.568948 114.00311,56.568948 L115.775493,56.568948 C115.887515,56.568948 115.962435,56.6246025 115.962435,56.7551766 L115.962435,61.1957665 C115.962435,61.3259838 116.01809,61.3819951 116.148664,61.3819951 L119.618867,61.3819951 C119.749441,61.3819951 119.805452,61.3259838 119.805452,61.1957665 L119.805452,56.7551766 C119.805452,56.6246025 119.861463,56.568948 119.992038,56.568948 L121.745869,56.568948 C121.876086,56.568948 121.932098,56.6246025 121.932098,56.7551766 L121.932098,68.1361726 C121.932098,68.26639 121.876086,68.3224013 121.745869,68.3224013" id="Fill-14" fill="#FFFFFF"></path>
                <path d="M129.431868,59.6843177 C129.431868,58.9194246 128.853917,58.3411169 128.107218,58.3411169 L127.1932,58.3411169 C126.447215,58.3411169 125.849999,58.9379761 125.849999,59.6843177 L125.849999,65.2069602 C125.849999,65.9529451 126.447215,66.550161 127.1932,66.550161 L128.107218,66.550161 C128.853917,66.550161 129.431868,65.9718533 129.431868,65.2069602 L129.431868,59.6843177 Z M128.107218,68.5087726 L127.1932,68.5087726 C125.085106,68.5087726 123.722996,67.1841233 123.722996,65.2069602 L123.722996,59.6843177 C123.722996,57.7067979 125.103657,56.3821485 127.1932,56.3821485 L128.107218,56.3821485 C130.197117,56.3821485 131.577421,57.7067979 131.577421,59.6843177 L131.577421,65.2069602 C131.577421,67.1841233 130.197117,68.5087726 128.107218,68.5087726 L128.107218,68.5087726 Z" id="Fill-16" fill="#FFFFFF"></path>
                <path d="M142.30494,68.1730259 C142.286389,68.266497 142.211826,68.3225083 142.118355,68.3225083 L140.756603,68.3225083 C140.644937,68.3225083 140.588925,68.2850485 140.570017,68.1915774 L138.685612,60.8037944 L136.820114,68.1915774 C136.801563,68.2850485 136.745552,68.3225083 136.633886,68.3225083 L135.27142,68.3225083 C135.178306,68.3225083 135.103743,68.266497 135.085191,68.1730259 L132.622478,56.7923867 C132.622478,56.7741919 132.60357,56.7367321 132.60357,56.7178239 C132.60357,56.6247095 132.678489,56.569055 132.809063,56.569055 L134.71202,56.569055 C134.805135,56.569055 134.880054,56.6247095 134.898249,56.7178239 L136.260715,64.3114573 L138.032741,56.6621693 C138.051293,56.569055 138.107304,56.5315952 138.21897,56.5315952 L139.152254,56.5315952 C139.264276,56.5315952 139.320287,56.569055 139.338839,56.6621693 L141.111222,64.3114573 L142.491526,56.7178239 C142.510434,56.6247095 142.584997,56.569055 142.678111,56.569055 L144.581068,56.569055 C144.711999,56.569055 144.786205,56.6247095 144.786205,56.7178239 C144.786205,56.7367321 144.767654,56.7741919 144.767654,56.7923867 L142.30494,68.1730259 Z" id="Fill-18" fill="#FFFFFF"></path>
            </g>
        </g>
    </g>
</svg>