<?xml version="1.0" encoding="UTF-8"?>
<svg width="193px" height="131px" viewBox="0 0 193 131" version="1.1" xmlns="http://www.w3.org/2000/svg" xmlns:xlink="http://www.w3.org/1999/xlink">
    <!-- Generator: Sketch 61.2 (89653) - https://sketch.com -->
    <title>Group 50</title>
    <desc>Created with Sketch.</desc>
    <defs>
        <polygon id="path-1" points="0.0139195256 0.165023361 94.7405334 0.165023361 94.7405334 94.8915744 0.0139195256 94.8915744"></polygon>
    </defs>
    <g id="Welcome" stroke="none" stroke-width="1" fill="none" fill-rule="evenodd">
        <g id="About" transform="translate(-742.000000, -5637.000000)">
            <g id="Group-50" transform="translate(742.500000, 5637.500000)">
                <rect id="Rectangle-Copy-26" fill="#000000" x="0" y="0" width="192" height="130"></rect>
                <g id="Group-20" transform="translate(33.500000, 18.500000)">
                    <path d="M32.2279123,53.6822374 C32.2279123,55.2482626 33.4816122,56.5029052 35.0488943,56.5029052 L36.9680921,56.5029052 C38.5353741,56.5029052 39.7501119,55.2872247 39.7501119,53.6822374 L39.7501119,42.0856701 C39.7501119,40.4791117 38.5353741,39.2643739 36.9680921,39.2643739 L35.0488943,39.2643739 C33.4816122,39.2643739 32.2279123,40.5187023 32.2279123,42.0856701 L32.2279123,53.6822374" id="Fill-1" fill="#FFFFFF"></path>
                    <g id="Group-5" transform="translate(10.683157, 0.149250)">
                        <mask id="mask-2" fill="white">
                            <use xlink:href="#path-1"></use>
                        </mask>
                        <g id="Clip-4"></g>
                        <path d="M54.2532522,59.6830926 C54.2532522,59.958341 54.1354232,60.0745989 53.8611175,60.0745989 L50.6093529,60.0745989 L50.2568087,59.8797884 L42.225588,44.1306149 L42.4216554,59.6830926 C42.4216554,59.958341 42.3044549,60.0745989 42.0301491,60.0745989 L38.386564,60.0745989 C38.1125724,60.0745989 37.9947435,59.958341 37.9947435,59.6830926 L37.9947435,35.7851838 C37.9947435,35.5115064 38.1125724,35.3936775 38.386564,35.3936775 L41.6772907,35.3936775 L42.0301491,35.5903732 L50.0227219,51.4947667 L49.8653024,35.7851838 C49.8653024,35.5115064 49.9828171,35.3936775 50.2568087,35.3936775 L53.8611175,35.3936775 C54.0961469,35.3936775 54.2532522,35.5115064 54.2532522,35.7851838 L54.2532522,59.6830926 M93.6307419,0.165023361 L60.8501019,0.165023361 C60.2389624,0.165023361 59.3871377,0.518510186 58.9547841,0.950549639 L24.9019057,35.0024854 L26.2850604,35.0024854 C30.672696,35.0024854 33.5716021,37.7832484 33.5716021,41.9361687 L33.5716021,53.5330503 C33.5716021,57.6840853 30.672696,60.4673621 26.2850604,60.4673621 L24.3658626,60.4673621 C19.9386365,60.4673621 17.0783782,57.6840853 17.0783782,53.5330503 L17.0783782,42.8256987 L0.798503172,59.1055737 C0.36709214,59.5372989 0.0139195256,60.3903805 0.0139195256,61.0008915 L0.0139195256,93.7818457 C0.0139195256,94.392671 0.513828449,94.8916372 1.12465368,94.8916372 L33.9046653,94.8916372 C34.5151763,94.8916372 35.3682578,94.5378362 35.7999831,94.106111 L69.8311809,60.0745989 L59.9319788,60.0745989 C59.6595582,60.0745989 59.5420435,59.958341 59.5420435,59.6830926 L59.5420435,35.7851838 C59.5420435,35.5115064 59.6595582,35.3936775 59.9319788,35.3936775 L73.7625828,35.3936775 C73.9966697,35.3936775 74.1534607,35.5115064 74.1534607,35.7851838 L74.1534607,39.1151868 C74.1534607,39.3898067 74.0362602,39.5073215 73.7625828,39.5073215 L64.4380717,39.5073215 C64.1634517,39.5073215 64.0462512,39.6248362 64.0462512,39.8994562 L64.0462512,45.1096949 C64.0462512,45.3843149 64.1634517,45.5015154 64.4380717,45.5015154 L72.0768434,45.5015154 C72.3520919,45.5015154 72.4696066,45.6193443 72.4696066,45.8936501 L72.4696066,49.2239673 C72.4696066,49.4970163 72.3520919,49.614531 72.0768434,49.614531 L64.4380717,49.614531 C64.1634517,49.614531 64.0462512,49.7320457 64.0462512,50.0063515 L64.0462512,55.5691344 C64.0462512,55.8437544 64.1634517,55.9609549 64.4380717,55.9609549 L73.7625828,55.9609549 C73.821026,55.9609549 73.874756,55.968496 73.9222018,55.9845207 L93.9546929,35.9507727 C94.3870466,35.5190475 94.7405334,34.6662801 94.7405334,34.0557691 L94.7405334,1.2751291 C94.7405334,0.664932284 94.2415671,0.165023361 93.6307419,0.165023361" id="Fill-3" fill="#FFFFFF" mask="url(#mask-2)"></path>
                    </g>
                    <path d="M5.94813066,36.8750543 L4.15713075,36.8750543 C4.0421297,36.8750543 3.99279865,36.9240712 3.99279865,37.0390722 L3.99279865,45.3370576 C3.99279865,45.4523729 3.9434676,45.5013897 3.82846655,45.5013897 L2.28412189,45.5013897 C2.16912084,45.5013897 2.11947558,45.4523729 2.11947558,45.3370576 L2.11947558,37.0390722 C2.11947558,36.9240712 2.07045874,36.8750543 1.9554577,36.8750543 L0.164457782,36.8750543 C0.049142524,36.8750543 0.000125684205,36.8257233 0.000125684205,36.7107222 L0.000125684205,35.3140565 C0.000125684205,35.1987413 0.049142524,35.1497244 0.164457782,35.1497244 L5.94813066,35.1497244 C6.04679276,35.1497244 6.11246276,35.1987413 6.11246276,35.3140565 L6.11246276,36.7107222 C6.11246276,36.8257233 6.06313171,36.8750543 5.94813066,36.8750543" id="Fill-6" fill="#FFFFFF"></path>
                    <path d="M14.4433146,45.5013269 L12.8986557,45.5013269 C12.7836547,45.5013269 12.7343236,45.45231 12.7343236,45.337309 L12.7343236,41.2786518 C12.7343236,41.1636508 12.6849926,41.1143197 12.5699915,41.1143197 L9.51366586,41.1143197 C9.39866481,41.1143197 9.34933376,41.1636508 9.34933376,41.2786518 L9.34933376,45.337309 C9.34933376,45.45231 9.30031692,45.5013269 9.18531588,45.5013269 L7.62431806,45.5013269 C7.5090028,45.5013269 7.45998596,45.45231 7.45998596,45.337309 L7.45998596,35.3139937 C7.45998596,35.1986784 7.5090028,35.1496616 7.62431806,35.1496616 L9.18531588,35.1496616 C9.28366377,35.1496616 9.34933376,35.1986784 9.34933376,35.3139937 L9.34933376,39.2246577 C9.34933376,39.3396587 9.39866481,39.3889898 9.51366586,39.3889898 L12.5699915,39.3889898 C12.6849926,39.3889898 12.7343236,39.3396587 12.7343236,39.2246577 L12.7343236,35.3139937 C12.7343236,35.1986784 12.7836547,35.1496616 12.8986557,35.1496616 L14.4433146,35.1496616 C14.5583156,35.1496616 14.6073325,35.1986784 14.6073325,35.3139937 L14.6073325,45.337309 C14.6073325,45.45231 14.5583156,45.5013269 14.4433146,45.5013269" id="Fill-8" fill="#FFFFFF"></path>
                    <path d="M22.3796122,45.5013269 L16.5792862,45.5013269 C16.4642852,45.5013269 16.4149541,45.45231 16.4149541,45.337309 L16.4149541,35.3139937 C16.4149541,35.1986784 16.4642852,35.1496616 16.5792862,35.1496616 L22.3796122,35.1496616 C22.4782743,35.1496616 22.5439443,35.1986784 22.5439443,35.3139937 L22.5439443,36.7106594 C22.5439443,36.8256604 22.4946133,36.8749915 22.3796122,36.8749915 L18.4689482,36.8749915 C18.3539472,36.8749915 18.3046161,36.9243225 18.3046161,37.0393236 L18.3046161,39.2246577 C18.3046161,39.3396587 18.3539472,39.3889898 18.4689482,39.3889898 L21.6729528,39.3889898 C21.7879539,39.3889898 21.8372849,39.4383208 21.8372849,39.5533219 L21.8372849,40.9499876 C21.8372849,41.0649887 21.7879539,41.1143197 21.6729528,41.1143197 L18.4689482,41.1143197 C18.3539472,41.1143197 18.3046161,41.1636508 18.3046161,41.2786518 L18.3046161,43.6119791 C18.3046161,43.7266659 18.3539472,43.775997 18.4689482,43.775997 L22.3796122,43.775997 C22.4782743,43.775997 22.5439443,43.825328 22.5439443,43.9403291 L22.5439443,45.337309 C22.5439443,45.45231 22.4946133,45.5013269 22.3796122,45.5013269" id="Fill-10" fill="#FFFFFF"></path>
                    <path d="M94.5076406,52.5660046 C94.5076406,53.338334 95.2633169,53.5683361 96.4136415,54.0943245 C98.1719636,54.8993318 98.9933098,55.8033155 98.9933098,57.4299833 C98.9933098,59.171338 97.7939683,60.3380016 95.9369842,60.3380016 L95.27997,60.3380016 C94.3433085,60.3380016 93.636649,60.0753216 93.143967,59.5659864 C92.6016396,59.0073201 92.3879765,58.5309769 92.3879765,58.3663306 C92.3879765,58.3336527 92.4206544,58.2843217 92.4866386,58.2516438 L93.9159822,57.5446701 C93.9489743,57.5283312 93.9653132,57.5283312 93.9983053,57.5283312 C94.1129922,57.5283312 94.1462985,57.6926633 94.3106306,58.0213275 C94.4913016,58.3663306 94.9019748,58.6129859 95.27997,58.6129859 L95.9369842,58.6129859 C96.5782878,58.6129859 97.120301,58.0869975 97.120301,57.4299833 C97.120301,56.6083228 96.4299805,56.3126507 95.3622932,55.8033155 C93.5546401,54.9323239 92.6346317,54.1926724 92.6346317,52.5660046 C92.6346317,50.8243357 93.8503122,49.6576721 95.6909574,49.6576721 L95.9369842,49.6576721 C96.6929747,49.6576721 97.2846331,49.8223184 97.8103073,50.1999994 C98.4512967,50.6600036 98.8616556,51.3996552 98.8616556,51.5966652 C98.8616556,51.6626494 98.829292,51.6953273 98.7633077,51.7283194 L97.3339641,52.4346646 C97.300972,52.4513178 97.2682941,52.4513178 97.251641,52.4513178 C97.1693178,52.4513178 97.1369541,52.3523414 97.0379778,52.2046625 C96.7259668,51.6786741 96.4466336,51.383002 95.9369842,51.383002 L95.6909574,51.383002 C95.0496537,51.383002 94.5076406,51.8923373 94.5076406,52.5660046" id="Fill-12" fill="#FFFFFF"></path>
                    <path d="M107.225719,60.173858 L105.681061,60.173858 C105.56606,60.173858 105.516729,60.124527 105.516729,60.0098401 L105.516729,55.9508687 C105.516729,55.8358677 105.467397,55.7865366 105.352396,55.7865366 L102.296071,55.7865366 C102.18107,55.7865366 102.132053,55.8358677 102.132053,55.9508687 L102.132053,60.0098401 C102.132053,60.124527 102.082722,60.173858 101.967407,60.173858 L100.406409,60.173858 C100.291408,60.173858 100.242077,60.124527 100.242077,60.0098401 L100.242077,49.9862106 C100.242077,49.8712096 100.291408,49.8221927 100.406409,49.8221927 L101.967407,49.8221927 C102.066069,49.8221927 102.132053,49.8712096 102.132053,49.9862106 L102.132053,53.8971888 C102.132053,54.0118757 102.18107,54.0612067 102.296071,54.0612067 L105.352396,54.0612067 C105.467397,54.0612067 105.516729,54.0118757 105.516729,53.8971888 L105.516729,49.9862106 C105.516729,49.8712096 105.56606,49.8221927 105.681061,49.8221927 L107.225719,49.8221927 C107.340406,49.8221927 107.389737,49.8712096 107.389737,49.9862106 L107.389737,60.0098401 C107.389737,60.124527 107.340406,60.173858 107.225719,60.173858" id="Fill-14" fill="#FFFFFF"></path>
                    <path d="M113.995039,52.5660046 C113.995039,51.8923373 113.486018,51.383002 112.828376,51.383002 L112.023368,51.383002 C111.366354,51.383002 110.840366,51.9086762 110.840366,52.5660046 L110.840366,57.4299833 C110.840366,58.0869975 111.366354,58.6129859 112.023368,58.6129859 L112.828376,58.6129859 C113.486018,58.6129859 113.995039,58.1036506 113.995039,57.4299833 L113.995039,52.5660046 Z M112.828376,60.3380016 L112.023368,60.3380016 C110.166698,60.3380016 108.967043,59.171338 108.967043,57.4299833 L108.967043,52.5660046 C108.967043,50.8243357 110.183037,49.6576721 112.023368,49.6576721 L112.828376,49.6576721 C114.669021,49.6576721 115.884701,50.8243357 115.884701,52.5660046 L115.884701,57.4299833 C115.884701,59.171338 114.669021,60.3380016 112.828376,60.3380016 L112.828376,60.3380016 Z" id="Fill-16" fill="#FFFFFF"></path>
                    <path d="M125.332791,60.0422981 C125.316453,60.1246212 125.250783,60.1739523 125.168459,60.1739523 L123.969118,60.1739523 C123.87077,60.1739523 123.821439,60.1409602 123.804786,60.058637 L122.145126,53.5519658 L120.502119,60.058637 C120.48578,60.1409602 120.436449,60.1739523 120.338101,60.1739523 L119.138131,60.1739523 C119.056122,60.1739523 118.990452,60.1246212 118.974113,60.0422981 L116.805118,50.0189828 C116.805118,50.002958 116.788465,49.9699659 116.788465,49.9533128 C116.788465,49.8713038 116.854449,49.822287 116.96945,49.822287 L118.645449,49.822287 C118.727458,49.822287 118.793442,49.8713038 118.809467,49.9533128 L120.009437,56.6412835 L121.570121,49.9042959 C121.58646,49.822287 121.635791,49.7892949 121.734138,49.7892949 L122.556113,49.7892949 C122.654775,49.7892949 122.704106,49.822287 122.720445,49.9042959 L124.281443,56.6412835 L125.497124,49.9533128 C125.513777,49.8713038 125.579447,49.822287 125.661456,49.822287 L127.337455,49.822287 C127.45277,49.822287 127.518126,49.8713038 127.518126,49.9533128 C127.518126,49.9699659 127.501787,50.002958 127.501787,50.0189828 L125.332791,60.0422981 Z" id="Fill-18" fill="#FFFFFF"></path>
                </g>
            </g>
        </g>
    </g>
</svg>