<?xml version="1.0" encoding="UTF-8"?>
<svg width="193px" height="131px" viewBox="0 0 193 131" version="1.1" xmlns="http://www.w3.org/2000/svg" xmlns:xlink="http://www.w3.org/1999/xlink">
    <!-- Generator: Sketch 61.2 (89653) - https://sketch.com -->
    <title>Group 60</title>
    <desc>Created with Sketch.</desc>
    <g id="Welcome" stroke="none" stroke-width="1" fill="none" fill-rule="evenodd">
        <g id="About" transform="translate(-982.000000, -5637.000000)">
            <g id="Group-59" transform="translate(982.500000, 5637.500000)">
                <g id="Group-60">
                    <rect id="Rectangle-Copy-27" fill="#000000" x="0" y="0" width="192" height="130"></rect>
                    <path d="M87.6623945,110.610614 C86.5194729,110.475541 85.2934296,109.8833 84.4518236,109.062474 C84.1297275,108.750768 83.8699726,108.407892 83.8699726,108.30399 C83.8699726,108.189698 83.8076314,108.085796 83.7245098,108.054625 C83.6413883,108.023454 83.4959255,107.78448 83.4024137,107.514335 C83.2361706,107.098727 83.2361706,106.963654 83.3400725,106.475315 C83.7764608,104.532348 85.3557708,103.03616 87.8390279,102.225725 C90.0209693,101.519191 94.8731913,101.124364 101.616429,101.124364 C104.130857,101.124364 104.712708,101.093193 104.962073,100.968511 C105.304949,100.791877 105.471192,100.355489 105.304949,100.095734 C105.117926,99.7944184 104.556855,99.4827125 104.058126,99.4099811 C103.77759,99.3684203 103.517835,99.3060791 103.455494,99.2749086 C103.403543,99.243738 99.6838525,99.2125674 95.1952874,99.2021772 L87.0389827,99.2021772 L86.3532297,98.8696909 C85.5324041,98.4644732 84.8466511,97.7579398 84.3998726,96.8955534 C83.9530942,95.9916063 83.8284118,95.1707807 83.9634844,93.7784943 C84.0777765,92.5005001 83.994655,90.7757274 83.6621687,87.700229 C83.4024137,85.2897033 83.4855353,84.6766817 84.0985569,84.1260012 C84.6388472,83.6272718 84.9089923,83.5649306 87.6104435,83.2532247 C89.5222398,83.0350305 91.6834008,82.3596677 93.7198794,81.3414284 C95.070605,80.6764558 95.9745522,79.9907028 96.4421111,79.2945596 L96.8057679,78.7542693 L96.8057679,77.0294966 C96.8057679,75.3878455 96.6914758,72.8422472 96.5875738,72.3954687 C96.5667934,72.2811766 96.4732816,70.7122568 96.3901601,68.9147527 C96.2135267,65.2574033 96.0784542,64.395017 95.5693345,63.6365326 C95.0186541,62.815707 94.0939265,62.4832207 93.2731009,62.8364874 C92.5457872,63.1378031 92.5561773,63.813166 93.3354421,65.714572 C93.9172932,67.138029 94.1043167,67.8861232 94.4056324,69.9433822 C94.9563129,73.6111218 94.9667031,75.1177004 94.4679736,76.7281809 C94.0835363,77.9646144 93.117248,79.2737792 92.0782283,79.949142 C91.4652067,80.3439695 89.8962869,80.8323088 88.6598534,81.0193323 C87.3402984,81.2271362 84.9713335,81.216746 83.8076314,81.0193323 C82.2179313,80.738797 81.4490567,80.0946048 81.0126684,78.681538 C80.7425233,77.8087614 80.6905723,75.678771 80.9087664,74.1618022 C81.2828135,71.4499608 82.1244195,68.1147075 82.997196,65.8496446 C84.1089471,62.9819502 84.524555,61.3299089 84.1401177,61.3299089 C83.7349,61.3299089 82.363394,63.3144365 81.677641,64.9041366 C80.8775958,66.7535917 79.3398467,72.0318118 79.1008721,73.7461944 C78.9242388,74.9514572 78.7476054,78.2659301 78.8203368,79.0451949 C78.9138486,80.2400675 79.464529,81.6427441 80.3892566,83.0454207 C80.5866703,83.3571266 80.8256449,83.8558561 80.9191566,84.1363914 C81.2828135,85.3520445 81.6360802,95.8253631 81.3867155,97.9969143 C81.2412527,99.2333478 80.9087664,100.615244 80.7321331,100.719146 C80.6697919,100.760707 80.5970605,100.885389 80.5866703,100.978901 C80.5451095,101.238656 80.254184,101.43607 79.9113075,101.43607 C79.0177506,101.43607 78.7891662,100.95812 78.726825,99.0047634 C78.6956545,98.2566692 78.6333133,95.8669239 78.5709721,93.6953727 C78.3839485,86.7131603 78.3631682,86.17287 78.2592662,85.4559465 C78.1034132,84.3649758 77.8748289,83.7311737 77.1059543,82.214205 C76.7111268,81.4453304 76.3162993,80.530993 76.2331778,80.1881165 C75.9942032,79.2737792 75.8799111,77.7464202 75.8695209,75.5021377 C75.8695209,72.2707864 76.1188856,70.5875744 76.8461994,69.0498253 C77.2410269,68.2289997 77.5527328,67.7822212 78.9761898,66.0054975 C79.7450644,65.0495994 80.0983311,64.4885288 80.7529135,63.1897541 C82.3945646,59.8648911 83.0907078,56.9140751 83.3712431,52.1241943 C83.5063157,49.6928881 83.3920235,47.1576801 83.0803176,45.7965642 C82.6023686,43.6873542 81.2828135,42.0560933 78.4151191,40.0300049 C77.9059995,39.666348 77.3449288,39.2715205 77.1682955,39.1468381 C77.0020523,39.0221557 75.9006914,38.2740616 74.7265992,37.4844066 C72.9290951,36.2687535 70.3731066,34.4816396 69.9990595,34.1907141 C69.9471085,34.1387631 69.3548673,33.7023748 68.7002849,33.2140356 C66.9443416,31.8944806 66.0092238,31.073655 64.3883531,29.4112235 C61.6661215,26.647431 59.3283271,23.6238837 58.1126741,21.3068697 C57.4892622,20.1119971 57.3645799,19.5924872 57.634725,19.3846833 C58.1230643,19.0418068 58.7568663,19.3535127 60.9076371,21.0159442 C64.6273276,23.8940288 69.5834516,27.2916233 71.9108558,28.5696175 C76.087715,30.865851 80.461988,32.2373571 85.3349904,32.7984277 C86.9350807,32.9854512 90.2807242,33.1724748 91.8704243,33.1620846 C93.3354421,33.1620846 94.1562677,32.8503787 94.1562677,32.3100884 C94.1562677,31.9879923 93.5328559,31.4788727 92.7432009,31.1567766 C91.3924753,30.5853157 88.4936103,29.1306881 87.0389827,28.278692 C83.8699726,26.4292369 82.3426136,25.1512427 79.1320427,21.6809168 C77.8644387,20.3094108 77.6358544,19.9665343 77.6358544,19.4158539 C77.6358544,18.6573695 75.5266444,18.7197107 102.239841,18.7197107 C125.534663,18.7197107 126.210026,18.7301009 126.469781,18.9171244 C126.9789,19.3015617 126.885388,20.0184853 126.147684,21.2341384 C125.607394,22.1173051 124.474863,23.7381759 124.183937,24.0291014 C124.100816,24.112223 123.955353,24.3096367 123.851451,24.4447093 C123.757939,24.590172 123.331941,25.1096819 122.895553,25.6188015 C121.70068,26.9903075 121.565608,27.3643546 122.147459,27.5617684 C122.781261,27.7695723 124.163157,27.333184 127.664653,25.8369957 C132.101267,23.9459798 133.254579,23.270617 135.457301,21.2756992 C137.254805,19.6444382 137.649633,19.3535127 138.086021,19.3535127 C138.532799,19.3639029 138.834115,19.5509264 138.834115,19.8314618 C138.834115,20.2782402 138.065241,22.6575954 137.680803,23.4368601 C136.808027,25.1616329 135.446911,26.907186 133.223409,29.1306881 C130.407665,31.9568217 128.277675,33.5984729 121.482486,38.2117204 C118.02255,40.5599049 116.775727,41.5054128 115.549683,42.6898953 C114.33403,43.8535974 113.752179,44.9861289 113.492424,46.6589506 C113.25345,48.1966998 113.409303,52.0930237 113.80413,54.7840847 C113.949593,55.7295926 114.926272,60.1973774 115.35227,61.8390285 C115.809438,63.5638012 116.796507,65.2677935 118.105672,66.5250074 C119.269374,67.6575389 120.007078,68.8108507 120.433076,70.192747 C121.326633,73.1123923 121.399364,78.6919282 120.557758,80.6037244 C120.453856,80.8323088 120.0902,81.4453304 119.736933,81.9752304 C118.573231,83.7623443 118.417378,84.6247307 118.209574,90.8380685 C117.949819,98.5268144 117.731625,100.085344 116.464021,103.56606 C115.227587,106.932484 114.656127,107.80526 112.931354,108.948182 C112.027407,109.550813 111.67414,109.727447 110.520828,110.122274 C108.941518,110.672955 108.733714,110.683345 97.9486896,110.662565 C92.4626656,110.662565 87.8390279,110.631394 87.6623945,110.610614 Z M113.492424,100.708756 C113.731399,100.573683 114.001544,100.074954 114.001544,99.7632478 C114.001544,99.6385655 113.856081,99.0463242 113.679448,98.4436928 L113.346962,97.3423319 L113.419693,94.2772238 C113.482034,92.0329412 113.461254,91.1186039 113.378132,90.8900195 L113.25345,90.5783136 L112.962524,90.9315803 C112.598867,91.3679686 112.411844,92.3030863 112.172869,94.9941474 C111.965065,97.4046731 112.006626,99.5554439 112.276771,100.085344 C112.650818,100.802268 112.983305,100.968511 113.492424,100.708756 Z M112.650818,82.6505932 C114.479493,82.162254 115.102905,81.7466461 114.697687,81.2998676 C114.552225,81.1440147 114.375591,81.1336245 113.045646,81.2063558 C111.102679,81.320648 108.723324,81.1544049 107.382989,80.8115284 C106.177726,80.4998224 104.972463,79.9179714 103.975004,79.1802674 C103.382763,78.7334889 103.185349,78.5049046 102.915204,77.9542242 C102.291792,76.7074005 102.20867,76.1982809 102.20867,73.5383904 C102.219061,70.9720117 102.458035,68.7069488 102.894423,67.1276388 C103.642518,64.3742366 103.715249,64.0001895 103.517835,63.4806796 C103.382763,63.1378031 102.811302,62.9507796 102.094378,63.0131208 C101.367064,63.075462 100.712482,63.5222404 100.504678,64.0937013 C100.379996,64.4573582 100.286484,69.0394351 100.255313,76.7593515 C100.255313,77.9646144 100.535849,78.9724635 101.065749,79.5854851 C102.011257,80.6972362 105.138706,82.1414736 107.871328,82.7233246 C109.149322,83.0038599 111.445556,82.9622992 112.650818,82.6505932 Z M117.347188,81.476501 C117.534211,81.1855755 117.690064,80.8738695 117.700454,80.7803578 C117.710844,80.686846 117.773186,80.1881165 117.845917,79.6893871 C117.939429,78.9932439 117.939429,78.4529536 117.845917,77.4554947 C117.710844,75.9904769 117.409529,74.0682905 117.160164,73.1227825 C117.066652,72.779906 116.983531,72.4266393 116.96275,72.3435177 C116.95236,72.2603962 116.890019,72.0733726 116.827678,71.9279099 C116.651044,71.5226922 114.479493,65.9431564 114.157397,65.0703798 C114.001544,64.6443817 113.440473,63.0027306 112.900183,61.4234206 C110.531218,54.3996474 108.193424,49.2149391 106.686845,47.6356291 C105.616655,46.5030976 103.278861,45.3290054 102.083988,45.3290054 C101.335894,45.3290054 101.533308,45.5471995 102.935984,46.3056839 C104.951682,47.3966546 106.572553,49.0902567 107.663524,51.2514177 C108.058351,52.0410727 110.198732,57.4543653 111.050728,59.8441107 C111.757262,61.8286383 114.053495,68.7069488 114.562615,70.3693803 C115.570464,73.6838532 116.048413,76.0839887 116.183485,78.473734 C116.297778,80.4582617 116.349729,81.0297225 116.505582,81.6219637 C116.651044,82.1830344 116.94197,82.1414736 117.347188,81.476501 Z M100.982627,58.4310439 C102.530767,58.1297282 103.008716,57.8180222 102.582718,57.3920242 C102.19828,57.0075869 101.408625,56.9452457 97.7616661,56.9971967 C95.8706502,57.0283673 94.2497795,57.0595379 94.1874383,57.0803183 C94.1147069,57.0907085 93.9692441,57.1946104 93.8757324,57.3089026 C93.699099,57.4959261 93.699099,57.5167065 94.0004147,57.7452909 C94.384852,58.0569968 95.7459678,58.5037753 96.701866,58.6284576 C97.7304955,58.7635302 99.7565839,58.6700184 100.982627,58.4310439 Z M100.182582,54.0671611 C100.62936,53.8593572 100.691702,53.6307728 100.379996,53.3398473 C99.5383898,52.5605825 97.2941072,52.4566806 96.3070385,53.1528238 C95.7251875,53.5580414 95.756358,54.0775513 96.3693797,54.2541847 C96.8992797,54.4100376 99.7461937,54.274965 100.182582,54.0671611 Z" id="Shape" fill="#FFFFFF" fill-rule="nonzero" transform="translate(98.167058, 64.693281) scale(-1, 1) rotate(-180.000000) translate(-98.167058, -64.693281) "></path>
                </g>
            </g>
        </g>
    </g>
</svg>