<?xml version="1.0" encoding="utf-8"?>
<!-- Generator: Adobe Illustrator 24.1.2, SVG Export Plug-In . SVG Version: 6.00 Build 0)  -->
<svg version="1.1" id="Layer_1" xmlns="http://www.w3.org/2000/svg" xmlns:xlink="http://www.w3.org/1999/xlink" x="0px" y="0px"
	 viewBox="0 0 1000 1058" style="enable-background:new 0 0 1000 1058;" xml:space="preserve">
<style type="text/css">
	.st0{fill:#FFFFFF;}
</style>
<g transform="translate(0.000000,1058.000000) scale(0.100000,-0.100000)">
	<path class="st0" d="M4015,9713c-110-13-228-70-309-149c-31-30-56-63-56-73c0-11-6-21-14-24s-22-26-31-52c-16-40-16-53-6-100
		c42-187,194-331,433-409c210-68,677-106,1326-106c242,0,298-3,322-15c33-17,49-59,33-84c-18-29-72-59-120-66c-27-4-52-10-58-13
		c-5-3-363-6-795-7h-785l-66-32c-79-39-145-107-188-190c-43-87-55-166-42-300c11-123,3-289-29-585c-25-232-17-291,42-344
		c52-48,78-54,338-84c184-21,392-86,588-184c130-64,217-130,262-197l35-52v-166c0-158-11-403-21-446c-2-11-11-162-19-335
		c-17-352-30-435-79-508c-53-79-142-111-221-77c-70,29-69,94,6,277c56,137,74,209,103,407c53,353,54,498,6,653
		c-37,119-130,245-230,310c-59,38-210,85-329,103c-127,20-355,19-467,0c-153-27-227-89-269-225c-26-84-31-289-10-435
		c36-261,117-582,201-800c107-276,147-435,110-435c-39,0-171,191-237,344c-77,178-225,686-248,851c-17,116-34,435-27,510
		c9,115,62,250,151,385c19,30,42,78,51,105c35,117,69,1125,45,1334c-14,119-46,252-63,262c-6,4-13,16-14,25c-4,25-32,44-65,44
		c-86,0-108-46-114-234c-3-72-9-302-15-511c-18-672-20-724-30-793c-15-105-37-166-111-312c-38-74-76-162-84-195
		c-23-88-34-235-35-451c0-311,24-473,94-621c38-79,68-122,205-293c74-92,108-146,171-271c158-320,225-604,252-1065
		c13-234,2-478-28-609c-46-203-173-360-449-555c-49-35-103-73-120-85c-16-12-122-84-235-160c-173-117-419-289-455-317
		c-5-5-62-47-125-94c-169-127-259-206-415-366c-262-266-487-557-604-780c-60-115-72-165-46-185c47-33,108-3,315,157
		c358,277,835,604,1059,727c402,221,823,353,1292,407c154,18,476,36,629,35c141,0,220-30,220-82c0-31-60-80-136-111
		c-130-55-409-195-549-277c-305-178-452-301-761-635c-122-132-144-165-144-218c0-73-203-67,2368-67c2242,0,2307,1,2332,19
		c49,37,40,106-31,223c-52,85-161,241-189,269c-8,8-22,27-32,40c-9,14-50,64-92,113c-115,132-128,168-72,187c61,20,194-22,531-166
		c427-182,538-247,750-439c173-157,211-185,253-185c43,1,72,19,72,46c0,43-74,272-111,347c-84,166-215,334-429,548
		c-271,272-476,430-1130,874c-333,226-453,317-571,431c-117,112-173,221-198,382c-23,148-8,523,30,782c14,91,108,521,149,679
		c44,166,139,330,265,451c112,109,183,220,224,353c86,281,93,818,12,1002c-10,22-45,81-79,132c-112,172-127,255-147,853
		c-25,740-46,890-168,1225c-119,324-174,408-340,518c-87,58-121,75-232,113c-152,53-172,54-1210,52C4477,9718,4032,9715,4015,9713z
		 M6501,8760c23-13,49-61,49-91c0-12-14-69-31-127l-32-106l7-295c6-216,4-304-4-326l-12-30l-28,34c-35,42-53,132-76,391
		c-20,232-16,439,10,490C6420,8769,6452,8785,6501,8760z M6420,7022c176-47,236-87,197-130c-14-15-31-16-159-9c-187,11-416-5-545-38
		c-116-30-232-86-328-157c-57-43-76-65-102-118c-60-120-68-169-68-425c1-247,24-465,66-617c72-265,79-301,60-351
		c-13-33-68-51-137-45c-70,6-133,49-153,104c-12,35-21,476-24,1219c0,116,27,213,78,272c91,107,392,246,655,302
		C6083,7056,6304,7052,6420,7022z M6872,6909c18-28,33-58,34-67s7-57,14-105c9-67,9-119,0-215c-13-141-42-326-66-417
		c-9-33-17-67-19-75c-1-8-7-26-13-40c-17-39-226-576-257-660c-15-41-69-199-121-351c-228-676-453-1175-598-1327
		c-103-109-328-222-443-222c-72,0-53,21,82,94c194,105,350,268,455,476c38,76,244,597,326,827c68,191,289,853,338,1013
		c97,319,143,550,156,780c11,191,16,246,31,303C6805,6977,6833,6973,6872,6909z M5297,4691c149-29,195-59,154-100
		c-37-37-113-43-464-38c-182,3-338,6-344,8c-7,1-21,11-30,22c-17,18-17,20,12,42c37,30,168,73,260,85C4984,4723,5179,4714,5297,4691
		z M5220,4271c43-20,49-42,19-70c-81-75-297-85-392-18c-56,39-53,89,6,106C4904,4304,5178,4291,5220,4271z"/>
</g>
</svg>
