<?xml version="1.0" encoding="UTF-8"?>
<svg width="93px" height="122px" viewBox="0 0 93 122" version="1.1" xmlns="http://www.w3.org/2000/svg" xmlns:xlink="http://www.w3.org/1999/xlink">
    <!-- Generator: Sketch 61.2 (89653) - https://sketch.com -->
    <title>Group 16</title>
    <desc>Created with Sketch.</desc>
    <defs>
        <polygon id="path-1" points="4.63184476e-05 0.375781566 54.0439478 0.375781566 54.0439478 17.1378256 4.63184476e-05 17.1378256"></polygon>
        <polygon id="path-3" points="0.359755383 0.315474947 36.5687386 0.315474947 36.5687386 21.7696704 0.359755383 21.7696704"></polygon>
        <polygon id="path-5" points="0.284812135 0.279392876 91.9527718 0.279392876 91.9527718 80.6826598 0.284812135 80.6826598"></polygon>
    </defs>
    <g id="Welcome" stroke="none" stroke-width="1" fill="none" fill-rule="evenodd">
        <g id="About" transform="translate(-314.000000, -5835.000000)">
            <g id="Group-16" transform="translate(314.000000, 5835.000000)">
                <path d="M5.38665019,94.1816155 C5.75812414,92.4474528 7.12081287,91.4877346 8.85543873,91.4877346 C10.5270715,91.4877346 12.0138937,92.4784862 12.3543343,94.1816155 L5.38665019,94.1816155 Z M16.9996114,96.0088783 C16.9996114,91.333031 13.5928896,87.5548352 8.82394219,87.5548352 C4.24119498,87.5548352 0.773332802,91.3636011 0.773332802,95.8541746 C0.773332802,100.374855 4.36532842,104.090984 8.91704226,104.090984 C12.416401,104.090984 15.1107451,101.861677 16.4424005,98.7342557 L11.7350566,98.7342557 L11.5182863,98.9505629 C10.6512049,99.8176442 9.90779386,100.158548 8.66923857,100.158548 C6.90450572,100.158548 5.47975027,99.0746963 5.26344312,97.2784669 L16.8754779,97.2784669 C16.968578,96.8449262 16.9996114,96.4424189 16.9996114,96.0088783 L16.9996114,96.0088783 Z" id="Fill-1" fill="#FFFFFF"></path>
                <path d="M42.0154175,94.1816155 C42.3864283,92.4474528 43.749117,91.4877346 45.4832797,91.4877346 C47.1553757,91.4877346 48.6417346,92.4784862 48.9826384,94.1816155 L42.0154175,94.1816155 Z M53.6279155,96.0088783 C53.6279155,91.333031 50.2211937,87.5548352 45.4522463,87.5548352 C40.869036,87.5548352 37.4011738,91.3636011 37.4011738,95.8541746 C37.4011738,100.374855 40.9931694,104.090984 45.5448832,104.090984 C49.044242,104.090984 51.7390492,101.861677 53.0702414,98.7342557 L48.3633608,98.7342557 L48.1461273,98.9505629 C47.2795091,99.8176442 46.536098,100.158548 45.2975427,100.158548 C43.5328099,100.158548 42.1075912,99.0746963 41.8912841,97.2784669 L53.5037821,97.2784669 C53.596419,96.8449262 53.6279155,96.4424189 53.6279155,96.0088783 L53.6279155,96.0088783 Z" id="Fill-3" fill="#FFFFFF"></path>
                <path d="M24.7686972,88.0813833 L24.3365461,88.0813833 L23.0655679,88.0813833 L22.3545797,88.0813833 C22.3545797,86.4018764 22.691778,85.2846754 25.1156224,85.3652695 C24.8868093,86.0526353 24.7686972,86.7163787 24.7686972,87.2763687 L24.7686972,88.0813833 Z M32.2023449,84.6422386 C34.0166385,84.6422386 34.5386474,85.4856975 34.5386474,85.4856975 L36.8480852,82.8742634 C34.7943252,80.4833052 30.9508204,79.9436952 28.5038169,81.1567754 C27.8678646,81.4717408 27.3083377,81.9159347 26.8284786,82.4323854 C22.5690342,79.8876499 17.7093026,83.5125316 17.7093026,87.2763687 L17.7093026,88.0813833 L16.0061733,88.0813833 L16.0061733,91.5802788 L17.7093026,91.5802788 L17.7093026,103.564714 L22.3545797,103.564714 L22.3545797,91.5802788 L23.0655679,91.5802788 L24.3365461,91.5802788 L24.7686972,91.5802788 L24.7686972,103.564714 L29.4139743,103.564714 L29.4139743,91.5802788 L31.9207287,91.5802788 L31.9207287,103.564714 L36.5655427,103.564714 L36.5655427,88.0813833 L32.890637,88.0813833 L31.9207287,88.0813833 L29.4139743,88.0813833 C29.4139743,86.378254 30.128668,84.6422386 32.2023449,84.6422386 L32.2023449,84.6422386 Z" id="Fill-5" fill="#FFFFFF"></path>
                <g id="Group-9" transform="translate(0.000000, 104.863576)">
                    <mask id="mask-2" fill="white">
                        <use xlink:href="#path-1"></use>
                    </mask>
                    <g id="Clip-8"></g>
                    <path d="M45.4226952,12.7562394 C43.2457281,12.7562394 41.5222187,10.9752951 41.5222187,8.79925445 C41.5222187,6.53752465 43.2179371,4.75658034 45.3661867,4.75658034 C47.5709448,4.75658034 49.3514259,6.53752465 49.3514259,8.74228276 C49.3514259,11.0040126 47.6274533,12.7562394 45.4226952,12.7562394 L45.4226952,12.7562394 Z M8.59304472,12.7562394 C6.41654087,12.7562394 4.69210506,10.9752951 4.69210506,8.79925445 C4.69210506,6.53752465 6.38828662,4.75658034 8.53653622,4.75658034 C10.7412943,4.75658034 12.5213123,6.53752465 12.5213123,8.74228276 C12.5213123,11.0040126 10.7978028,12.7562394 8.59304472,12.7562394 L8.59304472,12.7562394 Z M49.3514259,2.58053967 L49.2953806,2.58053967 C48.3907813,1.1386464 46.609837,0.375781566 44.6876214,0.375781566 C42.4814738,0.375781566 40.5476786,1.27528582 39.1507142,2.73941195 L39.7134833,0.912612374 L34.8796901,0.912612374 L32.5336608,10.6644983 L32.4776154,10.6644983 L29.8768346,0.912612374 L25.9198496,0.912612374 L23.347323,10.6644983 L23.2908145,10.6644983 L20.9452483,0.912612374 L17.2138342,0.912612374 L16.0832009,0.912612374 L12.5213123,0.912612374 L12.5213123,2.58053967 L12.4652669,2.58053967 C11.5606677,1.1386464 9.78018654,0.375781566 7.85797096,0.375781566 C3.36369199,0.375781566 4.63184476e-05,4.10673252 4.63184476e-05,8.74228276 C4.63184476e-05,13.4913132 3.22242072,17.1379646 7.85797096,17.1379646 C9.92099462,17.1379646 11.7867017,16.2889474 12.4652669,14.904489 L12.5213123,14.904489 L12.5213123,16.6006706 L17.2138342,16.6006706 L17.2138342,4.60419265 L20.8878135,16.6006706 L25.2412844,16.6006706 L27.8698563,6.4527619 L27.9263648,6.4527619 L30.5553999,16.6006706 L34.8796901,16.6006706 L36.9093645,10.0137241 C37.430447,14.1263391 40.4754218,17.1379646 44.6876214,17.1379646 C46.7506451,17.1379646 48.6168153,16.2889474 49.2953806,14.904489 L49.3514259,14.904489 L49.3514259,16.6006706 L54.0439478,16.6006706 L54.0439478,0.912612374 L49.3514259,0.912612374 L49.3514259,2.58053967 Z" id="Fill-7" fill="#FFFFFF" mask="url(#mask-2)"></path>
                </g>
                <g id="Group-12" transform="translate(54.192584, 100.231731)">
                    <mask id="mask-4" fill="white">
                        <use xlink:href="#path-3"></use>
                    </mask>
                    <g id="Clip-11"></g>
                    <path d="M30.2370068,18.0100483 C29.3041533,18.0100483 28.597797,17.5575171 28.4565257,16.5686182 L24.4143148,16.5686182 L24.4143148,11.8760963 C25.0206233,12.9664325 26.3643214,13.9238349 28.9933565,14.7311654 C31.3389227,15.4662392 31.8766799,15.9183072 31.8766799,16.7946522 C31.8766799,17.5292628 31.0573066,18.0100483 30.2370068,18.0100483 M15.9625877,17.3602005 C13.701321,17.3602005 12.0338569,15.6922732 12.0338569,13.3179896 C12.0338569,11.0284687 13.7860838,9.38833247 15.9908419,9.38833247 C18.3090802,9.38833247 19.9770075,11.1414857 19.9770075,13.3179896 C19.9770075,15.6357647 18.2521085,17.3602005 15.9625877,17.3602005 M31.6223916,11.6500623 C29.4458878,11.084514 28.6830229,10.6607002 28.6830229,9.81260945 C28.6830229,9.21973332 29.248108,8.76720209 30.0396903,8.76720209 C30.8025551,8.76720209 31.4524029,9.04928143 31.4806572,9.95388072 L36.0879531,9.95388072 C35.8619191,6.87324076 33.4593812,5.00753369 30.0674813,5.00753369 C27.6246464,5.00753369 25.333736,6.20254964 24.4143148,8.17710506 L24.4143148,0.315474947 L19.722256,0.315474947 L19.722256,6.87324076 C18.393843,5.5443645 16.9241586,5.00753369 15.1149601,5.00753369 C12.3641075,5.00753369 10.1139573,6.32390397 8.75497402,8.39109629 L8.75497402,5.00753369 C6.94577545,5.00753369 5.64561663,5.5443645 4.82624329,7.2122918 L4.7692716,7.2122918 L4.7692716,5.5443645 L0.359755383,5.5443645 L0.359755383,21.2324227 L5.05227731,21.2324227 L5.05227731,12.5829158 C5.05227731,10.9659388 5.7984675,9.95480708 8.03147986,9.76119597 C7.58450684,10.8404158 7.34179818,12.0534959 7.34179818,13.3457806 C7.34179818,18.0943479 10.4506924,21.7409993 15.1997228,21.7409993 C17.432272,21.7409993 19.0149734,20.9781344 19.8917816,19.5362412 L19.9482901,19.5362412 L19.9482901,21.2324227 L24.4143148,21.2324227 L24.4143148,18.6849081 C25.4222042,20.6233351 27.510703,21.7697167 30.1804983,21.7697167 C33.7419238,21.7697167 36.5687386,19.7057667 36.5687386,16.427347 C36.5687386,14.1373629 35.3533426,12.6394243 31.6223916,11.6500623" id="Fill-10" fill="#FFFFFF" mask="url(#mask-4)"></path>
                </g>
                <g id="Group-15" transform="translate(0.463184, 0.183884)">
                    <mask id="mask-6" fill="white">
                        <use xlink:href="#path-5"></use>
                    </mask>
                    <g id="Clip-14"></g>
                    <path d="M23.7061984,34.117798 L24.5570682,34.981637 L23.1137854,39.4898115 L20.4319473,38.8098567 L22.4940446,32.8866536 L23.7061984,34.117798 Z M47.9682644,15.2805485 L49.0233987,16.7928458 L43.4355411,35.6467699 L40.0218715,34.8172065 L46.4545776,13.1105292 L47.9682644,15.2805485 Z M89.4876577,31.8579209 L81.8622517,59.8981827 L81.5996261,60.8643856 L82.1248773,61.7171082 L83.582982,64.0821281 L56.2861312,77.6770557 L76.4531833,6.50829771 L89.4876577,31.8579209 Z M55.434335,80.6826598 L55.434335,80.6826598 L86.8776132,65.0228558 L84.0920217,60.5044912 L91.9531887,31.5990008 L77.37631,3.25025811 L53.917869,0.279392876 L53.917869,0.279392876 L49.8636153,13.95862 L47.2947942,10.2753771 L33.1204228,8.23273352 L25.352356,32.4961891 L23.3407458,30.4540088 L23.3407458,30.4535456 L10.5286,27.7304841 L10.5286,27.7304841 L1.9536658,55.8119693 L0.284812135,61.2780093 L55.434335,80.6826598 Z" id="Fill-13" fill="#FFFFFF" mask="url(#mask-6)"></path>
                </g>
            </g>
        </g>
    </g>
</svg>