<?xml version="1.0" encoding="UTF-8"?>
<svg width="193px" height="131px" viewBox="0 0 193 131" version="1.1" xmlns="http://www.w3.org/2000/svg" xmlns:xlink="http://www.w3.org/1999/xlink">
    <!-- Generator: Sketch 61.2 (89653) - https://sketch.com -->
    <title>Group 43</title>
    <desc>Created with Sketch.</desc>
    <defs>
        <polygon id="path-1" points="3.9916711e-05 0.323844276 46.5744591 0.323844276 46.5744591 14.7691831 3.9916711e-05 14.7691831"></polygon>
        <polygon id="path-3" points="0.310033094 0.271872718 31.5145227 0.271872718 31.5145227 18.7608542 0.310033094 18.7608542"></polygon>
        <polygon id="path-5" points="0.245447856 0.240777601 79.2438521 0.240777601 79.2438521 69.5313978 0.245447856 69.5313978"></polygon>
    </defs>
    <g id="Welcome" stroke="none" stroke-width="1" fill="none" fill-rule="evenodd">
        <g id="About" transform="translate(-264.000000, -5831.000000)">
            <g id="Group-43" transform="translate(264.250000, 5831.500000)">
                <rect id="Rectangle-Copy-28" fill="#000000" x="0" y="0" width="192" height="130"></rect>
                <g id="Group-16" transform="translate(55.250000, 12.000000)">
                    <path d="M4.64215382,81.1646442 C4.96228584,79.6701626 6.13663548,78.8430883 7.6315163,78.8430883 C9.0721104,78.8430883 10.3534368,79.6969068 10.6468247,81.1646442 L4.64215382,81.1646442 Z M14.6500716,82.7393585 C14.6500716,78.7097665 11.7141975,75.4537604 7.60437294,75.4537604 C3.65501356,75.4537604 0.666449406,78.7361116 0.666449406,82.6060367 C0.666449406,86.5019077 3.76199034,89.7044254 7.68460553,89.7044254 C10.700313,89.7044254 13.0222681,87.7832341 14.1698736,85.0880578 L10.1131382,85.0880578 L9.92632802,85.2744688 C9.17908719,86.0217096 8.53842398,86.3154966 7.47105113,86.3154966 C5.95022444,86.3154966 4.72238641,85.3814456 4.53597537,83.8334755 L14.5430948,83.8334755 C14.6233274,83.4598551 14.6500716,83.1129789 14.6500716,82.7393585 L14.6500716,82.7393585 Z" id="Fill-1" fill="#FFFFFF"></path>
                    <path d="M36.2084086,81.1646442 C36.5281415,79.6701626 37.7024911,78.8430883 39.1969728,78.8430883 C40.637966,78.8430883 41.9188933,79.6969068 42.2126803,81.1646442 L36.2084086,81.1646442 Z M46.2159272,82.7393585 C46.2159272,78.7097665 43.2800531,75.4537604 39.1702286,75.4537604 C35.22047,75.4537604 32.2319059,78.7361116 32.2319059,82.6060367 C32.2319059,86.5019077 35.3274468,89.7044254 39.250062,89.7044254 C42.2657695,89.7044254 44.5881237,87.7832341 45.73533,85.0880578 L41.6789938,85.0880578 L41.4917845,85.2744688 C40.7449428,86.0217096 40.1042796,86.3154966 39.0369067,86.3154966 C37.5160801,86.3154966 36.2878429,85.3814456 36.1014318,83.8334755 L46.1089504,83.8334755 C46.1887838,83.4598551 46.2159272,83.1129789 46.2159272,82.7393585 L46.2159272,82.7393585 Z" id="Fill-3" fill="#FFFFFF"></path>
                    <path d="M21.3453814,75.9075336 L20.9729584,75.9075336 L19.8776439,75.9075336 L19.2649224,75.9075336 C19.2649224,74.4601536 19.555516,73.4973626 21.6443575,73.5668177 C21.447169,74.1591816 21.3453814,74.7311881 21.3453814,75.2137811 L21.3453814,75.9075336 Z M27.7516143,72.9437178 C29.3151519,72.9437178 29.7650132,73.6706011 29.7650132,73.6706011 L31.7552604,71.4200969 C29.9853534,69.3595963 26.6730648,68.8945666 24.5642649,69.9399853 C24.0162085,70.2114189 23.5340146,70.5942202 23.1204775,71.0392915 C19.4497368,68.8462674 15.2616754,71.9701492 15.2616754,75.2137811 L15.2616754,75.9075336 L13.793938,75.9075336 L13.793938,78.9228419 L15.2616754,78.9228419 L15.2616754,89.2508917 L19.2649224,89.2508917 L19.2649224,78.9228419 L19.8776439,78.9228419 L20.9729584,78.9228419 L21.3453814,78.9228419 L21.3453814,89.2508917 L25.3486283,89.2508917 L25.3486283,78.9228419 L27.5089207,78.9228419 L27.5089207,89.2508917 L31.5117685,89.2508917 L31.5117685,75.9075336 L28.3447766,75.9075336 L27.5089207,75.9075336 L25.3486283,75.9075336 C25.3486283,74.4397961 25.9645432,72.9437178 27.7516143,72.9437178 L27.7516143,72.9437178 Z" id="Fill-5" fill="#FFFFFF"></path>
                    <g id="Group-9" transform="translate(0.000000, 90.370236)">
                        <mask id="mask-2" fill="white">
                            <use xlink:href="#path-1"></use>
                        </mask>
                        <g id="Clip-8"></g>
                        <path d="M39.1447617,10.993182 C37.2686763,10.993182 35.7833755,9.45838441 35.7833755,7.58309733 C35.7833755,5.63396434 37.2447263,4.0991668 39.0960633,4.0991668 C40.9960988,4.0991668 42.5304971,5.63396434 42.5304971,7.53399978 C42.5304971,9.48313278 41.0447971,10.993182 39.1447617,10.993182 L39.1447617,10.993182 Z M7.40538814,10.993182 C5.52970189,10.993182 4.04360274,9.45838441 4.04360274,7.58309733 C4.04360274,5.63396434 5.50535269,4.0991668 7.35668975,4.0991668 C9.25672519,4.0991668 10.7907244,5.63396434 10.7907244,7.53399978 C10.7907244,9.48313278 9.30542358,10.993182 7.40538814,10.993182 L7.40538814,10.993182 Z M42.5304971,2.22387972 L42.4821979,2.22387972 C41.7026245,0.981272506 40.167827,0.323844276 38.5112835,0.323844276 C36.6100505,0.323844276 34.9435279,1.0990268 33.7396399,2.36079404 L34.2246279,0.786478956 L30.0589199,0.786478956 L28.0371385,9.19054328 L27.9888393,9.19054328 L25.747516,0.786478956 L22.3374314,0.786478956 L20.1204572,9.19054328 L20.0717589,9.19054328 L18.0503766,0.786478956 L14.8346864,0.786478956 L13.8603195,0.786478956 L10.7907244,0.786478956 L10.7907244,2.22387972 L10.7424252,2.22387972 C9.96285181,0.981272506 8.42845344,0.323844276 6.77190993,0.323844276 C2.89879147,0.323844276 3.9916711e-05,3.53913534 3.9916711e-05,7.53399978 C3.9916711e-05,11.6266602 2.7770455,14.7693028 6.77190993,14.7693028 C8.54980024,14.7693028 10.1576454,14.0376295 10.7424252,12.844519 L10.7907244,12.844519 L10.7907244,14.306269 L14.8346864,14.306269 L14.8346864,3.96784082 L18.0008799,14.306269 L21.7526516,14.306269 L24.0179249,5.56091676 L24.0666233,5.56091676 L26.3322958,14.306269 L30.0589199,14.306269 L31.8080702,8.62971349 C32.2571332,12.1739183 34.8812578,14.7693028 38.5112835,14.7693028 C40.2891738,14.7693028 41.8974181,14.0376295 42.4821979,12.844519 L42.5304971,12.844519 L42.5304971,14.306269 L46.5744591,14.306269 L46.5744591,0.786478956 L42.5304971,0.786478956 L42.5304971,2.22387972 Z" id="Fill-7" fill="#FFFFFF" mask="url(#mask-2)"></path>
                    </g>
                    <g id="Group-12" transform="translate(46.702552, 86.378565)">
                        <mask id="mask-4" fill="white">
                            <use xlink:href="#path-3"></use>
                        </mask>
                        <g id="Clip-11"></g>
                        <path d="M26.0579083,15.5208546 C25.2539858,15.5208546 24.6452559,15.1308684 24.52351,14.2786466 L21.0399786,14.2786466 L21.0399786,10.2346846 C21.5624883,11.174324 22.7204721,11.9994024 24.9861446,12.6951507 C27.0075269,13.3286289 27.4709599,13.718216 27.4709599,14.4734401 C27.4709599,15.1065192 26.7648333,15.5208546 26.0579083,15.5208546 M13.7563764,14.9608232 C11.8076425,14.9608232 10.3706409,13.5234224 10.3706409,11.4772918 C10.3706409,9.5042088 11.8806901,8.09075806 13.7807255,8.09075806 C15.7785569,8.09075806 17.2159577,9.60160557 17.2159577,11.4772918 C17.2159577,13.474724 15.7294594,14.9608232 13.7563764,14.9608232 M27.2518172,10.0398911 C25.3761309,9.55250802 24.7187027,9.18727011 24.7187027,8.45639514 C24.7187027,7.94546124 25.2056866,7.55547497 25.8878631,7.55547497 C26.5452914,7.55547497 27.1053228,7.79856774 27.129672,8.5781411 L31.1001873,8.5781411 C30.9053937,5.92328066 28.8349139,4.31543554 25.9118132,4.31543554 C23.8066058,4.31543554 21.8323253,5.34528668 21.0399786,7.04693607 L21.0399786,0.271872718 L16.9964158,0.271872718 L16.9964158,5.92328066 C15.8516045,4.77807022 14.5850473,4.31543554 13.0259005,4.31543554 C10.6552471,4.31543554 8.71609326,5.44986847 7.54493696,7.23135128 L7.54493696,4.31543554 C5.98579023,4.31543554 4.86532815,4.77807022 4.15920153,6.21547098 L4.11010398,6.21547098 L4.11010398,4.77807022 L0.310033094,4.77807022 L0.310033094,18.2978602 L4.35399508,18.2978602 L4.35399508,10.8438136 C4.35399508,9.45032124 4.9970533,8.57893944 6.92143793,8.41208759 C6.53624167,9.34214695 6.32707811,10.3875656 6.32707811,11.5012418 C6.32707811,15.5935031 9.00628775,18.7361457 13.0989481,18.7361457 C15.0229336,18.7361457 16.3868876,18.0787175 17.1425109,16.8361103 L17.1912093,16.8361103 L17.1912093,18.2978602 L21.0399786,18.2978602 L21.0399786,16.1024411 C21.9085662,17.7729555 23.7084107,18.7608941 26.00921,18.7608941 C29.0784059,18.7608941 31.5145227,16.9822054 31.5145227,14.1569006 C31.5145227,12.1834184 30.4671082,10.892512 27.2518172,10.0398911" id="Fill-10" fill="#FFFFFF" mask="url(#mask-4)"></path>
                    </g>
                    <g id="Group-15" transform="translate(0.399167, 0.158469)">
                        <mask id="mask-6" fill="white">
                            <use xlink:href="#path-5"></use>
                        </mask>
                        <g id="Clip-14"></g>
                        <path d="M20.4297319,29.40233 L21.1630019,30.1467766 L19.9191972,34.0318701 L17.6080196,33.4458928 L19.3851116,28.3413438 L20.4297319,29.40233 Z M41.3385043,13.1686028 L42.247807,14.4718834 L37.432255,30.7199806 L34.4903934,30.0050723 L40.0340262,11.2985049 L41.3385043,13.1686028 Z M77.1194448,27.4547936 L70.5479567,51.6195721 L70.321629,52.4522347 L70.7742845,53.1871014 L72.0308625,55.2252486 L48.5067473,66.9412025 L65.8864832,5.60877689 L77.1194448,27.4547936 Z M47.7726789,69.5313978 L47.7726789,69.5313978 L74.8701382,56.035957 L72.4695472,52.1420819 L79.2442114,27.2316592 L66.6820233,2.80103544 L46.4658058,0.240777601 L46.4658058,0.240777601 L42.9718961,12.0293799 L40.7581153,8.85520299 L28.5428034,7.09487604 L21.8483718,28.0048459 L20.1147891,26.2449181 L20.1147891,26.244519 L9.07342765,23.8978155 L9.07342765,23.8978155 L1.68364695,48.0981199 L0.245447856,52.8086909 L47.7726789,69.5313978 Z" id="Fill-13" fill="#FFFFFF" mask="url(#mask-6)"></path>
                    </g>
                </g>
            </g>
        </g>
    </g>
</svg>