<?xml version="1.0" encoding="UTF-8"?>
<svg width="193px" height="131px" viewBox="0 0 193 131" version="1.1" xmlns="http://www.w3.org/2000/svg" xmlns:xlink="http://www.w3.org/1999/xlink">
    <!-- Generator: Sketch 61.2 (89653) - https://sketch.com -->
    <title>Group 48</title>
    <desc>Created with Sketch.</desc>
    <defs>
        <polygon id="path-1" points="0 0.0488988597 52.758319 0.0488988597 52.758319 52.8635991 0 52.8635991"></polygon>
        <polygon id="path-3" points="0 53.145131 150.556616 53.145131 150.556616 0.330397701 0 0.330397701"></polygon>
    </defs>
    <g id="Welcome" stroke="none" stroke-width="1" fill="none" fill-rule="evenodd">
        <g id="About" transform="translate(-504.000000, -5831.000000)">
            <g id="Group-48" transform="translate(504.250000, 5831.500000)">
                <rect id="Rectangle-Copy-29" fill="#000000" x="0" y="0" width="192" height="130"></rect>
                <g id="Group-22" transform="translate(22.750000, 38.000000)">
                    <g id="Group-3" transform="translate(0.000000, 0.281499)">
                        <mask id="mask-2" fill="white">
                            <use xlink:href="#path-1"></use>
                        </mask>
                        <g id="Clip-2"></g>
                        <path d="M23.5550103,52.8635991 C21.9304448,52.4856241 20.282421,52.1879358 18.6872609,51.7134847 C15.4113677,50.7388115 12.4361364,49.1813167 9.5223591,46.7264618 C11.7872353,46.7264618 13.6814054,46.7353826 15.5755754,46.7248098 C21.7516996,46.6907789 25.2215363,43.2979249 25.3107436,37.152858 C25.3566689,33.9949168 25.3190036,30.835654 25.3190036,27.4870733 L23.8444386,27.4870733 C19.4537836,27.4870733 15.0631285,27.4857517 10.6721431,27.4874037 C6.32410935,27.4890557 2.75911816,28.8017257 1.0859842,33.311324 C-1.49243945,26.4644924 0.64952884,15.3707288 6.14139943,9.86167754 C6.14139943,11.5810672 6.12554034,13.1412051 6.14701619,14.7013431 C6.16155368,15.7701796 6.11794119,16.8565273 6.29106958,17.903888 C7.01166697,22.2624944 9.56299802,24.8785834 14.0137854,25.233761 C17.7089533,25.5288061 21.4470729,25.2942238 25.3213164,25.2942238 L25.3213164,23.9088662 C25.3213164,19.486493 25.2978581,15.0644501 25.3275939,10.6424073 C25.3569993,6.31518862 23.8788,2.91473548 19.5776827,1.16296687 C25.9930149,-1.37713066 37.0570427,0.477722036 43.0524394,6.19987982 C40.9950529,6.19987982 39.1058388,6.19327186 37.2169552,6.20120141 C30.9853241,6.22730283 27.5131747,9.66244772 27.4537031,15.8930876 C27.4239673,19.0070859 27.4487472,22.121745 27.4487472,25.1686726 C27.61725,25.2895982 27.6919199,25.3900391 27.7665897,25.3900391 C32.9971158,25.4009422 38.2306153,25.5165814 43.4568462,25.3702152 C47.3525655,25.2608536 50.3036777,23.4615077 51.727031,19.5416694 C54.3546839,26.1975311 51.7108415,38.5897576 46.6273425,43.0841576 C46.6273425,42.336798 46.6322985,41.7566196 46.6263513,41.1761108 C46.6071882,39.3612363 46.6577391,37.5420665 46.5480471,35.7324783 C46.2794337,31.2935852 43.4740268,28.0890579 39.0556184,27.7345412 C35.2662872,27.4305753 31.433013,27.6717656 27.4470952,27.6717656 L27.4470952,29.1162644 C27.4470952,33.0727768 27.5363025,37.0319325 27.4239673,40.9854714 C27.2894955,45.7342775 28.2869661,49.8001516 33.5095626,51.9084194 C31.841715,52.2748304 30.5016219,52.5692148 29.1618592,52.8635991 L23.5550103,52.8635991 Z" id="Fill-1" fill="#FFFFFF" mask="url(#mask-2)"></path>
                    </g>
                    <path d="M78.3389138,10.6732665 L63.1647386,10.6732665 L63.1647386,14.0221775 C63.5879781,14.0462966 64.0343454,14.0928827 64.4810431,14.0938738 C67.2838068,14.1008122 70.0865705,14.0819795 72.8890038,14.1077506 C73.7259011,14.1153497 74.5733712,14.1751517 75.3957311,14.3225091 C77.2750332,14.6598451 78.283407,15.7570959 78.3868215,17.6456491 C78.4657866,19.0842007 78.4677689,20.5339858 78.3881431,21.9725374 C78.2711823,24.0745276 77.2697469,25.1655008 75.1393425,25.5375286 C74.2274449,25.6964499 73.283829,25.7202385 72.3540899,25.7265161 C69.1776464,25.7476616 66.0008725,25.7651726 62.8247594,25.7238729 C59.9146164,25.6858772 58.2289274,24.3781631 57.8833314,21.7967658 L73.2573972,21.7967658 L73.2573972,18.177259 C69.860248,18.177259 66.5513151,18.1951005 63.2430429,18.1650343 C62.4104407,18.1571048 61.5494243,18.1009372 60.7531658,17.8812227 C59.260429,17.4695472 58.0894995,16.5493896 57.9560189,14.92978 C57.8195646,13.2734964 57.8060183,11.5765738 58.0098737,9.93086282 C58.2361961,8.10178114 59.573646,6.82644602 61.4159436,6.78448551 C65.9420617,6.68107103 70.4751182,6.66289916 74.9995843,6.80265738 C77.1887994,6.87038891 78.2110499,8.22171551 78.3389138,10.6732665" id="Fill-4" fill="#FFFFFF"></path>
                    <mask id="mask-4" fill="white">
                        <use xlink:href="#path-3"></use>
                    </mask>
                    <g id="Clip-7"></g>
                    <path d="M62.6315098,36.0543187 L73.5052285,36.0543187 L73.5052285,31.9550744 L62.6315098,31.9550744 L62.6315098,36.0543187 Z M78.3485284,28.5813835 L78.3485284,46.6967591 L73.5680041,46.6967591 L73.5680041,39.5502568 L62.5317297,39.5502568 C62.5317297,40.6303269 62.5340425,41.642335 62.5313993,42.6540128 C62.5228089,45.7336498 61.0343673,47.0350863 57.7763156,46.6567809 L57.7763156,42.5225145 C57.776646,39.0305412 57.7561613,35.5385679 57.7852363,32.0465946 C57.8027474,29.9743402 58.8319362,28.6583662 60.877098,28.6197097 C66.6603793,28.5106784 72.4469647,28.5813835 78.3485284,28.5813835 L78.3485284,28.5813835 Z" id="Fill-6" fill="#FFFFFF" mask="url(#mask-4)"></path>
                    <path d="M84.728508,22.6487624 L90.818068,22.6487624 L90.818068,15.1741752 L84.728508,15.1741752 L84.728508,22.6487624 Z M84.7572526,25.7346769 C84.3287268,27.5637586 85.3040608,29.6819383 83.5106621,30.9113481 C82.6688088,31.4885529 81.4711171,31.5500069 80.2770598,31.8899861 L80.2770598,12.1249348 C81.9376386,12.1249348 83.5559266,12.124274 85.1738841,12.1249348 C87.1357857,12.1262564 89.0986784,12.0866087 91.0592584,12.1407939 C93.8587181,12.2177766 95.2632387,13.6659097 95.2860362,16.4214265 C95.3002433,18.1437897 95.2972697,19.866153 95.286697,21.5885162 C95.2698467,24.3721168 94.125349,25.5959099 91.3196118,25.7105579 C89.5476889,25.782915 87.7701493,25.7310426 85.9952528,25.7346769 C85.587542,25.7353377 85.1798313,25.7346769 84.7572526,25.7346769 L84.7572526,25.7346769 Z" id="Fill-8" fill="#FFFFFF" mask="url(#mask-4)"></path>
                    <path d="M123.01235,17.5054614 L129.204334,17.5054614 L129.204334,15.0780295 L123.01235,15.0780295 L123.01235,17.5054614 Z M122.983606,20.4486441 L122.983606,22.6877493 L133.411288,22.6877493 C133.457874,24.2630856 132.77362,25.2311508 131.166896,25.4525173 C129.377132,25.698994 127.546728,25.7075843 125.733836,25.7174962 C124.295285,25.7250954 122.826667,25.7317033 121.424459,25.4637508 C119.437117,25.0844543 118.611123,23.9131944 118.595264,21.904046 C118.579735,19.9051399 118.585537,17.9059034 118.593281,15.9066669 C118.60055,13.8674523 119.300332,12.6116106 121.264547,12.4520286 C124.447268,12.1929968 127.693425,12.1252652 130.860948,12.4612797 C133.364702,12.7269194 133.97792,14.3151412 133.624725,17.7631716 C133.445319,19.5169226 132.343773,20.3792606 130.010504,20.4364194 C127.728117,20.492587 125.443417,20.4486441 122.983606,20.4486441 L122.983606,20.4486441 Z" id="Fill-9" fill="#FFFFFF" mask="url(#mask-4)"></path>
                    <path d="M32.2619809,21.0024567 C32.2619809,18.62921 32.156584,16.3531003 32.2966726,14.0925192 C32.4004175,12.4177333 33.3522933,11.4595799 35.0287312,11.2048433 C36.4471285,10.989424 37.9048432,10.9881024 39.346038,10.9699305 C42.0027659,10.9368908 44.660485,10.9606794 47.7107166,10.9606794 C47.5213987,13.6573854 47.4421032,16.2751264 47.1123663,18.8611492 C46.9415507,20.2022335 45.7580662,20.9436459 44.4724887,20.971069 C40.4234649,21.056642 36.3717979,21.0024567 32.2619809,21.0024567" id="Fill-10" fill="#FFFFFF" mask="url(#mask-4)"></path>
                    <path d="M31.9990173,32.49468 C34.1125714,32.49468 36.0731514,32.4233141 38.0261322,32.5118606 C40.8272439,32.6380726 42.0103981,33.8460066 42.0513674,36.6305984 C42.1052222,40.3036296 42.0645833,43.9783129 42.0645833,47.9959489 C39.4703005,47.8568515 36.9245863,47.8518955 34.4171981,47.5396697 C32.7288659,47.3295367 32.0621233,45.8642229 32.0280923,44.3410895 C31.9408673,40.4423967 31.9990173,36.5403998 31.9990173,32.49468" id="Fill-11" fill="#FFFFFF" mask="url(#mask-4)"></path>
                    <path d="M10.6688391,5.65026324 C12.9390017,5.65026324 14.995397,5.57790615 17.0445236,5.66909591 C19.4544444,5.77647516 20.6891406,6.95962933 20.7449778,9.34377914 C20.8338548,13.156899 20.7687664,16.9736532 20.7687664,21.1492194 C18.1652326,20.9922805 15.5802009,20.9301657 13.0212708,20.6390853 C11.898249,20.5112214 11.1333783,19.5828039 10.9526507,18.4290551 C10.7739056,17.2868703 10.6942797,16.120236 10.6810638,14.9631832 C10.6450505,11.9017181 10.6688391,8.83959225 10.6688391,5.65026324" id="Fill-12" fill="#FFFFFF" mask="url(#mask-4)"></path>
                    <path d="M20.4746134,32.4849332 C20.4746134,34.9090612 20.5780278,37.2258098 20.4386,39.5276906 C20.3447671,41.0709783 19.3400277,42.1038015 17.7521363,42.291137 C16.3238271,42.4596398 14.8753635,42.5009395 13.4344992,42.5194418 C10.7830576,42.5534728 8.13029447,42.5290233 5.49801598,42.5290233 C5.49801598,39.9581988 5.37246486,37.4699737 5.54460206,35.0022333 C5.64999892,33.4946286 6.83876985,32.5523344 8.32423792,32.5176426 C12.3722705,32.4228185 16.4236072,32.4849332 20.4746134,32.4849332" id="Fill-13" fill="#FFFFFF" mask="url(#mask-4)"></path>
                    <path d="M107.855125,17.5651643 C109.114931,15.8966559 110.196653,14.5648227 111.15745,13.151051 C111.690381,12.3673476 112.283445,12.0402539 113.229043,12.1066638 C114.339179,12.1846377 115.459228,12.1248357 116.945026,12.1248357 C115.24546,14.3930159 113.705807,16.4474288 112.099744,18.5910491 C114.009443,20.8873131 115.903613,23.1637533 117.815624,25.4623301 C114.901847,26.4023116 112.34589,25.6334761 110.637734,23.3543928 C109.759537,22.1818113 108.877375,21.0125339 107.72627,19.9344462 L107.72627,25.6430576 L103.520637,25.6430576 L103.520637,6.85895715 C106.121528,6.48098218 107.583538,7.59310084 107.715036,10.1626038 C107.812503,12.0640425 107.752041,13.9734108 107.770212,15.8791448 C107.774508,16.3192345 107.813164,16.7593243 107.855125,17.5651643" id="Fill-14" fill="#FFFFFF" mask="url(#mask-4)"></path>
                    <path d="M150.478543,14.9506942 L139.374867,14.9506942 L139.374867,17.5581929 C141.423002,17.5581929 143.461226,17.5578625 145.499449,17.5581929 C150.308388,17.5585233 150.614997,17.8644715 150.549578,22.6030354 C150.523146,24.5385051 149.792637,25.5396101 147.842299,25.6314607 C144.721363,25.7791485 141.584897,25.782122 138.462969,25.6535973 C136.579372,25.5756235 135.752056,24.6320076 135.49732,22.7893797 L146.737449,22.7893797 L146.737449,20.4124986 C144.76035,20.4124986 142.772347,20.4326529 140.785335,20.4039083 C139.763084,20.3890404 138.719688,20.3992827 137.726183,20.1993921 C136.1373,19.8798975 135.473861,18.9567663 135.422319,17.3305488 C135.280248,12.8401137 135.975735,12.1231507 140.485003,12.1257939 C142.773338,12.1271155 145.063655,12.0795382 147.349346,12.1601552 C149.478759,12.2351555 150.278322,12.9702904 150.478543,14.9506942" id="Fill-15" fill="#FFFFFF" mask="url(#mask-4)"></path>
                    <path d="M107.780686,44.1966397 L113.660113,44.1966397 L113.660113,41.7559918 L107.780686,41.7559918 L107.780686,44.1966397 Z M113.708021,39.0064222 L113.708021,36.4904437 C112.381144,36.4904437 111.052284,36.5003556 109.723424,36.4871397 C108.743465,36.4772278 107.756567,36.5013468 106.785528,36.3949587 C105.34995,36.237359 104.77671,35.5388983 104.633648,33.9050817 C108.170886,33.9050817 111.709445,33.7709402 115.230824,33.9586061 C117.151095,34.060699 117.953631,35.2689634 117.962882,37.2021203 C117.97742,40.3151275 117.966847,43.4281346 117.966847,46.6442258 C117.537991,46.7040278 117.189091,46.793896 116.83953,46.7952176 C113.710003,46.8061207 110.580146,46.8051295 107.450288,46.7995127 C106.054688,46.7968696 104.61878,46.6680145 103.942126,45.2572163 C103.164039,43.6349636 103.146858,41.8534592 104.066025,40.2995988 C104.417898,39.7048829 105.398849,39.2301014 106.136957,39.1597267 C108.08267,38.9740432 110.052501,39.0384708 112.01242,39.0077438 C112.555263,38.9991534 113.098107,39.0064222 113.708021,39.0064222 L113.708021,39.0064222 Z" id="Fill-16" fill="#FFFFFF" mask="url(#mask-4)"></path>
                    <path d="M95.2106394,36.5896291 L83.9602673,36.5896291 L83.9602673,39.0375456 C85.2541047,39.0375456 86.5429861,39.0226777 87.8308764,39.04118 C89.5112791,39.0649686 91.1976289,39.0358936 92.8687805,39.1763127 C94.5323329,39.3157405 95.2347584,40.1850169 95.2879525,41.8459261 C95.4310147,46.2834976 94.9010568,46.8293146 90.4093,46.8250194 C87.9808769,46.8230371 85.5494802,46.8689623 83.1246915,46.7675302 C81.1842658,46.6862524 80.2555179,45.767086 80.1917511,44.0097006 L91.4034667,44.0097006 L91.4034667,41.7368949 L88.4992709,41.7368949 C87.1446403,41.7368949 85.7900098,41.7375557 84.4353792,41.7365645 C80.666863,41.7339213 79.8468159,40.8748873 79.9918605,37.0842344 C80.0668608,35.1276192 81.03823,33.9811392 82.988898,33.9246412 C86.1154515,33.8341122 89.2489433,33.8390682 92.3751663,33.9362051 C94.2465389,33.9946855 94.9311229,34.7113181 95.2106394,36.5896291" id="Fill-17" fill="#FFFFFF" mask="url(#mask-4)"></path>
                    <path d="M97.1578713,25.6162624 C97.1578713,21.3174579 97.1449858,17.1019136 97.1899199,12.8866998 C97.192563,12.6322935 97.6432255,12.1836135 97.9091957,12.1651112 C99.0553453,12.0841638 100.210416,12.1304194 101.46031,12.1304194 C101.46031,15.7908956 101.569011,19.3086399 101.417689,22.8148203 C101.333107,24.7704443 99.6028143,25.8207786 97.1578713,25.6162624" id="Fill-18" fill="#FFFFFF" mask="url(#mask-4)"></path>
                    <path d="M97.3492046,33.8486828 L101.394264,33.8486828 L101.394264,46.5934437 C99.2843439,47.0936658 97.4988748,46.0231773 97.3914955,43.8484996 C97.2296006,40.5712848 97.3492046,37.2805237 97.3492046,33.8486828" id="Fill-19" fill="#FFFFFF" mask="url(#mask-4)"></path>
                    <path d="M101.509506,10.3719768 L97.3792047,10.3719768 C97.052111,7.95875198 98.595729,6.5615001 101.509506,6.76535548 L101.509506,8.52241046 L101.509506,10.3719768 Z" id="Fill-20" fill="#FFFFFF" mask="url(#mask-4)"></path>
                    <path d="M101.42803,32.1122446 L97.3879272,32.1122446 L97.3879272,28.6817253 C99.9501614,28.2839265 101.450828,29.5500105 101.42803,32.1122446" id="Fill-21" fill="#FFFFFF" mask="url(#mask-4)"></path>
                </g>
            </g>
        </g>
    </g>
</svg>