<?xml version="1.0" encoding="UTF-8"?>
<svg width="176px" height="62px" viewBox="0 0 176 62" version="1.1" xmlns="http://www.w3.org/2000/svg" xmlns:xlink="http://www.w3.org/1999/xlink">
    <!-- Generator: Sketch 61.2 (89653) - https://sketch.com -->
    <title>Group 22</title>
    <desc>Created with Sketch.</desc>
    <defs>
        <polygon id="path-1" points="0 0.0570486697 61.5513722 0.0570486697 61.5513722 61.674199 0 61.674199"></polygon>
        <polygon id="path-3" points="0 62.0026528 175.649385 62.0026528 175.649385 0.385463984 0 0.385463984"></polygon>
    </defs>
    <g id="Welcome" stroke="none" stroke-width="1" fill="none" fill-rule="evenodd">
        <g id="About" transform="translate(-517.000000, -5865.000000)">
            <g id="Group-22" transform="translate(517.000000, 5865.000000)">
                <g id="Group-3" transform="translate(0.000000, 0.328415)">
                    <mask id="mask-2" fill="white">
                        <use xlink:href="#path-1"></use>
                    </mask>
                    <g id="Clip-2"></g>
                    <path d="M27.4808453,61.674199 C25.5855189,61.2332282 23.6628245,60.8859251 21.8018044,60.3323988 C17.979929,59.1952801 14.5088258,57.3782029 11.1094189,54.5142055 C13.7517746,54.5142055 15.9616396,54.524613 18.1715046,54.5122781 C25.3769829,54.4725753 29.4251256,50.5142457 29.5292009,43.345001 C29.5827804,39.6607363 29.5388375,35.9749297 29.5388375,32.0682522 L27.8185117,32.0682522 C22.6960809,32.0682522 17.57365,32.0667103 12.4508336,32.0686376 C7.37812758,32.070565 3.21897119,33.6020134 1.26698157,38.8632113 C-1.74117936,30.8752411 0.757783647,17.9325169 7.164966,11.5052905 C7.164966,13.511245 7.14646372,15.331406 7.17151888,17.1515669 C7.1884793,18.3985429 7.13759805,19.6659485 7.33958118,20.8878693 C8.18027813,25.9729102 11.156831,29.025014 16.3494164,29.4393878 C20.6604456,29.7836071 25.0215851,29.5099277 29.5415358,29.5099277 L29.5415358,27.8936772 C29.5415358,22.7342418 29.5141678,17.5751918 29.5488596,12.4161419 C29.5831659,7.36772005 27.8586,3.40052472 22.8406299,1.35679468 C30.325184,-1.60665243 43.2332165,0.557342375 50.2278459,7.23319312 C47.8275617,7.23319312 45.6234787,7.22548384 43.4197811,7.23473498 C36.1495448,7.26518663 32.0987038,11.2728557 32.0293203,18.5419355 C31.9946286,22.1749335 32.0235384,25.8087025 32.0235384,29.3634514 C32.220125,29.5045312 32.3072398,29.6217123 32.3943547,29.6217123 C38.496635,29.6344326 44.6023846,29.769345 50.6996539,29.5985844 C55.2446597,29.4709958 58.687624,27.371759 60.3482029,22.7986143 C63.4137979,30.5637862 60.3293151,45.0213839 54.3985663,50.2648505 C54.3985663,49.392931 54.4043482,48.7160562 54.3974099,48.038796 C54.375053,45.9214423 54.4340289,43.7990776 54.3060549,41.6878914 C53.9926727,36.5091827 50.719698,32.7705676 45.5648881,32.3569647 C41.1440017,32.0023378 36.6718485,32.2837265 32.021611,32.2837265 L32.021611,33.9689751 C32.021611,38.5849063 32.1256863,43.2039212 31.9946286,47.8163833 C31.8377447,53.3566571 33.0014605,58.1001769 39.0944897,60.5598226 C37.1486675,60.9873021 35.5852256,61.3307506 34.0221691,61.674199 L27.4808453,61.674199 Z" id="Fill-1" fill="#FFFFFF" mask="url(#mask-2)"></path>
                </g>
                <path d="M91.3953995,12.4521442 L73.6921951,12.4521442 L73.6921951,16.3592071 C74.1859744,16.387346 74.7067363,16.4416964 75.2278836,16.4428528 C78.4977746,16.4509476 81.7676655,16.4289761 85.0371711,16.4590423 C86.0135513,16.467908 87.0022665,16.537677 87.9616863,16.7095939 C90.1542055,17.1031526 91.3306415,18.3832785 91.4512918,20.5865907 C91.5434177,22.2649008 91.5457304,23.9563168 91.4528336,25.634627 C91.3163794,28.0869489 90.148038,29.3597509 87.6625663,29.7937834 C86.5986857,29.9791916 85.4978005,30.006945 84.4131049,30.0142688 C80.7072541,30.0389385 77.0010179,30.0593681 73.2955526,30.0111851 C69.9003859,29.9668567 67.9337486,28.4411903 67.5305533,25.4295602 L85.4669634,25.4295602 L85.4669634,21.2068022 C81.5036227,21.2068022 77.6432009,21.2276173 73.78355,21.19254 C72.8121808,21.1832889 71.8076616,21.11776 70.8786934,20.8614265 C69.1371672,20.3811384 67.7710828,19.3076212 67.6153554,17.4180767 C67.4561587,15.4857457 67.4403547,13.5060027 67.678186,11.5860066 C67.9422288,9.452078 69.502587,7.96418702 71.6519342,7.9152331 C76.9324053,7.79458287 82.2209712,7.77338235 87.499515,7.93643361 C90.0535994,8.01545373 91.2462249,9.59200143 91.3953995,12.4521442" id="Fill-4" fill="#FFFFFF"></path>
                <mask id="mask-4" fill="white">
                    <use xlink:href="#path-3"></use>
                </mask>
                <g id="Clip-7"></g>
                <path d="M73.0700947,42.0633718 L85.7560999,42.0633718 L85.7560999,37.2809202 L73.0700947,37.2809202 L73.0700947,42.0633718 Z M91.4066165,33.3449474 L91.4066165,54.4795522 L85.8293381,54.4795522 L85.8293381,46.1419663 L72.9536846,46.1419663 C72.9536846,47.402048 72.9563829,48.5827242 72.9532992,49.7630149 C72.9432771,53.3559247 71.2067618,54.8742674 67.4057015,54.4329111 L67.4057015,49.6096003 C67.406087,45.5356314 67.3821882,41.4616626 67.416109,37.3876937 C67.4365386,34.9700636 68.6372589,33.4347605 71.023281,33.3896613 C77.7704426,33.2624581 84.5214588,33.3449474 91.4066165,33.3449474 L91.4066165,33.3449474 Z" id="Fill-6" fill="#FFFFFF" mask="url(#mask-4)"></path>
                <path d="M98.849926,26.4235561 L105.954413,26.4235561 L105.954413,17.7032044 L98.849926,17.7032044 L98.849926,26.4235561 Z M98.8834614,30.0237897 C98.3835146,32.1577184 99.5214043,34.628928 97.4291058,36.0632395 C96.4469435,36.736645 95.0496366,36.8083413 93.6565698,37.2049838 L93.6565698,14.1457573 C95.5939117,14.1457573 97.4819143,14.1449864 99.3695315,14.1457573 C101.658417,14.1472992 103.948458,14.1010435 106.235801,14.1642596 C109.501838,14.2540727 111.140445,15.9435613 111.167042,19.158331 C111.183617,21.1677547 111.180148,23.1771785 111.167813,25.1866022 C111.148154,28.4341363 109.812907,29.8618949 106.539547,29.9956509 C104.472304,30.0800675 102.398507,30.0195496 100.327795,30.0237897 C99.8521324,30.0245607 99.3764698,30.0237897 98.8834614,30.0237897 L98.8834614,30.0237897 Z" id="Fill-8" fill="#FFFFFF" mask="url(#mask-4)"></path>
                <path d="M143.514409,20.4230383 L150.738389,20.4230383 L150.738389,17.5910344 L143.514409,17.5910344 L143.514409,20.4230383 Z M143.480873,23.8567515 L143.480873,26.4690409 L155.646502,26.4690409 C155.700853,28.3069332 154.902557,29.4363426 153.028045,29.6946035 C150.939987,29.9821596 148.804517,29.9921817 146.689476,30.0037456 C145.011165,30.0126113 143.297778,30.0203206 141.661869,29.7077093 C139.343303,29.2651966 138.379643,27.8987268 138.361141,25.5547203 C138.343024,23.2226632 138.349793,20.8902206 138.358828,18.5577781 C138.367308,16.1786944 139.183721,14.7135457 141.475304,14.5273666 C145.188479,14.2251629 148.975663,14.1461428 152.671106,14.5381596 C155.592152,14.8480727 156.307573,16.7009981 155.895512,20.7237002 C155.686205,22.769743 154.401068,23.775804 151.678921,23.8424893 C149.016136,23.9080182 146.350653,23.8567515 143.480873,23.8567515 L143.480873,23.8567515 Z" id="Fill-9" fill="#FFFFFF" mask="url(#mask-4)"></path>
                <path d="M37.6389777,24.5028662 C37.6389777,21.7340784 37.5160147,19.078617 37.6794514,16.4412724 C37.8004871,14.4873555 38.9110088,13.3695099 40.8668531,13.0723172 C42.52165,12.8209947 44.2223171,12.8194528 45.903711,12.7982523 C49.0032269,12.7597059 52.1038992,12.7874593 55.6625027,12.7874593 C55.4416318,15.9336164 55.3491204,18.9876475 54.9644274,22.0046741 C54.7651425,23.5692724 53.3844105,24.4342536 51.8845701,24.4662471 C47.160709,24.5660823 42.4337642,24.5028662 37.6389777,24.5028662" id="Fill-10" fill="#FFFFFF" mask="url(#mask-4)"></path>
                <path d="M37.3321869,37.91046 C39.798,37.91046 42.0853433,37.8271997 44.3638209,37.9305041 C47.6317846,38.0777513 49.0121311,39.4870077 49.0599286,42.7356981 C49.1227592,47.0209012 49.0753472,51.3080317 49.0753472,55.9952737 C46.048684,55.8329934 43.078684,55.8272114 40.1533978,55.462948 C38.1836768,55.2177929 37.4058105,53.5082601 37.3661077,51.7312711 C37.2643452,47.1827961 37.3321869,42.6304665 37.3321869,37.91046" id="Fill-11" fill="#FFFFFF" mask="url(#mask-4)"></path>
                <path d="M12.446979,6.59197378 C15.095502,6.59197378 17.4946299,6.50755717 19.8852775,6.61394523 C22.6968518,6.73922103 24.1373307,8.11956755 24.2024741,10.9010757 C24.3061639,15.3497155 24.2302275,19.8025955 24.2302275,24.6740893 C21.1927713,24.4909939 18.1769011,24.4185267 15.1914825,24.0789329 C13.8812905,23.9297583 12.9889413,22.8466045 12.7780925,21.5005643 C12.5695565,20.1680153 12.4766597,18.806942 12.4612411,17.4570471 C12.4192256,13.8853378 12.446979,10.3128576 12.446979,6.59197378" id="Fill-12" fill="#FFFFFF" mask="url(#mask-4)"></path>
                <path d="M23.8870489,37.8990888 C23.8870489,40.727238 24.0076992,43.4301115 23.8450334,46.1156391 C23.7355616,47.9161413 22.5633656,49.1211018 20.7108257,49.3396598 C19.0444649,49.5362465 17.3545908,49.5844295 15.6735823,49.6060154 C12.5802339,49.6457182 9.48534354,49.6171939 6.41435198,49.6171939 C6.41435198,46.6178986 6.26787567,43.7149694 6.4687024,40.8359389 C6.59166541,39.0770667 7.97856483,37.9777234 9.7116109,37.9372497 C14.4343156,37.8266215 19.160875,37.8990888 23.8870489,37.8990888" id="Fill-13" fill="#FFFFFF" mask="url(#mask-4)"></path>
                <path d="M125.830979,20.4926916 C127.300753,18.5460985 128.562762,16.9922932 129.683691,15.3428928 C130.305445,14.4285722 130.997352,14.0469629 132.10055,14.1244411 C133.395709,14.2154106 134.702432,14.1456417 136.435864,14.1456417 C134.453037,16.7918519 132.656775,19.188667 130.783035,21.6895573 C133.011016,24.368532 135.220881,27.0243788 137.451561,29.7060518 C134.052155,30.8026968 131.070205,29.9057221 129.077356,27.2467916 C128.052793,25.8787799 127.023604,24.5146228 125.680648,23.2568539 L125.680648,29.9169006 L120.774077,29.9169006 L120.774077,8.00211668 C123.808449,7.56114588 125.514127,8.85861765 125.667542,11.8563711 C125.781254,14.0747163 125.710714,16.3023127 125.731914,18.5256689 C125.736926,19.0391069 125.782025,19.552545 125.830979,20.4926916" id="Fill-14" fill="#FFFFFF" mask="url(#mask-4)"></path>
                <path d="M175.5583,17.4424766 L162.604012,17.4424766 L162.604012,20.4845583 C164.993503,20.4845583 167.37143,20.4841729 169.749357,20.4845583 C175.359786,20.4849438 175.717496,20.8418835 175.641174,26.3702079 C175.610337,28.6282559 174.758076,29.7962118 172.482683,29.9033708 C168.84159,30.0756732 165.18238,30.0791424 161.540131,29.9291969 C159.342601,29.8382274 158.377399,28.7373422 158.080206,26.5876096 L171.193691,26.5876096 L171.193691,23.8145817 C168.887074,23.8145817 166.567738,23.838095 164.249557,23.8045596 C163.056932,23.7872138 161.839636,23.7991631 160.680546,23.5659574 C158.82685,23.1932138 158.052838,22.1162274 157.992706,20.2189737 C157.826956,14.9801326 158.638358,14.1436758 163.899171,14.1467595 C166.568894,14.1483014 169.24093,14.0927945 171.90757,14.1868478 C174.391886,14.2743481 175.324709,15.1320055 175.5583,17.4424766" id="Fill-15" fill="#FFFFFF" mask="url(#mask-4)"></path>
                <path d="M125.744134,51.5627463 L132.603465,51.5627463 L132.603465,48.7153238 L125.744134,48.7153238 L125.744134,51.5627463 Z M132.659358,45.5074925 L132.659358,42.5721843 C131.111334,42.5721843 129.560998,42.5837482 128.010662,42.5683297 C126.867376,42.5567657 125.715995,42.5849046 124.583116,42.4607852 C122.908275,42.2769189 122.239495,41.462048 122.072589,39.5559286 C126.199367,39.5559286 130.327686,39.3994302 134.435961,39.6183738 C136.676278,39.7374822 137.61257,41.1471239 137.623363,43.4024737 C137.640323,47.0343154 137.627988,50.666157 137.627988,54.4182635 C137.127656,54.4880324 136.720606,54.5928787 136.312785,54.5944205 C132.66167,54.6071408 129.01017,54.6059844 125.35867,54.5994315 C123.73047,54.5963478 122.055243,54.4460169 121.265813,52.8000857 C120.358045,50.9074575 120.338001,48.8290357 121.410362,47.0161986 C121.820881,46.3223634 122.965324,45.7684517 123.82645,45.6863478 C126.096448,45.4697171 128.394584,45.5448825 130.681156,45.5090344 C131.314474,45.4990123 131.947791,45.5074925 132.659358,45.5074925 L132.659358,45.5074925 Z" id="Fill-16" fill="#FFFFFF" mask="url(#mask-4)"></path>
                <path d="M111.079079,42.6879006 L97.9536452,42.6879006 L97.9536452,45.5438032 C99.4631221,45.5438032 100.966817,45.5264574 102.469356,45.5480433 C104.429826,45.5757968 106.397234,45.5418759 108.346911,45.7056981 C110.287722,45.8683639 111.107218,46.8825197 111.169278,48.8202471 C111.336184,53.9974139 110.7179,54.6342004 105.477517,54.6291894 C102.644356,54.6268766 99.8077269,54.6804561 96.9788067,54.5621186 C94.7149768,54.4672945 93.6314375,53.3949337 93.557043,51.3446507 L106.637378,51.3446507 L106.637378,48.693044 L103.249149,48.693044 C101.668747,48.693044 100.088345,48.6938149 98.5079424,48.6926585 C94.1113402,48.6895748 93.1546186,47.6873685 93.3238372,43.2649402 C93.4113376,40.9822225 94.5446017,39.6446624 96.8203811,39.5787481 C100.468027,39.473131 104.123767,39.4789129 107.771027,39.5922393 C109.954295,39.6604665 110.752977,40.4965378 111.079079,42.6879006" id="Fill-17" fill="#FFFFFF" mask="url(#mask-4)"></path>
                <path d="M113.35085,29.8856395 C113.35085,24.8703676 113.335817,19.9522326 113.38824,15.0344831 C113.391324,14.7376758 113.917096,14.2142157 114.227395,14.1926297 C115.56457,14.098191 116.912152,14.152156 118.370362,14.152156 C118.370362,18.4227115 118.497179,22.5267465 118.320637,26.6172903 C118.221958,28.8988517 116.203283,30.1242417 113.35085,29.8856395" id="Fill-18" fill="#FFFFFF" mask="url(#mask-4)"></path>
                <path d="M113.574072,39.4901299 L118.293308,39.4901299 L118.293308,54.3590177 C115.831735,54.9426101 113.748687,53.6937068 113.623411,51.1565829 C113.434534,47.3331656 113.574072,43.4939443 113.574072,39.4901299" id="Fill-19" fill="#FFFFFF" mask="url(#mask-4)"></path>
                <path d="M118.427757,12.1006396 L113.609072,12.1006396 C113.227463,9.28521064 115.028351,7.65508345 118.427757,7.89291473 L118.427757,9.9428122 L118.427757,12.1006396 Z" id="Fill-20" fill="#FFFFFF" mask="url(#mask-4)"></path>
                <path d="M118.332702,37.4642854 L113.619248,37.4642854 L113.619248,33.4620128 C116.608522,32.9979142 118.359299,34.4750122 118.332702,37.4642854" id="Fill-21" fill="#FFFFFF" mask="url(#mask-4)"></path>
            </g>
        </g>
    </g>
</svg>