<?xml version="1.0" encoding="utf-8"?>
<!-- Generator: Adobe Illustrator 24.1.2, SVG Export Plug-In . SVG Version: 6.00 Build 0)  -->
<svg version="1.1" id="Layer_1" xmlns="http://www.w3.org/2000/svg" xmlns:xlink="http://www.w3.org/1999/xlink" x="0px" y="0px"
	 viewBox="0 0 195 195" style="enable-background:new 0 0 195 195;" xml:space="preserve">
<style type="text/css">
	.st0{fill:#FFFFFF;}
</style>
<g transform="translate(0.000000,195.000000) scale(0.100000,-0.100000)">
	<path class="st0" d="M195,1157c-108-28-178-85-191-152c-9-48,1-78,38-120c59-68,163-101,287-92c93,7,155,28,204,68
		c46,38,47,49,2,49c-27,0-43-8-73-38c-100-100-297-77-359,42c-20,38-12,118,14,154c37,51,99,77,183,77c64,0,82-4,122-28
		c26-15,52-36,58-47c8-15,21-20,51-20c28,0,39,4,37,13c-6,18-94,75-136,87C373,1168,250,1171,195,1157z"/>
	<path class="st0" d="M720,985V800h145c90,0,145,4,145,10s-42,10-105,10H800v175v175h-40h-40V985z"/>
	<path class="st0" d="M1140,985V800h40h40v185v185h-40h-40V985z"/>
	<path class="st0" d="M1542,1156c-122-31-202-117-186-202c10-52,76-116,145-140c83-29,246-26,316,5c57,25,119,86,129,126
		c19,75-44,163-141,198C1739,1167,1610,1173,1542,1156z M1772,1118c106-58,120-184,28-262c-61-51-188-60-268-19
		c-139,72-107,264,50,304C1637,1155,1725,1144,1772,1118z"/>
</g>
</svg>
