<?xml version="1.0" encoding="UTF-8"?>
<svg width="193px" height="131px" viewBox="0 0 193 131" version="1.1" xmlns="http://www.w3.org/2000/svg" xmlns:xlink="http://www.w3.org/1999/xlink">
    <!-- Generator: Sketch 61.2 (89653) - https://sketch.com -->
    <title>Group 51</title>
    <desc>Created with Sketch.</desc>
    <g id="Welcome" stroke="none" stroke-width="1" fill="none" fill-rule="evenodd">
        <g id="About" transform="translate(-742.000000, -5831.000000)">
            <g id="Group-51" transform="translate(742.500000, 5831.500000)">
                <rect id="Rectangle-Copy-30" fill="#000000" x="0" y="0" width="192" height="130"></rect>
                <g id="clio-logo" transform="translate(17.000000, 48.000000)" fill="#FFFFFF" fill-rule="nonzero">
                    <g id="Group" transform="translate(80.500000, 16.917873) scale(-1, 1) rotate(-180.000000) translate(-80.500000, -16.917873) translate(0.000000, 0.917873)">
                        <path d="M16.0147059,30.058371 C7.14502262,27.7588235 1.39615385,23.0776018 0.328506787,17.5751131 C-0.410633484,13.6330317 0.410633484,11.1692308 3.44932127,7.7199095 C8.29479638,2.13529412 16.8359729,-0.574886878 27.0196833,0.164253394 C34.6574661,0.739140271 39.7493213,2.4638009 43.7735294,5.74886878 C47.5513575,8.86968326 47.6334842,9.77307692 43.9377828,9.77307692 C41.720362,9.77307692 40.4063348,9.11606335 37.9425339,6.65226244 C29.7298643,-1.56040724 13.550905,0.328506787 8.45904977,10.1015837 C6.81651584,13.2223982 7.47352941,19.7925339 9.60882353,22.749095 C12.6475113,26.9375566 17.7393665,29.0728507 24.638009,29.0728507 C29.8941176,29.0728507 31.3723982,28.7443439 34.6574661,26.7733032 C36.7927602,25.5414027 38.9280543,23.8167421 39.4208145,22.9133484 C40.0778281,21.681448 41.1454751,21.2708145 43.609276,21.2708145 C45.9088235,21.2708145 46.8122172,21.5993213 46.6479638,22.3384615 C46.1552036,23.8167421 38.9280543,28.4979638 35.478733,29.4834842 C30.6332579,30.9617647 20.5316742,31.2081448 16.0147059,30.058371 Z" id="Path"></path>
                        <path d="M59.1312217,15.9325792 L59.1312217,0.739140271 L71.0395928,0.739140271 C78.4309955,0.739140271 82.9479638,1.06764706 82.9479638,1.56040724 C82.9479638,2.05316742 79.4986425,2.38167421 74.3246606,2.38167421 L65.7013575,2.38167421 L65.7013575,16.7538462 L65.7013575,31.1260181 L62.4162896,31.1260181 L59.1312217,31.1260181 L59.1312217,15.9325792 Z" id="Path"></path>
                        <polygon id="Path" points="93.6244344 15.9325792 93.6244344 0.739140271 96.9095023 0.739140271 100.19457 0.739140271 100.19457 15.9325792 100.19457 31.1260181 96.9095023 31.1260181 93.6244344 31.1260181"></polygon>
                        <path d="M126.639367,29.9762443 C116.61991,27.4303167 110.049774,20.3674208 111.363801,13.3866516 C112.185068,9.11606335 117.60543,3.85995475 123.272172,1.88891403 C130.088688,-0.492760181 143.475339,-0.24638009 149.224208,2.29954751 C153.90543,4.35271493 158.997285,9.36244344 159.818552,12.6475113 C161.378959,18.8070136 156.204977,26.0341629 148.238688,28.9085973 C142.818326,30.879638 132.223982,31.3723982 126.639367,29.9762443 Z M145.528507,26.8554299 C154.233937,22.0920814 155.38371,11.7441176 147.828054,5.33823529 C142.818326,1.14977376 132.388235,0.410633484 125.8181,3.77782805 C114.402489,9.69095023 117.030543,25.459276 129.924434,28.7443439 C134.441403,29.8941176 141.668552,28.990724 145.528507,26.8554299 Z" id="Shape"></path>
                    </g>
                </g>
            </g>
        </g>
    </g>
</svg>