<?xml version="1.0" encoding="UTF-8"?>
<svg width="95px" height="96px" viewBox="0 0 95 96" version="1.1" xmlns="http://www.w3.org/2000/svg" xmlns:xlink="http://www.w3.org/1999/xlink">
    <!-- Generator: Sketch 61.2 (89653) - https://sketch.com -->
    <title>Group 6</title>
    <desc>Created with Sketch.</desc>
    <defs>
        <polygon id="path-1" points="2.98250893e-05 0.105774649 94.9808388 0.105774649 94.9808388 95.6101186 2.98250893e-05 95.6101186"></polygon>
    </defs>
    <g id="Welcome" stroke="none" stroke-width="1" fill="none" fill-rule="evenodd">
        <g id="About" transform="translate(-1033.000000, -5844.000000)">
            <g id="Group-6" transform="translate(1033.000000, 5844.000000)">
                <path d="M56.7838182,28.4966911 C56.0858008,25.6812749 55.4454354,22.9430456 54.7094598,20.2305452 C54.5082339,19.4890109 53.8226045,19.1769281 53.021036,19.1792969 C49.3748282,19.1896337 45.7286203,19.1812162 42.0824125,19.185822 C41.0799357,19.1870926 40.4398879,19.6816606 40.1867275,20.6398264 C40.0252068,21.2503335 39.8856033,21.8665582 39.7358353,22.480083 C39.2503201,24.4682017 38.7644873,26.4563204 38.2662665,28.4966911 L56.7838182,28.4966911 Z M34.7906322,42.5116734 C35.2175425,42.5116734 35.5053258,42.5116734 35.793109,42.5118322 C39.6502309,42.511991 43.5083056,42.4578331 47.3643157,42.5245379 C53.6507604,42.6334889 58.4700186,45.4203174 61.8694189,50.6914208 C62.0067989,50.9043995 62.1397319,51.1202369 62.3271405,51.4183436 C62.3431814,51.222994 62.3704985,51.1400895 62.3528694,51.0681437 C61.0136925,45.6266256 59.6764214,40.1847899 58.3224741,34.7469247 C58.1202952,33.934874 57.4878708,33.4555528 56.6429442,33.4542823 C50.5666194,33.4449118 44.4904534,33.4487235 38.4141286,33.4492 C37.6031896,33.4492 36.9861709,33.8584812 36.7870096,34.5957273 C36.0881981,37.1833945 35.4692734,39.7926614 34.7906322,42.5116734 L34.7906322,42.5116734 Z M39.2026739,59.5047043 C39.2026739,63.1798175 39.2015621,66.8549307 39.2033092,70.5298851 C39.2037856,71.6006549 39.4167643,71.812363 40.5077043,71.8152218 C42.2000987,71.8196688 43.8928108,71.8388861 45.5845699,71.8090278 C46.8503716,71.7867929 48.1347554,71.818557 49.376734,71.616537 C55.638085,70.5980192 60.1373193,64.7643726 59.5488883,58.2971898 C59.0162033,52.443373 53.7892522,47.3687309 47.8973183,47.2693091 C45.4122493,47.2273804 42.9262274,47.2515212 40.440682,47.2496153 C39.3375127,47.2488212 39.2039444,47.3819131 39.2033092,48.4795236 C39.2012445,52.1546368 39.2025151,55.82975 39.2026739,59.5047043 L39.2026739,59.5047043 Z M73.7212619,76.5212408 C72.0514201,76.5212408 70.5491342,76.5064704 69.0473248,76.5287054 C68.4666759,76.5374405 68.5259161,76.0803543 68.4480939,75.7674773 C67.411947,71.6022431 66.3959704,67.4319267 65.3701469,63.2641514 C65.0717226,62.0517134 64.7578927,60.8430872 64.3795816,59.6422431 C64.3074769,62.5897983 63.6140654,65.3604271 62.1165441,67.8709074 C58.8554767,73.3373603 54.0406655,76.3274794 47.6393933,76.4944001 C43.3591729,76.6060511 39.0735526,76.520129 34.7903145,76.5199702 C34.6384819,76.5199702 34.4866492,76.4907472 34.2644589,76.467877 L34.2644589,45.4825752 C34.2188773,45.4749518 34.1732958,45.4674872 34.1277142,45.4598638 C34.0703799,45.6190022 33.9979576,45.774329 33.9576171,45.9375967 C31.5190826,55.8054504 29.0751482,65.6720335 26.662978,75.5463987 C26.4823988,76.2852331 26.219868,76.5917572 25.4146466,76.5444286 C24.1045338,76.4672417 22.78648,76.5236231 21.3435931,76.5236231 C26.0632707,57.3644353 30.7522958,38.3289689 35.4659382,19.1943984 L29.3751607,19.1943984 C29.3751607,17.9352671 29.3141735,16.7503051 29.4170894,15.5797959 C29.4436125,15.2794658 29.9688329,14.9978765 30.3036271,14.7629805 C30.4283014,14.6756291 30.6641503,14.7451926 30.8491765,14.7451926 C41.9539265,14.7450338 53.0585177,14.744875 64.1632677,14.7453514 C65.4540043,14.7453514 65.6850885,14.9751651 65.6871532,16.2574842 C65.6885826,17.2018327 65.6874708,18.1463399 65.6874708,19.1693047 L59.5723938,19.1693047 C64.2939772,38.3078458 68.9899904,57.343471 73.7212619,76.5212408 L73.7212619,76.5212408 Z" id="Fill-1" fill="#FFFFFF"></path>
                <g id="Group-5" transform="translate(0.000000, 0.053046)">
                    <mask id="mask-2" fill="white">
                        <use xlink:href="#path-1"></use>
                    </mask>
                    <g id="Clip-4"></g>
                    <path d="M94.9738507,41.944572 L90.5200392,41.944572 C88.2905129,28.4799038 81.4740832,18.0064665 69.799643,10.876048 C61.2334846,5.64401459 51.8713164,3.778982 41.9118231,5.09846516 C20.3050481,7.96120999 3.57915367,27.0716398 4.64912937,49.8837059 C5.67257057,71.7036184 22.5310803,88.2651333 42.394956,90.6882622 C66.3378261,93.6088178 87.4449509,76.3226036 90.5000298,53.7632214 L94.9808388,53.7632214 C93.4405948,72.5490215 76.8776505,93.3316755 51.8065175,95.4371628 C23.1611224,97.8426625 -0.684867032,74.8477937 0.0150562114,46.6598025 C0.673844869,20.1240241 22.9548142,-1.16939751 49.9929428,0.165173627 C77.1335108,1.50482703 93.5268345,23.7006684 94.9738507,41.944572" id="Fill-3" fill="#FFFFFF" mask="url(#mask-2)"></path>
                </g>
            </g>
        </g>
    </g>
</svg>