<?xml version="1.0" encoding="UTF-8"?>
<svg width="193px" height="131px" viewBox="0 0 193 131" version="1.1" xmlns="http://www.w3.org/2000/svg" xmlns:xlink="http://www.w3.org/1999/xlink">
    <!-- Generator: Sketch 61.2 (89653) - https://sketch.com -->
    <title>Group 58</title>
    <desc>Created with Sketch.</desc>
    <defs>
        <polygon id="path-1" points="2.79802384e-05 0.0992318872 89.1057354 0.0992318872 89.1057354 89.6960906 2.79802384e-05 89.6960906"></polygon>
    </defs>
    <g id="Welcome" stroke="none" stroke-width="1" fill="none" fill-rule="evenodd">
        <g id="About" transform="translate(-982.000000, -5831.000000)">
            <g id="Group-58" transform="translate(982.500000, 5831.500000)">
                <rect id="Rectangle-Copy-31" fill="#000000" x="0" y="0" width="192" height="130"></rect>
                <g id="ADC" transform="translate(52.000000, 19.500000)">
                    <path d="M53.2714171,26.7340092 C52.616576,24.0927424 52.0158208,21.5238881 51.3253695,18.9791713 C51.1365906,18.2835051 50.4933712,17.9907264 49.7413843,17.9929361 C46.3207151,18.002646 42.9000458,17.9947492 39.4793767,17.9990701 C38.5389087,18.0002621 37.9384515,18.4642383 37.7009505,19.3631361 C37.5494208,19.9358799 37.4184526,20.5139876 37.2779486,21.0895624 C36.8224652,22.9547047 36.366684,24.819847 35.8992809,26.7340092 L53.2714171,26.7340092 Z M32.6386343,39.8820854 C33.0391378,39.8820854 33.3091201,39.8820854 33.5791023,39.8822343 C37.1976393,39.8823833 40.8170702,39.8315754 44.4345642,39.8941541 C50.3321567,39.9963659 54.8533164,42.6108132 58.0424445,47.555869 C58.1713268,47.7556738 58.2960371,47.9581604 58.4718535,48.2378275 C58.4869021,48.0545614 58.5125295,47.976785 58.4959909,47.9092895 C57.2396497,42.8043601 55.9850964,37.6991328 54.7148984,32.5976304 C54.5252254,31.8358096 53.93192,31.3861372 53.1392569,31.3849453 C47.4387873,31.3761544 41.7384666,31.3797303 36.0379969,31.3801773 C35.2772191,31.3801773 34.6983665,31.7641422 34.5115245,32.4557854 C33.8559384,34.8833907 33.2752977,37.3312597 32.6386343,39.8820854 L32.6386343,39.8820854 Z M36.7777662,55.8240009 C36.7777662,59.2717876 36.7767232,62.7195742 36.7783622,66.1672118 C36.7788092,67.1717484 36.9786139,67.3703612 38.0020731,67.3730431 C39.5897833,67.3772151 41.1777916,67.3952437 42.7649058,67.3672323 C43.9524105,67.3463727 45.1573478,67.376172 46.322503,67.1866481 C52.196554,66.2311314 56.4174851,60.7583289 55.8654519,54.6911781 C55.3657165,49.199453 50.462082,44.4387063 44.9345976,44.3454343 C42.6032442,44.3060991 40.2709968,44.3287467 37.9391965,44.3269587 C36.9042645,44.3262137 36.7789581,44.4510731 36.7783622,45.4807902 C36.7764253,48.9285768 36.7776173,52.3763634 36.7777662,55.8240009 L36.7777662,55.8240009 Z M69.1611838,71.7879682 C67.5946312,71.7879682 66.1852702,71.7741114 64.7763563,71.794971 C64.2316238,71.8031658 64.2871996,71.374353 64.2141912,71.0808292 C63.2421358,67.1732384 62.2890032,63.2608797 61.3266327,59.3509049 C61.0466676,58.2134631 60.7522499,57.0795973 60.3973394,55.9530322 C60.3296948,58.7182644 59.6791748,61.3175141 58.2742836,63.6727069 C55.2149317,68.8010287 50.6979439,71.606192 44.6926267,71.7627877 C40.6771622,71.8675325 36.6566318,71.7869251 32.6383363,71.7867762 C32.4958954,71.7867762 32.3534544,71.7593608 32.1450078,71.7379052 L32.1450078,42.66922 C32.1022457,42.6620682 32.0594837,42.6550653 32.0167216,42.6479135 C31.9629337,42.7972082 31.8949912,42.9429272 31.8571459,43.0960959 C29.5694486,52.3535669 27.2766854,61.6098459 25.0137216,70.8734256 C24.8443123,71.5665589 24.5980205,71.8541227 23.8426066,71.8097217 C22.6135317,71.7373092 21.377007,71.7902031 20.0233708,71.7902031 C24.4511096,53.8161197 28.8500919,35.9581048 33.2721688,18.007116 L27.5581405,18.007116 C27.5581405,16.8258691 27.5009257,15.7142038 27.5974756,14.6160972 C27.6223581,14.3343442 28.1150907,14.0701728 28.4291759,13.8498064 C28.5461384,13.7678582 28.7673987,13.8331188 28.94098,13.8331188 C39.3588383,13.8329699 49.7765475,13.8328209 60.1944058,13.8332678 C61.405303,13.8332678 61.6220933,14.0488662 61.6240303,15.2518666 C61.6253713,16.1378018 61.6243283,17.0238859 61.6243283,17.9835745 L55.8875035,17.9835745 C60.3170302,35.9382883 64.7225683,53.7964522 69.1611838,71.7879682 L69.1611838,71.7879682 Z" id="Fill-1" fill="#FFFFFF" fill-rule="nonzero"></path>
                    <g id="Group-5" transform="translate(0.000000, 0.049765)">
                        <g id="Fill-3-Clipped">
                            <mask id="mask-2" fill="white">
                                <use xlink:href="#path-1"></use>
                            </mask>
                            <g id="path-1"></g>
                            <path d="M89.0991795,39.3500624 L84.9208615,39.3500624 C82.8292441,26.7182603 76.4344492,16.8926644 65.4821393,10.2033028 C57.4458464,5.29490029 48.6627814,3.54523054 39.3193392,4.78309618 C19.0490657,7.46876401 3.35776272,25.3971054 4.36155436,46.7981158 C5.32168992,67.268343 21.1374052,82.8054343 39.7725876,85.078679 C62.2344554,87.8185816 82.0359849,71.6016178 84.9020898,50.4376613 L89.1057354,50.4376613 C87.6607642,68.0614532 72.1223319,87.5585822 48.6019906,89.5338331 C21.7284757,91.790539 -0.642504123,70.2180333 0.0141248994,43.7736291 C0.632163743,18.8792391 21.5349288,-1.09706364 46.9005958,0.154956702 C72.3623658,1.41174495 87.7416695,22.2346477 89.0991795,39.3500624" id="Fill-3" fill="#FFFFFF" fill-rule="nonzero" mask="url(#mask-2)"></path>
                        </g>
                    </g>
                </g>
            </g>
        </g>
    </g>
</svg>