<?xml version="1.0" encoding="UTF-8"?>
<svg width="193px" height="131px" viewBox="0 0 193 131" version="1.1" xmlns="http://www.w3.org/2000/svg" xmlns:xlink="http://www.w3.org/1999/xlink">
    <!-- Generator: Sketch 61.2 (89653) - https://sketch.com -->
    <title>Group 36</title>
    <desc>Created with Sketch.</desc>
    <g id="Welcome" stroke="none" stroke-width="1" fill="none" fill-rule="evenodd">
        <g id="About" transform="translate(-264.000000, -6012.000000)">
            <g id="Group-36" transform="translate(264.250000, 6012.500000)">
                <rect id="Rectangle-Copy-32" fill="#000000" x="0" y="0" width="192" height="130"></rect>
                <g id="Group-6" transform="translate(22.750000, 45.500000)" fill="#FFFFFF">
                    <polygon id="Fill-1" points="0 0.101298077 0 8.58332372 0.679179487 8.58332372 0.679179487 3.13693269 15.6280192 3.13693269 15.6280192 41.6390224 11.6929679 41.6390224 11.6882821 42.8843686 26.3471474 42.8843686 26.3471474 41.6390224 22.0595513 41.6390224 22.0595513 3.13693269 36.7694103 3.13693269 36.7462564 8.58332372 37.3590064 8.58332372 37.3590064 0.101298077"></polygon>
                    <polygon id="Fill-2" points="39.1810212 0.0660711538 39.1810212 1.28302628 43.439675 1.28302628 43.439675 41.6677442 39.2102391 41.6677442 39.1815724 42.8844237 53.8691045 42.8844237 53.8691045 41.6677442 49.6686109 41.6677442 49.6686109 1.28302628 53.8691045 1.28302628 53.8691045 0.0660711538"></polygon>
                    <polygon id="Fill-3" points="96.9931154 -0.000165384615 83.4244103 32.9926872 69.6713013 -0.000165384615 66.8060128 -0.000165384615 59.1509103 41.6387192 55.7246923 41.6387192 55.6965769 42.9281679 66.8636218 42.9281679 66.9490705 41.6387192 63.2447308 41.6387192 68.2793141 15.0434949 80.3325449 42.9281679 83.1214808 42.9281679 95.2246026 15.0434949 100.042808 41.6387192 96.068891 41.6387192 96.0608974 42.9281679 111.317353 42.9281679 111.317353 41.6387192 107.442942 41.6387192 99.7936282 -0.000165384615"></polygon>
                    <path d="M112.551949,0.0925326923 L144.882987,0.0925326923 L144.95934,8.54368654 L144.394551,8.52273782 L144.120288,3.35805192 L122.948301,3.10969936 L122.948301,19.9858212 L140.935256,19.9858212 L141.42259,16.0369878 L142.210096,16.0369878 C141.966981,19.5869686 141.974974,23.1369494 142.210096,26.6866545 L141.42259,26.6866545 L140.935256,22.6181929 L122.948301,22.6181929 L122.948301,40.0681994 L144.859282,40.0781224 L144.952724,34.3205327 L145.600481,34.3301801 L145.600481,42.9048212 L112.551949,42.9048212 L112.551949,41.6818019 L116.832654,41.6517571 L116.832654,1.39769295 L112.551949,1.27751346 L112.551949,0.0925326923 Z" id="Fill-4"></path>
                </g>
            </g>
        </g>
    </g>
</svg>