<?xml version="1.0" encoding="UTF-8"?>
<svg width="163px" height="48px" viewBox="0 0 163 48" version="1.1" xmlns="http://www.w3.org/2000/svg" xmlns:xlink="http://www.w3.org/1999/xlink">
    <!-- Generator: Sketch 61.2 (89653) - https://sketch.com -->
    <title>Group 6</title>
    <desc>Created with Sketch.</desc>
    <g id="Welcome" stroke="none" stroke-width="1" fill="none" fill-rule="evenodd">
        <g id="About" transform="translate(-279.000000, -6053.000000)" fill="#FFFFFF">
            <g id="Group-6" transform="translate(279.000000, 6053.000000)">
                <polygon id="Fill-1" points="0 0.113076923 0 9.58138462 0.758153846 9.58138462 0.758153846 3.50169231 17.4452308 3.50169231 17.4452308 46.4807692 13.0526154 46.4807692 13.0473846 47.8709231 29.4107692 47.8709231 29.4107692 46.4807692 24.6246154 46.4807692 24.6246154 3.50169231 41.0449231 3.50169231 41.0190769 9.58138462 41.7030769 9.58138462 41.7030769 0.113076923"></polygon>
                <polygon id="Fill-2" points="43.7369538 0.0737538462 43.7369538 1.43221538 48.4908 1.43221538 48.4908 46.5128308 43.7695692 46.5128308 43.7375692 47.8709846 60.1329538 47.8709846 60.1329538 46.5128308 55.4440308 46.5128308 55.4440308 1.43221538 60.1329538 1.43221538 60.1329538 0.0737538462"></polygon>
                <polygon id="Fill-3" points="108.271385 -0.000184615385 93.1249231 36.8290462 77.7726154 -0.000184615385 74.5741538 -0.000184615385 66.0289231 46.4804308 62.2043077 46.4804308 62.1729231 47.9198154 74.6384615 47.9198154 74.7338462 46.4804308 70.5987692 46.4804308 76.2187692 16.7927385 89.6735385 47.9198154 92.7867692 47.9198154 106.297231 16.7927385 111.675692 46.4804308 107.239692 46.4804308 107.230769 47.9198154 124.261231 47.9198154 124.261231 46.4804308 119.936308 46.4804308 111.397538 -0.000184615385"></polygon>
                <path d="M125.639385,0.103292308 L161.729846,0.103292308 L161.815077,9.53713846 L161.184615,9.51375385 L160.878462,3.74852308 L137.244615,3.47129231 L137.244615,22.3097538 L157.323077,22.3097538 L157.867077,17.9017538 L158.746154,17.9017538 C158.474769,21.8645231 158.483692,25.8272923 158.746154,29.7897538 L157.867077,29.7897538 L157.323077,25.2482154 L137.244615,25.2482154 L137.244615,44.7272923 L161.703385,44.7383692 L161.807692,38.3112923 L162.530769,38.3220615 L162.530769,47.8937538 L125.639385,47.8937538 L125.639385,46.5285231 L130.417846,46.4949846 L130.417846,1.56021538 L125.639385,1.42606154 L125.639385,0.103292308 Z" id="Fill-4"></path>
            </g>
        </g>
    </g>
</svg>