<svg width="226" height="33" viewBox="0 0 226 33" xmlns="http://www.w3.org/2000/svg"><g id="HABIT-WEBSITE" stroke="none" stroke-width="1" fill="none" fill-rule="evenodd"><g id="0.0.0_Hamburger_Open" transform="translate(-778 -829)" fill="#000"><g id="HAB_Logo_121218-02" transform="translate(778 829)"><path id="Path" d="M18.437 19.94H9.515V31.5H0V.5h9.515v11.78h8.922V.5H28v31h-9.563zm22.019 1.56C43.61 21.5 46 23.975 46 26.998c0 3.028-2.39 5.502-5.544 5.502-3.07 0-5.456-2.475-5.456-5.502 0-3.024 2.387-5.498 5.456-5.498z"/><path d="M72.652 31.5l-1.067-3.588H61.102L60.035 31.5H50L61.505.5h9.72L83 31.5H72.652zM66.368 9.8l-3.301 11.423h6.597L66.368 9.8z" id="Shape" fill-rule="nonzero"/><path d="M93.454 21.5c3.157 0 5.546 2.475 5.546 5.498 0 3.028-2.39 5.502-5.546 5.502C90.39 32.5 88 30.025 88 26.998c0-3.024 2.39-5.498 5.454-5.498z" id="Path"/><path d="M105 .5h15.48c8.667 0 10.292 5.135 10.292 8.37 0 3.85-3.07 6.421-5.506 6.908 2.033.177 5.734 2.48 5.734 7.086 0 3.231-1.672 8.636-10.339 8.636h-15.66V.5H105zm12.548 12.177c2.845 0 3.837-1.594 3.837-3.145 0-1.284-.632-3.098-3.837-3.098h-3.113v6.242h3.113v.001zm-3.113 6.022v6.335h3.205c2.84 0 3.837-1.55 3.837-3.191 0-1.238-.723-3.145-3.837-3.145h-3.205z" id="Shape" fill-rule="nonzero"/><path d="M142.456 21.5c3.154 0 5.544 2.475 5.544 5.498 0 3.028-2.39 5.502-5.544 5.502-3.07 0-5.456-2.475-5.456-5.502 0-3.024 2.387-5.498 5.456-5.498zM158 .5h9v31h-9zm21.454 21c3.157 0 5.546 2.475 5.546 5.498 0 3.028-2.39 5.502-5.546 5.502-3.065 0-5.454-2.475-5.454-5.502 0-3.024 2.39-5.498 5.454-5.498zm16.932-13.118H190V.5h22v7.882h-6.386V31.5h-9.228V8.382zM220.454 21.5c3.157 0 5.546 2.475 5.546 5.498 0 3.028-2.39 5.502-5.546 5.502-3.065 0-5.454-2.475-5.454-5.502 0-3.024 2.39-5.498 5.454-5.498z" id="Path"/></g></g></g></svg>