<?xml version="1.0" encoding="UTF-8"?>
<svg width="39px" height="39px" viewBox="0 0 39 39" version="1.1" xmlns="http://www.w3.org/2000/svg" xmlns:xlink="http://www.w3.org/1999/xlink">
    <!-- Generator: Sketch 61.2 (89653) - https://sketch.com -->
    <title>LinkedIn</title>
    <desc>Created with Sketch.</desc>
    <defs>
        <polygon id="path-1" points="0 0.0241347826 38.6933696 0.0241347826 38.6933696 38.7173913 0 38.7173913"></polygon>
        <polygon id="path-3" points="0 38.9759783 38.6933696 38.9759783 38.6933696 0.282608696 0 0.282608696"></polygon>
    </defs>
    <g id="Welcome" stroke="none" stroke-width="1" fill="none" fill-rule="evenodd">
        <g id="Menu_Expanded" transform="translate(-129.000000, -810.000000)">
            <g id="Social_Links" transform="translate(129.000000, 810.000000)">
                <g id="LinkedIn">
                    <path d="M38.1281522,19.6294348 C38.1281522,30.0020217 29.719413,38.4107609 19.3465435,38.4107609 C8.97395652,38.4107609 0.565217391,30.0020217 0.565217391,19.6294348 C0.565217391,9.25656522 8.97395652,0.847826087 19.3465435,0.847826087 C29.719413,0.847826087 38.1281522,9.25656522 38.1281522,19.6294348" id="Fill-1" fill="#BCBCBC"></path>
                    
                    <path d="M12.42085,9.00012603 C11.1290457,9.0006913 10.0559804,10.0870391 10.056263,11.3941043 C10.0568283,12.6952348 11.1431761,13.7940174 12.4253717,13.7897905 C13.7053065,13.7855391 14.8015457,12.6768652 14.7990066,11.3893 C14.7964587,10.094387 13.7067196,8.99984348 12.42085,9.00012603 L12.42085,9.00012603 Z M10.4733935,28.466213 L14.41635,28.466213 L14.41635,15.5168 L10.4733935,15.5168 L10.4733935,28.466213 Z M20.8801761,28.4707348 L20.8801761,27.9634522 C20.8801761,25.8283435 20.8598283,23.6929522 20.8945891,21.5586913 C20.9030674,21.0386913 21.018937,20.4926913 21.2128065,20.0099957 C21.5821761,19.0892565 22.4952848,18.6478217 23.5867196,18.7557783 C24.5611543,18.8521478 25.1834587,19.4060609 25.4005022,20.4237348 C25.4861326,20.825887 25.5296543,21.2444304 25.5321978,21.6559087 C25.5449152,23.7463652 25.5381326,25.8371043 25.5381326,27.9275609 L25.5381326,28.4636696 L29.4861761,28.4636696 C29.4960674,28.3805826 29.50935,28.3234957 29.50935,28.2666913 C29.5101978,25.4496478 29.5243283,22.6323217 29.50285,19.8155609 C29.494937,18.729213 29.2086543,17.702213 28.5530022,16.8134087 C26.8774152,14.5426478 23.1057196,14.5288 21.2371109,16.779213 C21.1407413,16.8948 21.0474804,17.0129304 20.9530891,17.1299304 C20.9208717,17.1152348 20.8886543,17.1008228 20.8567196,17.0861261 L20.8567196,15.5320609 L17.0621326,15.5320609 L17.0621326,28.4707348 L20.8801761,28.4707348 Z M19.3436326,37.9708641 C9.18158913,37.9708641 1.01108913,29.7854304 1.00543439,19.613213 C1.00006739,9.38221304 9.43593696,1.1031913 19.699437,1.29084348 C29.5918717,1.47171304 37.8626978,9.65125652 37.684937,19.9690174 C37.512263,30.0033217 29.2680022,38.021213 19.3436326,37.9708641 L19.3436326,37.9708641 Z" id="Fill-6" fill="#ad8637"></path>
                    <path d="M20.880063,28.4707348 L17.0623022,28.4707348 L17.0623022,15.5320609 L20.8566065,15.5320609 L20.8566065,17.0861261 C20.8888239,17.1008228 20.9210413,17.1152348 20.9529761,17.1299304 C21.04765,17.0129304 21.1409109,16.8948 21.2369978,16.779213 C23.1056065,14.5288 26.8775848,14.5426478 28.5528891,16.8134087 C29.2085413,17.702213 29.4948239,18.729213 29.5030196,19.8155609 C29.5242152,22.6323217 29.5103674,25.4496478 29.509237,28.2666913 C29.509237,28.3234957 29.496237,28.3805826 29.486063,28.4636696 L25.5380196,28.4636696 L25.5380196,27.9275609 C25.5380196,25.8371043 25.5450848,23.7463652 25.5320848,21.6559087 C25.5295413,21.2444304 25.4863022,20.825887 25.4003891,20.4237348 C25.1836283,19.4060609 24.5613239,18.8521478 23.5868891,18.7557783 C22.4951717,18.6478217 21.582063,19.0892565 21.2126935,20.0099957 C21.0188239,20.4926913 20.903237,21.0386913 20.8944761,21.5586913 C20.8599978,23.6929522 20.880063,25.8283435 20.880063,27.9634522 L20.880063,28.4707348 Z" id="Fill-8" fill="#FFFFFF"></path>
                    <mask id="mask-4" fill="white">
                        <use xlink:href="#path-3"></use>
                    </mask>
                    <g id="Clip-11"></g>
                    <polygon id="Fill-10" fill="#FFFFFF" mask="url(#mask-4)" points="10.4734783 28.4663261 14.4164348 28.4663261 14.4164348 15.516913 10.4734783 15.516913"></polygon>
                    <path d="M12.42085,9.00012603 C13.7067196,8.99984348 14.7964587,10.094387 14.7990066,11.3893 C14.8015457,12.6768652 13.7053065,13.7855391 12.4253717,13.7897905 C11.1431761,13.7940174 10.0568283,12.6952348 10.056263,11.3941043 C10.0559804,10.0870391 11.1290457,9.0006913 12.42085,9.00012603" id="Fill-12" fill="#FFFFFF" mask="url(#mask-4)"></path>
                </g>
            </g>
        </g>
    </g>
</svg>