<?xml version="1.0" encoding="UTF-8"?>
<svg width="39px" height="40px" viewBox="0 0 39 40" version="1.1" xmlns="http://www.w3.org/2000/svg" xmlns:xlink="http://www.w3.org/1999/xlink">
    <!-- Generator: Sketch 61.2 (89653) - https://sketch.com -->
    <title>Venmo</title>
    <desc>Created with Sketch.</desc>
    <defs>
        <polygon id="path-1" points="0 0.0242674043 38.9059913 0.0242674043 38.9059913 38.9301451 0 38.9301451"></polygon>
    </defs>
    <g id="Welcome" stroke="none" stroke-width="1" fill="none" fill-rule="evenodd">
        <g id="Menu_Expanded" transform="translate(-239.000000, -810.000000)">
            <g id="Social_Links" transform="translate(129.000000, 810.000000)">
                <g id="Venmo" transform="translate(110.000000, 0.000000)">
                    
<path d="M9.10925612,16.9835173 C11.3816968,15.7002433 11.4677978,15.7161564 12.2262252,18.0539542 C13.0130688,20.4789897 13.7010241,22.9369879 14.5267978,25.3480994 C14.8893881,26.4060332 15.3471725,27.4875524 16.0078483,28.3752734 C17.2610012,30.0594995 18.733811,30.1995912 20.4222994,28.9416076 C23.5708104,26.5952849 26.2856908,23.8130582 28.1225116,20.3303731 C29.0116534,18.6447263 29.7516103,16.7783526 30.060494,14.9114106 C30.6168825,11.5514834 28.3225614,9.80815168 25.0910752,10.9641212 C24.2243822,11.2744258 23.390652,11.8069447 22.6853628,12.4062416 C21.7337054,13.2149656 21.0053991,14.2280019 20.9855078,15.636307 C22.8743303,15.128226 23.7390341,15.5465119 23.8316708,16.9184443 C23.9348215,18.4441082 21.6814197,21.9722591 19.936383,22.7284133 C19.5388409,21.518453 19.0731,20.3479912 18.7738777,19.1366101 C18.2419272,16.9852223 17.9299177,14.7735922 17.3024888,12.6534622 C16.7256406,10.70525 15.4437875,10.2386566 13.6541374,11.1513838 C11.480585,12.2598983 9.80033723,13.9597533 8.21528359,15.8048148 C8.54121699,16.2344672 8.79497334,16.5689255 9.10925612,16.9835173 M19.4396685,1.44669177 C29.5257018,1.44044378 37.7084205,9.64816867 37.7403329,19.8024008 C37.7712202,29.7437959 29.4594922,38.0259711 19.4498983,38.0279605 C9.30731678,38.0296652 1.18484039,29.8094372 1.16548762,19.5236382 C1.14733105,9.67800565 9.46190072,1.4529469 19.4396685,1.44669177" id="Fill-6" fill="#ad8637"></path>
                    <path d="M9.10925612,16.9835173 C8.79497334,16.5689255 8.54121699,16.2344672 8.21528359,15.8048148 C9.80033723,13.9597533 11.480585,12.2598983 13.6541374,11.1513838 C15.4437875,10.2386566 16.7256406,10.70525 17.3024888,12.6534622 C17.9299177,14.7735922 18.2419272,16.9852223 18.7738777,19.1366101 C19.0731,20.3479912 19.5388409,21.518453 19.936383,22.7284133 C21.6814197,21.9722591 23.9348215,18.4441082 23.8316708,16.9184443 C23.7390341,15.5465119 22.8743303,15.128226 20.9855078,15.636307 C21.0053991,14.2280019 21.7337054,13.2149656 22.6853628,12.4062416 C23.390652,11.8069447 24.2243822,11.2744258 25.0910752,10.9641212 C28.3225614,9.80815168 30.6168825,11.5514834 30.060494,14.9114106 C29.7516103,16.7783526 29.0116534,18.6447263 28.1225116,20.3303731 C26.2856908,23.8130582 23.5708104,26.5952849 20.4222994,28.9416076 C18.733811,30.1995912 17.2610012,30.0594995 16.0078483,28.3752734 C15.3471725,27.4875524 14.8893881,26.4060332 14.5267978,25.3480994 C13.7010241,22.9369879 13.0130688,20.4789897 12.2262252,18.0539542 C11.4677978,15.7161564 11.3816968,15.7002433 9.10925612,16.9835173" id="Fill-8" fill="#FFFFFF"></path>
                </g>
            </g>
        </g>
    </g>
</svg>