<svg width="139" height="139" viewBox="0 0 139 139" xmlns="http://www.w3.org/2000/svg"><defs><linearGradient x1="50%" y1="0%" x2="50%" y2="100%" id="linearGradient-1"><stop stop-color="#FFA234" offset="0%"/><stop stop-color="#FF8430" offset="100%"/></linearGradient></defs><g id="Page-1" fill="none" fill-rule="evenodd" opacity=".15"><g id="5-hovers-copy" transform="translate(-49 -3)" fill="#FFF"><g id="1-block" transform="translate(0 -1)"><g id="background"><g id="elements" transform="translate(39 4)"><path d="M37.527 43.614C46.724 28.827 62.623 20 80.06 20c9.289 0 18.403 2.618 26.344 7.547 23.426 14.554 30.627 45.441 16.066 68.847C113.283 111.181 97.383 120 79.945 120c-9.297 0-18.411-2.61-26.352-7.539C30.176 97.9 22.966 67.011 37.527 43.614zm5.267 84.892C10.246 108.283.222 65.345 20.462 32.81 33.243 12.262 55.335 0 79.562 0a69.391 69.391 0 0 1 36.642 10.477c32.556 20.232 42.572 63.17 22.332 95.714C125.763 126.72 103.671 139 79.445 139c-12.94 0-25.613-3.636-36.65-10.494z" id="1"/></g></g></g></g></g></svg>