<svg width="88" height="90" viewBox="0 0 88 90" xmlns="http://www.w3.org/2000/svg"><defs><linearGradient x1="50%" y1="0%" x2="50%" y2="100%" id="linearGradient-1"><stop stop-color="#FFA234" offset="0%"/><stop stop-color="#FF8430" offset="100%"/></linearGradient></defs><g id="Page-1" fill="none" fill-rule="evenodd" opacity=".15"><g id="5-hovers-copy" transform="translate(-907 -239)" fill="#FFF"><g id="1-block" transform="translate(0 -1)"><g id="background"><g id="elements" transform="translate(39 4)"><path d="M913.373 236a42.58 42.58 0 0 1 7.279.87l-36.416 79.11a44.855 44.855 0 0 1-5.279-5.211L913.373 236zm-16.594 2.692a42.447 42.447 0 0 1 8.716-2.252l-31.209 67.801a45.418 45.418 0 0 1-3.829-8.37l26.322-57.179zM868 281c0-15.194 7.334-28.622 18.555-36.778l-18.43 40.037a46.822 46.822 0 0 1-.125-3.26zm81.424-23.24a45.462 45.462 0 0 1 3.827 8.368l-26.32 57.18a42.452 42.452 0 0 1-8.715 2.254l31.208-67.801zm-22.022-18.876c2.18.85 4.274 1.874 6.271 3.055l-37.366 81.18a43.008 43.008 0 0 1-6.272-3.055l37.367-81.18zm9.751 78.893l18.43-40.034c.074 1.076.127 2.16.127 3.257 0 15.193-7.333 28.621-18.557 36.777zm2.319-71.756a44.5 44.5 0 0 1 5.279 5.213L910.335 326a42.832 42.832 0 0 1-7.278-.868l36.415-79.111z" id="15"/></g></g></g></g></g></svg>