<svg width="40" height="40" viewBox="0 0 40 40" xmlns="http://www.w3.org/2000/svg"><defs><linearGradient x1="50%" y1="0%" x2="50%" y2="100%" id="linearGradient-1"><stop stop-color="#FFA234" offset="0%"/><stop stop-color="#FF8430" offset="100%"/></linearGradient></defs><g id="Page-1" fill="none" fill-rule="evenodd" opacity=".15"><g id="5-hovers-copy" transform="translate(-919 -622)" fill="#FFF"><g id="1-block" transform="translate(0 -1)"><g id="background"><g id="elements" transform="translate(39 4)"><path d="M912.207 646.586c4.185-6.725 2.113-15.602-4.617-19.788a14.355 14.355 0 0 0-7.574-2.167c-5.012 0-9.582 2.535-12.223 6.785-4.184 6.728-2.115 15.605 4.618 19.789a14.356 14.356 0 0 0 7.571 2.169c5.012 0 9.582-2.537 12.225-6.788m-1.644-24.566c9.366 5.82 12.25 18.176 6.426 27.538-3.678 5.913-10.035 9.442-17.007 9.442a19.969 19.969 0 0 1-10.544-3.015c-9.369-5.822-12.251-18.178-6.427-27.543 3.676-5.909 10.033-9.442 17.005-9.442 3.723 0 7.37 1.046 10.547 3.02" id="16" transform="matrix(-1 0 0 1 1800 0)"/></g></g></g></g></g></svg>