<svg width="76" height="76" viewBox="0 0 76 76" xmlns="http://www.w3.org/2000/svg"><defs><linearGradient x1="50%" y1="0%" x2="50%" y2="100%" id="linearGradient-1"><stop stop-color="#FFA234" offset="0%"/><stop stop-color="#FF8430" offset="100%"/></linearGradient></defs><g id="Page-1" fill="none" fill-rule="evenodd" opacity=".15"><g id="5-hovers-copy" transform="translate(-1079 -3)" fill="#FFF"><g id="1-block" transform="translate(0 -1)"><g id="background"><g id="elements" transform="translate(39 4)"><path d="M1054.615 23.362c5-8.04 13.645-12.839 23.126-12.839 5.05 0 10.005 1.424 14.323 4.103 12.736 7.913 16.652 24.706 8.735 37.432-4.996 8.04-13.64 12.834-23.121 12.834a27.157 27.157 0 0 1-14.328-4.099c-12.731-7.917-16.651-24.71-8.735-37.431zm3.316 46.9c-17.796-11.057-23.277-34.534-12.211-52.323C1052.709 6.704 1064.788 0 1078.034 0c7.07 0 14 1.98 20.034 5.728 17.8 11.063 23.277 34.54 12.21 52.333C1103.296 69.287 1091.217 76 1077.97 76a37.954 37.954 0 0 1-20.04-5.738z" id="19"/></g></g></g></g></g></svg>