<svg width="53" height="54" viewBox="0 0 53 54" xmlns="http://www.w3.org/2000/svg"><defs><linearGradient x1="50%" y1="0%" x2="50%" y2="100%" id="linearGradient-1"><stop stop-color="#FFA234" offset="0%"/><stop stop-color="#FF8430" offset="100%"/></linearGradient></defs><g id="Page-1" fill="none" fill-rule="evenodd" opacity=".15"><g id="5-hovers-copy" transform="translate(-1223 -159)" fill="#FFF"><g id="1-block" transform="translate(0 -1)"><g id="background"><g id="elements" transform="translate(39 4)"><path d="M1211.224 156c1.49.052 2.95.224 4.367.522l-21.85 47.465a26.914 26.914 0 0 1-3.167-3.126l20.65-44.861zm-9.956 1.615a25.468 25.468 0 0 1 5.23-1.351l-18.726 40.68a27.251 27.251 0 0 1-2.298-5.021l15.794-34.308zM1184 183c0-9.116 4.4-17.173 11.133-22.067l-11.057 24.022A28.093 28.093 0 0 1 1184 183zm48.855-13.944a27.277 27.277 0 0 1 2.296 5.02l-15.792 34.308a25.47 25.47 0 0 1-5.23 1.353l18.726-40.68zm-13.214-11.326a25.805 25.805 0 0 1 3.763 1.833l-22.42 48.708a25.805 25.805 0 0 1-3.763-1.833l22.42-48.708zm5.85 47.336l11.058-24.02c.045.646.077 1.296.077 1.954 0 9.116-4.4 17.173-11.134 22.066zm1.392-43.053a26.7 26.7 0 0 1 3.168 3.127L1209.4 210a25.7 25.7 0 0 1-4.367-.52l21.85-47.467z" id="21"/></g></g></g></g></g></svg>