<svg width="40" height="40" viewBox="0 0 40 40" xmlns="http://www.w3.org/2000/svg"><defs><linearGradient x1="50%" y1="0%" x2="50%" y2="100%" id="linearGradient-1"><stop stop-color="#FFA234" offset="0%"/><stop stop-color="#FF8430" offset="100%"/></linearGradient></defs><g id="Page-1" fill="none" fill-rule="evenodd" opacity=".15"><g id="5-hovers-copy" transform="translate(-469 -234)" fill="#FFF"><g id="1-block" transform="translate(0 -1)"><g id="background"><g id="elements" transform="translate(39 4)"><path d="M449.983 236.626c-2.672 0-5.289.75-7.57 2.17-6.733 4.183-8.805 13.06-4.62 19.786 2.643 4.252 7.212 6.787 12.224 6.787 2.672 0 5.29-.75 7.573-2.167 6.73-4.186 8.802-13.063 4.617-19.788-2.643-4.25-7.212-6.788-12.224-6.788zm.034 34.374c-6.972 0-13.329-3.533-17.007-9.442-5.824-9.365-2.94-21.72 6.427-27.543A19.975 19.975 0 0 1 449.983 231c6.972 0 13.329 3.529 17.007 9.442 5.824 9.362 2.94 21.718-6.427 27.538a19.974 19.974 0 0 1-10.546 3.02z" id="8" transform="matrix(-1 0 0 1 900 0)"/></g></g></g></g></g></svg>