<svg xmlns="http://www.w3.org/2000/svg" width="677" height="36" viewBox="0 0 677 36">
    <g fill="none" fill-rule="evenodd">
        <path fill="#000" fill-rule="nonzero" d="M21.457 27.933h-4.142V17.119c0-2.913-1.672-5.347-4.58-5.347-2.907 0-4.739 2.434-4.739 5.347v10.814H3.894V8.22h3.823l.279 2.634C9.111 8.699 11.421 7.9 13.492 7.9c2.509 0 5.058 1.037 6.173 3.95 1.593-2.913 4.062-3.91 6.73-3.91 5.417 0 8.324 3.432 8.324 9.098v10.894h-4.142V17.039c0-2.913-1.434-5.228-4.341-5.228s-4.779 2.395-4.779 5.308v10.814zM48.897 7.86c6.053 0 10.195 4.47 10.195 10.255 0 5.826-4.022 10.216-10.195 10.216-6.133 0-10.116-4.39-10.116-10.216 0-5.786 4.022-10.255 10.116-10.255zm0 3.79c-3.744 0-6.014 2.994-6.014 6.465 0 3.512 2.27 6.385 6.014 6.385 3.783 0 6.053-2.873 6.053-6.385 0-3.471-2.47-6.464-6.053-6.464zm29.39-1.276l-2.31 2.713c-1.552-1.436-3.225-1.835-5.176-1.835-2.51-.04-4.182.798-4.182 2.354.04 1.636 1.752 2.275 4.261 2.514 3.624.32 8.364 1.117 8.324 6.185-.04 3.671-3.266 6.225-8.364 6.225-3.186 0-6.372-.718-8.96-3.631l2.15-2.913c1.832 2.035 4.58 2.873 6.89 2.913 1.951 0 4.142-.718 4.182-2.554.04-1.756-1.633-2.434-4.54-2.713-3.704-.36-7.965-1.557-8.005-5.906 0-4.35 4.5-5.986 8.164-5.986 3.027 0 5.376.679 7.567 2.634zM83.307 0h4.102v11.173c1.712-2.394 4.022-3.192 6.372-3.192 5.536 0 8.084 3.71 8.084 9.337v10.615h-4.102V17.358c0-3.711-1.911-5.547-4.938-5.547-3.186 0-5.416 2.634-5.416 5.866v10.256h-4.102V0zm42.892 27.933h-4.142V17.398c0-3.392-1.912-5.666-5.297-5.666-3.266 0-5.496 2.673-5.496 5.905v10.296h-4.102V8.22h3.744l.239 2.873c1.871-2.115 4.062-3.152 6.61-3.152 4.78 0 8.444 3.392 8.444 9.417v10.575z"/>
        <path fill="#E63E54" d="M0 8.23h3.872v19.703H0z"/>
        <path fill="#E63E54" fill-rule="nonzero" d="M190.424 26.583h-2.122V17.42c0-1.409-.427-2.583-1.282-3.523s-1.957-1.41-3.308-1.41c-1.351 0-2.454.47-3.309 1.41-.854.94-1.282 2.114-1.282 3.523v9.162H177V10.759h1.995l.095 2.466c.928-1.836 2.543-2.755 4.843-2.755 1.225 0 2.343.3 3.356.897 1.013.598 1.731 1.517 2.153 2.755.507-1.196 1.267-2.103 2.28-2.723a6.31 6.31 0 0 1 3.356-.929c1.984 0 3.577.625 4.78 1.874 1.203 1.25 1.805 2.92 1.805 5.013v9.226h-2.121v-9.226c0-1.43-.412-2.6-1.235-3.507-.823-.908-1.91-1.362-3.261-1.362-1.35 0-2.459.47-3.324 1.41-.866.94-1.298 2.114-1.298 3.523v9.162zM213.44 10.47c2.3 0 4.216.77 5.746 2.307 1.53 1.537 2.296 3.513 2.296 5.926 0 2.434-.755 4.399-2.264 5.894-1.509 1.494-3.435 2.242-5.778 2.242-2.322 0-4.242-.753-5.762-2.258-1.52-1.506-2.28-3.465-2.28-5.878 0-2.435.75-4.415 2.248-5.942 1.5-1.527 3.43-2.29 5.794-2.29zm4.243 3.716c-1.098-1.174-2.512-1.762-4.243-1.762-1.73 0-3.15.588-4.258 1.762-1.108 1.175-1.662 2.68-1.662 4.517 0 1.836.554 3.315 1.662 4.436 1.108 1.121 2.527 1.682 4.258 1.682 1.773 0 3.203-.56 4.29-1.682 1.087-1.121 1.63-2.6 1.63-4.436 0-1.837-.559-3.342-1.677-4.517zm20.072-.032c-1.119-1.089-2.522-1.633-4.211-1.633-1.688 0-3.103.57-4.242 1.713-1.14 1.143-1.71 2.61-1.71 4.405 0 1.815.565 3.299 1.694 4.452s2.548 1.73 4.258 1.73c1.689 0 3.092-.545 4.21-1.634 1.12-1.089 1.679-2.594 1.679-4.516 0-1.944-.56-3.45-1.678-4.517zM225.408 4.16h2.12v9.738a5.815 5.815 0 0 1 2.533-2.547 7.65 7.65 0 0 1 3.61-.88c2.28 0 4.163.726 5.65 2.178 1.489 1.452 2.233 3.46 2.233 6.022 0 2.562-.739 4.57-2.216 6.022-1.478 1.452-3.367 2.178-5.667 2.178-2.807 0-4.855-1.11-6.142-3.331l-.127 3.043h-1.994V4.16zm22.225 22.423h-2.122V10.695h2.122v15.888zM245.86 7.139c-.507-.256-.76-.705-.76-1.345s.248-1.09.744-1.346.997-.256 1.504 0c.506.257.76.705.76 1.346 0 .64-.249 1.089-.745 1.345s-.997.256-1.503 0zm6.933-2.979h2.121v22.423h-2.12V4.16zm9.403 22.423h-2.121V10.695h2.121v15.888zm-1.773-19.444c-.507-.256-.76-.705-.76-1.345s.248-1.09.744-1.346.997-.256 1.504 0c.507.257.76.705.76 1.346 0 .64-.248 1.089-.744 1.345s-.997.256-1.504 0zm5.762 3.62h11.936v.929l-9.245 12.845h9.276v2.05h-12.505v-.801l9.34-13.07h-8.802V10.76zm17.824 15.824h-2.12V10.695h2.12v15.888zm-1.773-19.444c-.506-.256-.76-.705-.76-1.345s.249-1.09.745-1.346.997-.256 1.503 0c.507.257.76.705.76 1.346 0 .64-.248 1.089-.744 1.345s-.997.256-1.504 0zm21.212 19.444h-2.152V17.71c0-1.666-.454-2.947-1.362-3.844-.907-.897-2.153-1.345-3.736-1.345-1.498.02-2.728.55-3.688 1.585-.96 1.036-1.44 2.322-1.44 3.86v8.617h-2.122V10.759h2.027l.063 2.658c1.245-1.943 3.06-2.914 5.445-2.914 2.09 0 3.773.619 5.05 1.857 1.277 1.239 1.915 3.011 1.915 5.318v8.905zm16.59-14.927l1.646-1.986 1.457 1.217-1.678 2.018c.675.769 1.192 1.548 1.551 2.338s.538 1.762.538 2.915a7.319 7.319 0 0 1-1.219 4.1c-.812 1.239-1.978 2.082-3.498 2.53 3.082.834 4.622 2.563 4.622 5.19 0 1.88-.786 3.353-2.358 4.42-1.573 1.068-3.467 1.602-5.683 1.602-2.3 0-4.2-.587-5.699-1.762-1.499-1.174-2.237-2.765-2.216-4.773h2.121c-.021 1.41.538 2.504 1.678 3.284 1.14.78 2.512 1.169 4.116 1.169 1.604 0 2.986-.331 4.147-.993 1.161-.662 1.741-1.644 1.741-2.947 0-1.303-.58-2.301-1.74-2.995-1.162-.694-2.544-1.041-4.148-1.041-2.449 0-4.427-.694-5.936-2.082-1.51-1.388-2.264-3.289-2.264-5.702s.828-4.313 2.485-5.702c1.657-1.388 3.562-2.082 5.715-2.082 1.878 0 3.419.427 4.622 1.282zm-4.622.736c-1.604 0-3.013.497-4.227 1.49-1.213.993-1.82 2.418-1.82 4.276 0 1.88.564 3.315 1.694 4.308 1.129.993 2.58 1.49 4.353 1.49 1.773 0 3.218-.566 4.337-1.698 1.119-1.132 1.678-2.498 1.678-4.1 0-1.858-.586-3.283-1.757-4.276-1.171-.993-2.59-1.49-4.258-1.49zm21.623-6.086l2.121-.224v4.709h5.066v1.826h-5.066v8.937c0 1.089.196 1.91.586 2.466.39.555 1.082.833 2.074.833.654 0 1.414-.203 2.28-.609l.664 1.794c-1.076.513-2.079.769-3.007.769-1.626.021-2.818-.422-3.578-1.33-.76-.907-1.14-2.215-1.14-3.923v-8.937h-3.197V10.79h3.197V6.306zm10.575-2.146h2.09v9.354c1.181-1.944 2.996-2.937 5.445-2.98 2.131 0 3.751.647 4.86 1.938 1.107 1.292 1.661 3.038 1.661 5.238v8.873h-2.12V17.71c0-1.623-.391-2.883-1.172-3.78-.781-.897-1.942-1.345-3.483-1.345-1.498 0-2.733.523-3.704 1.57-.97 1.046-1.456 2.348-1.456 3.907v8.52h-2.121V4.16zm33.59 15.408h-13.613c.148 1.623.775 2.904 1.884 3.843 1.108.94 2.453 1.41 4.036 1.41a8.31 8.31 0 0 0 2.992-.577c1.003-.384 1.768-.918 2.295-1.601l1.425 1.28c-.739.94-1.72 1.667-2.944 2.18a9.669 9.669 0 0 1-3.768.768c-2.364 0-4.306-.748-5.825-2.242-1.52-1.495-2.28-3.492-2.28-5.99 0-2.37.755-4.325 2.264-5.862 1.509-1.538 3.424-2.307 5.746-2.307 2.49 0 4.485.775 5.984 2.323 1.498 1.548 2.1 3.806 1.804 6.775zm-13.613-1.826h11.619c-.021-1.666-.58-2.974-1.678-3.924-1.098-.95-2.459-1.426-4.084-1.426-1.583 0-2.902.47-3.958 1.41-1.055.94-1.688 2.253-1.9 3.94zm34.794-6.983h1.678l4.432 13.485 4.4-13.485h2.343l-5.508 15.856h-2.406l-2.312-6.375-1.773-5.99-1.804 6.022-2.311 6.343h-2.406l-5.54-15.856h2.342l4.432 13.485 4.433-13.485zm22.985-.289c2.3 0 4.216.77 5.746 2.307 1.53 1.537 2.295 3.513 2.295 5.926 0 2.434-.754 4.399-2.264 5.894-1.509 1.494-3.435 2.242-5.777 2.242-2.322 0-4.243-.753-5.763-2.258-1.52-1.506-2.279-3.465-2.279-5.878 0-2.435.75-4.415 2.248-5.942 1.498-1.527 3.43-2.29 5.794-2.29zm4.242 3.716c-1.098-1.174-2.512-1.762-4.242-1.762-1.731 0-3.15.588-4.259 1.762-1.108 1.175-1.662 2.68-1.662 4.517 0 1.836.554 3.315 1.662 4.436 1.108 1.121 2.528 1.682 4.259 1.682 1.772 0 3.202-.56 4.29-1.682 1.086-1.121 1.63-2.6 1.63-4.436 0-1.837-.56-3.342-1.678-4.517zm7.725-3.427h1.994l.127 2.594c.464-.982 1.15-1.703 2.058-2.162a6.363 6.363 0 0 1 2.913-.688 5.99 5.99 0 0 1 3.545 1.12l-.981 1.794a4.62 4.62 0 0 0-2.691-.832c-1.372.02-2.522.501-3.45 1.441-.93.94-1.394 2.125-1.394 3.556v9h-2.121V10.76zm13.455-6.599h2.121v22.423h-2.12V4.16zm14.31 8.36c-1.71 0-3.118.54-4.226 1.618-1.108 1.079-1.662 2.59-1.662 4.533 0 1.922.559 3.427 1.678 4.516 1.118 1.09 2.522 1.634 4.21 1.634 1.689 0 3.098-.577 4.227-1.73 1.13-1.153 1.694-2.637 1.694-4.452 0-1.794-.565-3.262-1.694-4.405-1.13-1.142-2.538-1.713-4.227-1.713zm6.016-8.36h2.12v22.423h-2.057l-.063-3.172a6.315 6.315 0 0 1-2.58 2.563 7.386 7.386 0 0 1-3.562.897c-2.3 0-4.19-.726-5.667-2.178-1.478-1.452-2.217-3.46-2.217-6.022 0-2.563.74-4.57 2.217-6.022s3.366-2.179 5.667-2.179a7.65 7.65 0 0 1 3.609.881 5.815 5.815 0 0 1 2.533 2.547V4.16zm21.61 8.425l-1.236 1.409c-1.16-1.068-2.701-1.602-4.622-1.602-1.224-.021-2.242.193-3.055.641-.813.448-1.208 1.09-1.187 1.922 0 .577.242 1.057.728 1.441.485.385.987.641 1.504.77.517.127 1.198.255 2.042.384.675.106 1.171.186 1.488.24.316.053.786.155 1.409.304.622.15 1.097.331 1.424.545.327.213.681.48 1.06.8.38.32.655.721.824 1.202.169.48.253 1.03.253 1.65-.02 1.046-.353 1.932-.997 2.658a5.126 5.126 0 0 1-2.359 1.521c-.928.289-1.952.433-3.07.433-3.124 0-5.435-1.025-6.934-3.075l1.33-1.474c1.224 1.666 3.102 2.52 5.635 2.563 1.119 0 2.11-.203 2.976-.609.865-.405 1.298-1.089 1.298-2.05 0-.49-.105-.907-.316-1.249-.212-.342-.56-.614-1.045-.817a8.209 8.209 0 0 0-1.377-.448 24.314 24.314 0 0 0-1.79-.305 29.428 29.428 0 0 1-1.82-.32 11.415 11.415 0 0 1-1.63-.496c-.591-.225-1.066-.48-1.425-.77-.359-.287-.665-.677-.918-1.168-.253-.491-.38-1.047-.38-1.666 0-1.516.623-2.664 1.868-3.443 1.245-.78 2.723-1.159 4.432-1.138 2.386 0 4.348.716 5.89 2.147zM477 9.99l1.456-5.862h2.343l-1.994 5.862H477zm42.81 2.595l-1.235 1.409c-1.16-1.068-2.701-1.602-4.622-1.602-1.224-.021-2.242.193-3.055.641-.813.448-1.208 1.09-1.187 1.922 0 .577.242 1.057.728 1.441.485.385.987.641 1.504.77.517.127 1.197.255 2.042.384.675.106 1.171.186 1.488.24.316.053.786.155 1.409.304.622.15 1.097.331 1.424.545.327.213.681.48 1.06.8.38.32.655.721.824 1.202.169.48.253 1.03.253 1.65-.02 1.046-.353 1.932-.997 2.658a5.126 5.126 0 0 1-2.359 1.521c-.928.289-1.952.433-3.07.433-3.124 0-5.435-1.025-6.934-3.075l1.33-1.474c1.224 1.666 3.102 2.52 5.635 2.563 1.119 0 2.11-.203 2.976-.609.865-.405 1.298-1.089 1.298-2.05 0-.49-.105-.907-.316-1.249-.212-.342-.56-.614-1.045-.817a8.209 8.209 0 0 0-1.377-.448 24.314 24.314 0 0 0-1.79-.305 29.428 29.428 0 0 1-1.82-.32 11.415 11.415 0 0 1-1.63-.496c-.591-.225-1.066-.48-1.425-.77-.359-.287-.665-.677-.918-1.168-.253-.491-.38-1.047-.38-1.666 0-1.516.623-2.664 1.868-3.443 1.245-.78 2.723-1.159 4.432-1.138 2.385 0 4.348.716 5.89 2.147zm17.793 13.998h-2.121V17.42c0-1.409-.428-2.583-1.283-3.523-.854-.94-1.957-1.41-3.308-1.41-1.35 0-2.454.47-3.308 1.41-.855.94-1.283 2.114-1.283 3.523v9.162h-2.12V10.759h1.994l.095 2.466c.928-1.836 2.543-2.755 4.844-2.755 1.224 0 2.342.3 3.355.897 1.014.598 1.731 1.517 2.153 2.755.507-1.196 1.267-2.103 2.28-2.723a6.31 6.31 0 0 1 3.356-.929c1.984 0 3.577.625 4.78 1.874 1.203 1.25 1.805 2.92 1.805 5.013v9.226h-2.121v-9.226c0-1.43-.412-2.6-1.235-3.507-.823-.908-1.91-1.362-3.26-1.362-1.352 0-2.46.47-3.325 1.41-.866.94-1.298 2.114-1.298 3.523v9.162zm29.127-12.685v-3.14h1.994v15.825h-1.963v-3.14c-.654 1.132-1.546 1.992-2.675 2.579a7.554 7.554 0 0 1-3.53.88c-2.28 0-4.18-.757-5.699-2.273-1.52-1.517-2.28-3.503-2.28-5.958 0-2.435.766-4.4 2.296-5.894 1.53-1.495 3.435-2.242 5.715-2.242a7.68 7.68 0 0 1 3.593.88c1.13.588 1.979 1.415 2.549 2.483zm-6.079-1.41c-1.689 0-3.103.577-4.242 1.73-1.14 1.153-1.71 2.638-1.71 4.453 0 1.836.57 3.331 1.71 4.484 1.14 1.153 2.553 1.73 4.242 1.73 1.098 0 2.084-.23 2.96-.689.876-.459 1.536-1.052 1.979-1.778.443-.726.77-1.526.981-2.402a5.594 5.594 0 0 0 0-2.643 8.295 8.295 0 0 0-.981-2.418c-.443-.726-1.103-1.319-1.979-1.778-.876-.459-1.862-.689-2.96-.689zm13.234-8.328h2.12v22.423h-2.12V4.16zm7.503 0h2.121v22.423h-2.121V4.16zm18.774 22.423h-2.121V12.777h-3.103v-1.858h3.103V9.606c0-1.751.422-3.124 1.266-4.117.845-.993 2.09-1.489 3.736-1.489 1.203 0 2.322.374 3.356 1.121l-.918 1.602c-.887-.534-1.689-.801-2.406-.801-1.942 0-2.913 1.228-2.913 3.684v1.313h5.002v1.858h-5.002v13.806zM608.33 4.16h2.122v22.423h-2.122V4.16zm22.067 15.408h-13.614c.148 1.623.776 2.904 1.884 3.843 1.108.94 2.454 1.41 4.037 1.41a8.31 8.31 0 0 0 2.992-.577c1.002-.384 1.767-.918 2.295-1.601l1.425 1.28c-.74.94-1.72 1.667-2.945 2.18a9.669 9.669 0 0 1-3.767.768c-2.364 0-4.306-.748-5.826-2.242-1.52-1.495-2.28-3.492-2.28-5.99 0-2.37.755-4.325 2.265-5.862 1.509-1.538 3.424-2.307 5.746-2.307 2.49 0 4.485.775 5.983 2.323 1.499 1.548 2.1 3.806 1.805 6.775zm-13.614-1.826h11.62c-.022-1.666-.58-2.974-1.678-3.924-1.098-.95-2.46-1.426-4.085-1.426-1.583 0-2.902.47-3.957 1.41-1.055.94-1.688 2.253-1.9 3.94zm32.167 1.826h-13.614c.148 1.623.776 2.904 1.884 3.843 1.108.94 2.453 1.41 4.036 1.41a8.31 8.31 0 0 0 2.992-.577c1.003-.384 1.768-.918 2.295-1.601l1.425 1.28c-.739.94-1.72 1.667-2.944 2.18a9.669 9.669 0 0 1-3.768.768c-2.364 0-4.305-.748-5.825-2.242-1.52-1.495-2.28-3.492-2.28-5.99 0-2.37.755-4.325 2.264-5.862 1.51-1.538 3.425-2.307 5.746-2.307 2.49 0 4.485.775 5.984 2.323 1.499 1.548 2.1 3.806 1.805 6.775zm-13.614-1.826h11.619c-.021-1.666-.58-2.974-1.678-3.924-1.097-.95-2.459-1.426-4.084-1.426-1.583 0-2.902.47-3.957 1.41-1.056.94-1.689 2.253-1.9 3.94zm19.027-11.436l2.122-.224v4.709h5.065v1.826h-5.065v8.937c0 1.089.195 1.91.585 2.466.39.555 1.082.833 2.074.833.654 0 1.414-.203 2.28-.609l.664 1.794c-1.076.513-2.079.769-3.007.769-1.626.021-2.818-.422-3.578-1.33-.76-.907-1.14-2.215-1.14-3.923v-8.937h-3.197V10.79h3.197V6.306zm22.004 6.279l-1.235 1.409c-1.16-1.068-2.702-1.602-4.622-1.602-1.224-.021-2.243.193-3.055.641-.813.448-1.209 1.09-1.188 1.922 0 .577.243 1.057.729 1.441.485.385.986.641 1.503.77.518.127 1.198.255 2.042.384.676.106 1.172.186 1.488.24.317.053.787.155 1.41.304.622.15 1.097.331 1.424.545.327.213.68.48 1.06.8.38.32.655.721.824 1.202.169.48.253 1.03.253 1.65-.021 1.046-.354 1.932-.997 2.658a5.126 5.126 0 0 1-2.359 1.521c-.929.289-1.952.433-3.07.433-3.125 0-5.436-1.025-6.934-3.075l1.33-1.474c1.224 1.666 3.102 2.52 5.635 2.563 1.118 0 2.11-.203 2.976-.609.865-.405 1.298-1.089 1.298-2.05 0-.49-.106-.907-.317-1.249-.21-.342-.56-.614-1.045-.817a8.209 8.209 0 0 0-1.377-.448 24.314 24.314 0 0 0-1.789-.305 29.428 29.428 0 0 1-1.82-.32 11.415 11.415 0 0 1-1.63-.496c-.591-.225-1.066-.48-1.425-.77-.359-.287-.665-.677-.918-1.168-.253-.491-.38-1.047-.38-1.666 0-1.516.622-2.664 1.868-3.443 1.245-.78 2.722-1.159 4.432-1.138 2.385 0 4.348.716 5.889 2.147z"/>
    </g>
</svg>
