<svg xmlns="http://www.w3.org/2000/svg" width="224" height="73" viewBox="0 0 224 73">
    <g fill="none" fill-rule="evenodd">
        <path fill="#000" fill-rule="nonzero" d="M38.014 49.734h-7.338V30.48c0-5.187-2.963-9.52-8.114-9.52-5.15 0-8.396 4.333-8.396 9.52v19.254H6.9V14.636h6.773l.494 4.689c1.976-3.837 6.068-5.258 9.737-5.258 4.445 0 8.96 1.848 10.936 7.034 2.823-5.186 7.197-6.962 11.924-6.962 9.596 0 14.747 6.11 14.747 16.198v19.397h-7.338V30.337c0-5.186-2.54-9.307-7.69-9.307-5.151 0-8.468 4.263-8.468 9.45v19.254zm48.614-35.738c10.725 0 18.062 7.958 18.062 18.26 0 10.373-7.126 18.188-18.062 18.188-10.866 0-17.921-7.815-17.921-18.188 0-10.302 7.126-18.26 17.92-18.26zm0 6.75c-6.632 0-10.654 5.329-10.654 11.51 0 6.252 4.022 11.367 10.654 11.367 6.703 0 10.725-5.115 10.725-11.367 0-6.181-4.375-11.51-10.725-11.51zm52.07-2.274l-4.092 4.832c-2.751-2.558-5.715-3.268-9.172-3.268-4.445-.072-7.408 1.42-7.408 4.191.07 2.913 3.104 4.05 7.55 4.476 6.42.569 14.816 1.99 14.746 11.013-.071 6.536-5.786 11.083-14.817 11.083-5.645 0-11.29-1.279-15.876-6.465l3.81-5.187c3.246 3.624 8.114 5.116 12.207 5.187 3.457 0 7.338-1.279 7.408-4.547.07-3.126-2.893-4.334-8.043-4.831-6.562-.64-14.112-2.771-14.182-10.516 0-7.744 7.973-10.657 14.464-10.657 5.362 0 9.525 1.208 13.406 4.69zM147.589 0h7.268v19.893c3.034-4.262 7.126-5.683 11.29-5.683 9.807 0 14.322 6.607 14.322 16.625v18.899h-7.267V30.906c0-6.608-3.387-9.876-8.75-9.876-5.644 0-9.595 4.69-9.595 10.444v18.26h-7.267V0zm75.99 49.734h-7.337V30.977c0-6.04-3.387-10.089-9.384-10.089-5.786 0-9.737 4.76-9.737 10.515v18.33h-7.268V14.637h6.633l.423 5.115c3.316-3.765 7.197-5.612 11.712-5.612 8.467 0 14.958 6.039 14.958 16.767v18.828z"/>
        <path fill="#E63E54" d="M0 14.652h6.86v35.082H0z"/>
        <path fill="#E63E54" fill-rule="nonzero" d="M5.993 68.79h-.947v-4.07c0-.627-.19-1.148-.572-1.566-.382-.417-.874-.626-1.477-.626-.604 0-1.096.209-1.478.626-.381.418-.572.94-.572 1.566v4.07H0v-7.03h.89l.043 1.095c.415-.816 1.135-1.224 2.162-1.224.547 0 1.046.133 1.499.399.452.265.772.673.96 1.224.227-.532.566-.935 1.019-1.21a2.827 2.827 0 0 1 1.498-.413c.886 0 1.597.278 2.134.833.537.555.806 1.297.806 2.227v4.1h-.947v-4.1c0-.635-.184-1.155-.551-1.558-.368-.404-.853-.605-1.456-.605s-1.098.209-1.484.626c-.387.418-.58.94-.58 1.566v4.07zm10.276-7.159c1.027 0 1.882.342 2.565 1.025.684.683 1.025 1.56 1.025 2.633 0 1.082-.337 1.955-1.01 2.619-.674.664-1.534.996-2.58.996-1.037 0-1.894-.334-2.573-1.003-.678-.67-1.017-1.54-1.017-2.612 0-1.082.334-1.962 1.003-2.64.67-.679 1.532-1.018 2.587-1.018zm1.894 1.651c-.49-.522-1.121-.783-1.894-.783-.773 0-1.406.261-1.901.783-.495.522-.742 1.191-.742 2.007 0 .816.247 1.473.742 1.971.495.499 1.128.748 1.901.748.792 0 1.43-.25 1.915-.748.486-.498.728-1.155.728-1.97 0-.817-.25-1.486-.749-2.008zm8.961-.014c-.5-.484-1.126-.726-1.88-.726-.753 0-1.385.254-1.894.762-.508.507-.763 1.16-.763 1.957 0 .806.252 1.466.756 1.978s1.138.769 1.901.769c.754 0 1.38-.242 1.88-.726s.75-1.153.75-2.007c0-.864-.25-1.533-.75-2.007zm-5.512-4.44h.947v4.326a2.59 2.59 0 0 1 1.13-1.131c.5-.261 1.037-.392 1.612-.392 1.018 0 1.859.323 2.523.968.664.645.997 1.537.997 2.676 0 1.138-.33 2.03-.99 2.676-.66.645-1.503.967-2.53.967-1.253 0-2.167-.493-2.742-1.48l-.057 1.352h-.89v-9.963zm9.922 9.962h-.947v-7.06h.947v7.06zm-.791-8.64c-.226-.113-.34-.312-.34-.597s.111-.484.333-.598a.702.702 0 0 1 .671 0c.226.114.34.313.34.598s-.111.484-.333.598a.702.702 0 0 1-.671 0zm3.095-1.323h.947v9.963h-.947v-9.963zm4.198 9.963h-.947v-7.06h.947v7.06zm-.791-8.64c-.226-.113-.34-.312-.34-.597s.111-.484.333-.598a.702.702 0 0 1 .671 0c.226.114.34.313.34.598s-.111.484-.333.598a.702.702 0 0 1-.671 0zm2.572 1.61h5.329v.412l-4.127 5.707h4.141v.911h-5.583v-.355l4.17-5.808h-3.93v-.868zm7.958 7.03h-.947v-7.06h.947v7.06zm-.791-8.64c-.227-.113-.34-.312-.34-.597s.111-.484.332-.598a.702.702 0 0 1 .672 0c.226.114.34.313.34.598s-.112.484-.333.598a.702.702 0 0 1-.671 0zm9.47 8.64h-.961v-3.942c0-.74-.203-1.31-.608-1.708-.405-.399-.961-.598-1.668-.598-.67.01-1.218.244-1.647.705-.429.46-.643 1.032-.643 1.715v3.828h-.947v-7.03h.905l.028 1.18c.556-.863 1.366-1.295 2.431-1.295.933 0 1.685.276 2.255.826.57.55.855 1.338.855 2.363v3.956zm7.406-6.632l.735-.883.65.541-.749.897c.302.341.533.688.693 1.039.16.351.24.783.24 1.295a3.24 3.24 0 0 1-.544 1.822c-.363.55-.883.925-1.562 1.124 1.376.37 2.064 1.139 2.064 2.306 0 .835-.351 1.49-1.053 1.964-.702.475-1.548.712-2.537.712-1.027 0-1.876-.261-2.545-.783s-.998-1.229-.989-2.12h.947c-.01.626.24 1.112.75 1.458.508.347 1.12.52 1.837.52.716 0 1.333-.147 1.851-.441.519-.295.778-.731.778-1.31 0-.579-.26-1.022-.778-1.33-.518-.31-1.135-.463-1.851-.463-1.093 0-1.977-.309-2.65-.925-.674-.617-1.011-1.462-1.011-2.534 0-1.072.37-1.917 1.11-2.533a3.87 3.87 0 0 1 2.55-.926c.84 0 1.527.19 2.064.57zm-2.063.327a2.9 2.9 0 0 0-1.887.662c-.542.441-.813 1.075-.813 1.9 0 .835.252 1.473.756 1.914.504.442 1.152.662 1.944.662.791 0 1.437-.251 1.936-.754.5-.503.75-1.11.75-1.822 0-.825-.262-1.459-.785-1.9-.523-.441-1.157-.662-1.901-.662zm9.654-2.704l.947-.1v2.093h2.261v.81h-2.261v3.972c0 .484.087.849.261 1.096.174.246.483.37.926.37.292 0 .631-.09 1.018-.27l.296.796c-.48.228-.928.342-1.342.342-.726.01-1.258-.187-1.598-.59-.339-.404-.508-.985-.508-1.744v-3.971h-1.428v-.811h1.428V59.78zm4.72-.954h.933v4.156c.528-.863 1.339-1.304 2.432-1.323.951 0 1.675.287 2.17.86.494.575.741 1.35.741 2.328v3.942H81.5v-3.942c0-.721-.174-1.281-.523-1.68-.348-.398-.867-.597-1.554-.597-.67 0-1.22.232-1.654.697-.434.465-.65 1.044-.65 1.736v3.786h-.947v-9.963zm14.997 6.846h-6.077c.065.722.346 1.29.84 1.708.495.418 1.096.627 1.803.627.443 0 .888-.086 1.335-.257.448-.17.79-.408 1.025-.711l.636.57c-.33.417-.768.74-1.314.967a4.334 4.334 0 0 1-1.682.341c-1.056 0-1.923-.332-2.601-.996-.679-.664-1.018-1.551-1.018-2.661 0-1.054.337-1.922 1.01-2.605.675-.683 1.53-1.025 2.566-1.025 1.112 0 2.003.344 2.672 1.032.669.688.937 1.691.805 3.01zm-6.077-.81h5.187c-.01-.741-.26-1.322-.75-1.744-.49-.423-1.097-.634-1.823-.634-.706 0-1.295.209-1.766.626-.472.418-.754 1.001-.848 1.751zm15.533-3.104h.75l1.978 5.992 1.965-5.992h1.046l-2.46 7.046h-1.074l-1.031-2.833-.792-2.661-.806 2.675-1.031 2.819h-1.075l-2.473-7.046h1.046l1.979 5.992 1.978-5.992zm10.262-.128c1.027 0 1.882.342 2.566 1.025.683.683 1.024 1.56 1.024 2.633 0 1.082-.336 1.955-1.01 2.619-.674.664-1.534.996-2.58.996-1.036 0-1.894-.334-2.572-1.003-.679-.67-1.018-1.54-1.018-2.612 0-1.082.335-1.962 1.004-2.64.669-.679 1.53-1.018 2.586-1.018zm1.894 1.651c-.49-.522-1.121-.783-1.894-.783-.772 0-1.406.261-1.9.783-.496.522-.743 1.191-.743 2.007 0 .816.247 1.473.742 1.971.495.499 1.129.748 1.901.748.792 0 1.43-.25 1.915-.748.486-.498.728-1.155.728-1.97 0-.817-.25-1.486-.749-2.008zm3.45-1.523h.89l.056 1.153c.207-.436.514-.757.919-.96a2.852 2.852 0 0 1 1.3-.307c.585 0 1.112.166 1.583.499l-.438.797a2.07 2.07 0 0 0-1.201-.37c-.613.009-1.126.223-1.54.64-.416.418-.623.944-.623 1.58v4h-.947v-7.032zm6.006-2.932h.947v9.963h-.947v-9.963zm6.39 3.715c-.764 0-1.393.24-1.888.719-.494.479-.742 1.15-.742 2.014 0 .854.25 1.523.75 2.007.499.484 1.125.726 1.88.726.753 0 1.382-.257 1.886-.769s.756-1.172.756-1.978c0-.797-.252-1.45-.756-1.957-.504-.508-1.133-.762-1.887-.762zm2.685-3.715h.947v9.963h-.919l-.028-1.409a2.813 2.813 0 0 1-1.152 1.139 3.31 3.31 0 0 1-1.59.398c-1.027 0-1.87-.322-2.53-.967-.66-.646-.99-1.538-.99-2.676 0-1.139.33-2.03.99-2.676.66-.645 1.503-.968 2.53-.968.574 0 1.112.13 1.611.392.5.26.876.638 1.13 1.131v-4.327zm9.903 3.744l-.552.626c-.518-.475-1.206-.712-2.063-.712-.547-.01-1.001.086-1.364.285-.363.2-.54.484-.53.854 0 .256.108.47.325.64.216.171.44.285.671.342.231.057.535.114.912.17l.664.107c.142.024.351.07.63.136.277.066.49.147.635.242.146.094.304.213.474.355.17.143.292.32.367.534.076.214.113.458.113.733a1.77 1.77 0 0 1-.445 1.182 2.29 2.29 0 0 1-1.053.676 4.629 4.629 0 0 1-1.371.192c-1.395 0-2.426-.456-3.096-1.367l.594-.654c.547.74 1.385 1.12 2.516 1.138.5 0 .942-.09 1.329-.27.386-.18.58-.484.58-.911 0-.218-.048-.403-.142-.555-.094-.152-.25-.273-.466-.363a3.677 3.677 0 0 0-.615-.2c-.194-.042-.46-.087-.799-.135-.32-.047-.591-.094-.813-.142a5.114 5.114 0 0 1-.728-.22 2.343 2.343 0 0 1-.636-.342 1.586 1.586 0 0 1-.41-.52 1.585 1.585 0 0 1-.17-.74c0-.673.279-1.183.835-1.53.556-.346 1.215-.515 1.979-.505 1.064 0 1.94.318 2.629.954zm-7.454-1.21l.65-2.605h1.046l-.89 2.605h-.806zm19.29 1.21l-.551.626c-.519-.475-1.207-.712-2.064-.712-.547-.01-1.001.086-1.364.285-.363.2-.54.484-.53.854 0 .256.108.47.325.64.217.171.44.285.671.342.231.057.535.114.912.17l.664.107c.142.024.351.07.63.136.277.066.49.147.635.242.147.094.304.213.474.355.17.143.292.32.367.534.076.214.114.458.114.733a1.77 1.77 0 0 1-.446 1.182 2.29 2.29 0 0 1-1.053.676 4.629 4.629 0 0 1-1.37.192c-1.395 0-2.427-.456-3.096-1.367l.593-.654c.547.74 1.386 1.12 2.516 1.138.5 0 .943-.09 1.329-.27.386-.18.58-.484.58-.911 0-.218-.048-.403-.142-.555-.094-.152-.25-.273-.466-.363a3.677 3.677 0 0 0-.615-.2c-.193-.042-.46-.087-.799-.135-.32-.047-.591-.094-.812-.142a5.114 5.114 0 0 1-.728-.22 2.343 2.343 0 0 1-.636-.342 1.587 1.587 0 0 1-.41-.52 1.585 1.585 0 0 1-.17-.74c0-.673.278-1.183.834-1.53.556-.346 1.216-.515 1.979-.505 1.065 0 1.941.318 2.629.954zm7.944 6.22h-.947V64.72c0-.627-.191-1.148-.573-1.566-.382-.417-.874-.626-1.477-.626-.603 0-1.095.209-1.477.626-.382.418-.573.94-.573 1.566v4.07H155v-7.03h.89l.043 1.095c.415-.816 1.136-1.224 2.163-1.224.546 0 1.046.133 1.498.399.453.265.773.673.961 1.224.227-.532.566-.935 1.018-1.21a2.827 2.827 0 0 1 1.498-.413c.886 0 1.598.278 2.135.833.537.555.805 1.297.805 2.227v4.1h-.947v-4.1c0-.635-.183-1.155-.55-1.558-.368-.404-.854-.605-1.457-.605-.603 0-1.098.209-1.484.626-.386.418-.58.94-.58 1.566v4.07zm13.003-5.637V61.76h.89v7.031h-.875v-1.394c-.293.502-.69.884-1.195 1.145-.504.261-1.03.392-1.576.392-1.018 0-1.866-.337-2.544-1.01-.679-.675-1.018-1.557-1.018-2.648 0-1.082.342-1.955 1.025-2.619.683-.664 1.534-.996 2.551-.996.566 0 1.1.13 1.605.391.504.261.883.629 1.137 1.103zm-2.713-.626c-.754 0-1.386.256-1.894.768-.51.513-.764 1.172-.764 1.979 0 .816.255 1.48.764 1.992.508.513 1.14.769 1.894.769.49 0 .93-.102 1.321-.306.391-.204.686-.467.884-.79.197-.323.343-.678.438-1.067.094-.39.094-.78 0-1.175a3.676 3.676 0 0 0-.438-1.074c-.198-.323-.493-.586-.884-.79a2.814 2.814 0 0 0-1.321-.306zm5.908-3.7h.947v9.962h-.947v-9.963zm3.35 0h.947v9.962h-.947v-9.963zm8.382 9.962h-.947v-6.134h-1.386v-.826h1.386v-.583c0-.778.188-1.388.565-1.83.377-.44.933-.66 1.668-.66.537 0 1.036.165 1.498.497l-.41.712c-.396-.237-.754-.356-1.074-.356-.867 0-1.3.546-1.3 1.637v.583h2.233v.826h-2.233v6.134zm3.646-9.963h.947v9.963h-.947v-9.963zm9.852 6.846h-6.078c.066.722.347 1.29.841 1.708.495.418 1.096.627 1.802.627.443 0 .889-.086 1.336-.257.448-.17.79-.408 1.025-.711l.636.57c-.33.417-.768.74-1.315.967a4.334 4.334 0 0 1-1.682.341c-1.055 0-1.922-.332-2.6-.996-.679-.664-1.018-1.551-1.018-2.661 0-1.054.337-1.922 1.01-2.605.674-.683 1.53-1.025 2.566-1.025 1.112 0 2.002.344 2.671 1.032.67.688.938 1.691.806 3.01zm-6.078-.81h5.188c-.01-.741-.26-1.322-.75-1.744-.49-.423-1.097-.634-1.823-.634-.707 0-1.296.209-1.767.626-.47.418-.754 1.001-.848 1.751zm14.361.81h-6.078c.066.722.346 1.29.841 1.708.495.418 1.096.627 1.802.627.443 0 .888-.086 1.336-.257.448-.17.79-.408 1.025-.711l.636.57c-.33.417-.768.74-1.315.967a4.334 4.334 0 0 1-1.682.341c-1.055 0-1.922-.332-2.6-.996-.679-.664-1.018-1.551-1.018-2.661 0-1.054.337-1.922 1.01-2.605.674-.683 1.53-1.025 2.566-1.025 1.112 0 2.002.344 2.671 1.032.67.688.938 1.691.806 3.01zm-6.078-.81h5.188c-.01-.741-.26-1.322-.75-1.744-.49-.423-1.097-.634-1.823-.634-.707 0-1.296.209-1.767.626-.47.418-.754 1.001-.848 1.751zm8.495-5.082l.947-.1v2.093h2.262v.81h-2.262v3.972c0 .484.087.849.262 1.096.174.246.483.37.925.37.293 0 .632-.09 1.018-.27l.297.796c-.48.228-.928.342-1.343.342-.725.01-1.258-.187-1.597-.59-.34-.404-.509-.985-.509-1.744v-3.971h-1.428v-.811h1.428V59.78zm9.824 2.79l-.552.626c-.518-.475-1.206-.712-2.063-.712-.547-.01-1.001.086-1.364.285-.363.2-.54.484-.53.854 0 .256.108.47.325.64.217.171.44.285.671.342.231.057.535.114.912.17l.664.107c.142.024.351.07.63.136.277.066.49.147.635.242.146.094.304.213.474.355.17.143.292.32.367.534.076.214.113.458.113.733a1.77 1.77 0 0 1-.445 1.182 2.29 2.29 0 0 1-1.053.676 4.629 4.629 0 0 1-1.371.192c-1.395 0-2.426-.456-3.095-1.367l.593-.654c.547.74 1.385 1.12 2.516 1.138.5 0 .942-.09 1.329-.27.386-.18.58-.484.58-.911 0-.218-.048-.403-.142-.555-.094-.152-.25-.273-.466-.363a3.677 3.677 0 0 0-.615-.2c-.193-.042-.46-.087-.799-.135-.32-.047-.591-.094-.813-.142a5.114 5.114 0 0 1-.728-.22 2.343 2.343 0 0 1-.636-.342 1.586 1.586 0 0 1-.41-.52 1.585 1.585 0 0 1-.17-.74c0-.673.279-1.183.835-1.53.556-.346 1.215-.515 1.979-.505 1.064 0 1.94.318 2.629.954z"/>
    </g>
</svg>
