<svg xmlns="http://www.w3.org/2000/svg" width="127" height="41" viewBox="0 0 127 41">
    <g fill="none" fill-rule="evenodd">
        <path fill="#000" fill-rule="nonzero" d="M21.457 27.933h-4.142V17.119c0-2.913-1.672-5.347-4.58-5.347-2.907 0-4.739 2.434-4.739 5.347v10.814H3.894V8.22h3.823l.279 2.634C9.111 8.699 11.421 7.9 13.492 7.9c2.509 0 5.058 1.037 6.173 3.95 1.593-2.913 4.062-3.91 6.73-3.91 5.417 0 8.324 3.432 8.324 9.098v10.894h-4.142V17.039c0-2.913-1.434-5.228-4.341-5.228s-4.779 2.395-4.779 5.308v10.814zM48.897 7.86c6.053 0 10.195 4.47 10.195 10.255 0 5.826-4.022 10.216-10.195 10.216-6.133 0-10.116-4.39-10.116-10.216 0-5.786 4.022-10.255 10.116-10.255zm0 3.79c-3.744 0-6.014 2.994-6.014 6.465 0 3.512 2.27 6.385 6.014 6.385 3.783 0 6.053-2.873 6.053-6.385 0-3.471-2.47-6.464-6.053-6.464zm29.39-1.276l-2.31 2.713c-1.552-1.436-3.225-1.835-5.176-1.835-2.51-.04-4.182.798-4.182 2.354.04 1.636 1.752 2.275 4.261 2.514 3.624.32 8.364 1.117 8.324 6.185-.04 3.671-3.266 6.225-8.364 6.225-3.186 0-6.372-.718-8.96-3.631l2.15-2.913c1.832 2.035 4.58 2.873 6.89 2.913 1.951 0 4.142-.718 4.182-2.554.04-1.756-1.633-2.434-4.54-2.713-3.704-.36-7.965-1.557-8.005-5.906 0-4.35 4.5-5.986 8.164-5.986 3.027 0 5.376.679 7.567 2.634zM83.307 0h4.102v11.173c1.712-2.394 4.022-3.192 6.372-3.192 5.536 0 8.084 3.71 8.084 9.337v10.615h-4.102V17.358c0-3.711-1.911-5.547-4.938-5.547-3.186 0-5.416 2.634-5.416 5.866v10.256h-4.102V0zm42.892 27.933h-4.142V17.398c0-3.392-1.912-5.666-5.297-5.666-3.266 0-5.496 2.673-5.496 5.905v10.296h-4.102V8.22h3.744l.239 2.873c1.871-2.115 4.062-3.152 6.61-3.152 4.78 0 8.444 3.392 8.444 9.417v10.575z"/>
        <path fill="#E63E54" d="M0 8.23h3.872v19.703H0z"/>
        <path fill="#E63E54" fill-rule="nonzero" d="M3.383 38.636h-.535v-2.287c0-.351-.107-.644-.323-.879a1.08 1.08 0 0 0-.834-.352c-.34 0-.618.118-.833.352-.216.235-.323.528-.323.88v2.286H0v-3.95h.503l.024.616c.234-.458.64-.687 1.22-.687.309 0 .59.074.846.224.255.149.436.378.542.687.128-.298.32-.525.575-.68.255-.154.537-.231.846-.231.5 0 .901.156 1.204.467.303.312.455.73.455 1.251v2.303H5.68v-2.303c0-.357-.103-.648-.31-.875-.208-.226-.482-.34-.822-.34-.34 0-.62.118-.838.352a1.241 1.241 0 0 0-.327.88v2.286zm5.8-4.021c.58 0 1.062.192 1.448.575.386.384.578.877.578 1.48 0 .607-.19 1.097-.57 1.47-.38.373-.866.56-1.456.56-.585 0-1.07-.188-1.452-.564-.383-.376-.575-.865-.575-1.467 0-.607.19-1.102.567-1.483.378-.38.864-.571 1.46-.571zm1.069.927c-.277-.293-.633-.44-1.07-.44-.435 0-.793.147-1.072.44-.28.293-.419.669-.419 1.127 0 .459.14.828.419 1.107.28.28.637.42 1.073.42.447 0 .807-.14 1.081-.42.274-.28.41-.648.41-1.107 0-.458-.14-.834-.422-1.127zm5.058-.008c-.282-.272-.635-.408-1.06-.408-.426 0-.783.143-1.07.428-.287.285-.43.652-.43 1.1 0 .452.141.823.426 1.11.285.288.642.432 1.073.432.426 0 .78-.136 1.061-.408.282-.271.423-.647.423-1.127 0-.485-.14-.86-.423-1.127zM12.2 33.04h.534v2.43c.144-.277.357-.489.638-.635.282-.147.586-.22.91-.22.574 0 1.05.181 1.424.543.375.363.563.864.563 1.503 0 .64-.187 1.14-.559 1.503-.372.362-.848.544-1.428.544-.707 0-1.223-.277-1.548-.832l-.032.76H12.2V33.04zm5.6 5.596h-.534V34.67h.534v3.965zm-.446-4.853c-.128-.064-.192-.175-.192-.335 0-.16.063-.272.188-.336a.398.398 0 0 1 .379 0c.127.064.191.176.191.336 0 .16-.062.271-.187.335a.398.398 0 0 1-.38 0zm1.747-.743h.534v5.596H19.1V33.04zm2.37 5.596h-.535V34.67h.534v3.965zm-.447-4.853c-.128-.064-.192-.175-.192-.335 0-.16.063-.272.188-.336a.398.398 0 0 1 .379 0c.127.064.191.176.191.336 0 .16-.062.271-.187.335a.398.398 0 0 1-.38 0zm1.452.904h3.007v.232l-2.33 3.205h2.338v.512H22.34v-.2l2.354-3.262h-2.218v-.487zm4.491 3.949h-.534V34.67h.534v3.965zm-.446-4.853c-.128-.064-.192-.175-.192-.335 0-.16.063-.272.188-.336a.398.398 0 0 1 .379 0c.127.064.191.176.191.336 0 .16-.062.271-.187.335a.398.398 0 0 1-.38 0zm5.345 4.853h-.543V36.42c0-.415-.114-.735-.343-.959-.228-.224-.542-.336-.941-.336a1.242 1.242 0 0 0-.93.396c-.241.259-.362.58-.362.963v2.15h-.535v-3.948h.51l.017.663c.313-.485.77-.727 1.372-.727.526 0 .95.154 1.272.463.322.31.483.752.483 1.327v2.223zm4.18-3.725l.415-.496.367.304-.422.503c.17.192.3.387.39.584.091.197.136.44.136.727 0 .373-.102.714-.307 1.024-.205.309-.499.52-.882.631.777.208 1.165.64 1.165 1.295 0 .469-.198.837-.594 1.103-.396.267-.874.4-1.432.4-.58 0-1.059-.147-1.436-.44-.378-.293-.564-.69-.559-1.19h.535a.916.916 0 0 0 .423.819c.287.194.633.291 1.037.291.404 0 .752-.082 1.045-.248.292-.165.439-.41.439-.735s-.147-.574-.44-.747c-.292-.174-.64-.26-1.044-.26-.617 0-1.116-.173-1.496-.52-.38-.346-.57-.82-.57-1.423 0-.602.208-1.076.626-1.423a2.19 2.19 0 0 1 1.44-.52c.473 0 .861.107 1.165.32zm-1.164.183c-.404 0-.76.124-1.065.372-.306.248-.46.604-.46 1.067 0 .47.143.828.428 1.075.284.248.65.372 1.097.372.447 0 .81-.141 1.093-.423.282-.283.423-.624.423-1.024 0-.463-.148-.82-.443-1.067a1.613 1.613 0 0 0-1.073-.372zm5.449-1.518l.534-.056v1.175h1.277v.455h-1.277v2.23c0 .272.05.478.148.616.098.139.273.208.523.208.164 0 .356-.05.574-.152l.168.448a1.788 1.788 0 0 1-.758.192c-.41.005-.71-.106-.902-.332-.191-.227-.287-.553-.287-.98v-2.23h-.806v-.455h.806v-1.12zm2.665-.536h.526v2.334c.298-.485.755-.733 1.372-.743.538 0 .946.161 1.225.483.28.323.419.758.419 1.307v2.215h-.535V36.42c0-.405-.098-.72-.295-.943-.197-.224-.49-.336-.877-.336-.378 0-.69.13-.934.392-.245.261-.367.586-.367.975v2.127h-.534V33.04zm8.465 3.845h-3.431c.037.405.195.725.475.96.279.234.618.351 1.017.351.25 0 .501-.048.754-.144.252-.096.445-.229.578-.4l.36.32a1.81 1.81 0 0 1-.743.544 2.457 2.457 0 0 1-.95.192c-.595 0-1.084-.187-1.467-.56-.383-.373-.575-.871-.575-1.495 0-.591.19-1.079.57-1.463.381-.383.864-.575 1.449-.575.627 0 1.13.193 1.508.58.377.386.529.95.455 1.69zm-3.431-.456h2.928c-.005-.415-.146-.742-.423-.979s-.62-.356-1.03-.356c-.398 0-.73.118-.996.352-.266.235-.426.562-.48.983zm8.768-1.742h.423l1.117 3.365 1.109-3.365h.59l-1.388 3.957h-.606l-.583-1.591-.447-1.495-.454 1.503-.583 1.583h-.606l-1.396-3.957h.59l1.117 3.365 1.117-3.365zm5.792-.072c.58 0 1.063.192 1.448.575.386.384.579.877.579 1.48 0 .607-.19 1.097-.57 1.47-.381.373-.866.56-1.457.56-.585 0-1.069-.188-1.452-.564-.383-.376-.574-.865-.574-1.467 0-.607.188-1.102.566-1.483.378-.38.864-.571 1.46-.571zm1.07.927c-.277-.293-.634-.44-1.07-.44-.436 0-.794.147-1.073.44-.28.293-.419.669-.419 1.127 0 .459.14.828.42 1.107.278.28.636.42 1.072.42.447 0 .807-.14 1.081-.42.274-.28.411-.648.411-1.107 0-.458-.14-.834-.423-1.127zm1.946-.855h.503l.031.647c.117-.245.29-.425.519-.54.229-.114.473-.171.734-.171.33 0 .628.093.894.28l-.248.447a1.172 1.172 0 0 0-.678-.208 1.208 1.208 0 0 0-.87.36c-.234.235-.35.53-.35.887v2.247h-.535v-3.95zm3.39-1.647h.535v5.596h-.534V33.04zm3.607 2.086c-.431 0-.786.135-1.065.404-.28.27-.42.646-.42 1.131 0 .48.142.856.424 1.127.282.272.635.408 1.06.408.426 0 .781-.144 1.066-.432.284-.287.427-.658.427-1.11 0-.448-.143-.815-.427-1.1a1.444 1.444 0 0 0-1.065-.428zm1.516-2.086h.534v5.596h-.518l-.016-.792c-.155.277-.371.49-.65.64-.28.149-.579.224-.898.224-.58 0-1.056-.182-1.428-.544-.373-.362-.559-.863-.559-1.503 0-.64.186-1.14.559-1.503.372-.362.848-.543 1.428-.543.324 0 .627.073.91.22.281.146.494.358.638.635v-2.43zm5.59 2.102l-.312.352c-.292-.266-.68-.4-1.165-.4-.308-.005-.565.048-.77.16-.204.112-.304.272-.299.48a.44.44 0 0 0 .184.36c.122.096.248.16.379.191.13.032.301.064.514.096l.375.06c.08.014.198.039.355.076.157.038.277.083.36.136.082.054.17.12.267.2.095.08.164.18.207.3.043.12.064.257.064.412a.991.991 0 0 1-.252.663c-.162.181-.36.308-.594.38a2.625 2.625 0 0 1-.774.108c-.787 0-1.37-.256-1.747-.768l.335-.367c.309.415.782.628 1.42.639.282 0 .532-.05.75-.152a.524.524 0 0 0 .327-.511.578.578 0 0 0-.08-.312.54.54 0 0 0-.263-.204 2.083 2.083 0 0 0-.347-.112 6.182 6.182 0 0 0-.45-.076 7.482 7.482 0 0 1-.46-.08 2.898 2.898 0 0 1-.41-.124 1.325 1.325 0 0 1-.36-.192.892.892 0 0 1-.23-.291.887.887 0 0 1-.096-.416c0-.378.157-.665.47-.86.314-.194.686-.289 1.117-.283.601 0 1.096.178 1.484.535zm-4.208-.68L75.867 33h.59l-.502 1.463H75.5zm10.888.68l-.311.352c-.293-.266-.68-.4-1.165-.4-.308-.005-.565.048-.77.16-.204.112-.304.272-.299.48a.44.44 0 0 0 .184.36c.122.096.248.16.379.191.13.032.301.064.514.096l.375.06c.08.014.198.039.355.076.157.038.277.083.36.136.082.054.17.12.266.2.096.08.165.18.208.3.042.12.064.257.064.412a.991.991 0 0 1-.252.663c-.162.181-.36.308-.594.38a2.625 2.625 0 0 1-.774.108c-.787 0-1.37-.256-1.747-.768l.335-.367c.308.415.782.628 1.42.639.282 0 .532-.05.75-.152a.524.524 0 0 0 .327-.511.578.578 0 0 0-.08-.312.54.54 0 0 0-.263-.204 2.083 2.083 0 0 0-.347-.112 6.182 6.182 0 0 0-.45-.076 7.482 7.482 0 0 1-.46-.08 2.898 2.898 0 0 1-.41-.124 1.325 1.325 0 0 1-.36-.192.892.892 0 0 1-.23-.291.887.887 0 0 1-.096-.416c0-.378.156-.665.47-.86.314-.194.686-.289 1.117-.283.601 0 1.096.178 1.484.535zm4.484 3.494h-.535v-2.287c0-.351-.107-.644-.323-.879a1.08 1.08 0 0 0-.833-.352c-.34 0-.619.118-.834.352-.216.235-.323.528-.323.88v2.286h-.535v-3.95h.503l.024.616c.234-.458.64-.687 1.22-.687.309 0 .59.074.846.224.255.149.436.378.543.687.127-.298.319-.525.574-.68.255-.154.537-.231.846-.231.5 0 .901.156 1.204.467.304.312.455.73.455 1.251v2.303h-.534v-2.303c0-.357-.104-.648-.312-.875-.207-.226-.48-.34-.821-.34-.34 0-.62.118-.838.352a1.241 1.241 0 0 0-.327.88v2.286zm7.34-3.166v-.783h.502v3.949h-.494v-.784c-.165.283-.39.497-.674.644-.285.146-.581.22-.89.22-.574 0-1.053-.19-1.436-.568-.383-.378-.574-.874-.574-1.487 0-.607.192-1.098.578-1.47.386-.374.866-.56 1.44-.56.32 0 .621.073.906.22.284.146.498.353.642.62zm-1.532-.352a1.45 1.45 0 0 0-1.069.432c-.287.288-.43.658-.43 1.111 0 .459.143.832.43 1.12a1.45 1.45 0 0 0 1.069.431c.277 0 .525-.057.746-.172.22-.114.387-.262.499-.444.111-.18.194-.38.247-.599a1.383 1.383 0 0 0 0-.66 2.059 2.059 0 0 0-.247-.603 1.236 1.236 0 0 0-.499-.444 1.595 1.595 0 0 0-.746-.172zm3.335-2.078h.534v5.596h-.534V33.04zm1.89 0h.535v5.596h-.534V33.04zm4.732 5.596h-.535V35.19h-.782v-.463h.782v-.328c0-.437.107-.78.32-1.027.212-.248.526-.372.94-.372.304 0 .586.093.847.28l-.232.4c-.223-.134-.425-.2-.606-.2-.49 0-.734.306-.734.919v.328h1.26v.463h-1.26v3.446zm2.058-5.596h.535v5.596h-.535V33.04zm5.561 3.845h-3.43c.037.405.195.725.474.96.28.234.618.351 1.017.351.25 0 .502-.048.754-.144.253-.096.446-.229.579-.4l.359.32a1.81 1.81 0 0 1-.742.544 2.457 2.457 0 0 1-.95.192c-.595 0-1.085-.187-1.468-.56-.383-.373-.574-.871-.574-1.495 0-.591.19-1.079.57-1.463.38-.383.863-.575 1.448-.575.628 0 1.13.193 1.508.58.378.386.53.95.455 1.69zm-3.43-.456h2.927c-.005-.415-.146-.742-.422-.979-.277-.237-.62-.356-1.03-.356-.399 0-.73.118-.997.352-.266.235-.425.562-.479.983zm8.105.456h-3.43c.037.405.195.725.474.96.28.234.619.351 1.018.351.25 0 .5-.048.754-.144.252-.096.445-.229.578-.4l.359.32a1.81 1.81 0 0 1-.742.544 2.457 2.457 0 0 1-.95.192c-.595 0-1.084-.187-1.467-.56-.383-.373-.575-.871-.575-1.495 0-.591.19-1.079.57-1.463.38-.383.864-.575 1.449-.575.627 0 1.13.193 1.508.58.377.386.529.95.454 1.69zm-3.43-.456h2.928c-.006-.415-.147-.742-.423-.979-.277-.237-.62-.356-1.03-.356-.398 0-.73.118-.997.352-.266.235-.425.562-.478.983zm4.795-2.853l.534-.056v1.175h1.277v.455h-1.277v2.23c0 .272.05.478.148.616.098.139.272.208.522.208.165 0 .357-.05.575-.152l.167.448a1.788 1.788 0 0 1-.758.192c-.41.005-.71-.106-.901-.332-.192-.227-.287-.553-.287-.98v-2.23h-.806v-.455h.806v-1.12zm5.544 1.566l-.31.352c-.293-.266-.682-.4-1.166-.4-.308-.005-.565.048-.77.16-.204.112-.304.272-.299.48a.44.44 0 0 0 .184.36c.122.096.249.16.379.191.13.032.302.064.514.096l.375.06c.08.014.199.039.355.076.157.038.277.083.36.136.082.054.171.12.267.2.095.08.165.18.207.3.043.12.064.257.064.412a.991.991 0 0 1-.251.663c-.163.181-.36.308-.595.38a2.625 2.625 0 0 1-.774.108c-.787 0-1.37-.256-1.747-.768l.335-.367c.309.415.782.628 1.42.639.282 0 .532-.05.75-.152a.524.524 0 0 0 .327-.511.578.578 0 0 0-.08-.312.54.54 0 0 0-.263-.204 2.083 2.083 0 0 0-.347-.112 6.182 6.182 0 0 0-.45-.076 7.482 7.482 0 0 1-.46-.08 2.898 2.898 0 0 1-.41-.124 1.325 1.325 0 0 1-.36-.192.892.892 0 0 1-.23-.291.887.887 0 0 1-.096-.416c0-.378.157-.665.47-.86.314-.194.687-.289 1.117-.283.602 0 1.096.178 1.484.535z"/>
    </g>
</svg>
