<svg xmlns="http://www.w3.org/2000/svg" xmlns:xlink="http://www.w3.org/1999/xlink" width="96" height="96" viewBox="0 0 96 96">
    <defs>
        <radialGradient id="a" r="99.519%" fx="50%" fy="50%">
            <stop offset="0%" stop-color="#FFF"/>
            <stop offset="100%" stop-color="#E63E54"/>
        </radialGradient>
        <circle id="c" cx="28.5" cy="28.5" r="28.5"/>
        <filter id="b" width="124.6%" height="124.6%" x="-12.3%" y="-8.8%" filterUnits="objectBoundingBox">
            <feOffset dy="2" in="SourceAlpha" result="shadowOffsetOuter1"/>
            <feGaussianBlur in="shadowOffsetOuter1" result="shadowBlurOuter1" stdDeviation="2"/>
            <feColorMatrix in="shadowBlurOuter1" values="0 0 0 0 0 0 0 0 0 0 0 0 0 0 0 0 0 0 0.172994974 0"/>
        </filter>
    </defs>
    <g fill="none" fill-rule="evenodd">
        <circle cx="48" cy="48" r="48" fill="url(#a)" opacity=".099"/>
        <circle cx="47" cy="49" r="36" fill="url(#a)" opacity=".33"/>
        <g transform="translate(19 20)">
            <use fill="#000" filter="url(#b)" xlink:href="#c"/>
            <use fill="#E63E54" xlink:href="#c"/>
        </g>
        <path fill="#9CBDFF" d="M35.056 34.394c.273-.7.568-1.39.875-2.03.582-1.215 1.101-1.977 1.781-2.497.681-.521 1.556-.825 2.845-1.12 2.65-.605 6.468-1.023 10.267-.997 3.138.022 6.259.348 8.683 1.122 1.03.329 1.764.65 2.316 1.137.545.483.934 1.151 1.287 2.185.235.689.448 1.47.636 2.289.212.92.392 1.88.536 2.807.249 1.598.246 2.124-.12 2.18v-.001c-.304.047-.82-.041-1.545-.164-.164-.028-.345-.06-.627-.105-3.47-.56-7.984-.896-12.528-1.006-4.681-.113-9.397.014-13.036.387l-.736.078c-.99.107-1.609.174-1.884.086-.205-.065-.045-.596.406-1.985.25-.77.536-1.579.844-2.366"/>
        <path fill="#1A1A1D" fill-opacity=".496" d="M35.931 32.364c.582-1.215 1.101-1.977 1.781-2.497.681-.521 1.556-.825 2.845-1.12 2.65-.605 6.468-1.023 10.267-.997 3.138.022 6.259.348 8.683 1.122 1.03.329 1.764.65 2.316 1.137.545.483.934 1.151 1.287 2.185.235.689.448 1.47.636 2.289.212.92.392 1.88.536 2.807.249 1.598.246 2.124-.12 2.18v-.001c-.304.047-.82-.041-1.545-.164-.164-.028-.345-.06-.627-.105-3.47-.56-7.984-.896-12.528-1.006-4.681-.113-9.397.014-13.036.387l-.736.078c-.99.107-1.609.174-1.884.086-.205-.065-.045-.596.406-1.985.25-.77.536-1.579.844-2.366.273-.7.568-1.39.875-2.03zm-2.366 7.127c.435.14 1.118.066 2.209-.052.238-.026.497-.054.732-.078 3.612-.37 8.291-.497 12.937-.384 4.508.109 8.982.443 12.42.998.164.025.399.066.621.103.8.136 1.37.233 1.798.168v-.002c1.005-.154 1.119-.889.779-3.074a41.157 41.157 0 0 0-.545-2.862 24.378 24.378 0 0 0-.658-2.366c-.4-1.17-.856-1.94-1.51-2.519-.647-.572-1.465-.934-2.6-1.296-2.504-.8-5.708-1.137-8.922-1.16-3.862-.026-7.747.4-10.445 1.016-1.399.32-2.362.66-3.151 1.265-.792.605-1.376 1.451-2.013 2.778a30.72 30.72 0 0 0-.896 2.085 44.292 44.292 0 0 0-.86 2.41c-.627 1.928-.814 2.676.104 2.97z"/>
        <path fill="#FFF" d="M39.385 29.147l.05-.013c.341-.095.71-.184 1.098-.267a158.787 158.787 0 0 0-2.749 9.389c-.361.034-.712.07-1.05.11a119.989 119.989 0 0 1 2.651-9.219M31.18 40.902c3.677-.95 10.637-1.37 17.587-1.248-6.525.37-10.36.77-14.966 1.48-1.843.284-2.856 1.392-4.668 1.666.183-1.208 1.001-1.627 2.047-1.898"/>
        <path fill="#E63E54" d="M65.298 42.525c3.815 0 7.371 3.115 7.535 6.862.265 6.062-3.033 10.211-8.866 16.062-5.833 5.851-21.546 7.995-30.717 1.083-9.171-6.911-11.014-12.262-10.006-18.443.525-3.221 3.577-5.485 6.99-5.564 3.775-.088 7.797 3.115 7.964 6.862 5.87 1.223 12.492 1.322 19.936.193.044-3.903 3.235-7.055 7.164-7.055z"/>
        <path fill="#B44D5A" d="M65.233 44.067a5.7 5.7 0 1 1 0 11.4 5.7 5.7 0 0 1 0-11.4"/>
        <path fill="#FFF" d="M65.233 44.7a5.067 5.067 0 1 1 0 10.133 5.067 5.067 0 0 1 0-10.133"/>
        <path fill="#9CBDFF" d="M65.55 46.6a3.483 3.483 0 1 1 0 6.966 3.483 3.483 0 0 1 0-6.966"/>
        <path fill="#000" d="M65.55 47.867a2.217 2.217 0 1 1 0 4.433 2.217 2.217 0 0 1 0-4.433M30.083 47.867a2.217 2.217 0 1 1 0 4.433 2.217 2.217 0 0 1 0-4.433"/>
        <path fill="#FFF" d="M64.6 47.233a1.267 1.267 0 1 1 0 2.533 1.267 1.267 0 0 1 0-2.533M29.134 47.233a1.267 1.267 0 1 1 0 2.533 1.267 1.267 0 0 1 0-2.533"/>
        <path fill="#B44D5A" d="M29.767 44.067a5.7 5.7 0 1 1 0 11.4 5.7 5.7 0 0 1 0-11.4"/>
        <path fill="#FFF" d="M29.767 44.7a5.067 5.067 0 1 1 0 10.133 5.067 5.067 0 0 1 0-10.133"/>
        <path fill="#9CBDFF" d="M30.083 46.6a3.483 3.483 0 1 1 0 6.967 3.483 3.483 0 0 1 0-6.967"/>
        <path fill="#000" d="M30.083 47.867a2.217 2.217 0 1 1 0 4.433 2.217 2.217 0 0 1 0-4.433"/>
        <path fill="#FFF" d="M29.134 47.233a1.267 1.267 0 1 1 0 2.533 1.267 1.267 0 0 1 0-2.533"/>
        <path fill="#B44D5A" d="M48.45 51.667c1.224 0 2.217.425 2.217.95 0 .525-.993.95-2.217.95-1.224 0-2.217-.425-2.217-.95 0-.525.993-.95 2.217-.95"/>
        <path fill="#FFF" d="M42.345 41.463c-1.114.53-1.53 1.802-.847 1.957.61.137 2.036-.798 3.01-1.1 1.081-.339 5.426-1.212 4.838-1.35-.483-.114-5.614-.168-7 .493"/>
        <path fill="#000" d="M34.846 55.143c6.332 1.328 13.724 1.895 23.456-2.21.14.27.458.697.598.968-3.138 11.915-13.246 8.504-24.7 1.838.16-.163.487-.433.646-.596"/>
        <path fill="#E63E54" d="M56.367 58.815c-1.93 2.231-4.796 2.714-8.234 2.116.812-1.039 2.81-1.822 4.775-2.142-.37.268-.462.603-.558.937.427-.463.966-.798 1.57-1.059.915-.072 1.775-.03 2.447.148"/>
        <path fill="#FFF" d="M36.1 56.107c6.023 1.196 13.042 1.476 22.11-2.54.017.033.036.07.057.107l-1.24 2.753c-.348.775-.437.849-1.226 1.176-5.049 2.092-12.508 2.148-17.613.521-.596-.19-.805-.237-1.168-.74l-.92-1.277"/>
        <path fill="#B44D5A" d="M30.4 57.337c2.506-.733 4.611-2.196 5.662-4.404.427 2.702-2.825 4.701-5.662 4.404M63.967 56.6c-2.978-.227-4.765-2.012-5.621-4.933-.577 2.909 2.062 5.718 5.62 4.933M58.262 59.9c-1.233 2.18-2.634 3.014-5.062 3.546 2.488.908 5.2-.702 5.062-3.546"/>
        <path fill="#000" d="M22.8 44.067c.244-5.175 5.04-6.683 7.6-3.134-2.725-.539-5.533-.157-7.6 3.134M71.944 45.333c1.31-4.478-2.665-7.15-6.077-4.868 2.672.33 5.147 1.467 6.077 4.868"/>
    </g>
</svg>
