<svg version="1.0" xmlns="http://www.w3.org/2000/svg" width="178.667" height="178.667" viewBox="0 0 134 134"><path d="M58.2 3c-3.5.8-10.5 4.2-13.2 6.3-2.7 2.1-8.9 10.2-9.9 13-.6 1.6-1.5 2.6-1.9 2.3-.5-.3-3.2.1-6 .9C1.2 32.3-8 63.1 9.9 83c3.2 3.6 3.8 4.8 3 6.7-.4 1.2-.6 5.3-.4 9 1.5 22.5 24.7 37.9 45.7 30.3 3.5-1.2 6.6-2.5 7.1-2.9.4-.4 3.3.5 6.5 2.1 12.9 6.4 30.9 2.2 40.7-9.4 6.3-7.4 9.4-19.1 7.6-28-.6-2.8-.2-3.7 3.2-7.1 3.6-3.6 7.4-10.3 8.6-15.2.2-1.1.5-5.4.5-9.5 0-6.1-.6-8.7-2.8-13.7-4.7-10.4-14.5-18-25.4-19.8-3.7-.6-4.5-1.2-6.2-4.6-2.7-5.1-7.6-10.6-12.1-13.4C78.5 2.7 67 .9 58.2 3z"/></svg>