<?xml version="1.0" encoding="UTF-8"?>
<svg width="39px" height="40px" viewBox="0 0 39 40" version="1.1" xmlns="http://www.w3.org/2000/svg" xmlns:xlink="http://www.w3.org/1999/xlink">
    <!-- Generator: Sketch 61.2 (89653) - https://sketch.com -->
    <title>500px</title>
    <desc>Created with Sketch.</desc>
    <defs>
        <polygon id="path-1" points="0 0.0243084018 38.9714347 0.0243084018 38.9714347 38.9959138 0 38.9959138"></polygon>
    </defs>
    <g id="Welcome" stroke="none" stroke-width="1" fill="none" fill-rule="evenodd">
        <g id="Menu_Expanded" transform="translate(-294.000000, -810.000000)">
            <g id="Social_Links" transform="translate(129.000000, 810.000000)">
                <g id="500px" transform="translate(165.000000, 0.000000)">
                    <path d="M38.4021797,19.7706437 C38.4021797,30.2178482 29.9329504,38.6870776 19.4857458,38.6870776 C9.03854123,38.6870776 0.569311878,30.2178482 0.569311878,19.7706437 C0.569311878,9.32315447 9.03854123,0.853925121 19.4857458,0.853925121 C29.9329504,0.853925121 38.4021797,9.32315447 38.4021797,19.7706437" id="Fill-1" fill="#BCBCBC"></path>
                    <g id="Group-5" transform="translate(0.000000, 0.260447)">
                        <mask id="mask-2" fill="white">
                            <use xlink:href="#path-1"></use>
                        </mask>
                        <g id="Clip-4"></g>
                        <path d="M19.4857173,1.16287523 C9.36898178,1.16287523 1.13856683,9.39357483 1.13856683,19.5103104 C1.13856683,29.6267613 9.36898178,37.8574609 19.4857173,37.8574609 C29.6024529,37.8574609 37.8328678,29.6267613 37.8328678,19.5103104 C37.8328678,9.39357483 29.6024529,1.16287523 19.4857173,1.16287523 M19.4857173,38.9960277 C8.74106218,38.9960277 0,30.2546809 0,19.5103104 C0,8.76565522 8.74106218,0.0243084018 19.4857173,0.0243084018 C30.2300878,0.0243084018 38.9714347,8.76565522 38.9714347,19.5103104 C38.9714347,30.2546809 30.2300878,38.9960277 19.4857173,38.9960277" id="Fill-3" fill="#FFFFFF" mask="url(#mask-2)"></path>
                    </g>
                    <path d="M23.8384583,18.4082915 C23.6076139,18.1597993 23.3645299,17.9095993 23.1342547,17.6482982 C22.4425754,16.8629717 21.6822974,16.1630378 20.6780814,15.8032506 C18.9574223,15.1864321 17.3278486,15.2928881 15.9282653,16.5757682 C15.4944713,16.9734127 15.1802269,17.5025616 14.806777,17.9770594 C14.2645345,16.9708509 13.4242722,16.266932 12.2273538,16.0614207 C11.0645924,15.8618868 9.97270684,16.0656903 8.94600421,16.7479765 C9.085194,15.9788746 9.22808414,15.2598696 9.33937905,14.5363104 C9.3820753,14.2587847 9.50475588,14.1967328 9.76548768,14.1987253 C11.2829126,14.2098264 12.8006222,14.1978714 14.3177625,14.2098264 C14.5967114,14.2118189 14.7028827,14.1406584 14.6892199,13.8471928 C14.6667332,13.354478 14.6835271,12.8600554 14.6829578,12.366202 C14.6826732,11.8845883 14.6823885,11.8828804 14.2124451,11.8825958 C12.0688084,11.8820265 9.92488704,11.88224 7.78125034,11.88224 L7.37335878,11.88224 C7.27572667,12.4646881 7.18948023,13.0092076 7.09241741,13.5520194 C6.77988082,15.3037044 6.46592101,17.0548202 6.14598374,18.8050821 C6.1041414,19.0327954 6.14939944,19.1503525 6.40329984,19.1506371 C6.78842007,19.1512064 7.17496351,19.1475061 7.55837589,19.1791013 C8.16466272,19.2286289 8.65766216,19.0111627 9.1091039,18.6266117 C9.29782136,18.4663585 9.5212651,18.3248915 9.75296345,18.2409222 C11.0398286,17.7738252 12.3457648,18.558867 12.5595307,19.9114844 C12.8100154,21.4966541 11.9131094,22.7436694 10.4978708,22.7786803 C9.46889102,22.8037288 8.73963897,22.2230597 8.51591059,21.1997728 C8.48089966,21.0400888 8.48915427,20.8675959 8.23297673,20.8721502 C7.47440658,20.8852437 6.71555179,20.8801201 5.95698164,20.8752812 C5.74492357,20.8741426 5.68600274,20.9786062 5.69881161,21.1693161 C5.77964986,22.3659498 6.19465747,23.3895214 7.19688092,24.1210506 C7.99957053,24.7068432 8.90871614,24.9872153 9.8850372,25.0666304 C11.3677358,25.1873184 12.7547949,24.9382569 13.8648975,23.8614574 C14.2713659,23.4672286 14.5910185,22.9833377 14.9542214,22.5358809 C15.000618,22.6155806 15.0598234,22.7186209 15.1201675,22.8205226 C15.551115,23.5520518 16.1218216,24.139837 16.8783993,24.53862 C18.6409007,25.4679752 20.8981095,25.0868399 22.4414368,23.5987331 C22.9159345,23.1410292 23.3912862,22.6838946 23.8774542,22.2159437 C23.9779327,22.330085 24.0636099,22.4302789 24.1527028,22.527911 C24.9980886,23.4518579 25.9391141,24.2448697 27.1292011,24.6971654 C29.4185743,25.5678844 31.8320514,24.6183197 32.7898707,22.4359717 C33.3964422,21.0546055 33.433161,19.6262734 32.9028735,18.2155891 C32.4175594,16.9244543 31.5092677,16.0173012 30.1612045,15.6563755 C28.5583871,15.2271358 27.046655,15.4289468 25.7614977,16.5652365 C25.1056832,17.1450516 24.4948421,17.7761023 23.8384583,18.4082915 M20.5850036,38.2441182 L18.4166031,38.2441182 C18.3132781,38.2213468 18.2108071,38.1943059 18.1066283,38.1766581 C16.9586683,37.9802553 15.7850905,37.8786382 14.6658793,37.5749255 C5.43893374,35.0709324 -0.512639714,25.8086913 1.46476622,16.0710985 C3.53581928,5.87324005 13.4766463,-0.517820193 23.6320931,1.75646705 C31.687738,3.56052618 37.6615135,10.8029498 37.9176911,19.0891545 C38.0295553,22.702681 37.2197496,26.0981719 35.3357061,29.1910887 C32.3170808,34.1461315 27.9281904,37.1075438 22.1872518,38.0349065 C21.6558257,38.1208683 21.1192761,38.1752349 20.5850036,38.2441182" id="Fill-6" fill="#000000"></path>
                    <path d="M22.257786,20.2530544 C22.0497129,20.075438 21.8473326,19.9373868 21.6876486,19.7603396 C21.1294663,19.1429518 20.4830449,18.6516602 19.7025574,18.3584792 C18.5998554,17.9440409 17.6229651,18.3744192 17.2173506,19.4663048 C16.9423868,20.2063732 16.9608885,20.9438799 17.4812135,21.5831851 C18.0080853,22.2301757 18.7199742,22.3719273 19.5055853,22.1988652 C20.6518375,21.946388 21.4280554,21.1604922 22.257786,20.2530544 M25.5140871,20.1989725 C26.0349814,21.0722533 27.54159,22.1228658 28.4165786,22.2435539 C29.0906102,22.3366317 29.7125523,22.2111047 30.1941661,21.6748398 C30.7620263,21.0423659 30.8701901,19.9550346 30.4426583,19.1699927 C30.0259428,18.4037373 29.2690805,18.0630212 28.3246393,18.2429147 C28.0804167,18.2893113 27.8102918,18.3553482 27.6195818,18.5005155 C26.906839,19.0433272 26.2217064,19.6228577 25.5140871,20.1989725 M23.8384014,18.4082915 C24.4947852,17.7761023 25.1056263,17.1450516 25.7614408,16.5652365 C27.0465981,15.4289468 28.5583302,15.2271358 30.1611476,15.6563755 C31.5092107,16.0173012 32.4175024,16.9244543 32.9028165,18.2155891 C33.433104,19.6262734 33.3963853,21.0546055 32.7898138,22.4359717 C31.8319944,24.6183197 29.418802,25.5678844 27.1291442,24.6971654 C25.9390572,24.2448697 24.9980317,23.4518579 24.1526458,22.527911 C24.063553,22.4302789 23.9778758,22.330085 23.8773973,22.2159437 C23.3912293,22.6841793 22.9161623,23.1410292 22.4416645,23.5987331 C20.8983372,25.0868399 18.6408438,25.4679752 16.8783424,24.53862 C16.1217647,24.139837 15.5510581,23.5520518 15.1201105,22.8208073 C15.0597665,22.7186209 15.000561,22.6155806 14.9541644,22.5358809 C14.5909616,22.9833377 14.271309,23.4672286 13.8651253,23.8614574 C12.754738,24.9382569 11.3679636,25.1873184 9.88526491,25.0666304 C8.90865921,24.9872153 7.99979824,24.7068432 7.19682399,24.1210506 C6.19460054,23.3895214 5.77959293,22.3659498 5.69875469,21.1693161 C5.68594581,20.9786062 5.74486664,20.8741426 5.95692471,20.8755659 C6.71549486,20.8801201 7.47434965,20.8852437 8.23320444,20.8721502 C8.48909734,20.8675959 8.48084273,21.0400888 8.51585366,21.1997728 C8.73958204,22.2230597 9.46883409,22.8037288 10.4980985,22.7786803 C11.9133371,22.7436694 12.8099585,21.4966541 12.5594737,19.9114844 C12.3457078,18.558867 11.0397717,17.7738252 9.75290652,18.2409222 C9.52120817,18.3248915 9.29776443,18.4663585 9.10933162,18.6266117 C8.65760523,19.0111627 8.16460579,19.2286289 7.55831896,19.1791013 C7.17519122,19.1475061 6.78836314,19.1512064 6.40324291,19.1506371 C6.14934251,19.1503525 6.10436912,19.0327954 6.14592681,18.8050821 C6.46614873,17.0548202 6.78010853,15.3037044 7.09264512,13.5520194 C7.18942331,13.0092076 7.27566974,12.4646881 7.37330185,11.88224 L7.78119341,11.88224 C9.92483011,11.88224 12.0687514,11.8820265 14.2123881,11.8825958 C14.6823316,11.8828804 14.6826162,11.8845883 14.6831855,12.366202 C14.6834702,12.8600554 14.6666763,13.354478 14.6894476,13.8471928 C14.7028258,14.1406584 14.5966544,14.2118189 14.3177056,14.2098264 C12.8005653,14.1981561 11.2828557,14.210111 9.76543075,14.1987253 C9.50469895,14.1967328 9.38201837,14.2587847 9.33932212,14.5363104 C9.22831185,15.2598696 9.08513707,15.9788746 8.94594728,16.7479765 C9.97264992,16.0656903 11.0645355,15.8618868 12.2272969,16.0614207 C13.4242153,16.266932 14.2644776,16.9708509 14.80672,17.9770594 C15.1801699,17.5025616 15.4944144,16.9736973 15.928493,16.5757682 C17.3277916,15.2928881 18.9573654,15.1864321 20.6783092,15.8032506 C21.6822405,16.1630378 22.4425185,16.8629717 23.1341978,17.6482982 C23.3644729,17.9095993 23.6078416,18.1597993 23.8384014,18.4082915" id="Fill-8" fill="#FFFFFF"></path>
                    <path d="M25.5140586,20.1988587 C26.2216779,19.6230285 26.9068105,19.0432133 27.6195534,18.5004016 C27.8102633,18.3552343 28.0803883,18.2894821 28.3246109,18.2428009 C29.269052,18.0631919 30.0259143,18.4036234 30.4426298,19.1698789 C30.8701616,19.9552054 30.7619978,21.042252 30.1941376,21.6750106 C29.7125238,22.2109909 29.0905817,22.3368025 28.4165501,22.2437247 C27.5415615,22.122752 26.034953,21.0721394 25.5140586,20.1988587" id="Fill-10" fill="#000000"></path>
                    <path d="M22.257786,20.2530544 C21.4280554,21.1604922 20.6518375,21.946388 19.5055853,22.1988652 C18.7199742,22.3719273 18.0080853,22.2301757 17.4812135,21.5831851 C16.9608885,20.9438799 16.9423868,20.2063732 17.2173506,19.4663048 C17.6229651,18.3744192 18.5998554,17.9440409 19.7025574,18.3584792 C20.4830449,18.6516602 21.1294663,19.1429518 21.6876486,19.7603396 C21.8473326,19.9373868 22.0497129,20.075438 22.257786,20.2530544" id="Fill-12" fill="#000000"></path>
                </g>
            </g>
        </g>
    </g>
</svg>