<svg width="23" height="24" viewBox="0 0 23 24" xmlns="http://www.w3.org/2000/svg"><g id="HABIT-WEBSITE" stroke="none" stroke-width="1" fill="none" fill-rule="evenodd"><g id="0.0.0_Hamburger_Open" transform="translate(-811 -472)" fill="#FEFEFE"><g id="Group-19" transform="translate(811 472)"><path d="M11.477 2.188c-3.06 0-3.421.012-4.627.07-1.115.053-1.721.247-2.125.411a3.538 3.538 0 00-1.315.893 3.73 3.73 0 00-.856 1.372c-.157.422-.343 1.054-.394 2.218-.055 1.258-.067 1.635-.067 4.828 0 3.192.012 3.57.067 4.828.05 1.163.237 1.796.394 2.217.208.557.456.955.856 1.373.4.418.781.676 1.315.893.403.163 1.01.358 2.125.411 1.206.057 1.567.07 4.627.07 3.06 0 3.421-.013 4.627-.07 1.116-.053 1.722-.248 2.125-.411a3.534 3.534 0 001.315-.893c.4-.418.648-.815.856-1.373.157-.42.343-1.053.394-2.217.055-1.262.067-1.64.067-4.828 0-3.188-.012-3.567-.067-4.828-.05-1.164-.237-1.797-.394-2.218a3.72 3.72 0 00-.856-1.372 3.537 3.537 0 00-1.315-.893c-.404-.164-1.01-.358-2.125-.411-1.206-.058-1.567-.07-4.627-.07m0 21.743c-3.094 0-3.5-.014-4.721-.072-1.105-.052-1.963-.224-2.78-.555a5.593 5.593 0 01-2.03-1.38 5.887 5.887 0 01-1.32-2.117c-.319-.853-.483-1.747-.533-2.9-.056-1.275-.07-1.699-.07-4.927 0-3.229.014-3.652.07-4.926.05-1.154.214-2.049.532-2.902a5.882 5.882 0 011.322-2.117A5.592 5.592 0 013.976.656C4.793.325 5.65.153 6.756.101 7.974.042 8.38.029 11.477.029s3.503.013 4.72.072c1.106.052 1.964.224 2.781.555.801.325 1.427.75 2.03 1.38a5.884 5.884 0 011.321 2.116c.318.854.482 1.749.532 2.902.056 1.275.07 1.698.07 4.926 0 3.227-.014 3.651-.07 4.926-.05 1.153-.214 2.048-.532 2.901a5.884 5.884 0 01-1.322 2.118 5.592 5.592 0 01-2.029 1.379c-.817.331-1.675.503-2.78.555-1.221.058-1.627.072-4.72.072" id="Fill-13"/><path d="M11.477 15.923c-2.087 0-3.779-1.766-3.779-3.943 0-2.178 1.692-3.943 3.779-3.943 2.087 0 3.779 1.765 3.779 3.943 0 2.177-1.692 3.943-3.779 3.943m0-10.017c-3.215 0-5.82 2.72-5.82 6.074 0 3.355 2.605 6.074 5.82 6.074 3.215 0 5.821-2.72 5.821-6.074 0-3.355-2.606-6.074-5.821-6.074" id="Fill-15"/><path d="M18.963 5.602c0 .792-.615 1.434-1.374 1.434-.759 0-1.374-.642-1.374-1.434 0-.792.615-1.434 1.374-1.434.759 0 1.374.642 1.374 1.434" id="Fill-17"/></g></g></g></svg>