<svg width="27" height="26" viewBox="0 0 27 26" xmlns="http://www.w3.org/2000/svg"><defs><linearGradient x1="50%" y1="99.709%" x2="50%" y2=".777%" id="linearGradient-1"><stop stop-color="#E09B3D" offset="0%"/><stop stop-color="#C74C4D" offset="30%"/><stop stop-color="#C21975" offset="60%"/><stop stop-color="#7024C4" offset="100%"/></linearGradient><linearGradient x1="50%" y1="146.099%" x2="50%" y2="-45.16%" id="linearGradient-2"><stop stop-color="#E09B3D" offset="0%"/><stop stop-color="#C74C4D" offset="30%"/><stop stop-color="#C21975" offset="60%"/><stop stop-color="#7024C4" offset="100%"/></linearGradient><linearGradient x1="50%" y1="658.141%" x2="50%" y2="-140.029%" id="linearGradient-3"><stop stop-color="#E09B3D" offset="0%"/><stop stop-color="#C74C4D" offset="30%"/><stop stop-color="#C21975" offset="60%"/><stop stop-color="#7024C4" offset="100%"/></linearGradient></defs><g id="HABIT-WEBSITE" stroke="none" stroke-width="1" fill="none" fill-rule="evenodd"><g id="0.0.1_Hamburger_Open" transform="translate(-822 -461)"><g id="029-instagram" transform="translate(822 461)"><path d="M18.957.5H8.043C3.608.5 0 3.841 0 7.948v10.104C0 22.16 3.608 25.5 8.043 25.5h10.914c4.435 0 8.043-3.341 8.043-7.448V7.948C27 3.84 23.392.5 18.957.5zm5.327 17.552c0 2.725-2.385 4.933-5.327 4.933H8.043c-2.942 0-5.327-2.208-5.327-4.933V7.948c0-2.725 2.385-4.933 5.327-4.933h10.914c2.942 0 5.327 2.208 5.327 4.933v10.104z" id="Shape" fill="url(#linearGradient-1)" fill-rule="nonzero"/><path d="M13 6.5c-3.86 0-7 2.916-7 6.5s3.14 6.5 7 6.5 7-2.916 7-6.5-3.14-6.5-7-6.5zm0 10.472c-2.362 0-4.277-1.778-4.277-3.972S10.638 9.028 13 9.028s4.277 1.778 4.277 3.972-1.915 3.972-4.277 3.972z" id="Shape" fill="url(#linearGradient-2)" fill-rule="nonzero"/><circle id="Oval" fill="url(#linearGradient-3)" cx="20.5" cy="7" r="1.5"/></g></g></g></svg>