<svg width="26" height="25" viewBox="0 0 26 25" xmlns="http://www.w3.org/2000/svg"><g id="HABIT-WEBSITE" stroke="none" stroke-width="1" fill="none" fill-rule="evenodd"><g id="0.0.1_Hamburger_Open" transform="translate(-776 -461)" fill="#475993"><g id="036-facebook" transform="translate(776 461)"><path d="M22.485 0H3.502C1.568 0 0 1.507 0 3.367V21.62c0 1.86 1.568 3.367 3.502 3.367h9.362l.016-8.93h-2.412a.559.559 0 01-.57-.544l-.011-2.878a.559.559 0 01.569-.55h2.408V9.304c0-3.227 2.05-4.985 5.044-4.985h2.457c.315 0 .57.245.57.548v2.427a.559.559 0 01-.57.547h-1.507c-1.629 0-1.944.745-1.944 1.837v2.407h3.578c.341 0 .606.286.565.612l-.354 2.878a.562.562 0 01-.566.483H16.93l-.016 8.929h5.57c1.935 0 3.502-1.507 3.502-3.367V3.367C25.986 1.507 24.42 0 22.485 0z" id="Path"/></g></g></g></svg>