<svg width="21" height="17" viewBox="0 0 21 17" xmlns="http://www.w3.org/2000/svg" xmlns:xlink="http://www.w3.org/1999/xlink"><defs><path id="path-1" d="M0 .026h20.986v16.902H0z"/></defs><g id="HABIT-WEBSITE" stroke="none" stroke-width="1" fill="none" fill-rule="evenodd"><g id="0.0.0_Hamburger_Open" transform="translate(-902 -476)"><g id="Group-10" transform="translate(902 476)"><mask id="mask-2" fill="#fff"><use xlink:href="#path-1"/></mask><path d="M6.601 16.928c-2.344 0-4.626-.663-6.601-1.917.344.034.69.055 1.034.055a8.748 8.748 0 005.34-1.826 4.29 4.29 0 01-4.023-2.96c.272.048.546.073.818.073.382 0 .761-.05 1.128-.149C2.28 9.808.794 7.986.842 5.97c.6.326 1.274.51 1.954.531A4.243 4.243 0 011.46.808a12.318 12.318 0 008.877 4.455 4.205 4.205 0 01.821-3.623A4.299 4.299 0 0114.531.026c1.187 0 2.333.491 3.145 1.348a8.697 8.697 0 002.73-1.037 4.242 4.242 0 01-1.89 2.365 8.871 8.871 0 002.47-.676 8.504 8.504 0 01-2.145 2.213c.15 3.282-1.145 6.677-3.463 9.08-1.589 1.646-4.402 3.609-8.777 3.609" id="Fill-8" fill="#FEFEFE" mask="url(#mask-2)"/></g></g></g></svg>