<svg width="26" height="21" viewBox="0 0 26 21" xmlns="http://www.w3.org/2000/svg"><g id="HABIT-WEBSITE" stroke="none" stroke-width="1" fill="none" fill-rule="evenodd"><g id="0.0.1_Hamburger_Open" transform="translate(-913 -464)" fill="#76A9EA"><g id="008-twitter" transform="translate(913 464)"><path d="M25.534 2.467a10.49 10.49 0 01-1.79.586A5.395 5.395 0 0025.218.777c.082-.249-.196-.464-.428-.33-.854.49-1.774.86-2.735 1.096a.738.738 0 01-.65-.157 5.692 5.692 0 00-3.7-1.356c-.591 0-1.187.09-1.773.266-1.814.546-3.213 1.998-3.652 3.79a5.627 5.627 0 00-.133 2 .191.191 0 01-.05.151.21.21 0 01-.174.067C7.952 5.946 4.37 4.09 1.84 1.077a.297.297 0 00-.48.036 5.304 5.304 0 00-.757 2.73c0 1.472.61 2.859 1.668 3.87a5.105 5.105 0 01-1.276-.48c-.194-.104-.432.03-.435.245-.027 2.187 1.292 4.133 3.268 5.009a5.16 5.16 0 01-1.062-.086c-.218-.04-.401.16-.334.365.642 1.944 2.366 3.376 4.429 3.702a10.545 10.545 0 01-5.782 1.704H.432a.425.425 0 00-.418.313c-.05.185.042.38.212.475a15.711 15.711 0 007.715 2.02c2.37 0 4.59-.457 6.593-1.358a14.531 14.531 0 004.823-3.509 15.298 15.298 0 002.954-4.802c.657-1.703 1.004-3.52 1.004-5.255v-.083c0-.278.13-.54.356-.719a10.855 10.855 0 002.225-2.37c.162-.236-.094-.532-.362-.417z" id="Path"/></g></g></g></svg>