<svg width="24" height="23" viewBox="0 0 24 23" xmlns="http://www.w3.org/2000/svg"><g id="HABIT-WEBSITE" stroke="none" stroke-width="1" fill="none" fill-rule="evenodd"><g id="0.0.1_Hamburger_Open" transform="translate(-869 -463)" fill="#0077B7" fill-rule="nonzero"><g id="027-linkedin" transform="translate(869 463)"><path d="M21.829 0H2.171C.972 0 0 .931 0 2.08v18.84C0 22.067.972 23 2.171 23h19.658C23.028 23 24 22.069 24 20.92V2.08C24 .932 23.028 0 21.829 0zM7.427 19.86a.619.619 0 01-.632.605h-2.69a.619.619 0 01-.631-.605V9.056c0-.335.283-.606.631-.606h2.69a.62.62 0 01.632.606V19.86zM5.45 7.432c-1.41 0-2.555-1.096-2.555-2.449 0-1.352 1.144-2.448 2.555-2.448 1.411 0 2.555 1.096 2.555 2.448 0 1.353-1.144 2.449-2.555 2.449zm16.031 12.476a.57.57 0 01-.58.557h-2.887a.57.57 0 01-.58-.557v-5.067c0-.756.23-3.313-2.062-3.313-1.779 0-2.14 1.75-2.212 2.535v5.845a.57.57 0 01-.58.557H9.787a.57.57 0 01-.58-.557V9.007a.57.57 0 01.58-.557h2.791a.57.57 0 01.581.557v.942c.66-.948 1.64-1.68 3.727-1.68 4.62 0 4.594 4.137 4.594 6.41v5.23z" id="Shape"/></g></g></g></svg>