<svg width="20" height="20" viewBox="0 0 20 20" xmlns="http://www.w3.org/2000/svg" xmlns:xlink="http://www.w3.org/1999/xlink"><defs><path id="path-1" d="M.026.005h12.696v13.71H.026z"/></defs><g id="HABIT-WEBSITE" stroke="none" stroke-width="1" fill="none" fill-rule="evenodd"><g id="0.0.0_Hamburger_Open" transform="translate(-858 -474)"><g id="Group-11" transform="translate(858 474)"><path id="Fill-1" fill="#FEFEFE" d="M0 19.954h4.1V6.512H0z"/><g id="Group-7"><path d="M2.479 4.955c1.334 0 2.415-1.1 2.415-2.455 0-1.356-1.08-2.455-2.415-2.455C1.145.045.064 1.145.064 2.5s1.08 2.455 2.415 2.455" id="Fill-2" fill="#FEFEFE"/><g id="Group-6" transform="translate(7.126 6.286)"><mask id="mask-2" fill="#fff"><use xlink:href="#path-1"/></mask><path d="M3.945 6.731c0-1.87.853-2.984 2.488-2.984 1.502 0 2.224 1.069 2.224 2.984v6.983h4.065V5.291c0-3.563-2.003-5.286-4.801-5.286-2.799 0-3.976 2.198-3.976 2.198V.411H.026v13.303h3.919V6.731z" id="Fill-4" fill="#FEFEFE" mask="url(#mask-2)"/></g></g></g></g></g></svg>