<svg xmlns="http://www.w3.org/2000/svg" width="40" height="40" viewBox="0 0 40 40"><path fill="#FFF" fill-rule="evenodd" d="M20 0c5.432 0 6.113.023 8.246.12 2.129.097 3.583.436 4.855.93a9.803 9.803 0 0 1 3.542 2.307 9.804 9.804 0 0 1 2.307 3.542c.494 1.272.833 2.726.93 4.855.097 2.133.12 2.814.12 8.246s-.023 6.113-.12 8.246c-.097 2.129-.436 3.583-.93 4.855a9.804 9.804 0 0 1-2.307 3.542 9.804 9.804 0 0 1-3.542 2.307c-1.272.494-2.726.833-4.855.93-2.133.097-2.814.12-8.246.12s-6.113-.023-8.246-.12c-2.129-.097-3.583-.436-4.855-.93a9.804 9.804 0 0 1-3.542-2.307 9.803 9.803 0 0 1-2.307-3.542c-.494-1.272-.833-2.726-.93-4.855C.023 26.113 0 25.432 0 20s.023-6.113.12-8.246c.097-2.129.436-3.583.93-4.855a9.803 9.803 0 0 1 2.307-3.542A9.803 9.803 0 0 1 6.899 1.05C8.171.556 9.625.217 11.754.12 13.887.023 14.568 0 20 0zm0 3.604c-5.34 0-5.973.02-8.082.116-1.95.09-3.009.415-3.713.689-.934.363-1.6.796-2.3 1.496-.7.7-1.133 1.366-1.496 2.3-.274.704-.6 1.763-.689 3.713-.096 2.11-.116 2.742-.116 8.082 0 5.34.02 5.973.116 8.082.09 1.95.415 3.009.689 3.713.363.934.796 1.6 1.496 2.3.7.7 1.366 1.133 2.3 1.496.704.274 1.763.6 3.713.689 2.109.096 2.741.116 8.082.116 5.34 0 5.973-.02 8.082-.116 1.95-.09 3.009-.415 3.713-.689.934-.363 1.6-.796 2.3-1.496.7-.7 1.133-1.366 1.496-2.3.274-.704.6-1.763.689-3.713.096-2.11.116-2.742.116-8.082 0-5.34-.02-5.973-.116-8.082-.09-1.95-.415-3.009-.689-3.713-.363-.934-.796-1.6-1.496-2.3-.7-.7-1.366-1.133-2.3-1.496-.704-.274-1.763-.6-3.713-.689-2.11-.096-2.742-.116-8.082-.116zm0 6.126c5.672 0 10.27 4.598 10.27 10.27S25.672 30.27 20 30.27 9.73 25.672 9.73 20 14.328 9.73 20 9.73zm0 16.937a6.667 6.667 0 1 0 0-13.334 6.667 6.667 0 0 0 0 13.334zM33.076 9.324a2.4 2.4 0 1 1-4.8 0 2.4 2.4 0 0 1 4.8 0z"/></svg>