<?xml version="1.0" encoding="UTF-8"?>
<svg width="39px" height="39px" viewBox="0 0 39 39" version="1.1" xmlns="http://www.w3.org/2000/svg" xmlns:xlink="http://www.w3.org/1999/xlink">
    <!-- Generator: Sketch 61.2 (89653) - https://sketch.com -->
    <title>Instagram</title>
    <desc>Created with Sketch.</desc>
    <defs>
        <polygon id="path-1" points="0 0.0240314945 38.527776 0.0240314945 38.527776 38.551695 0 38.551695"></polygon>
    </defs>
    <g id="Welcome" stroke="none" stroke-width="1" fill="none" fill-rule="evenodd">
        <g id="Menu_Expanded" transform="translate(-184.000000, -810.000000)">
            <g id="Social_Links" transform="translate(129.000000, 810.000000)">
                <g id="Instagram" transform="translate(55.000000, 0.000000)">
                    <path d="M37.9649776,19.545428 C37.9649776,29.873624 29.5922248,38.2463768 19.2637473,38.2463768 C8.93555126,38.2463768 0.562798467,29.873624 0.562798467,19.545428 C0.562798467,9.21695049 8.93555126,0.8441977 19.2637473,0.8441977 C29.5922248,0.8441977 37.9649776,9.21695049 37.9649776,19.545428" id="Fill-1" fill="#BCBCBC"></path>
                    <g id="Group-5" transform="translate(0.000000, 0.257480)">
                        <mask id="mask-2" fill="white">
                            <use xlink:href="#path-1"></use>
                        </mask>
                        <g id="Clip-4"></g>
                        <path d="M19.263888,1.14962843 C9.26239647,1.14962843 1.12545623,9.28656866 1.12545623,19.2880602 C1.12545623,29.2892704 9.26239647,37.4262106 19.263888,37.4262106 C29.2653796,37.4262106 37.4023198,29.2892704 37.4023198,19.2880602 C37.4023198,9.28656866 29.2653796,1.14962843 19.263888,1.14962843 M19.263888,38.5518075 C8.64162976,38.5518075 -0.000140699617,29.9100371 -0.000140699617,19.2880602 C-0.000140699617,8.66580195 8.64162976,0.0240314945 19.263888,0.0240314945 C29.8861463,0.0240314945 38.5279167,8.66580195 38.5279167,19.2880602 C38.5279167,29.9100371 29.8861463,38.5518075 19.263888,38.5518075" id="Fill-3" fill="#FFFFFF" mask="url(#mask-2)"></path>
                    </g>
                    <path d="M9.52471683,19.805666 L9.50389329,19.805666 C9.50389329,21.10967 9.48954193,22.4136741 9.51064687,23.7171153 C9.51937025,24.2576832 9.54891717,24.8083815 9.66232106,25.3343167 C10.2163961,27.9018033 12.3206996,29.5344817 15.1141498,29.5555866 C17.8707367,29.5761288 20.627605,29.5780985 23.3839105,29.5553052 C26.6543324,29.5282909 28.9350732,27.3057997 28.9930414,24.0342522 C29.0436933,21.1831152 29.0417235,18.3291642 28.9933228,15.4780272 C28.9390127,12.2712015 26.7035772,10.0374544 23.5322079,9.99805848 C20.6675637,9.96260218 17.8012311,9.95753699 14.9365869,10.0034051 C11.875526,10.0523685 9.67273283,12.1938167 9.5365356,15.2430588 C9.46871839,16.7612077 9.52471683,18.2847031 9.52471683,19.805666 M37.4685359,19.5262365 C37.450214,29.5735962 29.3450718,37.6728289 19.3359825,37.645322 C9.32830017,37.6173932 1.28000069,29.5651542 1.25715847,19.556909 C1.23413262,9.55710589 9.38204742,1.42269824 19.3981717,1.4454438 C29.4173914,1.46828492 37.4867959,9.54219173 37.4685359,19.5262365" id="Fill-6" fill="#000000"></path>
                    <path d="M19.2377742,27.7098328 L19.2377742,27.705049 C20.6501169,27.705049 22.0633039,27.7320633 23.4750838,27.6988582 C25.7803064,27.6448295 27.2154424,26.1739557 27.226417,23.8704216 C27.2396428,21.1400049 27.2385172,18.4095881 27.2269798,15.6791713 C27.2168494,13.2869964 25.7819947,11.7899525 23.3847547,11.7528078 C20.6146606,11.7100351 17.8431596,11.7122863 15.0730655,11.7519636 C12.7231005,11.7857315 11.3208881,13.1313827 11.2778341,15.4309772 C11.2246496,18.2691699 11.2373126,21.1090509 11.2744573,23.9478064 C11.297532,25.7391939 12.242752,27.0310978 13.802548,27.4951251 C14.2764243,27.6361062 14.7891337,27.6901348 15.2858033,27.7005466 C16.6024704,27.7278423 17.920263,27.7098328 19.2377742,27.7098328 L19.2377742,27.7098328 Z M9.52471683,19.8056097 C9.52471683,18.2846468 9.46871839,16.7611514 9.5365356,15.2430025 C9.67273283,12.1937604 11.875526,10.0523123 14.9365869,10.0033488 C17.8012311,9.95748071 20.6675637,9.9625459 23.5322079,9.9980022 C26.7035772,10.0373981 28.9390127,12.2711452 28.9933228,15.4779709 C29.0417235,18.3293893 29.0436933,21.1830589 28.9930414,24.034196 C28.9347918,27.3057435 26.6543324,29.5282346 23.3839105,29.5555303 C20.627605,29.5780423 17.8707367,29.5760725 15.1141498,29.5555303 C12.3206996,29.5344254 10.2161147,27.9020284 9.66232106,25.3345418 C9.54891717,24.8083253 9.51937025,24.257627 9.51064687,23.7173404 C9.48954193,22.4136178 9.50389329,21.1096137 9.50389329,19.8056097 L9.52471683,19.8056097 Z" id="Fill-8" fill="#FFFFFF"></path>
                    <path d="M25.6069081,14.5206225 C25.6280131,13.8416062 25.1375342,13.3094802 24.4703366,13.2878125 C23.8174904,13.2664262 23.2693247,13.7968637 23.2611641,14.4581519 C23.2530036,15.1087469 23.755864,15.6265215 24.4075846,15.6386217 C25.0750636,15.6510033 25.5866474,15.1740316 25.6069081,14.5206225 L25.6069081,14.5206225 Z M19.2005732,14.6936831 C16.3671643,14.7510885 14.1505826,17.0146639 14.2074252,19.7920744 C14.2642678,22.5635754 16.555139,24.7452637 19.3497148,24.6892652 C22.1625815,24.6329854 24.3377976,22.368003 24.2888341,19.5464129 C24.2426847,16.8987275 21.8735845,14.639373 19.2005732,14.6936831 L19.2005732,14.6936831 Z M19.2377179,27.7098046 C17.9202067,27.7098046 16.6024141,27.7280956 15.2857471,27.7005184 C14.7890774,27.6901067 14.276368,27.636078 13.8024917,27.495097 C12.2426957,27.0310697 11.2974757,25.7391658 11.274401,23.9477783 C11.2375377,21.1093042 11.2248747,18.2691417 11.2780592,15.4309491 C11.3208319,13.1313545 12.7230442,11.7857034 15.0730092,11.7519355 C17.8431033,11.7122582 20.6146043,11.710007 23.3846984,11.7527797 C25.7819385,11.7899244 27.2167932,13.2869683 27.2269235,15.6791432 C27.2384609,18.4095599 27.2395865,21.1399767 27.2263607,23.8703935 C27.2153862,26.174209 25.7802501,27.6448014 23.4750276,27.6991114 C22.0632476,27.7320352 20.6500606,27.7050208 19.2377179,27.7050208 L19.2377179,27.7098046 Z" id="Fill-10" fill="#000000"></path>
                    <path d="M22.4474982,19.6781358 C22.4353981,17.8867483 20.9802826,16.442326 19.1976185,16.4518464 C17.41608,16.4614612 15.9716577,17.9227674 15.9772693,19.7104967 C15.9826323,21.4903469 17.4526619,22.9485577 19.2299794,22.9376447 C21.0151762,22.9263272 22.4595984,21.4630512 22.4474982,19.6781358 M19.2004325,14.6937112 C21.8737252,14.6394012 24.2428254,16.8987556 24.2886934,19.546441 C24.3379383,22.3680311 22.1624408,24.6330135 19.3498555,24.6892934 C16.5552797,24.7452918 14.2641271,22.5636036 14.2075659,19.7921025 C14.1504419,17.0146921 16.367305,14.7511167 19.2004325,14.6937112" id="Fill-12" fill="#FFFFFF"></path>
                    <path d="M25.6069081,14.5206225 C25.5866474,15.1740316 25.0750636,15.6510033 24.4075846,15.6386217 C23.755864,15.6265215 23.2530036,15.1087469 23.2611641,14.4581519 C23.2693247,13.7968637 23.8174904,13.2664262 24.4703366,13.2878125 C25.1375342,13.3094802 25.6280131,13.8416062 25.6069081,14.5206225" id="Fill-14" fill="#FFFFFF"></path>
                    <path d="M22.4474982,19.6781358 C22.4595984,21.4630512 21.0151762,22.9263272 19.2299794,22.9376447 C17.4526619,22.9485577 15.9826323,21.4903469 15.9772693,19.7104967 C15.9716577,17.9227674 17.41608,16.4614612 19.1976185,16.4518464 C20.9802826,16.442326 22.4353981,17.8867483 22.4474982,19.6781358" id="Fill-16" fill="#000000"></path>
                </g>
            </g>
        </g>
    </g>
</svg>