<svg xmlns="http://www.w3.org/2000/svg" width="24" height="25" viewBox="0 0 24 25"><path fill="#FEFEFE" fill-rule="evenodd" d="M3.107 0A3.06 3.06 0 0 0 0 3.085v18.82C0 23.614 1.348 25 3.01 25h17.845c1.661 0 3.009-1.386 3.009-3.095V3.085c0-1.708-1.348-3.095-3.153-3.085H3.107zm5.178 13.02s.288-3.645 3.624-3.645c3.337 0 3.624 3.645 3.624 3.645s.106 3.647-3.624 3.647c-3.729 0-3.624-3.647-3.624-3.647zM20.71 20.5c-.007.834-.604 1.375-1.415 1.375H4.826c-.738 0-1.625-.541-1.72-1.374v-7.546c.095-.833.71-1.518 1.52-1.518h.829a.94.94 0 0 1 .163.015.63.63 0 0 1 .53.586c.003.05.002.1-.006.152-.005.036.077.074.072.108-.024.215.037.434.037.656 0 3.296 2.491 5.97 5.681 6.03-.036.002-.11.007-.147.007.036 0 .051-.005.088-.006.036 0 .061.006.098.006 3.24 0 5.862-2.703 5.863-6.036a5.85 5.85 0 0 0-.045-.656c-.004-.036-.004-.074-.008-.109a.776.776 0 0 1-.006-.152.63.63 0 0 1 .529-.586.92.92 0 0 1 .162-.015h.83c.81 0 1.415.601 1.415 1.521V20.5zm0-14.62c0 .779-.629 1.412-1.404 1.412h-1.334a1.408 1.408 0 0 1-1.403-1.413V4.536c0-.779.628-1.41 1.403-1.41h1.334c.775 0 1.405.631 1.405 1.41V5.88h-.001z"/></svg>