<svg xmlns="http://www.w3.org/2000/svg" width="32" height="25" viewBox="0 0 32 25"><path fill="#FEFEFE" fill-rule="evenodd" d="M31.167.463a13.557 13.557 0 0 1-4.179 1.531A6.686 6.686 0 0 0 22.19 0c-3.631 0-6.575 2.827-6.575 6.313 0 .494.058.976.17 1.437C10.32 7.487 5.476 4.974 2.233 1.155a6.079 6.079 0 0 0-.89 3.172c0 2.191 1.162 4.123 2.925 5.254a6.784 6.784 0 0 1-2.979-.792v.078c0 3.06 2.268 5.61 5.274 6.191a6.877 6.877 0 0 1-2.97.107c.837 2.508 3.265 4.333 6.141 4.385a13.55 13.55 0 0 1-8.166 2.701c-.53 0-1.054-.03-1.568-.086A19.189 19.189 0 0 0 10.08 25c12.094 0 18.707-9.618 18.707-17.961l-.022-.817a12.976 12.976 0 0 0 3.286-3.264c-1.18.501-2.445.843-3.776.994 1.358-.78 2.4-2.019 2.892-3.49"/></svg>