<svg width="182" height="58" viewBox="0 0 182 58" xmlns="http://www.w3.org/2000/svg"><defs><linearGradient x1="91.536%" y1="4.839%" x2="-37.559%" y2="71.968%" id="linearGradient-1"><stop stop-color="#00A0FF" offset="0%"/><stop stop-color="#00A1FF" offset=".657%"/><stop stop-color="#00BEFF" offset="26.01%"/><stop stop-color="#00D2FF" offset="51.22%"/><stop stop-color="#00DFFF" offset="76.04%"/><stop stop-color="#00E3FF" offset="100%"/></linearGradient><linearGradient x1="107.728%" y1="49.428%" x2="-130.665%" y2="49.428%" id="linearGradient-2"><stop stop-color="#FFE000" offset="0%"/><stop stop-color="#FFBD00" offset="40.87%"/><stop stop-color="orange" offset="77.54%"/><stop stop-color="#FF9C00" offset="100%"/></linearGradient><linearGradient x1="86.389%" y1="17.815%" x2="-49.888%" y2="194.393%" id="linearGradient-3"><stop stop-color="#FF3A44" offset="0%"/><stop stop-color="#C31162" offset="100%"/></linearGradient><linearGradient x1="-18.579%" y1="-54.527%" x2="42.275%" y2="24.69%" id="linearGradient-4"><stop stop-color="#32A071" offset="0%"/><stop stop-color="#2DA771" offset="6.85%"/><stop stop-color="#15CF74" offset="47.62%"/><stop stop-color="#06E775" offset="80.09%"/><stop stop-color="#00F076" offset="100%"/></linearGradient></defs><g id="Page-1" fill="none" fill-rule="evenodd"><g id="1-coursematch-landing" transform="translate(-150 -451)" fill-rule="nonzero"><g id="1-block" transform="translate(-386 -492)"><g id="download" transform="translate(536 943)"><g id="google-play-badge"><path d="M175.013 58H6.731C2.961 58 0 54.81 0 50.75V7.25C0 3.19 2.962 0 6.731 0h168.282c3.77 0 6.731 3.19 6.731 7.25v43.5c0 3.915-2.961 7.25-6.73 7.25z" id="Shape" fill="#000"/><g id="Group" transform="translate(55.196 9.7)" fill="#FFF" stroke="#FFF" stroke-width=".2"><path d="M8.616 5.09c0 1.16-.27 2.175-.942 2.9-.808.87-1.75 1.305-2.962 1.305-1.212 0-2.154-.435-2.962-1.305C.942 7.12.54 6.105.54 4.8s.402-2.32 1.21-3.19C2.558.74 3.5.305 4.712.305c.538 0 1.077.145 1.615.435.539.29.943.58 1.212 1.015l-.673.725c-.539-.725-1.212-1.015-2.154-1.015-.808 0-1.616.29-2.154 1.015-.673.58-.942 1.45-.942 2.465s.269 1.885.942 2.465c.673.58 1.346 1.015 2.154 1.015.942 0 1.615-.29 2.289-1.015a2.495 2.495 0 0 0 .673-1.74H4.712V4.655h3.904v.435zm6.193-3.625h-3.635V4.22h3.366v1.015h-3.366V7.99h3.635v1.16h-4.712V.45h4.712zm4.442 7.685h-1.077V1.465h-2.288V.45h5.654v1.015h-2.289zm6.193 0V.45h1.077v8.7zm5.654 0h-1.077V1.465h-2.288V.45h5.52v1.015h-2.29V9.15zm12.79-1.16c-.808.87-1.75 1.305-2.962 1.305-1.211 0-2.154-.435-2.962-1.305-.807-.87-1.211-1.885-1.211-3.19s.404-2.32 1.211-3.19c.808-.87 1.75-1.305 2.962-1.305 1.212 0 2.154.435 2.962 1.305.808.87 1.212 1.885 1.212 3.19s-.404 2.32-1.212 3.19zm-5.116-.725c.539.58 1.346 1.015 2.154 1.015.808 0 1.616-.29 2.154-1.015.539-.58.943-1.45.943-2.465s-.27-1.885-.943-2.465c-.538-.58-1.346-1.015-2.154-1.015-.808 0-1.615.29-2.154 1.015A3.638 3.638 0 0 0 37.83 4.8c0 1.015.269 1.885.942 2.465zM46.58 9.15V.45h1.212l3.904 6.815V.45h1.077v8.7h-1.077l-4.173-7.105V9.15z" id="Shape"/></g><path d="M91.68 31.61c-3.231 0-5.789 2.61-5.789 6.235 0 3.48 2.558 6.235 5.789 6.235s5.789-2.61 5.789-6.235c0-3.77-2.558-6.235-5.79-6.235zm0 9.86c-1.75 0-3.231-1.595-3.231-3.77s1.48-3.77 3.23-3.77c1.751 0 3.232 1.45 3.232 3.77 0 2.175-1.48 3.77-3.231 3.77zm-12.52-9.86c-3.231 0-5.79 2.61-5.79 6.235 0 3.48 2.559 6.235 5.79 6.235 3.23 0 5.789-2.61 5.789-6.235 0-3.77-2.558-6.235-5.79-6.235zm0 9.86c-1.75 0-3.231-1.595-3.231-3.77s1.48-3.77 3.23-3.77 3.232 1.45 3.232 3.77c0 2.175-1.481 3.77-3.231 3.77zm-14.944-7.975v2.61h5.79c-.135 1.45-.674 2.61-1.347 3.335-.808.87-2.154 1.885-4.443 1.885-3.635 0-6.327-3.045-6.327-6.96s2.827-6.96 6.327-6.96c1.885 0 3.366.87 4.443 1.885l1.75-1.885c-1.48-1.45-3.366-2.61-6.058-2.61-4.847 0-9.02 4.35-9.02 9.57 0 5.22 4.173 9.57 9.02 9.57 2.692 0 4.577-.87 6.193-2.755 1.615-1.74 2.154-4.205 2.154-6.09 0-.58 0-1.16-.135-1.595h-8.347zm61.12 2.03c-.538-1.45-1.884-3.915-4.846-3.915s-5.385 2.465-5.385 6.235c0 3.48 2.423 6.235 5.654 6.235 2.558 0 4.173-1.74 4.712-2.755l-1.885-1.45c-.673 1.015-1.48 1.74-2.827 1.74-1.346 0-2.154-.58-2.827-1.885l7.674-3.48-.27-.725zm-7.808 2.03c0-2.32 1.75-3.625 2.962-3.625.942 0 1.885.58 2.154 1.305l-5.116 2.32zm-6.327 5.945h2.558V25.375H111.2V43.5zm-4.04-10.585c-.672-.725-1.75-1.45-3.096-1.45-2.827 0-5.52 2.755-5.52 6.235 0 3.48 2.559 6.09 5.52 6.09 1.347 0 2.424-.725 2.962-1.45h.135v.87c0 2.32-1.212 3.625-3.097 3.625-1.48 0-2.557-1.16-2.827-2.175l-2.154 1.015c.673 1.595 2.289 3.625 5.116 3.625 2.962 0 5.385-1.885 5.385-6.38V31.9h-2.423v1.015zm-2.96 8.555c-1.751 0-3.232-1.595-3.232-3.77s1.481-3.77 3.231-3.77c1.75 0 3.096 1.595 3.096 3.77s-1.346 3.77-3.096 3.77zm32.848-16.095h-6.058V43.5h2.557v-6.815h3.5c2.828 0 5.52-2.175 5.52-5.655 0-3.48-2.692-5.655-5.52-5.655zm.134 8.7h-3.635V27.84h3.635c1.885 0 2.962 1.74 2.962 3.045-.135 1.595-1.212 3.19-2.962 3.19zm15.482-2.61c-1.884 0-3.77.87-4.442 2.755l2.288 1.015c.539-1.015 1.347-1.305 2.289-1.305 1.346 0 2.558.87 2.692 2.32v.145c-.403-.29-1.48-.725-2.557-.725-2.424 0-4.847 1.45-4.847 4.06 0 2.465 2.02 4.06 4.173 4.06 1.75 0 2.558-.87 3.231-1.74h.135v1.45h2.423v-6.96c-.269-3.19-2.558-5.075-5.385-5.075zm-.269 10.005c-.808 0-2.02-.435-2.02-1.595 0-1.45 1.482-1.885 2.693-1.885 1.077 0 1.616.29 2.289.58-.27 1.74-1.616 2.9-2.962 2.9zm14.136-9.57l-2.827 7.83h-.135l-2.962-7.83h-2.692l4.442 11.02-2.558 6.09h2.558l6.866-17.11h-2.692zm-22.617 11.6h2.558V25.375h-2.558V43.5z" id="Shape" fill="#FFF"/><g id="Group" transform="translate(13.122 10.15)"><path d="M.88.725c-.405.435-.674 1.16-.674 2.03V34.8c0 .87.27 1.595.673 2.03l.135.145 16.693-17.98v-.29L.88.725z" id="Shape" fill="url(#linearGradient-1)"/><path d="M23.227 25.085l-5.52-5.945v-.435l5.52-5.945.135.145 6.596 4.06c1.885 1.16 1.885 3.045 0 4.205l-6.73 3.915z" id="Shape" fill="url(#linearGradient-2)"/><path d="M23.362 24.94l-5.655-6.09L.88 36.975c.673.725 1.616.725 2.827.145l19.656-12.18" id="Shape" fill="url(#linearGradient-3)"/><path d="M23.362 12.76L3.706.725C2.495 0 1.552.145.88.87l16.828 17.98 5.655-6.09z" id="Shape" fill="url(#linearGradient-4)"/><g fill="#000" id="Shape"><path d="M22.886.145l-19.52 11.89c-1.077.725-2.02.58-2.693 0l-.134.145.134.145c.673.58 1.616.725 2.693 0L22.886.145z" opacity=".2" transform="translate(.34 24.65)"/><path d="M.539 12.035C.135 11.6 0 10.875 0 10.005v.145c0 .87.27 1.595.673 2.03v-.145H.54z" opacity=".12" transform="translate(.34 24.65)"/></g><path d="M29.958 20.735l-6.73 4.06.134.145 6.596-4.06c.943-.58 1.347-1.305 1.347-2.03 0 .725-.539 1.305-1.347 1.885z" id="Shape" fill="#000" opacity=".12"/><path d="M3.706.87l26.252 16.095c.808.58 1.347 1.16 1.347 1.885 0-.725-.404-1.45-1.347-2.03L3.706.725C1.822-.435.341.58.341 2.9v.145C.34.725 1.82-.29 3.706.87z" id="Shape" fill="#FFF" opacity=".25"/></g></g></g></g></g></g></svg>