<svg xmlns="http://www.w3.org/2000/svg" width="220" height="45" viewBox="0 0 220 45"><g fill="none" fill-rule="evenodd"><path stroke="#FFF" d="M.5 11.589V33.41c0 6.128 4.966 11.09 11.096 11.09h196.808c6.127 0 11.096-4.966 11.096-11.089V11.59C219.5 5.462 214.534.5 208.404.5H11.596C5.469.5.5 5.466.5 11.589z"/><path d="M34.86 8c8.208 0 14.86 6.218 14.86 13.889 0 7.67-6.652 13.889-14.86 13.889-1.481 0-2.912-.204-4.262-.581L25.538 38v-5.296C22.161 30.158 20 26.26 20 21.89 20 14.219 26.653 8 34.86 8zm1.477 18.704L44.46 18l-7.292 4.074L33.29 18l-8.122 8.704 7.384-4.074 3.784 4.074zm34.403-2.473c0-.516-.193-.948-.58-1.296-.387-.348-1.073-.64-2.058-.878-1.192-.284-2.121-.702-2.79-1.254-.667-.552-1.001-1.246-1.001-2.081 0-.877.36-1.61 1.079-2.198.72-.588 1.652-.882 2.797-.882 1.233 0 2.214.338 2.944 1.014.73.676 1.082 1.46 1.057 2.352l-.016.047h-1.455c0-.66-.218-1.195-.653-1.602-.436-.408-1.062-.611-1.877-.611-.758 0-1.34.171-1.745.514-.405.343-.607.79-.607 1.343 0 .49.22.898.658 1.226.438.328 1.15.615 2.135.863 1.187.294 2.09.727 2.708 1.3.62.572.929 1.282.929 2.128 0 .907-.371 1.637-1.114 2.19-.743.551-1.713.827-2.91.827-1.124 0-2.118-.304-2.983-.913-.864-.608-1.283-1.424-1.257-2.445l.016-.046h1.454c0 .722.266 1.271.797 1.648.532.376 1.19.565 1.973.565.769 0 1.378-.163 1.826-.488.45-.325.674-.766.674-1.323zm6.934 3.002c-1.166 0-2.093-.388-2.782-1.164-.689-.777-1.033-1.784-1.033-3.022v-.34c0-1.192.355-2.184 1.064-2.975.71-.792 1.549-1.188 2.518-1.188 1.13 0 1.984.34 2.562 1.021.577.681.866 1.589.866 2.724v.952h-5.432l-.023.038c.016.805.22 1.467.611 1.985.393.518.942.778 1.649.778.515 0 .968-.074 1.358-.22.389-.148.726-.35 1.01-.608l.595.99c-.3.294-.694.54-1.184.735-.49.196-1.083.294-1.78.294zm-.233-7.49c-.51 0-.946.216-1.307.646-.361.431-.583.971-.666 1.621l.016.039h3.86v-.201c0-.599-.159-1.099-.479-1.501-.32-.403-.794-.604-1.424-.604zm6.5-1.044l.108 1.245a3.04 3.04 0 0 1 1.049-1.033c.42-.245.899-.367 1.435-.367.903 0 1.602.264 2.097.793.495.529.743 1.345.743 2.449v5.285h-1.524v-5.254c0-.738-.146-1.261-.438-1.57-.291-.31-.736-.465-1.334-.465-.439 0-.827.106-1.165.317-.338.212-.607.5-.808.867v6.105h-1.525v-8.372h1.362zm7.297 4.34c0-1.346.287-2.432.863-3.257.575-.825 1.38-1.238 2.418-1.238.49 0 .924.09 1.303.27.38.181.703.444.971.79V15h1.525v12.07h-1.246l-.178-1.028a2.713 2.713 0 0 1-1.006.89c-.397.2-.859.301-1.385.301-1.021 0-1.82-.37-2.399-1.11-.577-.74-.866-1.714-.866-2.921v-.163zm1.524.163c0 .846.173 1.523.519 2.031.345.508.882.762 1.609.762.454 0 .836-.103 1.145-.31.31-.206.562-.494.758-.866v-3.907a2.347 2.347 0 0 0-.762-.824c-.312-.204-.687-.306-1.126-.306-.732 0-1.272.302-1.62.905-.349.604-.523 1.388-.523 2.352v.163zm13.78-6.523v2.02h1.587v1.13h-1.586v5.083c0 .392.081.668.244.828.162.16.377.24.646.24a1.776 1.776 0 0 0 .573-.108l.2 1.044c-.113.093-.28.169-.499.228-.219.06-.44.09-.661.09-.62 0-1.112-.188-1.478-.562-.366-.374-.55-.96-.55-1.76v-5.084h-1.33v-1.13h1.33V16.68h1.525zm3.111 6.128c0-1.238.336-2.258 1.006-3.06.67-.802 1.581-1.203 2.732-1.203 1.16 0 2.077.4 2.75 1.2.674.799 1.01 1.82 1.01 3.063v.17c0 1.249-.335 2.27-1.006 3.065-.67.794-1.583 1.191-2.739 1.191-1.155 0-2.07-.398-2.743-1.195s-1.01-1.817-1.01-3.06v-.17zm1.525.17c0 .888.187 1.62.56 2.198.375.578.93.867 1.668.867.728 0 1.28-.29 1.656-.867.377-.578.565-1.31.565-2.197v-.17c0-.878-.19-1.608-.569-2.19-.379-.583-.935-.875-1.667-.875-.728 0-1.278.292-1.652.875-.374.582-.561 1.312-.561 2.19v.17zm14.013-7.172l3.59 9.153h.046l3.59-9.153h1.95V27.07h-1.524v-4.457l.155-4.58-.039-.009-3.652 9.046h-1.013l-3.637-9.022-.039.007.147 4.558v4.457h-1.524V15.805h1.95zm15.158 11.428c-1.166 0-2.093-.388-2.782-1.164-.689-.777-1.033-1.784-1.033-3.022v-.34c0-1.192.355-2.184 1.064-2.975.71-.792 1.549-1.188 2.519-1.188 1.13 0 1.983.34 2.56 1.021.579.681.867 1.589.867 2.724v.952h-5.431l-.024.038c.016.805.22 1.467.612 1.985s.941.778 1.648.778c.516 0 .968-.074 1.358-.22.39-.148.726-.35 1.01-.608l.595.99c-.299.294-.693.54-1.184.735-.49.196-1.083.294-1.78.294zm-.232-7.49c-.511 0-.947.216-1.308.646-.361.431-.583.971-.665 1.621l.015.039h3.861v-.201c0-.599-.16-1.099-.48-1.501-.32-.403-.794-.604-1.423-.604zm10.005 5.107c0-.335-.128-.611-.384-.828-.255-.217-.738-.405-1.45-.565-1.017-.222-1.781-.522-2.295-.901-.513-.38-.77-.896-.77-1.552 0-.68.29-1.26.867-1.74.578-.48 1.331-.72 2.26-.72.975 0 1.75.25 2.325.75.575.5.85 1.11.824 1.827l-.016.046h-1.454c0-.366-.154-.695-.46-.987-.308-.291-.714-.437-1.22-.437-.541 0-.943.119-1.206.356a1.116 1.116 0 0 0-.395.859c0 .33.116.59.348.782.232.19.704.36 1.416.51 1.058.227 1.844.535 2.36.925.516.39.774.912.774 1.567 0 .743-.3 1.344-.902 1.803-.6.459-1.386.688-2.356.688-1.068 0-1.908-.27-2.522-.812-.614-.542-.906-1.174-.875-1.896l.016-.046h1.455c.025.541.227.937.603 1.187.377.25.818.376 1.323.376.542 0 .966-.11 1.273-.33.307-.218.46-.506.46-.862zm8.287 0a1.04 1.04 0 0 0-.383-.828c-.256-.217-.74-.405-1.451-.565-1.016-.222-1.781-.522-2.294-.901-.514-.38-.77-.896-.77-1.552 0-.68.288-1.26.866-1.74.578-.48 1.331-.72 2.26-.72.975 0 1.75.25 2.325.75.575.5.85 1.11.824 1.827l-.016.046h-1.454c0-.366-.154-.695-.46-.987-.308-.291-.714-.437-1.22-.437-.541 0-.943.119-1.206.356a1.116 1.116 0 0 0-.395.859c0 .33.116.59.348.782.232.19.704.36 1.416.51 1.058.227 1.844.535 2.36.925.516.39.774.912.774 1.567 0 .743-.3 1.344-.902 1.803-.6.459-1.386.688-2.356.688-1.067 0-1.908-.27-2.522-.812-.614-.542-.905-1.174-.875-1.896l.016-.046h1.455c.025.541.227.937.603 1.187.377.25.818.376 1.323.376.542 0 .966-.11 1.273-.33.307-.218.46-.506.46-.862zm6.894 2.383c-1.166 0-2.093-.388-2.782-1.164-.689-.777-1.033-1.784-1.033-3.022v-.34c0-1.192.355-2.184 1.064-2.975.71-.792 1.549-1.188 2.519-1.188 1.13 0 1.983.34 2.56 1.021.579.681.868 1.589.868 2.724v.952h-5.432l-.024.038c.016.805.22 1.467.612 1.985s.941.778 1.648.778c.516 0 .968-.074 1.358-.22.39-.148.726-.35 1.01-.608l.595.99c-.299.294-.693.54-1.183.735-.49.196-1.084.294-1.78.294zm-.232-7.49c-.511 0-.947.216-1.308.646-.361.431-.583.971-.665 1.621l.015.039h3.861v-.201c0-.599-.16-1.099-.48-1.501-.32-.403-.794-.604-1.423-.604zm6.5-1.044l.108 1.245a3.04 3.04 0 0 1 1.048-1.033c.42-.245.899-.367 1.435-.367.903 0 1.602.264 2.097.793.496.529.743 1.345.743 2.449v5.285h-1.524v-5.254c0-.738-.146-1.261-.437-1.57-.292-.31-.737-.465-1.335-.465-.439 0-.827.106-1.165.317a2.32 2.32 0 0 0-.808.867v6.105h-1.524v-8.372h1.361zm7.311 4.34c0-1.346.294-2.432.883-3.257.588-.825 1.4-1.238 2.437-1.238.531 0 .998.107 1.4.321.403.214.738.522 1.006.925l.186-1.091h1.215v8.418c0 1.073-.312 1.897-.936 2.472-.625.576-1.525.863-2.7.863-.403 0-.838-.055-1.305-.166a5.098 5.098 0 0 1-1.234-.453l.387-1.184c.273.155.604.28.99.376a4.77 4.77 0 0 0 1.146.143c.743 0 1.283-.17 1.62-.507.339-.338.508-.853.508-1.544v-.944a2.664 2.664 0 0 1-.983.793c-.382.178-.82.267-1.316.267-1.026 0-1.833-.371-2.421-1.114-.589-.743-.883-1.715-.883-2.917v-.163zm1.525.163c0 .84.178 1.517.534 2.027.356.51.897.766 1.625.766.459 0 .843-.104 1.153-.313.309-.21.564-.504.766-.886v-3.853a2.365 2.365 0 0 0-.766-.848c-.315-.209-.694-.313-1.138-.313-.727 0-1.271.304-1.633.913-.36.609-.541 1.39-.541 2.344v.163zm11.29 4.031c-1.167 0-2.094-.388-2.783-1.164-.688-.777-1.033-1.784-1.033-3.022v-.34c0-1.192.355-2.184 1.064-2.975.71-.792 1.55-1.188 2.519-1.188 1.13 0 1.983.34 2.561 1.021.578.681.867 1.589.867 2.724v.952h-5.432l-.023.038c.015.805.219 1.467.61 1.985.393.518.942.778 1.65.778.515 0 .968-.074 1.357-.22.39-.148.726-.35 1.01-.608l.596.99c-.3.294-.694.54-1.184.735-.49.196-1.084.294-1.78.294zm-.233-7.49c-.51 0-.947.216-1.308.646-.36.431-.583.971-.665 1.621l.015.039h3.861v-.201c0-.599-.16-1.099-.48-1.501-.32-.403-.794-.604-1.423-.604zm9.1.302l-.782-.046c-.402 0-.742.095-1.018.286-.276.19-.488.459-.638.805v5.98h-1.524V18.7h1.362l.147 1.222c.237-.433.53-.771.878-1.013a2.05 2.05 0 0 1 1.203-.364 2.154 2.154 0 0 1 .58.085l-.209 1.416z" fill="#FFF"/></g></svg>