<svg width="245" height="226" viewBox="0 0 245 226" xmlns="http://www.w3.org/2000/svg"><g id="Page-1" fill="none" fill-rule="evenodd"><g id="TN_M_03" transform="translate(-36 -517)"><g id="Group-3" transform="translate(37 514)"><g id="Group-11"><g id="Group-10" transform="translate(1 6)"><g id="Group-9"><path d="M230.402.278L.345 220.522" id="Fill-6" fill="#FEFEFE"/><path d="M230.402.278L.345 220.522" id="Stroke-8" stroke="#F9C1BD" stroke-width="4.775"/></g></g></g><path d="M0 24.555c0-3.381.587-6.386 1.761-9.016s2.747-4.884 4.72-6.763a20.305 20.305 0 0 1 6.833-4.297A22.518 22.518 0 0 1 21.414 3c2.818 0 5.518.493 8.101 1.48a20.305 20.305 0 0 1 6.833 4.296c1.972 1.879 3.546 4.133 4.72 6.763s1.76 5.635 1.76 9.016v58.89c0 3.381-.586 6.386-1.76 9.016s-2.748 4.884-4.72 6.763a20.305 20.305 0 0 1-6.833 4.297 22.518 22.518 0 0 1-8.1 1.479c-2.818 0-5.519-.493-8.101-1.48a20.305 20.305 0 0 1-6.833-4.296c-1.973-1.879-3.546-4.133-4.72-6.763S0 86.826 0 83.445v-58.89zm14.37 58.89c0 2.066.658 3.78 1.973 5.142 1.314 1.362 3.005 2.043 5.071 2.043 2.067 0 3.757-.681 5.072-2.043s1.973-3.076 1.973-5.142v-58.89c0-2.066-.658-3.78-1.973-5.142-1.315-1.362-3.005-2.043-5.072-2.043-2.066 0-3.757.681-5.071 2.043-1.315 1.362-1.973 3.076-1.973 5.142v58.89zm55.086 20.71V19.06l-14.37 10.566V14.412l14.37-10.567h14.37v100.31h-14.37zm90.544 44.4c0-3.381.587-6.386 1.761-9.016s2.747-4.884 4.72-6.763a20.305 20.305 0 0 1 6.833-4.297 22.518 22.518 0 0 1 8.1-1.479c2.818 0 5.518.493 8.101 1.48a20.305 20.305 0 0 1 6.833 4.296c1.972 1.879 3.546 4.133 4.72 6.763s1.76 5.635 1.76 9.016v58.89c0 3.381-.586 6.386-1.76 9.016s-2.748 4.884-4.72 6.763a20.305 20.305 0 0 1-6.833 4.297 22.518 22.518 0 0 1-8.1 1.479c-2.818 0-5.519-.493-8.101-1.48a20.305 20.305 0 0 1-6.833-4.296c-1.973-1.879-3.546-4.133-4.72-6.763S160 210.826 160 207.445v-58.89zm14.37 58.89c0 2.066.658 3.78 1.973 5.142 1.314 1.362 3.005 2.043 5.071 2.043 2.067 0 3.757-.681 5.072-2.043s1.973-3.076 1.973-5.142v-58.89c0-2.066-.658-3.78-1.973-5.142-1.315-1.362-3.005-2.043-5.072-2.043-2.066 0-3.757.681-5.071 2.043-1.315 1.362-1.973 3.076-1.973 5.142v58.89zm55.086 20.71V143.06l-14.37 10.566v-15.215l14.37-10.567h14.37v100.31h-14.37z" id="1" fill="#FFF"/></g></g></g></svg>