<svg width="201" height="184" viewBox="0 0 201 184" xmlns="http://www.w3.org/2000/svg"><g id="Page-1" fill="none" fill-rule="evenodd"><g id="TN_D_03" transform="translate(-944 -140)"><g id="Group-13" transform="translate(945 140)"><path id="Fill-1" fill="#FEFEFE" d="M118 99v10.436h6.642V182H135V99z"/><g id="Group-12"><path d="M161.347 160.113c2.01 8.153 6.625 13.111 13.956 13.111 8.873 0 13.128-8.03 13.128-16.063 0-7.798-4.255-15.947-13.365-15.947-5.794 0-9.461 2.836-11.591 4.963l-9.106-4.726 3.902-41.7h35.483v10.868h-26.257L165.25 133.3l.237.116c2.72-1.3 6.269-2.48 10.526-2.48 16.677 0 23.773 12.877 23.773 25.87 0 13.466-8.513 26.812-24.482 26.812-12.774 0-20.343-7.795-23.654-17.837l9.698-5.668z" id="Fill-2" fill="#FEFEFE"/><path id="Fill-4" fill="#FEFEFE" d="M7.297 81.988V10.937H.44V.719h17.554v81.269z"/><path id="Fill-6" fill="#FEFEFE" d="M39.03 81.988V10.937h-6.858V.719h17.554v81.269z"/><g id="Group-11" transform="translate(.873 5.026)"><path d="M182.928.28L.185 175.713" id="Fill-8" fill="#FEFEFE"/><path d="M182.928.28L.185 175.713" id="Stroke-10" stroke="#F9C1BD" stroke-width="4.353"/></g></g></g></g></g></svg>