<svg width="202" height="189" viewBox="0 0 202 189" xmlns="http://www.w3.org/2000/svg"><g id="Page-1" fill="none" fill-rule="evenodd"><g id="TN_D_03" transform="translate(-639 -130)"><g id="Group-2" transform="translate(640 130)"><g id="Group-11"><path id="Fill-1" fill="#FEFEFE" d="M0 0v10.559h7.424V84H19V0z"/><path id="Fill-2" fill="#FEFEFE" d="M33 0v10.559h7.424V84H52V0z"/><path id="Fill-3" fill="#FEFEFE" d="M120 105v10.56h6.644V189H137v-84z"/><g id="Group-10" transform="translate(1 5)"><path d="M179.383 120.892h-.238c-.357.712-2.023 4.992-3.213 7.487l-7.498 16.4c-1.904 4.157-3.81 7.96-5.235 10.81v.241h16.184v-34.938zm-.713 62.623v-17.823h-30.943l30.943-65.355h11.067v54.778h9.757v10.577h-9.757v17.823H178.67z" id="Fill-4" fill="#FEFEFE"/><g id="Group-9"><path d="M189.63.23L.285 181.954" id="Fill-6" fill="#FEFEFE"/><path d="M189.63.23L.285 181.954" id="Stroke-8" stroke="#F9C1BD" stroke-width="4.775"/></g></g></g></g></g></g></svg>