<svg width="69" height="42" viewBox="0 0 69 42" xmlns="http://www.w3.org/2000/svg" xmlns:xlink="http://www.w3.org/1999/xlink"><defs><path id="path-1" d="M0 .081h68.238v40.813H0z"/></defs><g id="Welcome" stroke="none" stroke-width="1" fill="none" fill-rule="evenodd"><g id="Homepage-" transform="translate(-262 -7534)"><g id="AJ_Footer_Icon" transform="translate(262.516 7533.956)"><g id="Group-3" transform="translate(0 .487)"><mask id="mask-2" fill="#fff"><use xlink:href="#path-1"/></mask><path d="M51.494 38.874l.001.983v-.983c8.155-.009 14.783-6.651 14.775-14.807L66.248 2.05 1.97 2.116l.037 36.808 49.487-.05zM.042 40.894L0 .15 68.213.08l.025 23.984c.01 9.242-7.501 16.768-16.742 16.778l-51.454.052z" id="Fill-1" fill="#231F20" mask="url(#mask-2)"/></g><path d="M25.796 22.526l3.936-6.03.006 6.026-3.942.004zM34.377 8.77a9.55 9.55 0 00-7.987 4.33L13.909 32.23l5.56-.006 3.534-5.417 6.74-.007.005 5.958 4.653-.005-.024-23.983z" id="Fill-4" fill="#231F20"/><path d="M51.867 8.77l-6.602.006 2.205-.001-6.203.006.072 4.278 5.88-.006.012 12.305a2.948 2.948 0 01-2.942 2.948 2.948 2.948 0 01-2.948-2.942l-.003-2.854-4.653.004v.001h-.012v.09l.012-.018.003 2.783c.004 4.189 3.416 7.594 7.606 7.59 4.19-.004 7.594-3.417 7.59-7.606l-.017-16.549.028-.035h-.028z" id="Fill-6" fill="#231F20"/></g></g></g></svg>