<svg width="246" height="229" viewBox="0 0 246 229" xmlns="http://www.w3.org/2000/svg"><g id="Page-1" fill="none" fill-rule="evenodd"><g id="TN_M_03" transform="translate(-36 -514)"><g id="Group-3" transform="translate(37 514)"><g id="Group-11"><g id="Group-10" transform="translate(1 6)"><g id="Group-9"><path d="M230.402.278L.345 220.522" id="Fill-6" fill="#FEFEFE"/><path d="M230.402.278L.345 220.522" id="Stroke-8" stroke="#F9C1BD" stroke-width="4.775"/></g></g></g><path d="M0 21.555c0-3.381.587-6.386 1.761-9.016s2.747-4.884 4.72-6.763a20.305 20.305 0 0 1 6.833-4.297A22.518 22.518 0 0 1 21.414 0c2.818 0 5.518.493 8.101 1.48a20.305 20.305 0 0 1 6.833 4.296c1.972 1.879 3.546 4.133 4.72 6.763s1.76 5.635 1.76 9.016v58.89c0 3.381-.586 6.386-1.76 9.016s-2.748 4.884-4.72 6.763a20.305 20.305 0 0 1-6.833 4.297 22.518 22.518 0 0 1-8.1 1.479c-2.818 0-5.519-.493-8.101-1.48a20.305 20.305 0 0 1-6.833-4.296c-1.973-1.879-3.546-4.133-4.72-6.763S0 83.826 0 80.445v-58.89zm14.37 58.89c0 2.066.658 3.78 1.973 5.142 1.314 1.362 3.005 2.043 5.071 2.043 2.067 0 3.757-.681 5.072-2.043s1.973-3.076 1.973-5.142v-58.89c0-2.066-.658-3.78-1.973-5.142-1.315-1.362-3.005-2.043-5.072-2.043-2.066 0-3.757.681-5.071 2.043-1.315 1.362-1.973 3.076-1.973 5.142v58.89zm38.039 20.71V87.63L78.33 38.743c1.315-2.442 2.067-4.579 2.255-6.41.187-1.832.281-4.11.281-6.833 0-1.221-.023-2.512-.07-3.874-.047-1.362-.305-2.56-.775-3.593a6.67 6.67 0 0 0-2.113-2.606c-.94-.705-2.301-1.057-4.086-1.057-2.16 0-3.874.61-5.142 1.832-1.268 1.22-1.902 3.005-1.902 5.353v8.172h-14.37v-7.89c0-3.006.563-5.823 1.69-8.453 1.128-2.63 2.677-4.931 4.65-6.903 1.878-1.973 4.132-3.546 6.762-4.72S70.959 0 73.964 0c3.757 0 6.974.68 9.65 2.043 2.677 1.362 4.908 3.217 6.693 5.565 1.69 2.348 2.935 5.025 3.733 8.03.798 3.006 1.198 6.199 1.198 9.58 0 2.442-.047 4.485-.141 6.129a37.082 37.082 0 0 1-.564 4.72 20.799 20.799 0 0 1-1.409 4.508c-.657 1.502-1.55 3.334-2.676 5.494L69.315 86.785h25.923v14.37h-42.83zm96.591 47.4c0-3.381.587-6.386 1.761-9.016s2.747-4.884 4.72-6.763a20.305 20.305 0 0 1 6.833-4.297 22.518 22.518 0 0 1 8.1-1.479c2.818 0 5.518.493 8.101 1.48a20.305 20.305 0 0 1 6.833 4.296c1.972 1.879 3.546 4.133 4.72 6.763s1.76 5.635 1.76 9.016v58.89c0 3.381-.586 6.386-1.76 9.016s-2.748 4.884-4.72 6.763a20.305 20.305 0 0 1-6.833 4.297 22.518 22.518 0 0 1-8.1 1.479c-2.818 0-5.519-.493-8.101-1.48a20.305 20.305 0 0 1-6.833-4.296c-1.973-1.879-3.546-4.133-4.72-6.763S149 210.826 149 207.445v-58.89zm14.37 58.89c0 2.066.658 3.78 1.973 5.142 1.314 1.362 3.005 2.043 5.071 2.043 2.067 0 3.757-.681 5.072-2.043s1.973-3.076 1.973-5.142v-58.89c0-2.066-.658-3.78-1.973-5.142-1.315-1.362-3.005-2.043-5.072-2.043-2.066 0-3.757.681-5.071 2.043-1.315 1.362-1.973 3.076-1.973 5.142v58.89zm38.039 20.71V214.63l25.922-48.887c1.315-2.442 2.067-4.579 2.255-6.41.187-1.832.281-4.11.281-6.833 0-1.221-.023-2.512-.07-3.874-.047-1.362-.305-2.56-.775-3.593a6.67 6.67 0 0 0-2.113-2.606c-.94-.705-2.301-1.057-4.086-1.057-2.16 0-3.874.61-5.142 1.832-1.268 1.22-1.902 3.005-1.902 5.353v8.172h-14.37v-7.89c0-3.006.563-5.823 1.69-8.453 1.128-2.63 2.677-4.931 4.65-6.903 1.878-1.973 4.132-3.546 6.762-4.72S219.96 127 222.964 127c3.757 0 6.974.68 9.65 2.043 2.677 1.362 4.908 3.217 6.693 5.565 1.69 2.348 2.935 5.025 3.733 8.03.798 3.006 1.198 6.199 1.198 9.58 0 2.442-.047 4.485-.141 6.129a37.082 37.082 0 0 1-.564 4.72 20.799 20.799 0 0 1-1.409 4.508c-.657 1.502-1.55 3.334-2.676 5.494l-21.133 40.716h25.923v14.37h-42.83z" id="2" fill="#FFF"/></g></g></g></svg>