<svg width="57" height="57" viewBox="0 0 57 57" xmlns="http://www.w3.org/2000/svg" xmlns:xlink="http://www.w3.org/1999/xlink"><defs><path id="path-1" d="M0 .247h56.074v56.074H0z"/></defs><g id="Welcome" stroke="none" stroke-width="1" fill="none" fill-rule="evenodd"><g id="Creativeish_Post" transform="translate(-692 -2484)"><g id="Play_Button" transform="translate(692 2483.5)"><g id="Group-3" transform="translate(0 .432)"><mask id="mask-2" fill="#fff"><use xlink:href="#path-1"/></mask><path d="M56.075 28.284c0 15.484-12.553 28.037-28.037 28.037C12.553 56.321 0 43.768 0 28.284 0 12.799 12.553.247 28.038.247c15.484 0 28.037 12.552 28.037 28.037" id="Fill-1" fill="#AD8637" mask="url(#mask-2)"/></g><path d="M16.667 28.759V10.946l2.158 1.089s17.621 9.7 25.764 14.326c1.85 1.051 1.84 3.722-.02 4.76L18.826 45.482c-.017 0-2.158 1.003-2.158 1.003l.028-17.77" id="Fill-4" fill="#FEFEFE"/></g></g></g></svg>