<?xml version="1.0" encoding="UTF-8"?>
<svg width="21px" height="22px" viewBox="0 0 21 22" version="1.1" xmlns="http://www.w3.org/2000/svg" xmlns:xlink="http://www.w3.org/1999/xlink">
    <!-- Generator: Sketch 55.2 (78181) - https://sketchapp.com -->
    <title>Group 5</title>
    <desc>Created with Sketch.</desc>
    <g id="Page-1" stroke="none" stroke-width="1" fill="none" fill-rule="evenodd">
        <g id="Search" transform="translate(-878.000000, -36.000000)" fill="#D4D4D4">
            <g id="Group-5" transform="translate(878.000000, 35.000000)">
                <path d="M10.7079103,-1.65628484 C11.5988609,-1.65206621 12.3200765,-0.930855108 12.3243008,-0.0399045671 L12.4385422,24.0551395 C12.4427151,24.9352547 11.7326235,25.6521119 10.8525082,25.6562848 C10.8474745,25.6563087 10.8424406,25.6563087 10.8374069,25.6562848 C9.94645636,25.6520662 9.2252407,24.9308551 9.22101645,24.0399046 L9.10677506,-0.0551394605 C9.10260218,-0.935254733 9.8126938,-1.65211191 10.6928091,-1.65628479 C10.6978428,-1.65630865 10.7028766,-1.65630867 10.7079103,-1.65628484 Z" id="Rectangle" transform="translate(10.772659, 12.000000) rotate(-41.000000) translate(-10.772659, -12.000000) "></path>
                <path d="M10.4352517,-1.65628484 C11.3262023,-1.65206621 12.0474179,-0.930855108 12.0516422,-0.0399045671 L12.1658836,24.0551395 C12.1700564,24.9352547 11.4599648,25.6521119 10.5798496,25.6562848 C10.5748158,25.6563087 10.569782,25.6563087 10.5647483,25.6562848 C9.67379773,25.6520662 8.95258208,24.9308551 8.94835783,24.0399046 L8.83411643,-0.0551394605 C8.82994356,-0.935254733 9.54003517,-1.65211191 10.4201504,-1.65628479 C10.4251842,-1.65630865 10.430218,-1.65630867 10.4352517,-1.65628484 Z" id="Rectangle-Copy-2" transform="translate(10.500000, 12.000000) scale(-1, 1) rotate(-41.000000) translate(-10.500000, -12.000000) "></path>
            </g>
        </g>
    </g>
</svg>