<svg width="161" height="20" viewBox="0 0 161 20" xmlns="http://www.w3.org/2000/svg"><g id="Page-1" fill="none" fill-rule="evenodd"><g id="TN_D_03" transform="translate(-233 -77)" fill="#FEFEFE"><g id="Group-9" transform="translate(233 77)"><path id="Fill-1" d="M142.04 1.073h-.018L142 4.564h.02l-.005 1.011 6.523.041-.088 14.349 5.859.035.086-14.349 6.556.041.007-1.012h.022l.02-3.491h-.02v-.074L142.042 1z"/><path id="Fill-2" d="M.028 0L.027.074l-.02 3.49L0 4.53l6.543.04-.09 14.395L12.31 19l.088-14.394 6.575.04.007-.967L19 .187V.114z"/><path id="Fill-3" d="M24.114.074l-.027 4.448-.014 2.568-.029 4.522-.016 2.567L24 18.7v.185L42.886 19v-.185l.021-3.289.007-1.233-13.2-.08.014-2.567 6.299.039.025-4.523-6.296-.039.017-2.566 13.199.08.008-.975L43 .188V.114L24.114 0z"/><path id="Fill-4" d="M118.114 1.072l-.027 4.45-.016 2.568-.027 4.521-.014 2.568-.029 4.52-.001.187 18.884.114v-.186l.023-3.29.006-1.231-13.199-.08.015-2.568 6.297.038.027-4.522-6.296-.038.016-2.567 13.199.079.005-.975.022-3.474.001-.073L118.114 1z"/><path id="Fill-5" d="M70.027.075l-.02 3.49L70 4.577l6.543.04-.088 14.347 5.856.037.087-14.349 6.575.04.007-1.01L89 .19V.115L70.028 0z"/><path id="Fill-6" d="M94 18.799v.088l5.813.035.066-10.902 7.195 10.945 5.812.035v-.087L113 .273l.001-.16-5.813-.034-.066 10.975L99.927.034 94.114 0z"/><path d="M65.6 11.45a3.326 3.326 0 0 0-.648-.895 5.932 5.932 0 0 0-.699-.587c-1-.805-3.833-1.95-7.484-2.866-3.179-.797-3.192-1.517-3.222-1.879.04-.539.286-.946.738-1.218.494-.297 1.137-.443 1.93-.437.745.004 1.364.189 1.854.552.492.365.783.88.875 1.551l6.705.04c-.06-1.956-.929-3.393-2.606-4.31-1.677-.917-3.92-1.383-6.733-1.4-1.707-.01-3.263.214-4.674.672-1.408.459-2.524 1.117-3.346 1.975-.823.858-1.237 1.86-1.244 3.004a4.26 4.26 0 0 0 .232 1.46l-.003-.001s.042.143.154.363a3.35 3.35 0 0 0 .702.95 4.5 4.5 0 0 0 .372.341c1.392 1.14 3.817 1.991 7.568 2.932 3.214.806 3.222 1.89 3.222 1.89.094.542-.09.903-.112.944-.116.148-.261.28-.437.4-.507.34-1.205.508-2.095.503-1.9-.013-2.927-.758-3.087-2.238L47 13.156c-.01 1.85.852 3.282 2.588 4.297 1.736 1.013 4.082 1.53 7.04 1.547 1.802.012 3.42-.239 4.853-.75 1.433-.51 2.543-1.201 3.33-2.067.785-.867 1.182-1.813 1.189-2.834.004-.723-.13-1.356-.4-1.898z" id="Fill-7"/></g></g></g></svg>