<svg width="118" height="15" viewBox="0 0 118 15" xmlns="http://www.w3.org/2000/svg" xmlns:xlink="http://www.w3.org/1999/xlink"><defs><path id="path-1" d="M0 45.714h171.429V.177H0z"/></defs><g id="Welcome" stroke="none" stroke-width="1" fill="none" fill-rule="evenodd"><g id="Creative_Hover" transform="translate(-77 -32)"><g id="Group-16" transform="translate(23 17)"><g id="AJ_Name" transform="translate(0 .109)"><path d="M91.203 21.818c.453 0 .81-.116 1.07-.35.259-.232.39-.575.39-1.028v-.88c0-.453-.131-.796-.39-1.03-.26-.233-.617-.35-1.07-.35h-3.198v3.638h3.198zm-3.198 7.676h-3.038V15.542h6.616c.64 0 1.22.108 1.739.32.52.214.963.517 1.329.91.367.393.65.862.85 1.409.2.547.3 1.152.3 1.82 0 .946-.211 1.77-.63 2.477-.42.707-1.057 1.219-1.909 1.54l2.739 5.476h-3.379l-2.438-5.117h-2.179v5.117z" id="Fill-4" fill="#191919"/><mask id="mask-2" fill="#fff"><use xlink:href="#path-1"/></mask><path id="Fill-6" fill="#191919" mask="url(#mask-2)" d="M99.744 29.495h2.959V15.542h-2.959z"/><path id="Fill-8" fill="#191919" mask="url(#mask-2)" d="M109.825 29.494l-4.498-13.952h3.079l2.078 6.696 1.1 4.378h.06l1.059-4.378 2.079-6.696h2.978l-4.537 13.952z"/><path id="Fill-9" fill="#191919" mask="url(#mask-2)" d="M123.716 29.494l-4.497-13.952h3.078l2.078 6.696 1.1 4.378h.06l1.06-4.378 2.078-6.696h2.978l-4.537 13.952z"/><path id="Fill-10" fill="#191919" mask="url(#mask-2)" d="M134.27 29.494V15.542h9.494v2.698h-6.456v2.839h5.537v2.699h-5.537v3.018h6.456v2.698z"/><path d="M153.439 21.818c.453 0 .81-.116 1.07-.35.259-.232.388-.575.388-1.028v-.88c0-.453-.13-.796-.389-1.03-.26-.233-.616-.35-1.07-.35h-3.197v3.638h3.198zm-3.198 7.676h-3.039V15.542h6.617c.64 0 1.218.108 1.738.32.52.214.963.517 1.33.91.366.393.648.862.85 1.409.2.547.3 1.152.3 1.82 0 .946-.212 1.77-.631 2.477-.42.707-1.056 1.219-1.909 1.54l2.738 5.476h-3.377l-2.44-5.117h-2.177v5.117z" id="Fill-11" fill="#191919" mask="url(#mask-2)"/><path d="M165.991 29.734c-1.226 0-2.265-.21-3.118-.63a7.172 7.172 0 01-2.18-1.63l2-2.023c.946 1.057 2.112 1.585 3.498 1.585.747 0 1.3-.152 1.659-.455.36-.305.54-.707.54-1.21 0-.382-.107-.703-.32-.96-.213-.257-.647-.432-1.299-.525l-1.38-.178c-1.479-.187-2.561-.634-3.247-1.34-.687-.708-1.03-1.65-1.03-2.823 0-.627.12-1.2.36-1.721a3.78 3.78 0 011.03-1.34c.445-.374.992-.665 1.638-.87.646-.208 1.383-.311 2.21-.311 1.05 0 1.978.167 2.778.5a5.63 5.63 0 012.058 1.461l-2.018 2.042a4.06 4.06 0 00-1.21-.939c-.473-.244-1.07-.366-1.789-.366-.68 0-1.186.119-1.52.356-.332.237-.499.567-.499.99 0 .475.13.817.39 1.028.26.211.682.363 1.27.455l1.378.22c1.44.227 2.505.67 3.199 1.33.693.66 1.04 1.599 1.04 2.813 0 .666-.121 1.28-.36 1.84-.24.56-.59 1.04-1.05 1.441-.46.4-1.03.71-1.71.931-.68.22-1.452.329-2.318.329" id="Fill-12" fill="#191919" mask="url(#mask-2)"/><path d="M61.227 18.285h-.1l-1.543 5.308h3.205l-1.562-5.308zm3.304 11.218l-1.001-3.325h-4.667l-1.001 3.325h-3.085l4.607-13.981h3.766l4.547 13.98H64.53z" id="Fill-13" fill="#191919" mask="url(#mask-2)"/><path d="M77.535 15.522h-6.224l.04 2.513h3.452v7.226c0 .953-.776 1.73-1.73 1.73a1.732 1.732 0 01-1.729-1.73v-1.676h-2.74v.052l.008-.01v1.634a4.467 4.467 0 004.462 4.462 4.467 4.467 0 004.461-4.462v-9.718l.017-.021h-.017z" id="Fill-14" fill="#191919" mask="url(#mask-2)"/></g></g></g></g></svg>