<svg xmlns="http://www.w3.org/2000/svg" width="375" height="1940" viewBox="0 0 375 1940"><path fill="#F7F7F7" fill-rule="evenodd" d="M1274.525 1864.206v61.357c-60.41 16.4-119.977 29.43-174 36.143-257.5 32-409.536-94.176-702.5-89.5-194.622 3.106-430.32 72.698-566.628 119.068 0-50.855.979-412.635 2.1-810.465C-168.108 674.489-170 55.545-170-45.13-34.963-4.441 141.483 38.287 293.025 40.706c292.964 4.676 445-121.5 702.5-89.5 87.198 10.836 188.845 38.128 285.155 69.488 2.674 209.856 2.674 1843.512 2.674 1843.512h-8.83z"/></svg>