<svg width="1440" height="1016" viewBox="0 0 1440 1016" xmlns="http://www.w3.org/2000/svg"><g id="Page-1" fill="none" fill-rule="evenodd"><g id="5-hovers-copy" transform="translate(0 -2017)" fill="#F7F7F7"><g id="articles" transform="translate(-2 2017)"><g id="bg-copy-2"><path d="M1442.446 888.5v60.977c-60.41 16.4-118.424 29.81-172.446 36.523-257.5 32-409.537-94.176-702.5-89.5-194.623 3.106-430.321 72.698-566.628 119.068V103h.2c-.127-37.958-.2-69.672-.2-92.42C135.909 51.268 310.958 92.581 462.5 95c292.963 4.676 445-121.5 702.5-89.5 84.875 10.548 183.438 36.685 277.446 66.99 2.573.83.095 816.01.095 816.01h-.095z" id="bg"/></g></g></g></g></svg>