<svg width="1440" height="1115" viewBox="0 0 1440 1115" xmlns="http://www.w3.org/2000/svg" xmlns:xlink="http://www.w3.org/1999/xlink"><defs><path id="path-1" d="M0 0h1440v1135H0z"/></defs><g id="Page-1" fill="none" fill-rule="evenodd"><g id="5-hovers-copy" transform="translate(0 -856)"><g id="2-block" transform="translate(0 852)"><g id="elements2"><mask id="mask-2" fill="#fff"><use xlink:href="#path-1"/></mask><path d="M527.606 453.443l-41.918-41.07-19.945 62.629 61.863-21.56zM483.113 402L538 455.774 457 484l26.113-82z" id="6" fill="#F7F7F7" mask="url(#mask-2)" transform="matrix(-1 0 0 1 995 0)"/><path d="M287.983 9.626c-2.672 0-5.289.75-7.57 2.17-6.733 4.183-8.805 13.06-4.62 19.786 2.643 4.252 7.212 6.787 12.224 6.787 2.672 0 5.29-.75 7.573-2.167 6.73-4.186 8.802-13.063 4.617-19.788-2.643-4.25-7.212-6.788-12.224-6.788zM288.017 44c-6.972 0-13.329-3.533-17.007-9.442-5.824-9.365-2.94-21.72 6.427-27.543A19.975 19.975 0 0 1 287.983 4c6.972 0 13.329 3.529 17.007 9.442 5.824 9.362 2.94 21.718-6.427 27.538A19.974 19.974 0 0 1 288.017 44z" id="3" fill="#F7F7F7" mask="url(#mask-2)" transform="matrix(-1 0 0 1 576 0)"/><path d="M1295.323 422.094h54.771v-54.771h-54.771v54.771zM1286 432h74v-74h-74v74z" id="12" fill="#F7F7F7" mask="url(#mask-2)" transform="matrix(-1 0 0 1 2646 0)"/><path id="4" fill="#F7F7F7" mask="url(#mask-2)" transform="matrix(-1 0 0 1 728 0)" d="M334 74.368L363.635 44 394 73.632 364.37 104z"/><path d="M28.373 243a42.58 42.58 0 0 1 7.279.87L-.764 322.98a44.855 44.855 0 0 1-5.279-5.211L28.373 243zm-16.594 2.692a42.447 42.447 0 0 1 8.716-2.252l-31.209 67.801a45.418 45.418 0 0 1-3.829-8.37l26.322-57.179zM-17 288c0-15.194 7.334-28.622 18.555-36.778l-18.43 40.037a46.822 46.822 0 0 1-.125-3.26zm81.424-23.24a45.462 45.462 0 0 1 3.827 8.368l-26.32 57.18a42.452 42.452 0 0 1-8.715 2.254l31.208-67.801zm-22.022-18.876c2.18.85 4.274 1.874 6.271 3.055l-37.366 81.18a43.008 43.008 0 0 1-6.272-3.055l37.367-81.18zm9.751 78.893l18.43-40.034c.074 1.076.127 2.16.127 3.257 0 15.193-7.333 28.621-18.557 36.777zm2.319-71.756a44.5 44.5 0 0 1 5.279 5.213L25.335 333a42.832 42.832 0 0 1-7.278-.868l36.415-79.111z" id="1" fill="#F7F7F7" mask="url(#mask-2)"/><path d="M508.29 1049c1.932.068 3.824.29 5.661.677l-28.323 61.529a34.886 34.886 0 0 1-4.106-4.052L508.29 1049zm-12.906 2.094a33.014 33.014 0 0 1 6.779-1.752l-24.274 52.734a35.325 35.325 0 0 1-2.978-6.51l20.473-44.472zM473 1084c0-11.817 5.704-22.262 14.432-28.605l-14.334 31.14A36.417 36.417 0 0 1 473 1084zm63.33-18.075a35.36 35.36 0 0 1 2.976 6.508l-20.47 44.473a33.018 33.018 0 0 1-6.78 1.753l24.274-52.734zm-17.129-14.682a33.45 33.45 0 0 1 4.878 2.376l-29.063 63.14a33.45 33.45 0 0 1-4.877-2.376l29.062-63.14zm7.585 61.362l14.333-31.138c.059.837.1 1.68.1 2.533 0 11.817-5.704 22.261-14.433 28.605zm1.803-55.811a34.61 34.61 0 0 1 4.106 4.054L505.927 1119a33.315 33.315 0 0 1-5.66-.675l28.322-61.531z" id="8" fill="#F7F7F7" mask="url(#mask-2)"/><path id="7" fill="#F7F7F7" mask="url(#mask-2)" transform="rotate(135 26.723 1010.723)" d="M105.723 1089.723h-158l79-158z"/><path d="M1089.59 275.249C1129.415 211.222 1198.26 173 1273.766 173c40.22 0 79.683 11.337 114.07 32.68 101.431 63.018 132.613 196.759 69.565 298.107C1417.613 567.814 1348.768 606 1273.26 606c-40.255 0-79.719-11.301-114.105-32.643-101.396-63.055-132.614-196.796-69.565-298.108zm22.44 367.303c-140.964-87.587-184.379-273.548-96.722-414.457C1070.665 139.106 1166.343 86 1271.265 86c56.005 0 110.894 15.677 158.697 45.376 141 87.623 184.378 273.584 96.721 414.529C1471.363 634.822 1375.684 688 1270.762 688c-56.04 0-110.93-15.748-158.732-45.448z" id="11" fill="#F7F7F7" mask="url(#mask-2)"/><path d="M162.106 490.378C216.002 403.728 309.173 352 411.36 352c54.43 0 107.839 15.343 154.376 44.226 137.272 85.287 179.472 266.284 94.146 403.445C606.036 886.32 512.864 938 410.677 938c-54.48 0-107.888-15.294-154.425-44.178C119.03 808.487 76.78 627.49 162.106 490.378zm30.177 497.094C1.443 868.895-57.333 617.137 61.339 426.372 136.282 305.896 265.813 234 407.86 234c75.82 0 150.13 21.223 214.847 61.43C813.594 414.056 872.32 665.814 753.649 856.628 678.755 977.007 549.224 1049 407.178 1049c-75.869 0-150.179-21.32-214.895-61.528z" id="5" fill="#F7F7F7" mask="url(#mask-2)"/><path d="M789 1068.5c0-8.56 6.94-15.5 15.5-15.5 8.56 0 15.5 6.94 15.5 15.5 0 8.563-6.94 15.5-15.5 15.5-8.56 0-15.5-6.937-15.5-15.5z" id="9" fill="#F7F7F7" mask="url(#mask-2)"/><path d="M1182.678 892c1.187.042 2.35.178 3.478.416l-17.399 37.796a21.43 21.43 0 0 1-2.522-2.49L1182.678 892zm-7.928 1.286a20.28 20.28 0 0 1 4.164-1.076l-14.91 32.394a21.7 21.7 0 0 1-1.83-3.999l12.576-27.319zM1161 913.5c0-7.26 3.504-13.675 8.865-17.572l-8.805 19.129a22.37 22.37 0 0 1-.06-1.557zm38.903-11.103a21.72 21.72 0 0 1 1.828 3.997l-12.575 27.32c-1.33.5-2.723.863-4.164 1.077l14.91-32.394zm-10.522-9.02a20.64 20.64 0 0 1 2.996 1.46l-17.853 38.786a20.548 20.548 0 0 1-2.996-1.46l17.853-38.785zm4.659 37.694l8.805-19.127c.036.514.061 1.032.061 1.556 0 7.259-3.504 13.675-8.866 17.571zm1.108-34.283c.907.756 1.75 1.59 2.522 2.49L1181.227 935a20.464 20.464 0 0 1-3.478-.414l17.399-37.798z" id="10" fill="#F7F7F7" mask="url(#mask-2)"/><path d="M1006.678 88c1.187.042 2.35.178 3.478.416l-17.399 37.796a21.43 21.43 0 0 1-2.522-2.49L1006.678 88zm-7.928 1.286a20.28 20.28 0 0 1 4.164-1.076l-14.91 32.394a21.7 21.7 0 0 1-1.83-3.999l12.576-27.319zM985 109.5c0-7.26 3.504-13.675 8.865-17.572l-8.805 19.129a22.37 22.37 0 0 1-.06-1.557zm38.903-11.103a21.72 21.72 0 0 1 1.828 3.997l-12.575 27.32c-1.33.5-2.723.863-4.164 1.077l14.91-32.394zm-10.522-9.02a20.64 20.64 0 0 1 2.996 1.46l-17.853 38.786a20.548 20.548 0 0 1-2.996-1.46l17.853-38.785zm4.659 37.694l8.805-19.127c.036.514.061 1.032.061 1.556 0 7.259-3.504 13.675-8.866 17.571zm1.108-34.283c.907.756 1.75 1.59 2.522 2.49L1005.227 131a20.464 20.464 0 0 1-3.478-.414l17.399-37.798z" id="13" fill="#F7F7F7" mask="url(#mask-2)"/><path d="M126.451 105.378C135.557 90.738 151.297 82 168.561 82c9.195 0 18.218 2.592 26.08 7.472 23.191 14.408 30.32 44.986 15.906 68.158-9.097 14.64-24.838 23.37-42.101 23.37-9.204 0-18.227-2.584-26.09-7.463-23.182-14.417-30.32-44.995-15.905-68.16zm5.107 84.204c-32.314-20.078-42.266-62.707-22.172-95.009C122.076 74.173 144.01 62 168.061 62a68.892 68.892 0 0 1 36.379 10.402c32.322 20.086 42.266 62.715 22.172 95.025C213.93 187.81 191.997 200 167.945 200c-12.846 0-25.429-3.61-36.387-10.418z" id="2" fill="#F7F7F7" mask="url(#mask-2)"/><path d="M805 200.5c0-8.56 6.94-15.5 15.5-15.5 8.56 0 15.5 6.94 15.5 15.5 0 8.563-6.94 15.5-15.5 15.5-8.56 0-15.5-6.937-15.5-15.5z" id="14" fill="#F7F7F7" mask="url(#mask-2)"/></g></g></g></g></svg>