<svg width="1536" height="662" viewBox="0 0 1536 662" xmlns="http://www.w3.org/2000/svg"><g id="Page-1" fill="none" fill-rule="evenodd"><g id="1-coursematch-landing-copy-2" transform="translate(-14 -3672)" fill="#F7F7F7"><g id="Group-2" transform="translate(14 3672)"><g id="bg"><path d="M1053.59 249.249C1093.415 185.222 1162.26 147 1237.766 147c40.22 0 79.683 11.337 114.07 32.68 101.431 63.018 132.613 196.759 69.565 298.107C1381.613 541.814 1312.768 580 1237.26 580c-40.255 0-79.719-11.301-114.105-32.643-101.396-63.055-132.614-196.796-69.565-298.108zm22.44 367.303c-140.964-87.587-184.379-273.548-96.722-414.457C1034.665 113.106 1130.343 60 1235.265 60c56.005 0 110.894 15.677 158.697 45.376 141 87.623 184.378 273.584 96.721 414.529C1435.363 608.822 1339.684 662 1234.762 662c-56.04 0-110.93-15.748-158.732-45.448z" id="Fill-39"/><path d="M54.952 251c3.008.105 5.954.452 8.815 1.054l-44.103 95.81a54.324 54.324 0 0 1-6.393-6.31L54.952 251zm-20.097 3.26a51.408 51.408 0 0 1 10.556-2.727L7.613 333.647a55.007 55.007 0 0 1-4.637-10.136l31.879-69.25zM0 305.5c0-18.401 8.882-34.665 22.472-44.542L.152 309.447A56.707 56.707 0 0 1 0 305.5zm98.614-28.145a55.06 55.06 0 0 1 4.635 10.133l-31.876 69.25a51.414 51.414 0 0 1-10.556 2.731l37.797-82.114zm-26.672-22.862a52.087 52.087 0 0 1 7.595 3.7L34.283 356.51a52.087 52.087 0 0 1-7.596-3.7l45.255-98.317zm11.81 95.548l22.32-48.486c.09 1.304.155 2.617.155 3.944 0 18.401-8.882 34.665-22.475 44.542zm2.808-86.905a53.895 53.895 0 0 1 6.394 6.314L51.272 360a51.875 51.875 0 0 1-8.814-1.05l44.102-95.814z" id="8"/><path id="Fill-68" transform="scale(-1 1) rotate(-68 0 1088.993)" d="M450.979 363.541l46.25-.562-22.557 46.25z"/><path d="M711.14 78.911h54.771V24.14H711.14v54.77zm-9.323 9.906h74v-74h-74v74z" id="Fill-7" transform="scale(-1 1) rotate(-37 0 2259.907)"/></g></g></g></g></svg>